<svg width="32" height="32" viewBox="0 0 32 32" xmlns="http://www.w3.org/2000/svg">
<path d="M21.125 11.875V10.5C21.125 7.46727 18.6577 5 15.625 5C12.5923 5 10.125 7.46727 10.125 10.5V11.875H6V23.5625C6 25.461 7.53901 27 9.4375 27H21.8125C23.711 27 25.25 25.461 25.25 23.5625V11.875H21.125ZM12.875 10.5C12.875 8.98363 14.1086 7.75 15.625 7.75C17.1414 7.75 18.375 8.98363 18.375 10.5V11.875H12.875V10.5ZM19.75 15.6562C19.1804 15.6562 18.7188 15.1946 18.7188 14.625C18.7188 14.0554 19.1804 13.5938 19.75 13.5938C20.3195 13.5938 20.7812 14.0554 20.7812 14.625C20.7812 15.1946 20.3195 15.6562 19.75 15.6562ZM11.5 15.6562C10.9304 15.6562 10.4688 15.1946 10.4688 14.625C10.4688 14.0554 10.9304 13.5938 11.5 13.5938C12.0696 13.5938 12.5312 14.0554 12.5312 14.625C12.5312 15.1946 12.0696 15.6562 11.5 15.6562Z"/>
</svg>
