<svg width="32" height="32" viewBox="0 0 32 32" xmlns="http://www.w3.org/2000/svg">
<path d="M17.1008 5.00003H16.5508C14.9287 4.9959 13.3257 5.37556 11.8753 6.10817C8.33995 7.87509 6.10333 11.4917 6.1018 15.4487L6.10872 15.8539C6.15337 17.0676 6.41251 18.2642 6.87309 19.3874L7.00812 19.7003L5.05834 25.5504L5.02601 25.6673C4.84618 26.4823 5.62885 27.2152 6.44962 26.9417L12.2997 24.9908L12.6127 25.1269C13.8607 25.6387 15.1996 25.9017 16.5537 25.8982C20.5083 25.8967 24.1249 23.6601 25.8939 20.1205C26.6244 18.6743 27.0041 17.0713 27 15.4463V14.8992C26.7109 9.63129 22.6237 5.4519 17.4551 5.02208L17.1008 5.00003ZM16.548 7.19989L17.0546 7.19883L17.0402 7.19823C21.2274 7.42926 24.5707 10.7726 24.8018 14.9598L24.8001 15.4492C24.8034 16.7305 24.5047 17.9917 23.9283 19.1329C22.5296 21.9314 19.6744 23.6972 16.5504 23.6984C15.2695 23.7017 14.0083 23.403 12.8671 22.8266L12.733 22.7697C12.5048 22.6902 12.2552 22.6877 12.0234 22.7649L7.83964 24.1593L9.23506 19.9766C9.3278 19.6984 9.30559 19.3947 9.17337 19.1329C8.59696 17.9917 8.29826 16.7305 8.30159 15.452C8.30281 12.3256 10.0686 9.47039 12.8629 8.0738C14.0083 7.4953 15.2695 7.19659 16.548 7.19989Z" />
</svg>
