<svg width="32" height="32" viewBox="0 0 32 32" xmlns="http://www.w3.org/2000/svg">
<path fill-rule="evenodd" clip-rule="evenodd" d="M16 7C11.0294 7 7 11.0294 7 16C7 20.9706 11.0294 25 16 25C20.9706 25 25 20.9706 25 16C25 11.0294 20.9706 7 16 7ZM5 16C5 9.92487 9.92487 5 16 5C22.0751 5 27 9.92487 27 16C27 22.0751 22.0751 27 16 27C9.92487 27 5 22.0751 5 16ZM16 9C16.5523 9 17 9.44772 17 10V15.382L20.4472 17.1056C20.9412 17.3526 21.1414 17.9532 20.8944 18.4472C20.6474 18.9412 20.0468 19.1414 19.5528 18.8944L15.5528 16.8944C15.214 16.725 15 16.3788 15 16V10C15 9.44772 15.4477 9 16 9Z"/>
</svg>
