<svg width="32" height="32" viewBox="0 0 32 32" xmlns="http://www.w3.org/2000/svg">
<path fill-rule="evenodd" clip-rule="evenodd" d="M7.37658 7.37658C7.87868 6.87447 8.69275 6.87447 9.19485 7.37658L16 14.1817L22.8051 7.37658C23.3073 6.87447 24.1213 6.87447 24.6234 7.37658C25.1255 7.87868 25.1255 8.69275 24.6234 9.19485L17.8183 16L24.6234 22.8051C25.1255 23.3073 25.1255 24.1213 24.6234 24.6234C24.1213 25.1255 23.3073 25.1255 22.8051 24.6234L16 17.8183L9.19485 24.6234C8.69275 25.1255 7.87868 25.1255 7.37658 24.6234C6.87447 24.1213 6.87447 23.3073 7.37658 22.8051L14.1817 16L7.37658 9.19485C6.87447 8.69275 6.87447 7.87868 7.37658 7.37658Z"/>
</svg>
