<svg width="32" height="32" viewBox="0 0 32 32" xmlns="http://www.w3.org/2000/svg">
<path d="M27 15.8332V7.0625C27 5.9234 26.0766 5 24.9375 5H16.1668C15.6198 5 15.0952 5.2173 14.7084 5.6041L5.60409 14.7084C4.79864 15.5139 4.79864 16.8198 5.60409 17.6252L14.3748 26.3959C15.1802 27.2014 16.4861 27.2014 17.2916 26.3959L26.3959 17.2916C26.7827 16.9048 27 16.3802 27 15.8332ZM22.1875 7.75C23.3266 7.75 24.25 8.6734 24.25 9.8125C24.25 10.9516 23.3266 11.875 22.1875 11.875C21.0484 11.875 20.125 10.9516 20.125 9.8125C20.125 8.6734 21.0484 7.75 22.1875 7.75Z"/>
</svg>
