<svg width="32" height="32" viewBox="0 0 32 32" xmlns="http://www.w3.org/2000/svg">
<path fill-rule="evenodd" clip-rule="evenodd" d="M7.10658 9.55395L16 15.7793L24.8934 9.55395C24.728 9.22692 24.388 9 24 9H8C7.61204 9 7.27196 9.22692 7.10658 9.55395ZM25 11.9207L16.5735 17.8192C16.2291 18.0603 15.7709 18.0603 15.4265 17.8192L7 11.9207V22C7 22.5477 7.45228 23 8 23H24C24.5477 23 25 22.5477 25 22V11.9207ZM5 10C5 8.34772 6.34772 7 8 7H24C25.6523 7 27 8.34772 27 10V22C27 23.6523 25.6523 25 24 25H8C6.34772 25 5 23.6523 5 22V10Z"/>
</svg>
