<svg width="32" height="32" viewBox="0 0 32 32" xmlns="http://www.w3.org/2000/svg">
<path d="M15.6818 11.8417L8.00032 18.1683V24.9966C8.00032 25.1734 8.07055 25.3429 8.19556 25.4679C8.32058 25.5929 8.49013 25.6632 8.66693 25.6632L13.3357 25.6511C13.512 25.6502 13.6807 25.5796 13.805 25.4547C13.9292 25.3298 13.999 25.1607 13.999 24.9845V20.9969C13.999 20.8201 14.0693 20.6505 14.1943 20.5255C14.3193 20.4005 14.4888 20.3302 14.6656 20.3302H17.3321C17.5089 20.3302 17.6784 20.4005 17.8035 20.5255C17.9285 20.6505 17.9987 20.8201 17.9987 20.9969V24.9816C17.9984 25.0693 18.0155 25.1562 18.0489 25.2373C18.0822 25.3184 18.1313 25.3922 18.1932 25.4543C18.2551 25.5164 18.3287 25.5657 18.4097 25.5993C18.4908 25.633 18.5776 25.6503 18.6653 25.6503L23.3325 25.6632C23.5093 25.6632 23.6788 25.5929 23.8038 25.4679C23.9289 25.3429 23.9991 25.1734 23.9991 24.9966V18.1637L16.3193 11.8417C16.229 11.7689 16.1165 11.7293 16.0005 11.7293C15.8846 11.7293 15.7721 11.7689 15.6818 11.8417ZM27.8155 16.1418L24.3324 13.2708V7.49996C24.3324 7.36736 24.2797 7.2402 24.186 7.14644C24.0922 7.05267 23.965 7 23.8324 7H21.4993C21.3667 7 21.2395 7.05267 21.1457 7.14644C21.052 7.2402 20.9993 7.36736 20.9993 7.49996V10.5252L17.2692 7.45622C16.9112 7.16165 16.462 7.00059 15.9984 7.00059C15.5349 7.00059 15.0857 7.16165 14.7277 7.45622L4.18144 16.1418C4.13082 16.1837 4.08893 16.2351 4.05818 16.2931C4.02743 16.3511 4.00842 16.4147 4.00223 16.4801C3.99604 16.5454 4.00279 16.6114 4.0221 16.6742C4.04142 16.737 4.07291 16.7953 4.11478 16.8459L5.1772 18.1375C5.21896 18.1883 5.27033 18.2303 5.32835 18.2612C5.38638 18.2921 5.44994 18.3113 5.51538 18.3176C5.58082 18.3239 5.64686 18.3172 5.70973 18.298C5.77259 18.2787 5.83104 18.2473 5.88173 18.2054L15.6818 10.1335C15.7721 10.0607 15.8846 10.0211 16.0005 10.0211C16.1165 10.0211 16.229 10.0607 16.3193 10.1335L26.1198 18.2054C26.1704 18.2473 26.2287 18.2788 26.2915 18.2981C26.3543 18.3174 26.4202 18.3242 26.4856 18.318C26.551 18.3118 26.6145 18.2928 26.6726 18.262C26.7306 18.2313 26.782 18.1894 26.8239 18.1387L27.8863 16.8472C27.9281 16.7963 27.9595 16.7376 27.9786 16.6746C27.9976 16.6115 28.0041 16.5453 27.9975 16.4798C27.9909 16.4142 27.9714 16.3506 27.9402 16.2926C27.909 16.2346 27.8666 16.1834 27.8155 16.1418Z"/>
</svg>
