<svg width="32" height="32" viewBox="0 0 32 32" xmlns="http://www.w3.org/2000/svg">
<path d="M21.9373 6.28786C20.223 4.57355 17.4358 4.56788 15.7215 6.28786L11.4187 10.5907L17.6402 16.8121L21.9373 12.5036C23.6516 10.7837 23.6516 8.00216 21.9373 6.28786ZM17.5266 8.83093L15.5682 10.7609L15.5626 10.7666C15.3355 10.988 14.9779 10.9823 14.7622 10.7553C14.5408 10.5282 14.5465 10.1706 14.7735 9.95488L16.7376 8.02487L16.7433 8.01919C16.9703 7.79781 17.328 7.80349 17.5437 8.03055C17.7594 8.25193 17.7537 8.61523 17.5266 8.83093Z"/>
<path d="M10.6126 11.391L6.28147 15.7279C4.57284 17.4479 4.57284 20.2237 6.28147 21.9437C8.01281 23.6523 10.8 23.6523 12.5313 21.9437L16.8398 17.6182L10.6126 11.391Z"/>
<path d="M26.0925 19.9399L19.9675 26.0705C21.7102 27.4045 24.1681 27.2455 25.7178 25.6958C27.2732 24.1462 27.4321 21.6825 26.0925 19.9399Z"/>
<path d="M22.6298 18.2369C20.2173 18.2369 18.2589 20.1896 18.2589 22.6078C18.2589 23.5728 18.5768 24.5094 19.1615 25.2701L25.2864 19.1451C24.5258 18.5548 23.5948 18.2369 22.6298 18.2369Z"/>
</svg>
