<svg width="32" height="32" viewBox="0 0 32 32" xmlns="http://www.w3.org/2000/svg">
<path fill-rule="evenodd" clip-rule="evenodd" d="M14.9524 8.14286C11.1916 8.14286 8.14286 11.1916 8.14286 14.9524C8.14286 18.7132 11.1916 21.7619 14.9524 21.7619C16.7745 21.7619 18.4295 21.0462 19.6516 19.8806C19.6854 19.8391 19.7216 19.7989 19.7603 19.7603C19.7989 19.7216 19.8391 19.6854 19.8806 19.6516C21.0462 18.4295 21.7619 16.7745 21.7619 14.9524C21.7619 11.1916 18.7132 8.14286 14.9524 8.14286ZM23.0132 20.7908C24.2031 19.1508 24.9048 17.1336 24.9048 14.9524C24.9048 9.45583 20.4489 5 14.9524 5C9.45583 5 5 9.45583 5 14.9524C5 20.4489 9.45583 24.9048 14.9524 24.9048C17.1336 24.9048 19.1508 24.2031 20.7908 23.0132L24.3174 26.5397C24.9311 27.1534 25.9261 27.1534 26.5397 26.5397C27.1534 25.9261 27.1534 24.9311 26.5397 24.3174L23.0132 20.7908Z"/>
</svg>
