<svg width="32" height="32" viewBox="0 0 32 32" xmlns="http://www.w3.org/2000/svg">
<path fill-rule="evenodd" clip-rule="evenodd" d="M7.05493 15H10C10.5523 15 11 15.4477 11 16C11 16.5523 10.5523 17 10 17H7.05493C7.51608 21.1716 10.8284 24.4839 15 24.9451V22C15 21.4477 15.4477 21 16 21C16.5523 21 17 21.4477 17 22V24.9451C21.1716 24.4839 24.4839 21.1716 24.9451 17H22C21.4477 17 21 16.5523 21 16C21 15.4477 21.4477 15 22 15H24.9451C24.4839 10.8284 21.1716 7.51608 17 7.05493V10C17 10.5523 16.5523 11 16 11C15.4477 11 15 10.5523 15 10V7.05493C10.8284 7.51608 7.51608 10.8284 7.05493 15ZM5 16C5 9.92487 9.92487 5 16 5C22.0751 5 27 9.92487 27 16C27 22.0751 22.0751 27 16 27C9.92487 27 5 22.0751 5 16Z"/>
</svg>
