<svg width="32" height="32" viewBox="0 0 32 32" xmlns="http://www.w3.org/2000/svg">
<path fill-rule="evenodd" clip-rule="evenodd" d="M13.25 8.83333C11.7312 8.83333 10.5 10.0646 10.5 11.5833C10.5 13.1021 11.7312 14.3333 13.25 14.3333C14.7688 14.3333 16 13.1021 16 11.5833C16 10.0646 14.7688 8.83333 13.25 8.83333ZM8.66667 11.5833C8.66667 9.05203 10.7187 7 13.25 7C15.7813 7 17.8333 9.05203 17.8333 11.5833C17.8333 14.1146 15.7813 16.1667 13.25 16.1667C10.7187 16.1667 8.66667 14.1146 8.66667 11.5833ZM18.7786 7.80846C18.9042 7.31802 19.4036 7.02224 19.894 7.14781C20.8799 7.40024 21.7538 7.97362 22.3778 8.77754C23.0018 9.58147 23.3405 10.5702 23.3405 11.5879C23.3405 12.6056 23.0018 13.5944 22.3778 14.3983C21.7538 15.2022 20.8799 15.7756 19.894 16.028C19.4036 16.1536 18.9042 15.8578 18.7786 15.3674C18.6531 14.8769 18.9489 14.3776 19.4393 14.252C20.0308 14.1005 20.5551 13.7565 20.9295 13.2741C21.304 12.7918 21.5072 12.1985 21.5072 11.5879C21.5072 10.9773 21.304 10.384 20.9295 9.90169C20.5551 9.41934 20.0308 9.07531 19.4393 8.92385C18.9489 8.79828 18.6531 8.2989 18.7786 7.80846ZM6.34243 19.3424C7.20197 18.4829 8.36776 18 9.58333 18H16.9167C18.1322 18 19.298 18.4829 20.1576 19.3424C21.0171 20.202 21.5 21.3678 21.5 22.5833V24.4167C21.5 24.9229 21.0896 25.3333 20.5833 25.3333C20.0771 25.3333 19.6667 24.9229 19.6667 24.4167V22.5833C19.6667 21.854 19.3769 21.1545 18.8612 20.6388C18.3455 20.1231 17.646 19.8333 16.9167 19.8333H9.58333C8.85399 19.8333 8.15452 20.1231 7.63879 20.6388C7.12306 21.1545 6.83333 21.854 6.83333 22.5833V24.4167C6.83333 24.9229 6.42293 25.3333 5.91667 25.3333C5.41041 25.3333 5 24.9229 5 24.4167V22.5833C5 21.3678 5.48289 20.202 6.34243 19.3424ZM22.4458 18.8067C22.5723 18.3165 23.0723 18.0217 23.5625 18.1483C24.5458 18.4022 25.4169 18.9754 26.0391 19.778C26.6612 20.5806 26.9992 21.5671 27 22.5827V24.4167C27 24.9229 26.5896 25.3333 26.0833 25.3333C25.5771 25.3333 25.1667 24.9229 25.1667 24.4167V22.584C25.1662 21.9747 24.9634 21.3828 24.5901 20.9012C24.2168 20.4197 23.6941 20.0757 23.1042 19.9234C22.614 19.7968 22.3192 19.2969 22.4458 18.8067Z"/>
</svg>
