<svg width="32" height="32" viewBox="0 0 32 32" xmlns="http://www.w3.org/2000/svg">
<path fill-rule="evenodd" clip-rule="evenodd" d="M12.5 8C10.8431 8 9.5 9.34315 9.5 11C9.5 12.6569 10.8431 14 12.5 14C14.1569 14 15.5 12.6569 15.5 11C15.5 9.34315 14.1569 8 12.5 8ZM7.5 11C7.5 8.23858 9.73858 6 12.5 6C15.2614 6 17.5 8.23858 17.5 11C17.5 13.7614 15.2614 16 12.5 16C9.73858 16 7.5 13.7614 7.5 11ZM24 11C24.5523 11 25 11.4477 25 12V14H27C27.5523 14 28 14.4477 28 15C28 15.5523 27.5523 16 27 16H25V18C25 18.5523 24.5523 19 24 19C23.4477 19 23 18.5523 23 18V16H21C20.4477 16 20 15.5523 20 15C20 14.4477 20.4477 14 21 14H23V12C23 11.4477 23.4477 11 24 11ZM5.46447 19.4645C6.40215 18.5268 7.67392 18 9 18H16C17.3261 18 18.5979 18.5268 19.5355 19.4645C20.4732 20.4021 21 21.6739 21 23V25C21 25.5523 20.5523 26 20 26C19.4477 26 19 25.5523 19 25V23C19 22.2043 18.6839 21.4413 18.1213 20.8787C17.5587 20.3161 16.7956 20 16 20H9C8.20435 20 7.44129 20.3161 6.87868 20.8787C6.31607 21.4413 6 22.2043 6 23V25C6 25.5523 5.55228 26 5 26C4.44772 26 4 25.5523 4 25V23C4 21.6739 4.52678 20.4021 5.46447 19.4645Z"/>
</svg>
