<svg width="32" height="32" viewBox="0 0 32 32" xmlns="http://www.w3.org/2000/svg">
<path d="M27 15.717C27 21.6354 22.1648 26.4333 16.1991 26.4333C14.3059 26.4333 12.5275 25.949 10.9794 25.1011L5 27L6.94913 21.2487C5.96632 19.6346 5.4003 17.7393 5.4003 15.7163C5.40102 9.79786 10.2347 5 16.2005 5C22.1656 5.00143 27 9.79858 27 15.717ZM16.1984 6.70881C11.1917 6.70881 7.11915 10.7505 7.11915 15.7191C7.11915 17.6905 7.76193 19.5155 8.84876 21.0005L7.7153 24.3457L11.2032 23.2373C12.638 24.1785 14.3547 24.7266 16.1984 24.7266C21.205 24.7266 25.279 20.6856 25.279 15.717C25.2804 10.7505 21.2057 6.70881 16.1984 6.70881ZM21.6533 18.1855C21.5859 18.0772 21.4094 18.0112 21.1454 17.8792C20.8822 17.7472 19.5787 17.1123 19.3369 17.0262C19.093 16.938 18.9165 16.8935 18.74 17.1568C18.5657 17.4201 18.0578 18.0112 17.9021 18.1877C17.7479 18.3634 17.5937 18.3857 17.329 18.2558C17.0642 18.1224 16.2106 17.8469 15.199 16.9523C14.4121 16.255 13.8805 15.3963 13.727 15.133C13.5713 14.8705 13.7112 14.7284 13.8425 14.5979C13.9608 14.4795 14.1072 14.2908 14.2399 14.1366C14.3726 13.9838 14.4164 13.8755 14.5046 13.6997C14.5914 13.524 14.5477 13.3711 14.4824 13.2384C14.4164 13.1064 13.8877 11.8151 13.666 11.2893C13.4458 10.7642 13.2255 10.851 13.0706 10.851C12.9163 10.851 12.7399 10.8295 12.5634 10.8295C12.3869 10.8295 12.0999 10.8933 11.8582 11.1566C11.6164 11.4199 10.932 12.0547 10.932 13.3475C10.932 14.6416 11.8797 15.8892 12.0124 16.0642C12.1459 16.2385 13.8446 18.9782 16.5355 20.0299C19.2279 21.0809 19.2279 20.7301 19.7128 20.6856C20.1992 20.6411 21.2796 20.0507 21.4991 19.4381C21.7201 18.8225 21.7201 18.2953 21.6533 18.1855Z"/>
</svg>
