<svg width="500" height="373" viewBox="0 0 500 373" fill="none" xmlns="http://www.w3.org/2000/svg">
<path d="M500 327.4H0V327.65H500V327.4Z" fill="#EBEBEB"/>
<path d="M449.9 343.49H416.78V343.74H449.9V343.49Z" fill="#EBEBEB"/>
<path d="M331.22 346.21H322.53V346.46H331.22V346.21Z" fill="#EBEBEB"/>
<path d="M415.78 334.21H396.59V334.46H415.78V334.21Z" fill="#EBEBEB"/>
<path d="M95.65 335.89H52.46V336.14H95.65V335.89Z" fill="#EBEBEB"/>
<path d="M110.89 335.89H104.56V336.14H110.89V335.89Z" fill="#EBEBEB"/>
<path d="M225.15 340.11H131.47V340.36H225.15V340.11Z" fill="#EBEBEB"/>
<path d="M237 282.8H43.91C42.3973 282.797 40.9476 282.195 39.8789 281.124C38.8102 280.053 38.21 278.603 38.21 277.09V5.66C38.2232 4.15602 38.8292 2.71798 39.8964 1.65822C40.9637 0.598458 42.406 0.00257639 43.91 0H237C238.514 0 239.967 0.601588 241.038 1.67242C242.108 2.74325 242.71 4.19561 242.71 5.71V277.09C242.71 278.604 242.108 280.057 241.038 281.128C239.967 282.198 238.514 282.8 237 282.8ZM43.91 0.200001C42.4637 0.20265 41.0774 0.779065 40.0557 1.80273C39.0339 2.82639 38.46 4.21365 38.46 5.66V277.09C38.46 278.536 39.0339 279.924 40.0557 280.947C41.0774 281.971 42.4637 282.547 43.91 282.55H237C238.447 282.547 239.835 281.971 240.858 280.948C241.881 279.924 242.457 278.537 242.46 277.09V5.66C242.457 4.21273 241.881 2.82549 240.858 1.80212C239.835 0.77874 238.447 0.202644 237 0.200001H43.91Z" fill="#EBEBEB"/>
<path d="M453.31 282.8H260.21C258.696 282.797 257.246 282.195 256.175 281.125C255.105 280.054 254.503 278.604 254.5 277.09V5.66C254.516 4.15511 255.124 2.71708 256.193 1.65759C257.262 0.598109 258.705 0.00254829 260.21 0H453.31C454.812 0.0052045 456.252 0.602249 457.317 1.66173C458.382 2.72121 458.987 4.15775 459 5.66V277.09C459 278.601 458.401 280.05 457.335 281.121C456.268 282.191 454.821 282.795 453.31 282.8ZM260.21 0.200001C258.763 0.202644 257.375 0.77874 256.352 1.80212C255.329 2.82549 254.753 4.21273 254.75 5.66V277.09C254.753 278.537 255.329 279.924 256.352 280.948C257.375 281.971 258.763 282.547 260.21 282.55H453.31C454.757 282.547 456.145 281.971 457.168 280.948C458.191 279.924 458.767 278.537 458.77 277.09V5.66C458.767 4.21273 458.191 2.82549 457.168 1.80212C456.145 0.77874 454.757 0.202644 453.31 0.200001H260.21Z" fill="#EBEBEB"/>
<path d="M203.26 25.06H68.55V249.12H203.26V25.06Z" fill="#FFC9C9"/>
<path d="M217.7 20.46H59.83C59.4746 20.46 59.1338 20.6012 58.8825 20.8525C58.6312 21.1038 58.49 21.4446 58.49 21.8C58.4926 22.1537 58.635 22.4919 58.886 22.7411C59.137 22.9902 59.4763 23.13 59.83 23.13H217.7C218.047 23.1197 218.376 22.9753 218.618 22.7272C218.861 22.4792 218.998 22.1468 219 21.8C219 21.4514 218.864 21.1165 218.622 20.8663C218.379 20.6162 218.048 20.4704 217.7 20.46Z" fill="#FFC9C9"/>
<path d="M208.98 25.06H71.22V249.12H208.98V25.06Z" fill="#FFE2E2"/>
<path d="M203.26 249.12H68.55V252.91H207.2L203.26 249.12Z" fill="#FFC9C9"/>
<path d="M218.5 249.12H80.74L84.68 252.91H222.44L218.5 249.12Z" fill="#FFE2E2"/>
<path d="M200.98 241.12V33.06L79.23 33.06L79.23 241.12H200.98Z" fill="#FFC4C4"/>
<path opacity="0.4" d="M106.86 241.12L153.83 33.06H176L129.03 241.12H106.86Z" fill="white"/>
<path opacity="0.4" d="M133.8 241.12L180.76 33.06H189.41L142.44 241.12H133.8Z" fill="white"/>
<path d="M200.98 241.12V33.06H199.96V241.12H200.98Z" fill="#FFC9C9"/>
<g opacity="0.4">
<path opacity="0.4" d="M79.31 18.07H65.54V221.46H79.31V18.07Z" fill="#FFE2E2"/>
<path opacity="0.4" d="M84.68 18.07H73.95V221.46H84.68V18.07Z" fill="#FFC9C9"/>
<path opacity="0.4" d="M93.08 18.07H79.31V221.46H93.08V18.07Z" fill="#FFE2E2"/>
<path opacity="0.4" d="M98.45 18.07H87.72V221.46H98.45V18.07Z" fill="#FFC9C9"/>
<path opacity="0.4" d="M106.86 18.07H93.09V221.46H106.86V18.07Z" fill="#FFE2E2"/>
</g>
<g opacity="0.4">
<path opacity="0.4" d="M195.85 18.07H187.91V221.46H195.85V18.07Z" fill="#FFE2E2"/>
<path opacity="0.4" d="M198.94 18.07H192.76V221.46H198.94V18.07Z" fill="#FFC9C9"/>
<path opacity="0.4" d="M203.79 18.07H195.85V221.46H203.79V18.07Z" fill="#FFE2E2"/>
<path opacity="0.4" d="M206.87 18.07H200.69V221.46H206.87V18.07Z" fill="#FFC9C9"/>
<path opacity="0.4" d="M211.72 18.07H203.78V221.46H211.72V18.07Z" fill="#FFE2E2"/>
</g>
<path d="M419.56 25.06H284.85V249.12H419.56V25.06Z" fill="#FFC9C9"/>
<path d="M434 20.46H276.13C275.775 20.46 275.434 20.6012 275.182 20.8525C274.931 21.1038 274.79 21.4446 274.79 21.8C274.793 22.1537 274.935 22.4919 275.186 22.7411C275.437 22.9902 275.776 23.13 276.13 23.13H434C434.354 23.13 434.693 22.9902 434.944 22.7411C435.195 22.4919 435.337 22.1537 435.34 21.8C435.34 21.4446 435.199 21.1038 434.948 20.8525C434.696 20.6012 434.355 20.46 434 20.46Z" fill="#FFC9C9"/>
<path d="M425.28 25.06H287.52V249.12H425.28V25.06Z" fill="#FFE2E2"/>
<path d="M419.56 249.12H284.85V252.91H423.5L419.56 249.12Z" fill="#FFC9C9"/>
<path d="M434.8 249.12H297.04L300.98 252.91H438.74L434.8 249.12Z" fill="#FFE2E2"/>
<path d="M417.28 241.12V33.06L295.53 33.06V241.12H417.28Z" fill="#FFC4C4"/>
<path opacity="0.4" d="M323.16 241.12L370.13 33.06H392.3L345.33 241.12H323.16Z" fill="white"/>
<path opacity="0.4" d="M350.09 241.12L397.06 33.06H405.71L358.74 241.12H350.09Z" fill="white"/>
<path d="M417.27 241.13V33.07H416.25V241.13H417.27Z" fill="#FFC9C9"/>
<g opacity="0.4">
<path opacity="0.4" d="M295.61 18.07H281.84V221.46H295.61V18.07Z" fill="#FFE2E2"/>
<path opacity="0.4" d="M300.98 18.07H290.25V221.46H300.98V18.07Z" fill="#FFC9C9"/>
<path opacity="0.4" d="M309.38 18.07H295.61V221.46H309.38V18.07Z" fill="#FFE2E2"/>
<path opacity="0.4" d="M314.75 18.07H304.02V221.46H314.75V18.07Z" fill="#FFC9C9"/>
<path opacity="0.4" d="M323.16 18.07H309.39V221.46H323.16V18.07Z" fill="#FFE2E2"/>
</g>
<g opacity="0.4">
<path opacity="0.4" d="M412.15 18.07H404.21V221.46H412.15V18.07Z" fill="#FFE2E2"/>
<path opacity="0.4" d="M415.23 18.07H409.05V221.46H415.23V18.07Z" fill="#FFC9C9"/>
<path opacity="0.4" d="M420.09 18.07H412.15V221.46H420.09V18.07Z" fill="#FFE2E2"/>
<path opacity="0.4" d="M423.17 18.07H416.99V221.46H423.17V18.07Z" fill="#FFC9C9"/>
<path opacity="0.4" d="M428.02 18.07H420.08V221.46H428.02V18.07Z" fill="#FFE2E2"/>
</g>
<path d="M431.52 273.23H422.33V327.4H431.52V273.23Z" fill="#FFC9C9"/>
<path d="M433.97 273.23H428.56V327.4H433.97V273.23Z" fill="#FFE2E2"/>
<path d="M406.27 273.23H397.08V327.4H406.27V273.23Z" fill="#FFC9C9"/>
<path d="M407.99 273.23H402.58V327.4H407.99V273.23Z" fill="#FFE2E2"/>
<path d="M305.18 282.8H435.64V273.23H305.18V282.8Z" fill="#FFE2E2"/>
<path d="M279.16 273.23H269.97V327.4H279.16V273.23Z" fill="#FFC9C9"/>
<path d="M280.88 273.23H275.47V327.4H280.88V273.23Z" fill="#FFE2E2"/>
<path d="M268.33 282.8H301.26V273.23H268.33V282.8Z" fill="#FFC9C9"/>
<path d="M304.41 273.23H295.22V327.4H304.41V273.23Z" fill="#FFC9C9"/>
<path d="M306.86 273.23H301.45V327.4H306.86V273.23Z" fill="#FFE2E2"/>
<path d="M95.42 327.4H127.09V278.21H95.42V327.4Z" fill="#FFE2E2"/>
<path d="M196.84 278.21H127.09V327.4H196.84V278.21Z" fill="#F5F5F5"/>
<g style="mix-blend-mode:multiply" opacity="0.7">
<path d="M95.43 285.67H197.17V283.07H95.43V285.67Z" fill="#FFC9C9"/>
</g>
<path d="M93.67 284.16H127.09V276.63H93.67V284.16Z" fill="#FFE2E2"/>
<path d="M198.58 276.64H127.09V284.17H198.58V276.64Z" fill="#F5F5F5"/>
<path d="M244.182 311.845C246.156 301.46 239.337 291.442 228.952 289.468C218.567 287.495 208.549 294.313 206.575 304.698C204.602 315.083 211.42 325.101 221.805 327.075C232.19 329.048 242.209 322.23 244.182 311.845Z" fill="#FF9393"/>
<path d="M216.61 304.47C214.971 302.083 212.662 300.236 209.973 299.161C207.285 298.087 204.338 297.834 201.506 298.434C198.674 299.034 196.083 300.461 194.061 302.533C192.04 304.605 190.678 307.231 190.148 310.077C189.618 312.923 189.944 315.863 191.085 318.524C192.225 321.185 194.129 323.448 196.556 325.027C198.982 326.606 201.823 327.43 204.718 327.395C207.613 327.36 210.432 326.467 212.82 324.83C214.406 323.742 215.762 322.353 216.811 320.741C217.86 319.129 218.581 317.326 218.933 315.435C219.285 313.544 219.261 311.603 218.863 309.721C218.464 307.84 217.699 306.056 216.61 304.47Z" fill="#EBEBEB"/>
<path d="M250 372.56C357.082 372.56 443.89 367.492 443.89 361.24C443.89 354.988 357.082 349.92 250 349.92C142.917 349.92 56.11 354.988 56.11 361.24C56.11 367.492 142.917 372.56 250 372.56Z" fill="#FFF0F0"/>
<path d="M231.73 63.33C228.23 62.26 223.89 68.56 221.22 75.62C218.55 82.68 214.14 83.89 209.42 86.72C218.14 98.92 238.47 96.37 245.23 94.83C251.99 93.29 258.04 98.67 266.67 92.34C274.4 86.67 273.83 69.78 260.18 62.08C263.2 51.71 232.06 50.67 231.73 63.33Z" fill="#66000A"/>
<path d="M268.74 169.17H259.14C258.358 169.189 257.582 169.033 256.868 168.714C256.154 168.395 255.52 167.921 255.012 167.326C254.505 166.731 254.136 166.031 253.933 165.275C253.73 164.52 253.698 163.729 253.84 162.96L254.92 155.63C255.208 153.932 256.074 152.386 257.372 151.254C258.669 150.122 260.319 149.474 262.04 149.42H271.63C272.412 149.399 273.189 149.554 273.904 149.872C274.619 150.191 275.254 150.665 275.762 151.26C276.27 151.855 276.639 152.557 276.841 153.313C277.043 154.069 277.073 154.861 276.93 155.63L275.86 163C275.56 164.689 274.69 166.224 273.393 167.347C272.097 168.47 270.454 169.114 268.74 169.17Z" fill="white"/>
<path d="M268.74 169.42H259.14C258.332 169.436 257.53 169.275 256.791 168.949C256.051 168.622 255.392 168.138 254.86 167.53C254.325 166.901 253.934 166.162 253.717 165.365C253.499 164.569 253.459 163.734 253.6 162.92L254.67 155.59C254.967 153.833 255.864 152.233 257.208 151.063C258.551 149.892 260.259 149.224 262.04 149.17H271.63C272.439 149.153 273.241 149.312 273.982 149.637C274.723 149.962 275.384 150.444 275.92 151.05C276.452 151.681 276.841 152.42 277.058 153.216C277.276 154.012 277.317 154.846 277.18 155.66L276.1 163C275.805 164.756 274.91 166.356 273.568 167.526C272.226 168.697 270.52 169.366 268.74 169.42ZM262 149.67C260.338 149.721 258.744 150.347 257.492 151.441C256.239 152.535 255.404 154.03 255.13 155.67L254.09 163C253.964 163.743 254.001 164.505 254.2 165.232C254.399 165.959 254.754 166.634 255.24 167.21C255.723 167.766 256.323 168.209 256.997 168.506C257.672 168.804 258.403 168.948 259.14 168.93H268.74C270.402 168.879 271.996 168.253 273.248 167.159C274.501 166.065 275.335 164.57 275.61 162.93L276.68 155.6C276.81 154.858 276.775 154.096 276.578 153.368C276.381 152.641 276.026 151.966 275.54 151.39C275.055 150.834 274.453 150.393 273.777 150.097C273.101 149.801 272.368 149.659 271.63 149.68L262 149.67Z" fill="#FF475A"/>
<path d="M275.39 158.92H275.34C275.308 158.913 275.277 158.899 275.25 158.881C275.223 158.862 275.2 158.837 275.182 158.81C275.165 158.782 275.153 158.751 275.147 158.718C275.142 158.686 275.143 158.652 275.15 158.62C275.98 154.74 275.86 152.96 272.95 152.03C272.918 152.019 272.889 152.003 272.864 151.981C272.839 151.959 272.819 151.933 272.804 151.903C272.789 151.873 272.78 151.841 272.778 151.808C272.775 151.775 272.779 151.742 272.79 151.71C272.8 151.678 272.817 151.649 272.839 151.624C272.861 151.599 272.887 151.579 272.917 151.564C272.947 151.549 272.979 151.54 273.012 151.538C273.045 151.535 273.078 151.539 273.11 151.55C276.64 152.69 276.39 155.24 275.64 158.73C275.625 158.785 275.592 158.833 275.547 158.867C275.502 158.901 275.447 158.92 275.39 158.92Z" fill="#FF475A"/>
<path d="M293.46 57.35L310.27 39.95L348.25 69.31L331.44 86.72L293.46 57.35Z" fill="#66000A"/>
<path d="M311.24 38.95L310.27 39.95L348.25 69.31L350.55 61.14L311.24 38.95Z" fill="#FF475A"/>
<path d="M298.78 51.9C296.32 50.23 294.72 48.18 294.38 46.27C294.282 45.8133 294.28 45.3414 294.373 44.8838C294.466 44.4261 294.652 43.9925 294.92 43.61C297.67 39.79 301.16 42.16 304.85 44.67L305.34 45L305.07 45.39L304.58 45.06C300.94 42.58 297.79 40.43 295.3 43.88C295.073 44.2128 294.915 44.588 294.836 44.9832C294.757 45.3783 294.758 45.7854 294.84 46.18C295.16 47.97 296.69 49.92 299.05 51.51L298.78 51.9Z" fill="#66000A"/>
<path d="M264.69 104.57L279 93.82L286.18 88.44L287.93 87.12L288.8 86.47L289.22 86.15L289.43 85.97C290.249 85.1792 290.962 84.285 291.55 83.31C292.906 80.9956 293.974 78.5239 294.73 75.95C295.543 73.2071 296.211 70.4233 296.73 67.61C297.28 64.75 297.73 61.85 298.03 58.92C298.33 55.99 298.65 53.02 298.84 50.13V50.05C298.878 49.4753 299.133 48.9366 299.554 48.5431C299.975 48.1495 300.529 47.9306 301.105 47.9306C301.681 47.9306 302.235 48.1495 302.656 48.5431C303.077 48.9366 303.332 49.4753 303.37 50.05C303.883 56.2105 303.856 62.4041 303.29 68.56C303.014 71.7065 302.523 74.8305 301.82 77.91C301.109 81.1789 299.969 84.3395 298.43 87.31C297.559 88.9726 296.458 90.5043 295.16 91.86L294.56 92.44L294.1 92.84L293.22 93.6L291.45 95.12C289.15 97.08 286.817 99.0133 284.45 100.92L277.33 106.56C274.91 108.39 272.52 110.22 270.01 111.99C269.026 112.634 267.832 112.875 266.676 112.663C265.519 112.451 264.488 111.802 263.797 110.851C263.105 109.9 262.806 108.72 262.961 107.554C263.116 106.389 263.714 105.327 264.63 104.59L264.69 104.57Z" fill="#FFC3BD"/>
<path d="M298.92 52.47L291.11 48.8L299.18 44.59C299.18 44.59 305.42 47.78 303.42 52.33L298.92 52.47Z" fill="#FFC3BD"/>
<path d="M289.47 43.43L296.42 40.27L299.18 44.59L291.11 48.8L289.47 43.43Z" fill="#FFC3BD"/>
<path d="M273.82 108.66C273.96 115.15 273.05 128.66 268.49 156.66H232.14C232.75 141.87 233.47 132.6 226.4 102.24C231.256 101.242 236.18 100.61 241.13 100.35C246.626 99.9545 252.144 99.9545 257.64 100.35C261.19 100.67 264.99 101.25 267.89 101.74C269.529 102.024 271.018 102.87 272.1 104.133C273.183 105.396 273.791 106.997 273.82 108.66Z" fill="#66000A"/>
<path d="M273 152C272.933 151.99 272.872 151.954 272.831 151.9C272.79 151.846 272.771 151.778 272.78 151.71C276.09 129 243 104.31 236 101C235.966 100.989 235.936 100.971 235.91 100.947C235.884 100.923 235.863 100.894 235.849 100.862C235.835 100.829 235.828 100.794 235.829 100.759C235.829 100.724 235.837 100.689 235.852 100.657C235.867 100.625 235.888 100.596 235.915 100.573C235.942 100.55 235.973 100.533 236.007 100.523C236.041 100.513 236.076 100.51 236.111 100.515C236.146 100.519 236.18 100.531 236.21 100.55C240.37 102.55 250.49 109.75 259 119.07C266.51 127.28 275.08 139.62 273.31 151.81C273.293 151.876 273.252 151.933 273.194 151.968C273.136 152.004 273.066 152.015 273 152Z" fill="#FF475A"/>
<path d="M242.77 81.79C243.77 87.1 244.85 96.79 241.13 100.38C245.302 104.789 250.331 108.298 255.91 110.69C263.01 106.24 257.64 100.38 257.64 100.38C251.72 98.96 251.87 94.57 252.9 90.44L242.77 81.79Z" fill="#FFC3BD"/>
<path opacity="0.2" d="M246.9 85.32L252.9 90.44C252.645 91.3999 252.474 92.3803 252.39 93.37C250.13 93.04 247.02 90.56 246.78 88.19C246.646 87.2339 246.687 86.2616 246.9 85.32Z" fill="black"/>
<path d="M236.46 75C239.95 83.16 241.26 86.7 247 89.48C255.65 93.66 264.92 87.59 263.93 78.54C263.05 70.4 257.49 58.41 248.13 58C246.066 57.9008 244.012 58.3307 242.161 59.249C240.31 60.1673 238.725 61.5434 237.556 63.2467C236.387 64.95 235.672 66.9239 235.48 68.9809C235.288 71.038 235.626 73.1099 236.46 75Z" fill="#FFC3BD"/>
<path d="M246.71 62.46C248.71 67.35 240.88 76.92 235.26 80.68C228.1 65.78 232.36 59.59 246.71 62.46Z" fill="#66000A"/>
<path d="M253.14 57.54C262.81 60 239.39 68.13 232.64 68.54C239.64 57.08 244.06 54.58 253.14 57.54Z" fill="#66000A"/>
<path d="M268.49 156.69C268.49 156.69 265.36 222.16 265.66 249.46C265.97 277.86 247.34 349.13 247.34 349.13L240.17 347.13C240.17 347.13 243.62 289.13 247.01 249.54C241.89 219.14 239.06 156.65 239.06 156.65L268.49 156.69Z" fill="#FFC3BD"/>
<path d="M246.76 347.49L240.08 345.94C239.909 345.899 239.729 345.92 239.573 346.001C239.417 346.082 239.295 346.217 239.23 346.38L236.5 353.05C236.433 353.243 236.407 353.449 236.425 353.653C236.443 353.857 236.503 354.055 236.602 354.234C236.701 354.413 236.836 354.569 237 354.693C237.163 354.816 237.351 354.904 237.55 354.95C241.01 355.69 241.25 355.53 245.55 356.54C248.23 357.16 252.85 359.4 256.64 359.4C260.43 359.4 259.72 355.82 258.13 355.54C252.38 354.49 252.13 352.45 248.05 348.37C247.707 347.966 247.261 347.662 246.76 347.49Z" fill="#FF475A"/>
<path d="M259 156.69C259 156.69 238.93 250.76 234.14 259.81C227.68 272.03 167.35 254.7 165.29 254.74L164.99 248.55C164.99 248.55 194.7 247.87 219.32 249.1C219.32 218.27 232.15 156.69 232.15 156.69H259Z" fill="#FFC3BD"/>
<path d="M166.12 254.66L170.6 249.46C170.715 249.329 170.779 249.16 170.779 248.985C170.779 248.81 170.715 248.641 170.6 248.51L166 243C165.86 242.85 165.691 242.731 165.502 242.651C165.313 242.571 165.109 242.532 164.904 242.537C164.699 242.541 164.497 242.59 164.312 242.678C164.127 242.767 163.962 242.893 163.83 243.05C161.57 245.76 161.6 246.05 158.68 249.43C156.89 251.51 155.58 253.25 152.91 255.93C150.24 258.61 152.78 261.45 154.1 260.53C158.9 257.18 159.21 257.2 164.74 255.45C165.263 255.316 165.739 255.043 166.12 254.66Z" fill="#FF475A"/>
<path d="M250 72.81C250.24 73.49 250.8 73.91 251.24 73.76C251.68 73.61 251.85 72.92 251.61 72.24C251.37 71.56 250.81 71.13 250.36 71.29C249.91 71.45 249.72 72.13 250 72.81Z" fill="#66000A"/>
<path d="M257.64 70.07C257.89 70.75 258.44 71.17 258.89 71.01C259.34 70.85 259.5 70.18 259.25 69.5C259 68.82 258.45 68.39 258.01 68.5C257.57 68.61 257.4 69.39 257.64 70.07Z" fill="#66000A"/>
<path d="M257.83 68.66L259.29 67.66C259.29 67.66 258.91 69.18 257.83 68.66Z" fill="#66000A"/>
<path d="M256 72C257.167 73.3379 258.513 74.5089 260 75.48C259.742 75.8515 259.407 76.1622 259.016 76.3902C258.626 76.6182 258.19 76.7581 257.74 76.8L256 72Z" fill="#ED847E"/>
<path d="M255.13 80.6C255.527 80.5246 255.918 80.421 256.3 80.29C256.353 80.2714 256.397 80.2326 256.421 80.1819C256.445 80.1313 256.449 80.073 256.43 80.02C256.411 79.967 256.373 79.9235 256.322 79.8991C256.271 79.8747 256.213 79.8714 256.16 79.89C255.322 80.2137 254.419 80.3336 253.525 80.2397C252.631 80.1458 251.773 79.8409 251.02 79.35C250.998 79.3329 250.972 79.3204 250.945 79.3132C250.918 79.306 250.89 79.3041 250.862 79.3079C250.834 79.3116 250.807 79.3207 250.783 79.3348C250.758 79.3489 250.737 79.3677 250.72 79.39C250.703 79.4123 250.69 79.4378 250.683 79.465C250.676 79.4921 250.674 79.5204 250.678 79.5483C250.682 79.5761 250.691 79.603 250.705 79.6273C250.719 79.6516 250.738 79.6729 250.76 79.69C252.043 80.5499 253.61 80.8763 255.13 80.6Z" fill="#66000A"/>
<path d="M236.09 80.05C236.994 81.4934 238.432 82.5212 240.09 82.91C242.31 83.4 243.29 81.38 242.57 79.35C241.91 77.52 239.97 75.07 237.79 75.49C237.319 75.5971 236.883 75.8196 236.519 76.1375C236.156 76.4554 235.877 76.8586 235.709 77.311C235.54 77.7633 235.487 78.2505 235.553 78.7287C235.62 79.2068 235.804 79.6609 236.09 80.05Z" fill="#FFC3BD"/>
<path d="M242.29 83.53C242.29 83.9256 242.173 84.3122 241.953 84.6411C241.733 84.97 241.421 85.2264 241.055 85.3778C240.69 85.5291 240.288 85.5687 239.9 85.4916C239.512 85.4144 239.155 85.2239 238.876 84.9442C238.596 84.6645 238.406 84.3081 238.328 83.9202C238.251 83.5322 238.291 83.1301 238.442 82.7646C238.594 82.3992 238.85 82.0868 239.179 81.8671C239.508 81.6473 239.894 81.53 240.29 81.53C240.82 81.53 241.329 81.7407 241.704 82.1158C242.079 82.4909 242.29 82.9996 242.29 83.53Z" fill="#FF475A"/>
<path d="M247.51 69.94C247.622 69.9107 247.719 69.839 247.78 69.74C248.024 69.2673 248.376 68.8583 248.806 68.5457C249.237 68.2332 249.735 68.0257 250.26 67.94C250.315 67.9362 250.369 67.9215 250.419 67.8968C250.468 67.8721 250.512 67.8379 250.549 67.7961C250.585 67.7543 250.612 67.7057 250.63 67.6532C250.647 67.6006 250.654 67.5452 250.65 67.49C250.646 67.4348 250.632 67.3809 250.607 67.3314C250.582 67.2819 250.548 67.2377 250.506 67.2015C250.464 67.1652 250.416 67.1376 250.363 67.1202C250.311 67.1028 250.255 67.0959 250.2 67.1C249.531 67.1898 248.894 67.4393 248.342 67.8275C247.791 68.2156 247.34 68.731 247.03 69.33C247.004 69.3786 246.987 69.4319 246.981 69.4868C246.976 69.5418 246.981 69.5973 246.997 69.6503C247.012 69.7032 247.039 69.7525 247.073 69.7954C247.108 69.8382 247.151 69.8738 247.2 69.9C247.246 69.9283 247.297 69.9465 247.351 69.9533C247.404 69.9602 247.458 69.9557 247.51 69.94Z" fill="#66000A"/>
<path d="M260 65.17C260.092 65.1175 260.16 65.0315 260.19 64.93C260.207 64.8768 260.213 64.8208 260.208 64.7652C260.203 64.7096 260.187 64.6556 260.161 64.6063C260.135 64.5569 260.099 64.5133 260.056 64.4778C260.013 64.4424 259.963 64.416 259.91 64.4C259.269 64.1925 258.588 64.1415 257.923 64.2511C257.259 64.3607 256.63 64.6278 256.09 65.03C256.038 65.0628 255.993 65.1064 255.96 65.1578C255.926 65.2093 255.903 65.2674 255.894 65.3282C255.885 65.3891 255.888 65.4512 255.905 65.5105C255.922 65.5698 255.951 65.6248 255.991 65.6718C256.03 65.7188 256.08 65.7567 256.135 65.783C256.191 65.8092 256.252 65.8232 256.313 65.824C256.375 65.8248 256.436 65.8123 256.492 65.7875C256.549 65.7626 256.599 65.726 256.64 65.68C257.067 65.3702 257.562 65.1661 258.083 65.0844C258.605 65.0027 259.138 65.0457 259.64 65.21C259.699 65.2293 259.762 65.2357 259.824 65.2288C259.886 65.2219 259.946 65.2018 260 65.17Z" fill="#66000A"/>
<path d="M250.14 71.4L251.61 70.35C251.61 70.35 251.22 71.92 250.14 71.4Z" fill="#66000A"/>
<path d="M268.49 156.69L267.38 239.85L218.83 230C216.83 190.57 222.1 167.63 232.14 156.68L268.49 156.69Z" fill="#66000A"/>
<path d="M268.37 158.67L231.47 157.48C231.39 157.477 231.312 157.456 231.242 157.418C231.171 157.381 231.11 157.328 231.063 157.263C231.016 157.199 230.984 157.125 230.97 157.046C230.955 156.968 230.959 156.887 230.98 156.81L231.54 154.81C231.571 154.697 231.64 154.599 231.734 154.53C231.828 154.461 231.943 154.426 232.06 154.43L268.46 155.62C268.599 155.625 268.73 155.685 268.825 155.786C268.921 155.887 268.973 156.021 268.97 156.16L268.91 158.16C268.905 158.299 268.845 158.43 268.744 158.525C268.643 158.621 268.509 158.673 268.37 158.67Z" fill="#FF475A"/>
<path opacity="0.4" d="M257.71 215.79L247.12 196.34L248.43 178.91L257.71 215.79Z" fill="black"/>
<path d="M228.16 110.67C225.01 105.58 222.16 100.49 219.48 95.18C216.711 89.8546 214.328 84.3371 212.35 78.67C211.86 77.21 211.42 75.67 211.04 74.15C210.84 73.38 210.68 72.57 210.53 71.76L210.2 69.51C209.82 66.51 209.5 63.67 209.2 60.76C208.68 54.94 208.28 49.13 208.11 43.29C208.095 42.7287 208.287 42.1815 208.65 41.7531C209.013 41.3248 209.521 41.0454 210.077 40.9686C210.633 40.8918 211.198 41.023 211.664 41.3369C212.129 41.6509 212.463 42.1255 212.6 42.67C213.99 48.33 215.2 54.01 216.39 59.67L218.14 68.11L218.59 70.11C218.75 70.71 218.9 71.32 219.09 71.95C219.46 73.2 219.9 74.46 220.4 75.74C221.4 78.28 222.51 80.84 223.72 83.37C224.93 85.9 226.2 88.44 227.53 90.95C230.21 95.95 233.04 100.95 235.91 105.81V105.87C236.54 106.907 236.732 108.152 236.444 109.33C236.156 110.509 235.412 111.525 234.375 112.155C233.338 112.785 232.093 112.977 230.915 112.689C229.736 112.401 228.72 111.657 228.09 110.62L228.16 110.67Z" fill="#FFC3BD"/>
<path d="M211.69 45.28L220.29 40.87L211.9 37.35C211.9 37.35 207.4 40.92 208.06 44.59L211.69 45.28Z" fill="#FFC3BD"/>
<path d="M223.45 34.04L216.27 31.48L210.83 38.34L220.29 40.87L223.45 34.04Z" fill="#FFC3BD"/>
<path d="M177.782 44.5347L174.386 46.6484L174.915 47.4974L178.311 45.3836L177.782 44.5347Z" fill="#FF475A"/>
<path d="M188.116 38.0991L180.934 42.5697L181.462 43.4187L188.645 38.9481L188.116 38.0991Z" fill="#FF475A"/>
<path d="M202.5 33.27L220.54 49.43L180.01 81.27L163.92 57.27L202.5 33.27Z" fill="#FF475A"/>
<path d="M221.57 50.36L220.54 49.43L180.01 81.27L189.28 85.32L221.57 50.36Z" fill="#66000A"/>
<path d="M208.35 38.76C208.315 38.7596 208.281 38.7513 208.25 38.7357C208.218 38.7201 208.191 38.6977 208.17 38.67C208.148 38.6477 208.13 38.6212 208.118 38.592C208.106 38.5629 208.099 38.5316 208.099 38.5C208.099 38.4684 208.106 38.4371 208.118 38.408C208.13 38.3788 208.148 38.3523 208.17 38.33C210.17 36.6 211.68 35.23 213.42 34.73C213.45 34.7208 213.482 34.7176 213.513 34.7206C213.545 34.7236 213.575 34.7329 213.603 34.7477C213.631 34.7626 213.656 34.7828 213.676 34.8072C213.696 34.8316 213.711 34.8598 213.72 34.89C213.729 34.9202 213.732 34.9519 213.729 34.9834C213.726 35.0148 213.717 35.0453 213.702 35.0732C213.687 35.1011 213.667 35.1258 213.643 35.1458C213.618 35.1658 213.59 35.1809 213.56 35.19C211.92 35.66 210.4 37 208.49 38.69C208.454 38.7305 208.404 38.7556 208.35 38.76Z" fill="#66000A"/>
<path d="M215.1 44.8C215.066 44.7995 215.033 44.7922 215.002 44.7785C214.971 44.7647 214.943 44.7448 214.92 44.72C214.898 44.6977 214.88 44.6712 214.868 44.642C214.856 44.6129 214.849 44.5816 214.849 44.55C214.849 44.5184 214.856 44.4871 214.868 44.458C214.88 44.4288 214.898 44.4023 214.92 44.38C217.46 42.13 219.05 40.15 219.51 38.66C219.531 38.5982 219.575 38.5469 219.632 38.517C219.69 38.4871 219.758 38.481 219.82 38.5C219.88 38.5206 219.929 38.563 219.959 38.6186C219.988 38.6742 219.996 38.739 219.98 38.8C219.48 40.4 217.89 42.4 215.24 44.74C215.201 44.7741 215.152 44.795 215.1 44.8Z" fill="#66000A"/>
</svg>
