<svg width="500" height="362" viewBox="0 0 500 362" fill="none" xmlns="http://www.w3.org/2000/svg">
<g clip-path="url(#clip0)">
<path d="M96.5298 327.319C181.53 371.719 319.28 371.719 404.26 327.319C489.24 282.919 489.26 210.959 404.26 166.559C319.26 122.159 181.51 122.169 96.5298 166.559C11.5498 210.949 11.5598 282.929 96.5298 327.319Z" fill="#FFF0F0"/>
<path d="M71.3203 256.538H74.9003C76.5411 251.059 77.6167 245.427 78.1103 239.728C78.8903 229.178 73.7803 213.028 64.4202 207.618C55.0602 202.208 49.9902 208.898 53.1302 214.618C56.2702 220.338 66.8603 236.608 67.0003 250.608L71.3203 256.538Z" fill="#FF475A"/>
<path d="M70.4601 256.539H71.4601C72.4371 249.63 72.4371 242.618 71.4601 235.709C69.8401 222.019 65.3401 215.659 61.1601 211.239C61.0686 211.142 60.9424 211.085 60.8092 211.081C60.6761 211.078 60.5469 211.127 60.4501 211.219C60.3533 211.31 60.2968 211.436 60.293 211.569C60.2893 211.703 60.3386 211.832 60.4301 211.929C64.5001 216.219 68.8801 222.419 70.4301 235.819C71.4207 242.689 71.4308 249.665 70.4601 256.539Z" fill="white"/>
<path d="M71.6102 256.539C69.7702 247.859 61.4102 237.539 53.5202 235.759C44.3702 233.759 39.9202 238.589 41.2302 242.759C42.5402 246.929 49.7702 248.869 56.7902 252.139C59.154 253.233 61.3147 254.721 63.1802 256.539H71.6102Z" fill="#FF475A"/>
<path d="M68.2803 256.539H69.3503C65.4803 246.809 56.6803 239.869 49.4803 239.229C49.4151 239.222 49.3492 239.228 49.2865 239.247C49.2238 239.266 49.1655 239.298 49.1152 239.339C49.0648 239.381 49.0234 239.433 48.9933 239.491C48.9633 239.55 48.9453 239.613 48.9403 239.679C48.9319 239.744 48.9372 239.81 48.9556 239.874C48.9741 239.937 49.0054 239.996 49.0477 240.047C49.0899 240.097 49.1421 240.139 49.2011 240.168C49.26 240.198 49.3244 240.215 49.3903 240.219C56.1903 240.829 64.5003 247.349 68.2803 256.539Z" fill="white"/>
<path d="M394.42 165.049L401.91 168.979L402.54 164.289C398.83 153.829 401.88 141.969 405.89 137.029C409.9 132.089 409.13 128.459 407.68 126.839C406.23 125.219 400.73 123.989 395.29 130.349C389.85 136.709 388.6 144.429 389.51 152.219C390.09 157.089 392.65 162.089 394.42 165.049Z" fill="#A30010"/>
<path d="M397.51 166.669L398.99 167.449C398.976 167.42 398.959 167.394 398.94 167.369C396.82 164.849 394.08 152.509 395.23 145.279C396.65 136.349 401.23 130.519 405.15 128.049C405.198 128.019 405.24 127.98 405.273 127.934C405.305 127.888 405.328 127.836 405.34 127.781C405.353 127.726 405.353 127.669 405.343 127.614C405.333 127.558 405.311 127.505 405.28 127.459C405.217 127.363 405.119 127.296 405.007 127.272C404.895 127.247 404.777 127.268 404.68 127.329C400.68 129.899 395.84 135.929 394.37 145.149C393.31 151.879 395.43 162.539 397.51 166.669Z" fill="white"/>
<path d="M402.06 147.198C404.25 152.568 404.24 155.198 400.67 155.748C397.45 156.228 393.54 160.138 397.17 166.488L418.41 177.628C418.464 176.441 418.757 175.277 419.273 174.206C419.788 173.136 420.515 172.18 421.41 171.398C424.9 167.908 428.12 165.278 427.62 161.398C427.12 157.518 423.75 153.778 423.19 150.398C422.63 147.018 424.35 145.088 428.02 141.298C431.69 137.508 435.02 131.628 430.12 128.948C425.22 126.268 419.61 130.858 417.27 133.948C414.93 137.038 412.79 138.398 408.18 138.138C403.57 137.878 399.87 141.828 402.06 147.198Z" fill="#FF475A"/>
<path d="M408.07 172.209C407.97 155.729 419.78 136.429 426.35 132.529C426.447 132.467 426.517 132.37 426.545 132.259C426.572 132.147 426.557 132.029 426.5 131.929C426.44 131.833 426.345 131.763 426.235 131.735C426.125 131.707 426.009 131.723 425.91 131.779C419.25 135.779 407.34 155.089 407.21 171.779L408.07 172.209Z" fill="white"/>
<path d="M411.23 155.078C411.14 155.099 411.045 155.089 410.962 155.049C410.878 155.009 410.811 154.942 410.77 154.858C408.863 151.299 407.257 147.586 405.97 143.758C405.953 143.705 405.947 143.648 405.952 143.592C405.957 143.535 405.973 143.481 405.999 143.431C406.025 143.38 406.06 143.336 406.103 143.299C406.147 143.263 406.197 143.236 406.25 143.218C406.304 143.201 406.361 143.195 406.417 143.2C406.473 143.205 406.528 143.221 406.578 143.247C406.629 143.273 406.673 143.308 406.709 143.351C406.746 143.395 406.773 143.445 406.79 143.498C408.065 147.273 409.65 150.936 411.53 154.448C411.584 154.551 411.595 154.67 411.561 154.78C411.527 154.891 411.452 154.983 411.35 155.038L411.23 155.078Z" fill="white"/>
<path d="M408.39 165.179C408.308 165.194 408.224 165.186 408.146 165.156C408.068 165.126 408.001 165.075 407.95 165.009C407.884 164.913 407.859 164.795 407.88 164.681C407.9 164.567 407.965 164.465 408.06 164.399C412.366 161.384 417.591 159.969 422.83 160.399C422.944 160.413 423.048 160.473 423.118 160.564C423.188 160.655 423.22 160.77 423.205 160.884C423.191 160.998 423.131 161.101 423.04 161.172C422.949 161.242 422.834 161.273 422.72 161.259C417.704 160.877 412.708 162.221 408.56 165.069C408.511 165.116 408.454 165.154 408.39 165.179Z" fill="white"/>
<path d="M282.89 64.5081L258.52 50.4381L234.16 64.5081L258.52 78.5781L282.89 64.5081Z" fill="#FBD5D5"/>
<path d="M258.52 106.728L282.89 92.658V64.5081L258.52 78.578V106.728Z" fill="#FFB6B6"/>
<path d="M263.22 97.3881C263.091 97.3905 262.964 97.3594 262.85 97.2981C262.695 97.1845 262.571 97.0329 262.49 96.8579C262.41 96.6829 262.375 96.4902 262.39 96.2981V93.2981V93.0781H262.54L264.88 91.7081V95.0381C264.877 95.467 264.771 95.8888 264.571 96.2682C264.371 96.6475 264.082 96.9733 263.73 97.2181C263.579 97.3203 263.403 97.3791 263.22 97.3881ZM262.77 93.5181V96.2781C262.754 96.4066 262.77 96.5371 262.817 96.6577C262.864 96.7783 262.941 96.8851 263.04 96.9681C263.121 97.0043 263.21 97.0178 263.299 97.0073C263.387 96.9967 263.47 96.9624 263.54 96.9081C263.84 96.6992 264.086 96.423 264.26 96.1018C264.433 95.7805 264.529 95.4231 264.54 95.0581V94.8181H263.67L263.5 93.6481L262.77 93.5181ZM263.97 94.4381H264.51V92.3881L263.11 93.1981L263.8 93.3281L263.97 94.4381Z" fill="#FF475A"/>
<path d="M263.64 99.7681C263.59 99.7681 263.541 99.748 263.506 99.7124C263.47 99.6768 263.45 99.6284 263.45 99.5781V97.078C263.448 97.0527 263.452 97.0274 263.461 97.0037C263.47 96.9799 263.484 96.9584 263.502 96.9405C263.52 96.9225 263.542 96.9086 263.566 96.8996C263.589 96.8905 263.615 96.8866 263.64 96.8881C263.69 96.8881 263.739 96.9081 263.774 96.9437C263.81 96.9793 263.83 97.0276 263.83 97.078V99.5381C263.834 99.5659 263.832 99.5943 263.825 99.6215C263.817 99.6486 263.804 99.6739 263.786 99.6956C263.768 99.7173 263.746 99.735 263.721 99.7475C263.696 99.76 263.668 99.767 263.64 99.7681Z" fill="#FF475A"/>
<path d="M262.55 100.398C262.517 100.398 262.484 100.388 262.456 100.371C262.428 100.353 262.405 100.328 262.39 100.298C262.376 100.278 262.367 100.254 262.363 100.23C262.359 100.206 262.36 100.181 262.367 100.157C262.374 100.133 262.386 100.111 262.402 100.092C262.418 100.073 262.438 100.058 262.46 100.048L264.63 98.788C264.652 98.7755 264.676 98.7674 264.7 98.7641C264.725 98.7609 264.75 98.7625 264.775 98.769C264.799 98.7755 264.821 98.7868 264.841 98.802C264.861 98.8173 264.878 98.8363 264.89 98.8581C264.913 98.9023 264.918 98.9535 264.905 99.0016C264.892 99.0497 264.862 99.0912 264.82 99.1181L262.64 100.368L262.55 100.398Z" fill="#FF475A"/>
<path d="M270.31 96.0781C270.242 96.099 270.169 96.099 270.1 96.0781C270.027 96.0291 269.968 95.9617 269.93 95.8827C269.891 95.8037 269.874 95.7159 269.88 95.6281V95.1181C269.879 95.0937 269.882 95.0692 269.891 95.0462C269.899 95.0232 269.912 95.0021 269.929 94.9844C269.946 94.9666 269.966 94.9524 269.989 94.9427C270.011 94.9331 270.036 94.9281 270.06 94.9281C270.085 94.9267 270.111 94.9306 270.135 94.9397C270.158 94.9487 270.18 94.9626 270.198 94.9806C270.216 94.9985 270.23 95.0201 270.239 95.0438C270.248 95.0675 270.252 95.0928 270.25 95.1181V95.5381C270.25 95.6181 270.25 95.6581 270.25 95.6581C270.25 95.6581 270.31 95.6581 270.37 95.6581C270.487 95.5525 270.578 95.4224 270.639 95.2772C270.699 95.132 270.727 94.9753 270.72 94.8181V91.5382C270.72 91.5137 270.725 91.4894 270.735 91.4669C270.744 91.4444 270.759 91.4241 270.776 91.4072C270.794 91.3904 270.815 91.3773 270.838 91.3689C270.861 91.3605 270.886 91.3568 270.91 91.3582C270.958 91.3582 271.004 91.3772 271.037 91.4109C271.071 91.4447 271.09 91.4904 271.09 91.5382V94.8781C271.098 95.1008 271.054 95.3221 270.962 95.525C270.87 95.7279 270.732 95.9069 270.56 96.0481C270.479 96.0738 270.395 96.084 270.31 96.0781Z" fill="#FF475A"/>
<path d="M268.33 93.168V92.848C268.377 92.0151 268.618 91.2048 269.035 90.4823C269.452 89.7598 270.033 89.1452 270.73 88.6879C270.98 88.4779 271.288 88.3497 271.613 88.3208C271.938 88.2919 272.264 88.3637 272.547 88.5264C272.829 88.6891 273.055 88.9348 273.194 89.2302C273.332 89.5257 273.376 89.8566 273.32 90.1779V90.288L268.33 93.168ZM271.85 88.728C271.52 88.7383 271.198 88.8386 270.92 89.0179C270.326 89.4097 269.823 89.9236 269.443 90.5255C269.064 91.1273 268.817 91.8032 268.72 92.508L272.94 90.0779C272.956 89.8419 272.911 89.6058 272.81 89.3921C272.708 89.1785 272.553 88.9945 272.36 88.858C272.205 88.7699 272.029 88.725 271.85 88.728Z" fill="#FF475A"/>
<path d="M277 92.2381C276.952 92.2382 276.905 92.2196 276.869 92.1861C276.834 92.1526 276.813 92.1068 276.81 92.0581V85.6781C276.81 85.6277 276.83 85.5794 276.866 85.5437C276.902 85.5081 276.95 85.4881 277 85.4881C277.051 85.4881 277.099 85.5081 277.135 85.5437C277.17 85.5794 277.19 85.6277 277.19 85.6781V92.0581C277.188 92.1068 277.166 92.1526 277.131 92.1861C277.096 92.2196 277.049 92.2382 277 92.2381Z" fill="#FF475A"/>
<path d="M276.49 87.1283H276.42C276.397 87.1185 276.376 87.1043 276.359 87.0864C276.341 87.0685 276.327 87.0474 276.318 87.0241C276.309 87.0009 276.304 86.9761 276.304 86.951C276.305 86.926 276.31 86.9013 276.32 86.8784L276.99 85.3384L277.73 86.1984C277.746 86.2168 277.758 86.2381 277.765 86.2611C277.773 86.2841 277.776 86.3084 277.774 86.3325C277.772 86.3566 277.765 86.3802 277.754 86.4018C277.743 86.4234 277.728 86.4426 277.71 86.4584C277.692 86.4741 277.67 86.4861 277.647 86.4936C277.624 86.5011 277.6 86.5041 277.576 86.5022C277.552 86.5004 277.528 86.4938 277.507 86.4828C277.485 86.4718 277.466 86.4567 277.45 86.4384L277.09 86.0384L276.66 87.0384C276.643 87.0679 276.618 87.092 276.588 87.108C276.558 87.1239 276.524 87.131 276.49 87.1283Z" fill="#FF475A"/>
<path d="M278.77 91.2582C278.721 91.2556 278.676 91.2345 278.642 91.1991C278.609 91.1638 278.59 91.1169 278.59 91.0682V84.6882C278.584 84.6603 278.583 84.6313 278.59 84.6034C278.596 84.5754 278.608 84.5493 278.626 84.5268C278.644 84.5044 278.667 84.4863 278.692 84.4738C278.718 84.4614 278.746 84.4549 278.775 84.4549C278.804 84.4549 278.832 84.4614 278.858 84.4738C278.884 84.4863 278.906 84.5044 278.924 84.5268C278.942 84.5493 278.954 84.5754 278.96 84.6034C278.967 84.6313 278.967 84.6603 278.96 84.6882V91.0682C278.96 91.1186 278.94 91.1669 278.904 91.2025C278.869 91.2382 278.82 91.2582 278.77 91.2582Z" fill="#FF475A"/>
<path d="M278.22 86.1383H278.15C278.127 86.1285 278.106 86.1142 278.089 86.0963C278.071 86.0784 278.057 86.0573 278.048 86.034C278.039 86.0108 278.034 85.986 278.034 85.961C278.035 85.936 278.04 85.9113 278.05 85.8883L278.72 84.3483L279.46 85.2083C279.493 85.2435 279.511 85.29 279.511 85.3383C279.511 85.3866 279.493 85.433 279.46 85.4683C279.423 85.502 279.375 85.5207 279.325 85.5207C279.275 85.5207 279.227 85.502 279.19 85.4683L278.84 85.0583L278.41 86.0583C278.389 86.0885 278.36 86.1121 278.327 86.1263C278.293 86.1405 278.256 86.1446 278.22 86.1383Z" fill="#FF475A"/>
<path d="M258.52 106.728L234.15 92.658L234.16 64.5081L258.52 78.578V106.728Z" fill="#FF99A3"/>
<path d="M247.66 72.3083L272.01 58.2283L269.26 56.6383L244.9 70.7183L247.66 72.3083Z" fill="#FF475A"/>
<path d="M237.85 80.6484L246.58 85.6484C247.082 85.9792 247.5 86.4226 247.8 86.9435C248.101 87.4643 248.275 88.0481 248.31 88.6484V94.0284C248.31 95.1384 247.53 95.5884 246.58 95.0284L237.85 90.0284C237.347 89.6982 236.929 89.2548 236.629 88.7339C236.328 88.2129 236.154 87.6288 236.12 87.0284V81.6484C236.12 80.5384 236.9 80.0984 237.85 80.6484Z" fill="#BA68C8"/>
<path d="M237.18 81.9881L237.51 82.1881V88.1581L237.18 87.9681V81.9881Z" fill="#BA68C8"/>
<path d="M238.53 82.7679L239.1 83.108V89.0779L238.53 88.7479V82.7679Z" fill="#BA68C8"/>
<path d="M239.88 83.5483L240.21 83.7383V89.7183L239.88 89.5283V83.5483Z" fill="#BA68C8"/>
<path d="M240.89 84.1282L241.56 84.5182V90.4982L240.89 90.0982V84.1282Z" fill="#BA68C8"/>
<path d="M242.57 85.1083L242.91 85.2983V91.2783L242.57 91.0783V85.1083Z" fill="#BA68C8"/>
<path d="M243.55 85.6582L244.25 86.0782V92.0482L243.54 91.6282L243.55 85.6582Z" fill="#BA68C8"/>
<path d="M245.27 86.6681L245.6 86.8581V92.8281L245.27 92.6381V86.6681Z" fill="#BA68C8"/>
<path d="M246.04 87.0982L246.21 87.1982V93.1682L246.04 93.0782V87.0982Z" fill="#BA68C8"/>
<path d="M244.66 86.3384L244.82 86.4384V92.4084L244.66 92.3184V86.3384Z" fill="#BA68C8"/>
<path d="M241.94 84.7482L242.1 84.8382V90.8182L241.94 90.7182V84.7482Z" fill="#BA68C8"/>
<path d="M240.45 83.8882L240.62 83.9882V89.9682L240.45 89.8682V83.8882Z" fill="#BA68C8"/>
<path d="M239.38 83.2984L239.55 83.3984V89.3784L239.38 89.2784V83.2984Z" fill="#BA68C8"/>
<path d="M237.93 82.4182L238.1 82.5182V88.4982L237.93 88.3982V82.4182Z" fill="#BA68C8"/>
<path d="M246.62 87.438L246.95 87.6281V93.6081L246.62 93.4181V87.438Z" fill="#BA68C8"/>
<path d="M250.4 59.8182L221.96 43.4082L193.53 59.8182L221.96 76.2382L250.4 59.8182Z" fill="#FBD5D5"/>
<path d="M209.77 69.1982L238.21 52.7882L235.45 51.1982L207.02 67.6082L209.77 69.1982Z" fill="#FF475A"/>
<path d="M221.96 127.828L250.4 111.418V59.8183L221.96 76.2383V127.828Z" fill="#FFB6B6"/>
<path d="M226.66 118.538C226.53 118.541 226.401 118.506 226.29 118.438C226.132 118.327 226.007 118.176 225.926 118C225.845 117.824 225.812 117.631 225.83 117.438V114.438V114.218H225.99L228.32 112.848V116.178C228.315 116.607 228.208 117.028 228.008 117.407C227.808 117.786 227.521 118.112 227.17 118.358C227.02 118.464 226.843 118.526 226.66 118.538ZM226.21 114.668V117.428C226.193 117.557 226.209 117.687 226.257 117.808C226.304 117.929 226.381 118.035 226.48 118.118C226.561 118.155 226.65 118.168 226.738 118.158C226.826 118.147 226.91 118.113 226.98 118.058C227.279 117.849 227.526 117.573 227.7 117.252C227.873 116.931 227.969 116.573 227.98 116.208V115.968H227.11L226.94 114.798L226.21 114.668ZM227.41 115.588H228V113.538L226.6 114.358L227.29 114.478L227.41 115.588Z" fill="#FF475A"/>
<path d="M227.08 120.878C227.03 120.878 226.981 120.858 226.946 120.822C226.91 120.787 226.89 120.738 226.89 120.688V118.178C226.89 118.154 226.895 118.129 226.905 118.107C226.914 118.084 226.929 118.064 226.946 118.047C226.964 118.03 226.985 118.017 227.008 118.009C227.031 118 227.056 117.997 227.08 117.998C227.129 117.998 227.176 118.017 227.211 118.05C227.246 118.084 227.268 118.129 227.27 118.178V120.688C227.268 120.738 227.247 120.785 227.212 120.82C227.177 120.855 227.13 120.876 227.08 120.878Z" fill="#FF475A"/>
<path d="M226 121.538C225.968 121.539 225.936 121.531 225.908 121.515C225.88 121.5 225.856 121.476 225.84 121.448C225.817 121.404 225.812 121.353 225.825 121.305C225.838 121.257 225.868 121.215 225.91 121.188L228.08 119.938C228.102 119.926 228.126 119.918 228.151 119.915C228.175 119.911 228.201 119.913 228.225 119.919C228.249 119.926 228.272 119.937 228.291 119.952C228.311 119.968 228.328 119.987 228.34 120.008C228.353 120.029 228.361 120.052 228.364 120.077C228.367 120.101 228.365 120.125 228.359 120.148C228.352 120.172 228.341 120.193 228.326 120.212C228.31 120.231 228.292 120.247 228.27 120.258L226.09 121.518C226.063 121.534 226.032 121.541 226 121.538Z" fill="#FF475A"/>
<path d="M233.75 117.188C233.677 117.188 233.605 117.171 233.54 117.138C233.467 117.089 233.408 117.022 233.37 116.943C233.331 116.864 233.314 116.776 233.32 116.688V116.168C233.32 116.144 233.325 116.119 233.335 116.097C233.345 116.074 233.359 116.054 233.376 116.037C233.394 116.02 233.415 116.007 233.438 115.999C233.461 115.99 233.486 115.987 233.51 115.988C233.534 115.988 233.557 115.993 233.579 116.002C233.601 116.011 233.621 116.024 233.638 116.041C233.654 116.057 233.667 116.077 233.677 116.099C233.686 116.121 233.69 116.144 233.69 116.168V116.688C233.69 116.758 233.69 116.798 233.69 116.808C233.69 116.818 233.75 116.808 233.81 116.808C233.927 116.7 234.019 116.569 234.079 116.422C234.14 116.275 234.167 116.117 234.16 115.958V112.628C234.16 112.578 234.18 112.529 234.216 112.494C234.252 112.458 234.3 112.438 234.35 112.438C234.4 112.44 234.447 112.461 234.482 112.496C234.517 112.532 234.538 112.578 234.54 112.628V115.958C234.55 116.182 234.506 116.405 234.412 116.608C234.318 116.812 234.177 116.99 234 117.128C233.923 117.167 233.837 117.187 233.75 117.188Z" fill="#FF475A"/>
<path d="M231.77 114.278V113.948C231.817 113.117 232.059 112.308 232.476 111.588C232.893 110.867 233.473 110.254 234.17 109.798C234.42 109.588 234.728 109.46 235.053 109.431C235.378 109.402 235.704 109.474 235.986 109.637C236.269 109.799 236.495 110.045 236.634 110.34C236.772 110.636 236.816 110.967 236.76 111.288V111.398L231.77 114.278ZM235.29 109.828C234.96 109.843 234.64 109.943 234.36 110.118C233.765 110.511 233.261 111.027 232.881 111.63C232.502 112.234 232.256 112.912 232.16 113.618L236.38 111.188C236.395 110.951 236.349 110.714 236.248 110.499C236.147 110.284 235.992 110.098 235.8 109.958C235.643 109.873 235.468 109.828 235.29 109.828Z" fill="#FF475A"/>
<path d="M240.48 113.348C240.429 113.348 240.381 113.328 240.346 113.293C240.31 113.257 240.29 113.209 240.29 113.158V106.778C240.29 106.728 240.31 106.68 240.346 106.644C240.381 106.608 240.429 106.588 240.48 106.588C240.53 106.588 240.579 106.608 240.614 106.644C240.65 106.68 240.67 106.728 240.67 106.778V113.158C240.67 113.209 240.65 113.257 240.614 113.293C240.579 113.328 240.53 113.348 240.48 113.348Z" fill="#FF475A"/>
<path d="M239.93 108.238H239.86C239.837 108.229 239.817 108.216 239.799 108.199C239.782 108.182 239.768 108.162 239.759 108.139C239.749 108.117 239.745 108.093 239.745 108.069C239.745 108.044 239.75 108.02 239.76 107.998L240.43 106.458L241.17 107.318C241.202 107.355 241.218 107.403 241.214 107.452C241.21 107.501 241.187 107.546 241.15 107.578C241.113 107.61 241.065 107.626 241.016 107.622C240.967 107.618 240.922 107.595 240.89 107.558L240.53 107.148L240.1 108.148C240.083 108.178 240.058 108.202 240.028 108.218C239.998 108.234 239.964 108.241 239.93 108.238Z" fill="#FF475A"/>
<path d="M242.21 112.358C242.163 112.358 242.117 112.339 242.083 112.305C242.049 112.272 242.03 112.226 242.03 112.178V105.798C242.029 105.774 242.033 105.749 242.041 105.726C242.049 105.703 242.062 105.682 242.079 105.664C242.096 105.647 242.116 105.632 242.139 105.623C242.162 105.613 242.186 105.608 242.21 105.608C242.236 105.607 242.261 105.611 242.285 105.62C242.308 105.629 242.33 105.643 242.348 105.661C242.366 105.678 242.38 105.7 242.389 105.724C242.398 105.747 242.402 105.773 242.4 105.798V112.178C242.4 112.203 242.395 112.227 242.386 112.249C242.376 112.272 242.362 112.292 242.344 112.309C242.326 112.326 242.305 112.339 242.282 112.347C242.259 112.356 242.235 112.36 242.21 112.358Z" fill="#FF475A"/>
<path d="M241.67 107.248H241.59C241.545 107.226 241.51 107.189 241.492 107.142C241.473 107.096 241.473 107.045 241.49 106.998L242.16 105.458L242.91 106.318C242.941 106.354 242.958 106.4 242.958 106.448C242.958 106.496 242.941 106.542 242.91 106.578C242.892 106.596 242.871 106.61 242.848 106.62C242.825 106.629 242.8 106.634 242.775 106.634C242.75 106.634 242.725 106.629 242.702 106.62C242.679 106.61 242.658 106.596 242.64 106.578L242.29 106.168L241.86 107.168C241.84 107.199 241.812 107.224 241.778 107.238C241.744 107.252 241.706 107.256 241.67 107.248Z" fill="#FF475A"/>
<path d="M221.96 127.828L193.53 111.418V59.8183L221.96 76.2383V127.828Z" fill="#FF99A3"/>
<path d="M199.31 100.688L208.03 105.688C208.535 106.017 208.955 106.46 209.257 106.981C209.559 107.502 209.735 108.087 209.77 108.688V114.078C209.77 115.178 208.99 115.628 208.03 115.078L199.31 110.078C198.806 109.75 198.386 109.307 198.086 108.786C197.785 108.264 197.612 107.679 197.58 107.078V101.698C197.58 100.538 198.36 100.138 199.31 100.688Z" fill="#FBD5D5"/>
<path d="M198.64 102.028L198.97 102.228V108.198L198.64 108.008V102.028Z" fill="#FF99A3"/>
<path d="M199.99 102.808L200.56 103.148V109.128L199.99 108.788V102.808Z" fill="#FF99A3"/>
<path d="M201.33 103.588L201.67 103.778L201.66 109.758L201.33 109.568V103.588Z" fill="#FF99A3"/>
<path d="M202.35 104.168L203.01 104.558V110.538L202.35 110.138V104.168Z" fill="#FF99A3"/>
<path d="M204.03 105.148L204.36 105.338V111.318L204.03 111.118V105.148Z" fill="#FF99A3"/>
<path d="M205 105.698L205.71 106.118V112.088L205 111.668V105.698Z" fill="#FF99A3"/>
<path d="M206.73 106.698L207.06 106.898V112.868L206.73 112.678V106.698Z" fill="#FF99A3"/>
<path d="M207.5 107.138L207.67 107.238V113.218L207.5 113.118V107.138Z" fill="#FF99A3"/>
<path d="M206.12 106.378L206.28 106.478V112.448L206.12 112.358V106.378Z" fill="#FF99A3"/>
<path d="M203.4 104.788L203.56 104.878V110.858L203.4 110.758V104.788Z" fill="#FF99A3"/>
<path d="M201.91 103.928L202.07 104.028V110.008L201.91 109.908V103.928Z" fill="#FF99A3"/>
<path d="M200.84 103.338L201.01 103.438V109.418L200.84 109.318V103.338Z" fill="#FF99A3"/>
<path d="M199.39 102.458L199.56 102.558V108.538L199.39 108.438V102.458Z" fill="#FF99A3"/>
<path d="M208.08 107.478L208.41 107.668V113.648L208.08 113.458V107.478Z" fill="#FF99A3"/>
<path d="M207.02 74.2683L209.77 75.8583V69.1983L207.02 67.6083V74.2683Z" fill="#F0F0F0"/>
<path d="M165.09 113.758L144.78 102.038L116.35 118.448L136.66 130.178L165.09 113.758Z" fill="#FBD5D5"/>
<path d="M136.66 177.078L165.09 160.668V113.758L136.66 130.178V177.078Z" fill="#FFB6B6"/>
<path d="M141.35 167.748C141.223 167.751 141.098 167.716 140.99 167.648C140.833 167.536 140.708 167.385 140.627 167.209C140.547 167.034 140.513 166.841 140.53 166.648V163.648V163.428H140.68L143.02 162.058V165.388C143.015 165.817 142.908 166.238 142.708 166.617C142.508 166.996 142.221 167.322 141.87 167.568C141.716 167.673 141.536 167.735 141.35 167.748ZM140.91 163.878V166.638C140.891 166.767 140.907 166.898 140.954 167.019C141.001 167.14 141.079 167.246 141.18 167.328C141.262 167.361 141.35 167.372 141.438 167.361C141.525 167.351 141.608 167.319 141.68 167.268C141.98 167.059 142.226 166.783 142.4 166.462C142.573 166.141 142.669 165.783 142.68 165.418V165.178H141.81L141.64 164.008L140.91 163.878ZM142.11 164.798H142.65V162.738L141.25 163.558L141.94 163.678L142.11 164.798Z" fill="#FF475A"/>
<path d="M141.78 170.128C141.73 170.128 141.681 170.108 141.646 170.072C141.61 170.037 141.59 169.988 141.59 169.938V167.428C141.59 167.403 141.595 167.379 141.605 167.357C141.614 167.334 141.629 167.314 141.646 167.297C141.664 167.28 141.685 167.267 141.708 167.259C141.731 167.25 141.756 167.247 141.78 167.248C141.828 167.248 141.874 167.267 141.907 167.301C141.941 167.334 141.96 167.38 141.96 167.428V169.938C141.96 169.987 141.942 170.034 141.908 170.069C141.875 170.104 141.829 170.125 141.78 170.128Z" fill="#FF475A"/>
<path d="M140.69 170.748C140.658 170.75 140.625 170.743 140.597 170.727C140.569 170.711 140.545 170.687 140.53 170.658C140.516 170.638 140.506 170.614 140.501 170.59C140.496 170.565 140.497 170.54 140.503 170.515C140.508 170.491 140.519 170.468 140.534 170.447C140.549 170.427 140.568 170.411 140.59 170.398L142.77 169.148C142.792 169.136 142.816 169.128 142.841 169.124C142.865 169.121 142.891 169.123 142.915 169.129C142.939 169.136 142.962 169.147 142.981 169.162C143.001 169.178 143.018 169.197 143.03 169.218C143.043 169.239 143.05 169.262 143.054 169.286C143.057 169.31 143.055 169.335 143.048 169.358C143.042 169.382 143.031 169.403 143.016 169.422C143 169.441 142.982 169.457 142.96 169.468L140.78 170.728C140.753 170.744 140.722 170.751 140.69 170.748Z" fill="#FF475A"/>
<path d="M148.45 166.438C148.377 166.438 148.305 166.421 148.24 166.388C148.167 166.339 148.108 166.272 148.07 166.192C148.031 166.113 148.014 166.026 148.02 165.938V165.418C148.02 165.37 148.039 165.324 148.073 165.291C148.106 165.257 148.152 165.238 148.2 165.238C148.224 165.237 148.249 165.24 148.272 165.249C148.295 165.257 148.316 165.27 148.334 165.287C148.352 165.304 148.366 165.324 148.375 165.347C148.385 165.369 148.39 165.393 148.39 165.418V165.938C148.39 166.008 148.39 166.048 148.39 166.058C148.39 166.068 148.45 166.058 148.51 166.058C148.625 165.949 148.715 165.817 148.775 165.67C148.836 165.524 148.864 165.366 148.86 165.208V161.878C148.853 161.85 148.853 161.821 148.86 161.793C148.866 161.765 148.878 161.739 148.896 161.717C148.914 161.694 148.936 161.676 148.962 161.664C148.988 161.651 149.016 161.645 149.045 161.645C149.074 161.645 149.102 161.651 149.128 161.664C149.153 161.676 149.176 161.694 149.194 161.717C149.212 161.739 149.224 161.765 149.23 161.793C149.237 161.821 149.236 161.85 149.23 161.878V165.208C149.238 165.431 149.195 165.652 149.103 165.855C149.011 166.058 148.873 166.237 148.7 166.378C148.622 166.417 148.537 166.437 148.45 166.438Z" fill="#FF475A"/>
<path d="M146.47 163.538V163.208C146.517 162.377 146.759 161.568 147.176 160.848C147.593 160.127 148.173 159.514 148.87 159.058C149.118 158.846 149.426 158.716 149.752 158.686C150.077 158.656 150.404 158.728 150.687 158.891C150.97 159.054 151.195 159.302 151.332 159.598C151.468 159.895 151.51 160.227 151.45 160.548V160.658L146.47 163.538ZM149.99 159.088C149.66 159.103 149.34 159.203 149.06 159.378C148.465 159.771 147.961 160.287 147.581 160.89C147.202 161.494 146.956 162.172 146.86 162.878L151.08 160.438C151.094 160.202 151.048 159.967 150.947 159.754C150.845 159.54 150.692 159.356 150.5 159.218C150.347 159.131 150.176 159.083 150 159.078L149.99 159.088Z" fill="#FF475A"/>
<path d="M155.18 162.598C155.13 162.598 155.081 162.578 155.046 162.543C155.01 162.507 154.99 162.459 154.99 162.408V156.028C154.99 155.978 155.01 155.93 155.046 155.894C155.081 155.858 155.13 155.838 155.18 155.838C155.23 155.838 155.279 155.858 155.314 155.894C155.35 155.93 155.37 155.978 155.37 156.028V162.408C155.37 162.459 155.35 162.507 155.314 162.543C155.279 162.578 155.23 162.598 155.18 162.598Z" fill="#FF475A"/>
<path d="M154.63 157.538H154.56C154.537 157.529 154.517 157.516 154.499 157.499C154.482 157.482 154.468 157.462 154.459 157.439C154.449 157.417 154.445 157.393 154.445 157.369C154.445 157.344 154.45 157.32 154.46 157.298L155.13 155.758L155.87 156.618C155.902 156.655 155.918 156.703 155.914 156.752C155.91 156.801 155.887 156.846 155.85 156.878C155.832 156.894 155.81 156.906 155.787 156.913C155.764 156.921 155.74 156.924 155.716 156.922C155.667 156.918 155.622 156.895 155.59 156.858L155.23 156.448L154.8 157.448C154.783 157.478 154.758 157.502 154.728 157.518C154.698 157.534 154.664 157.541 154.63 157.538Z" fill="#FF475A"/>
<path d="M156.91 161.608C156.861 161.608 156.814 161.59 156.779 161.556C156.744 161.523 156.723 161.477 156.72 161.428V155.048C156.72 154.998 156.74 154.949 156.776 154.914C156.811 154.878 156.86 154.858 156.91 154.858C156.935 154.857 156.961 154.861 156.984 154.87C157.008 154.879 157.03 154.893 157.048 154.911C157.065 154.929 157.079 154.95 157.088 154.974C157.097 154.998 157.101 155.023 157.1 155.048V161.428C157.1 161.453 157.095 161.477 157.085 161.499C157.076 161.522 157.062 161.542 157.044 161.559C157.026 161.576 157.005 161.589 156.982 161.597C156.959 161.606 156.934 161.61 156.91 161.608Z" fill="#FF475A"/>
<path d="M156.36 156.538C156.338 156.546 156.313 156.546 156.29 156.538C156.267 156.529 156.247 156.516 156.229 156.499C156.212 156.482 156.198 156.462 156.189 156.439C156.18 156.417 156.175 156.393 156.175 156.369C156.175 156.344 156.18 156.32 156.19 156.298L156.86 154.758L157.6 155.618C157.633 155.653 157.652 155.7 157.652 155.748C157.652 155.796 157.633 155.843 157.6 155.878C157.582 155.896 157.561 155.91 157.538 155.92C157.515 155.929 157.49 155.934 157.465 155.934C157.44 155.934 157.415 155.929 157.392 155.92C157.369 155.91 157.348 155.896 157.33 155.878L156.98 155.468L156.55 156.468C156.528 156.496 156.499 156.518 156.465 156.53C156.432 156.543 156.395 156.545 156.36 156.538Z" fill="#FF475A"/>
<path d="M136.66 177.078L116.35 165.358V118.448L136.66 130.178V177.078Z" fill="#FF99A3"/>
<path d="M125.78 130.558L128.53 132.148V125.488L125.78 123.898V130.558Z" fill="#FBD5D5"/>
<path d="M128.53 125.488L156.97 109.068L154.21 107.478L125.78 123.898L128.53 125.488Z" fill="#FF475A"/>
<path d="M128.53 153.628L91.9801 132.528L55.4201 153.628L91.9801 174.738L128.53 153.628Z" fill="#FBD5D5"/>
<path d="M91.98 202.878L128.53 181.778V153.628L91.98 174.738V202.878Z" fill="#FFB6B6"/>
<path d="M96.6699 193.538C96.5433 193.536 96.4195 193.501 96.3099 193.438C96.1536 193.325 96.0291 193.174 95.9485 192.999C95.8679 192.823 95.834 192.63 95.8499 192.438V189.438V189.218H95.9999L98.3399 187.838V191.178C98.3334 191.605 98.2258 192.024 98.0259 192.401C97.826 192.779 97.5395 193.103 97.1899 193.348C97.036 193.456 96.8568 193.521 96.6699 193.538ZM96.2199 189.668V192.428C96.2021 192.555 96.2176 192.685 96.2649 192.804C96.3123 192.923 96.3898 193.028 96.4899 193.108C96.5717 193.146 96.662 193.161 96.7516 193.152C96.8412 193.143 96.9268 193.111 96.9999 193.058C97.2982 192.848 97.5438 192.572 97.7173 192.251C97.8908 191.93 97.9875 191.573 97.9999 191.208V190.958H97.0999L96.9299 189.788L96.2199 189.668ZM97.4199 190.588H97.9999V188.538L96.6099 189.358L97.2999 189.478L97.4199 190.588Z" fill="#FF475A"/>
<path d="M97.0899 195.918C97.0662 195.918 97.0428 195.914 97.021 195.905C96.9992 195.896 96.9793 195.882 96.9626 195.866C96.9459 195.849 96.9326 195.829 96.9236 195.807C96.9145 195.785 96.9099 195.762 96.9099 195.738V193.228C96.9034 193.2 96.9032 193.171 96.9095 193.143C96.9157 193.116 96.9282 193.089 96.946 193.067C96.9638 193.045 96.9864 193.026 97.0122 193.014C97.038 193.001 97.0662 192.995 97.0949 192.995C97.1235 192.995 97.1518 193.001 97.1775 193.014C97.2033 193.026 97.226 193.045 97.2437 193.067C97.2615 193.089 97.274 193.116 97.2803 193.143C97.2865 193.171 97.2864 193.2 97.2799 193.228V195.738C97.2799 195.763 97.2749 195.787 97.2653 195.81C97.2556 195.832 97.2415 195.852 97.2237 195.869C97.2059 195.886 97.1848 195.899 97.1618 195.908C97.1388 195.916 97.1143 195.92 97.0899 195.918Z" fill="#FF475A"/>
<path d="M96.0002 196.538C95.9601 196.536 95.9219 196.521 95.891 196.495C95.86 196.47 95.838 196.435 95.828 196.396C95.818 196.357 95.8206 196.316 95.8353 196.279C95.8501 196.242 95.8763 196.21 95.9102 196.188L98.0902 194.938C98.11 194.924 98.1326 194.914 98.1566 194.91C98.1805 194.905 98.2052 194.905 98.2289 194.911C98.2526 194.917 98.2748 194.928 98.294 194.943C98.3132 194.958 98.329 194.977 98.3402 194.998C98.3545 195.019 98.3644 195.042 98.3692 195.067C98.3739 195.092 98.3735 195.117 98.3678 195.142C98.3622 195.166 98.3514 195.189 98.3364 195.209C98.3213 195.229 98.3021 195.246 98.2802 195.258L96.1002 196.538H96.0002Z" fill="#FF475A"/>
<path d="M103.76 192.238C103.694 192.253 103.626 192.253 103.56 192.238C103.484 192.19 103.422 192.121 103.382 192.04C103.341 191.959 103.323 191.869 103.33 191.778V191.268C103.33 191.218 103.35 191.17 103.386 191.134C103.422 191.098 103.47 191.078 103.52 191.078C103.571 191.078 103.619 191.098 103.655 191.134C103.69 191.17 103.71 191.218 103.71 191.268V191.778C103.697 191.821 103.697 191.866 103.71 191.908C103.71 191.908 103.77 191.908 103.84 191.908C103.953 191.798 104.042 191.666 104.1 191.519C104.159 191.373 104.186 191.216 104.18 191.058V187.728C104.183 187.679 104.203 187.632 104.239 187.597C104.274 187.562 104.321 187.541 104.37 187.538C104.421 187.538 104.469 187.558 104.505 187.594C104.54 187.63 104.56 187.678 104.56 187.728V191.058C104.568 191.281 104.525 191.503 104.433 191.706C104.341 191.909 104.203 192.088 104.03 192.228C103.942 192.253 103.85 192.256 103.76 192.238Z" fill="#FF475A"/>
<path d="M101.79 189.328V188.998C101.833 188.166 102.074 187.356 102.491 186.634C102.908 185.913 103.49 185.301 104.19 184.848C104.438 184.636 104.746 184.506 105.072 184.476C105.397 184.446 105.724 184.517 106.007 184.681C106.29 184.844 106.515 185.091 106.652 185.388C106.788 185.685 106.83 186.017 106.77 186.338V186.448L101.79 189.328ZM105.31 184.878C104.977 184.895 104.654 184.995 104.37 185.168C103.777 185.562 103.274 186.078 102.897 186.681C102.519 187.285 102.275 187.962 102.18 188.668L106.39 186.228C106.406 185.993 106.362 185.758 106.262 185.544C106.163 185.331 106.01 185.146 105.82 185.008C105.665 184.92 105.488 184.875 105.31 184.878Z" fill="#FF475A"/>
<path d="M110.5 188.398C110.475 188.399 110.449 188.396 110.426 188.387C110.402 188.377 110.38 188.364 110.362 188.346C110.344 188.328 110.331 188.306 110.322 188.282C110.312 188.259 110.309 188.233 110.31 188.208V181.828C110.303 181.8 110.303 181.771 110.31 181.743C110.316 181.715 110.328 181.689 110.346 181.667C110.364 181.644 110.387 181.626 110.412 181.614C110.438 181.601 110.466 181.595 110.495 181.595C110.524 181.595 110.552 181.601 110.578 181.614C110.603 181.626 110.626 181.644 110.644 181.667C110.662 181.689 110.674 181.715 110.68 181.743C110.687 181.771 110.687 181.8 110.68 181.828V188.208C110.681 188.232 110.678 188.257 110.669 188.28C110.661 188.303 110.648 188.324 110.631 188.342C110.614 188.36 110.594 188.374 110.571 188.383C110.549 188.393 110.525 188.398 110.5 188.398Z" fill="#FF475A"/>
<path d="M110 183.288H109.92C109.897 183.278 109.876 183.264 109.859 183.246C109.842 183.228 109.829 183.206 109.82 183.183C109.812 183.159 109.808 183.134 109.81 183.109C109.812 183.084 109.819 183.06 109.83 183.038L110.49 181.498L111.24 182.358C111.273 182.396 111.29 182.446 111.286 182.497C111.282 182.548 111.259 182.595 111.22 182.628C111.182 182.661 111.132 182.678 111.081 182.674C111.03 182.67 110.983 182.646 110.95 182.608L110.6 182.198L110.17 183.198C110.152 183.227 110.127 183.25 110.097 183.266C110.068 183.282 110.034 183.289 110 183.288Z" fill="#FF475A"/>
<path d="M112.23 187.408C112.18 187.408 112.131 187.388 112.096 187.353C112.06 187.317 112.04 187.269 112.04 187.218V180.838C112.04 180.788 112.06 180.739 112.096 180.704C112.131 180.668 112.18 180.648 112.23 180.648C112.28 180.648 112.329 180.668 112.364 180.704C112.4 180.739 112.42 180.788 112.42 180.838V187.218C112.42 187.269 112.4 187.317 112.364 187.353C112.329 187.388 112.28 187.408 112.23 187.408Z" fill="#FF475A"/>
<path d="M111.68 182.298H111.61C111.587 182.289 111.567 182.276 111.549 182.259C111.532 182.242 111.518 182.222 111.509 182.199C111.499 182.177 111.495 182.153 111.495 182.129C111.495 182.104 111.5 182.08 111.51 182.058L112.18 180.508L112.92 181.368C112.938 181.386 112.952 181.407 112.962 181.43C112.971 181.453 112.976 181.478 112.976 181.503C112.976 181.528 112.971 181.553 112.962 181.576C112.952 181.599 112.938 181.62 112.92 181.638C112.903 181.656 112.883 181.67 112.861 181.679C112.838 181.689 112.814 181.694 112.79 181.694C112.766 181.694 112.742 181.689 112.719 181.679C112.697 181.67 112.677 181.656 112.66 181.638L112.3 181.228L111.87 182.228C111.849 182.258 111.82 182.28 111.786 182.292C111.752 182.305 111.715 182.307 111.68 182.298Z" fill="#FF475A"/>
<path d="M91.9801 202.878L55.4201 181.778V153.628L91.9801 174.738V202.878Z" fill="#FF99A3"/>
<path d="M72.3203 170.048L75.0703 171.638V164.978L72.3203 163.388V170.048Z" fill="#FBD5D5"/>
<path d="M75.0703 164.978L111.63 143.878L108.88 142.278L72.3203 163.388L75.0703 164.978Z" fill="#FF475A"/>
<path d="M61.21 171.049L69.9299 176.049C70.4344 176.378 70.8547 176.82 71.1569 177.341C71.4591 177.863 71.6348 178.447 71.6699 179.049V184.439C71.6699 185.539 70.8899 185.989 69.9299 185.439L61.21 180.439C60.7057 180.11 60.2861 179.667 59.9855 179.146C59.6848 178.624 59.5116 178.039 59.48 177.439V172.059C59.48 170.939 60.26 170.539 61.21 171.049Z" fill="#FBD5D5"/>
<path d="M60.5399 172.388L60.8699 172.578V178.558L60.5399 178.368V172.388Z" fill="#FF99A3"/>
<path d="M61.8802 173.168L62.4601 173.508V179.478L61.8802 179.148V173.168Z" fill="#FF99A3"/>
<path d="M63.23 173.948L63.57 174.138L63.56 180.118L63.23 179.928V173.948Z" fill="#FF99A3"/>
<path d="M64.25 174.528L64.92 174.918L64.91 180.898L64.25 180.498V174.528Z" fill="#FF99A3"/>
<path d="M65.9301 175.508L66.2601 175.698V181.678L65.9301 181.478V175.508Z" fill="#FF99A3"/>
<path d="M66.9 176.058L67.61 176.478V182.448L66.9 182.028V176.058Z" fill="#FF99A3"/>
<path d="M68.6301 177.068L68.9601 177.258V183.228L68.6301 183.038V177.068Z" fill="#FF99A3"/>
<path d="M69.4002 177.498L69.5702 177.598V183.568L69.4002 183.478V177.498Z" fill="#FF99A3"/>
<path d="M68.0198 176.738L68.1798 176.828V182.808L68.0198 182.718V176.738Z" fill="#FF99A3"/>
<path d="M65.3002 175.148L65.4602 175.238V181.218L65.3002 181.118V175.148Z" fill="#FF99A3"/>
<path d="M63.8102 174.288L63.9802 174.388V180.358L63.8102 180.268V174.288Z" fill="#FF99A3"/>
<path d="M62.7399 173.698L62.9099 173.798V179.778L62.7399 179.678V173.698Z" fill="#FF99A3"/>
<path d="M61.2899 172.818L61.4599 172.918V178.888L61.2899 178.798V172.818Z" fill="#FF99A3"/>
<path d="M69.98 177.838L70.31 178.038V184.008L69.98 183.818V177.838Z" fill="#FF99A3"/>
<path d="M120.41 97.3483L91.9798 80.9283L63.5398 97.3483L91.9798 113.758L120.41 97.3483Z" fill="#FBD5D5"/>
<path d="M91.98 170.048L120.41 153.628V97.3483L91.98 113.758V170.048Z" fill="#FFB6B6"/>
<path d="M96.6699 160.708C96.5442 160.709 96.4203 160.678 96.3099 160.618C96.1536 160.505 96.0291 160.354 95.9485 160.178C95.8679 160.003 95.834 159.81 95.8499 159.618V156.618V156.398H95.9999L98.3399 155.028V158.358C98.3342 158.786 98.227 159.207 98.027 159.586C97.8271 159.965 97.5402 160.291 97.1899 160.538C97.0344 160.639 96.8551 160.698 96.6699 160.708ZM96.2199 156.838V159.608C96.204 159.735 96.2204 159.864 96.2676 159.983C96.3148 160.101 96.3913 160.206 96.4899 160.288C96.5717 160.325 96.662 160.34 96.7516 160.332C96.8412 160.323 96.9268 160.291 96.9999 160.238C97.2984 160.026 97.544 159.748 97.7175 159.425C97.8909 159.102 97.9876 158.744 97.9999 158.378V158.138H97.0999L96.9299 156.968L96.2199 156.838ZM97.4199 157.758H97.9999V155.708L96.6099 156.528L97.2999 156.648L97.4199 157.758Z" fill="#FF475A"/>
<path d="M97.09 163.088C97.0655 163.088 97.0413 163.083 97.0188 163.073C96.9963 163.064 96.976 163.05 96.9591 163.032C96.9423 163.014 96.9292 162.993 96.9208 162.97C96.9123 162.947 96.9087 162.923 96.9101 162.898V160.398C96.9087 160.374 96.9123 160.349 96.9208 160.326C96.9292 160.303 96.9423 160.282 96.9591 160.264C96.976 160.247 96.9963 160.232 97.0188 160.223C97.0413 160.213 97.0655 160.208 97.09 160.208C97.1154 160.207 97.1407 160.211 97.1644 160.22C97.1881 160.229 97.2097 160.243 97.2276 160.261C97.2456 160.278 97.2595 160.3 97.2685 160.324C97.2776 160.347 97.2815 160.373 97.28 160.398V162.898C97.2815 162.923 97.2776 162.949 97.2685 162.972C97.2595 162.996 97.2456 163.018 97.2276 163.036C97.2097 163.054 97.1881 163.068 97.1644 163.077C97.1407 163.086 97.1154 163.09 97.09 163.088Z" fill="#FF475A"/>
<path d="M96.0002 163.718C95.9601 163.716 95.9219 163.701 95.891 163.675C95.86 163.65 95.838 163.615 95.828 163.576C95.818 163.537 95.8206 163.496 95.8353 163.459C95.8501 163.422 95.8763 163.39 95.9102 163.368L98.0901 162.108C98.1339 162.083 98.1859 162.076 98.2346 162.089C98.2834 162.103 98.325 162.135 98.3502 162.178C98.3753 162.222 98.3821 162.274 98.369 162.323C98.3559 162.372 98.3239 162.413 98.2802 162.438L96.1001 163.688C96.0708 163.709 96.0358 163.719 96.0002 163.718Z" fill="#FF475A"/>
<path d="M103.76 159.408C103.689 159.408 103.619 159.387 103.56 159.348C103.484 159.302 103.422 159.235 103.381 159.156C103.34 159.076 103.323 158.987 103.33 158.898V158.388C103.33 158.338 103.35 158.289 103.386 158.254C103.421 158.218 103.47 158.198 103.52 158.198C103.57 158.198 103.619 158.218 103.654 158.254C103.69 158.289 103.71 158.338 103.71 158.388V158.898C103.696 158.94 103.696 158.986 103.71 159.028C103.752 159.04 103.797 159.04 103.84 159.028C103.954 158.921 104.044 158.791 104.102 158.646C104.161 158.5 104.188 158.344 104.18 158.188V154.858C104.18 154.808 104.2 154.759 104.236 154.724C104.271 154.688 104.32 154.668 104.37 154.668C104.395 154.667 104.421 154.671 104.444 154.68C104.468 154.689 104.49 154.703 104.508 154.721C104.525 154.738 104.539 154.76 104.548 154.784C104.557 154.807 104.561 154.833 104.56 154.858V158.188C104.568 158.411 104.525 158.632 104.433 158.835C104.341 159.039 104.203 159.217 104.03 159.358C103.945 159.396 103.853 159.413 103.76 159.408Z" fill="#FF475A"/>
<path d="M101.79 156.538V156.218C101.835 155.385 102.076 154.574 102.493 153.851C102.91 153.129 103.491 152.514 104.19 152.058C104.441 151.851 104.749 151.725 105.073 151.698C105.397 151.672 105.722 151.745 106.003 151.908C106.284 152.072 106.509 152.318 106.646 152.613C106.783 152.908 106.826 153.238 106.77 153.558V153.658L101.79 156.538ZM105.31 152.098C104.977 152.115 104.654 152.215 104.37 152.388C103.778 152.781 103.276 153.295 102.899 153.897C102.521 154.499 102.276 155.174 102.18 155.878L106.39 153.448C106.408 153.213 106.365 152.977 106.265 152.763C106.165 152.55 106.012 152.365 105.82 152.228C105.67 152.123 105.493 152.06 105.31 152.048V152.098Z" fill="#FF475A"/>
<path d="M110.5 155.538C110.45 155.538 110.401 155.518 110.366 155.483C110.33 155.447 110.31 155.399 110.31 155.348V148.968C110.303 148.94 110.303 148.911 110.31 148.884C110.316 148.856 110.328 148.829 110.346 148.807C110.364 148.785 110.387 148.766 110.412 148.754C110.438 148.742 110.466 148.735 110.495 148.735C110.524 148.735 110.552 148.742 110.578 148.754C110.603 148.766 110.626 148.785 110.644 148.807C110.662 148.829 110.674 148.856 110.68 148.884C110.687 148.911 110.687 148.94 110.68 148.968V155.348C110.68 155.397 110.661 155.444 110.628 155.479C110.594 155.515 110.549 155.536 110.5 155.538Z" fill="#FF475A"/>
<path d="M110 150.448H109.92C109.897 150.439 109.876 150.424 109.859 150.406C109.842 150.388 109.829 150.367 109.82 150.343C109.812 150.32 109.808 150.295 109.81 150.27C109.812 150.245 109.819 150.22 109.83 150.198L110.49 148.658L111.24 149.518C111.273 149.553 111.292 149.6 111.292 149.648C111.292 149.697 111.273 149.743 111.24 149.778C111.203 149.812 111.155 149.831 111.105 149.831C111.055 149.831 111.007 149.812 110.97 149.778L110.62 149.368L110.19 150.368C110.171 150.399 110.142 150.424 110.108 150.438C110.074 150.452 110.036 150.456 110 150.448Z" fill="#FF475A"/>
<path d="M112.23 154.538C112.18 154.536 112.133 154.515 112.098 154.48C112.063 154.445 112.042 154.398 112.04 154.348V147.968C112.04 147.918 112.06 147.869 112.096 147.834C112.131 147.798 112.18 147.778 112.23 147.778C112.28 147.778 112.329 147.798 112.364 147.834C112.4 147.869 112.42 147.918 112.42 147.968V154.348C112.418 154.398 112.397 154.445 112.362 154.48C112.326 154.515 112.28 154.536 112.23 154.538Z" fill="#FF475A"/>
<path d="M111.68 149.468H111.61C111.587 149.458 111.566 149.444 111.549 149.426C111.531 149.408 111.517 149.387 111.508 149.364C111.499 149.341 111.494 149.316 111.495 149.291C111.495 149.266 111.5 149.241 111.51 149.218L112.18 147.678L112.92 148.538C112.938 148.556 112.952 148.577 112.962 148.6C112.971 148.623 112.976 148.648 112.976 148.673C112.976 148.698 112.971 148.723 112.962 148.746C112.952 148.77 112.938 148.791 112.92 148.808C112.884 148.839 112.838 148.856 112.79 148.856C112.742 148.856 112.696 148.839 112.66 148.808L112.3 148.398L111.87 149.398C111.848 149.427 111.819 149.448 111.785 149.461C111.752 149.473 111.715 149.476 111.68 149.468Z" fill="#FF475A"/>
<path d="M91.9799 170.048L63.5398 153.628V97.3483L91.9799 113.758V170.048Z" fill="#FF99A3"/>
<path d="M77.0298 111.788L79.7898 113.378V106.728L77.0298 105.128V111.788Z" fill="#FBD5D5"/>
<path d="M79.7898 106.728L108.22 90.308L105.47 88.718L77.0298 105.128L79.7898 106.728Z" fill="#FF475A"/>
<path d="M69.3302 142.898L78.0502 147.898C78.5551 148.226 78.9751 148.669 79.2758 149.19C79.5765 149.712 79.7494 150.297 79.7802 150.898V156.278C79.7802 157.378 79.0102 157.828 78.0502 157.278L69.3302 152.278C68.8241 151.951 68.4026 151.508 68.1002 150.987C67.7978 150.465 67.623 149.88 67.5902 149.278V143.898C67.6002 142.798 68.3702 142.348 69.3302 142.898Z" fill="#FBD5D5"/>
<path d="M68.6501 144.248L68.9801 144.438V150.418L68.6501 150.218V144.248Z" fill="#FF99A3"/>
<path d="M69.9999 145.028L70.5699 145.358V151.338L69.9999 150.998V145.028Z" fill="#FF99A3"/>
<path d="M71.3502 145.798L71.6802 145.998V151.968L71.3502 151.778V145.798Z" fill="#FF99A3"/>
<path d="M72.3701 146.378L73.0301 146.778V152.748L72.3701 152.358V146.378Z" fill="#FF99A3"/>
<path d="M74.0503 147.358L74.3803 147.548V153.528L74.0503 153.338V147.358Z" fill="#FF99A3"/>
<path d="M75.0199 147.908L75.7299 148.328V154.308L75.0199 153.888V147.908Z" fill="#FF99A3"/>
<path d="M76.75 148.918L77.08 149.108V155.088L76.75 154.888V148.918Z" fill="#FF99A3"/>
<path d="M77.5199 149.358L77.6799 149.448V155.428L77.5199 155.328V149.358Z" fill="#FF99A3"/>
<path d="M76.1301 148.588L76.3001 148.688V154.668L76.1301 154.568V148.588Z" fill="#FF99A3"/>
<path d="M73.4101 146.998L73.5801 147.098V153.068L73.4101 152.978V146.998Z" fill="#FF99A3"/>
<path d="M71.9201 146.148L72.0901 146.238V152.218L71.9201 152.118V146.148Z" fill="#FF99A3"/>
<path d="M70.8602 145.558L71.0202 145.648V151.628L70.8602 151.528V145.558Z" fill="#FF99A3"/>
<path d="M69.4101 144.678L69.5701 144.768V150.748L69.4101 150.648V144.678Z" fill="#FF99A3"/>
<path d="M78.0903 149.698L78.4303 149.888V155.858L78.0903 155.668V149.698Z" fill="#FF99A3"/>
<path d="M63.8099 252.288L172.95 315.288C174.292 315.969 175.775 316.324 177.28 316.324C178.785 316.324 180.268 315.969 181.61 315.288L420.74 177.288C423.13 175.908 423.13 173.668 420.74 172.288L311.6 109.288C310.259 108.603 308.775 108.245 307.27 108.245C305.764 108.245 304.28 108.603 302.94 109.288L63.8099 247.288C61.4199 248.668 61.4199 250.908 63.8099 252.288Z" fill="#455A64"/>
<path d="M122.8 281.539C124.661 282.477 126.716 282.966 128.8 282.966C130.884 282.966 132.939 282.477 134.8 281.539C138.13 279.619 138.13 276.539 134.8 274.589C132.941 273.645 130.885 273.153 128.8 273.153C126.715 273.153 124.659 273.645 122.8 274.589C119.47 276.539 119.47 279.639 122.8 281.539Z" fill="#263238"/>
<path d="M175 315.288L65.8599 252.288C63.7199 251.048 63.4999 249.128 65.1899 247.748C64.1225 248.593 63.2449 249.652 62.6143 250.858C61.9836 252.065 61.6142 253.39 61.5299 254.748V258.818C61.612 260.321 62.0468 261.782 62.7991 263.085C63.5513 264.389 64.5999 265.496 65.8599 266.318L175 329.318C176.334 330.015 177.825 330.36 179.33 330.318V316.328C177.821 316.357 176.331 315.999 175 315.288Z" fill="#37474F"/>
<path d="M420.73 191.308C421.993 190.488 423.044 189.382 423.798 188.078C424.553 186.775 424.988 185.312 425.07 183.808V179.738C424.989 178.378 424.62 177.051 423.987 175.844C423.354 174.637 422.473 173.579 421.4 172.738C423.1 174.118 422.88 176.038 420.74 177.268L181.61 315.288C180.275 315.983 178.785 316.327 177.28 316.288V330.358C178.785 330.397 180.275 330.053 181.61 329.358L420.73 191.308Z" fill="#263238"/>
<path d="M190.93 302.238L86.4697 241.898C85.0297 241.068 85.0297 239.718 86.4697 238.898L288.39 122.288C289.195 121.879 290.086 121.666 290.99 121.666C291.893 121.666 292.784 121.879 293.59 122.288L398.09 182.618C399.52 183.448 399.52 184.788 398.09 185.618L196.09 302.238C195.289 302.641 194.406 302.851 193.51 302.851C192.614 302.851 191.73 302.641 190.93 302.238Z" fill="#FFF8F8"/>
<path d="M148.84 268.548L161.03 261.508L156.97 259.168L144.78 266.198L148.84 268.548Z" fill="#FF475A"/>
<path d="M295.08 184.118L307.27 177.078L303.2 174.738L291.02 181.778L295.08 184.118Z" fill="#FF475A"/>
<path d="M319.45 170.048L331.64 163.009L327.58 160.669L315.39 167.698L319.45 170.048Z" fill="#FF475A"/>
<path d="M358.57 145.398C359.043 145.635 359.565 145.758 360.095 145.758C360.624 145.758 361.146 145.635 361.62 145.398C361.803 145.336 361.963 145.217 362.075 145.059C362.188 144.902 362.249 144.712 362.249 144.518C362.249 144.324 362.188 144.135 362.075 143.978C361.963 143.82 361.803 143.701 361.62 143.638C361.148 143.397 360.625 143.271 360.095 143.271C359.565 143.271 359.042 143.397 358.57 143.638C358.386 143.701 358.227 143.82 358.114 143.978C358.001 144.135 357.941 144.324 357.941 144.518C357.941 144.712 358.001 144.902 358.114 145.059C358.227 145.217 358.386 145.336 358.57 145.398Z" fill="#263238"/>
<path d="M363.44 159.208C364.384 159.686 365.427 159.935 366.485 159.935C367.543 159.935 368.586 159.686 369.53 159.208C371.21 158.208 371.21 156.658 369.53 155.688C368.586 155.21 367.543 154.961 366.485 154.961C365.427 154.961 364.384 155.21 363.44 155.688C361.76 156.658 361.76 158.238 363.44 159.208Z" fill="#263238"/>
<path d="M359.14 153.088C360.26 152.438 360.2 151.358 359.01 150.668L339.01 139.098C338.366 138.753 337.65 138.566 336.92 138.552C336.189 138.538 335.466 138.698 334.81 139.018C333.69 139.668 333.75 140.748 334.94 141.438L355 153.008C355.636 153.343 356.342 153.524 357.06 153.538C357.779 153.552 358.491 153.398 359.14 153.088Z" fill="#263238"/>
<path d="M325 106.169L325.68 105.769C325.21 107.475 324.981 109.239 325 111.009V113.449C325 122.209 335.51 144.589 339.38 152.509C339.78 153.339 334.47 158.989 334.47 158.989L340.78 155.349C340.78 155.349 356.55 142.349 356.55 131.669V129.229C356.55 118.499 349.49 105.729 340.78 100.699C336.38 98.1686 332.41 98.0786 329.55 99.9986L323.55 103.439L325 106.169ZM332.89 114.359C332.89 109.359 336.42 107.289 340.78 109.809C340.42 113.039 346.32 123.099 348.66 123.469C348.66 128.469 345.13 130.539 340.78 128.019C338.49 126.519 336.586 124.5 335.222 122.127C333.859 119.753 333.073 117.092 332.93 114.359H332.89Z" fill="#FF475A"/>
<path d="M318.51 117.359C318.69 128.079 334.97 158.989 334.97 158.989C334.97 158.989 350.53 145.769 350.36 135.049V132.609C350.18 121.889 342.91 109.229 334.11 104.349C325.31 99.4686 318.33 104.189 318.51 114.919V117.359ZM326.41 118.139C326.33 113.139 329.83 111.009 334.22 113.449C336.54 114.907 338.484 116.893 339.893 119.244C341.302 121.595 342.137 124.245 342.33 126.979C342.42 131.979 338.92 134.109 334.52 131.669C332.202 130.207 330.261 128.221 328.852 125.87C327.443 123.52 326.607 120.872 326.41 118.139Z" fill="#FF475A"/>
<path opacity="0.1" d="M318.51 117.359C318.69 128.079 334.97 158.989 334.97 158.989C334.97 158.989 350.53 145.769 350.36 135.049V132.609C350.18 121.889 342.91 109.229 334.11 104.349C325.31 99.4686 318.33 104.189 318.51 114.919V117.359ZM326.41 118.139C326.33 113.139 329.83 111.009 334.22 113.449C336.54 114.907 338.484 116.893 339.893 119.244C341.302 121.595 342.137 124.245 342.33 126.979C342.42 131.979 338.92 134.109 334.52 131.669C332.202 130.207 330.261 128.221 328.852 125.87C327.443 123.52 326.607 120.872 326.41 118.139Z" fill="black"/>
<path d="M166 260.329C176.11 266.149 199.81 261.919 218.94 250.869L271.49 220.539C290.62 209.489 297.92 195.829 287.79 190.019C277.66 184.209 253.94 188.459 234.79 199.499L182.34 229.789C163.22 240.829 155.9 254.539 166 260.329Z" fill="#F0F0F0"/>
<path d="M319 6.05845H319.05L327.7 1.05845H327.77C333.22 -1.70155 340.5 -0.941544 348.34 4.15846C364.1 14.2985 376.13 37.6985 375.22 56.4084C374.76 65.7384 371.22 72.1384 365.75 74.9584H365.7L357.04 79.9584H356.98C351.53 82.7284 344.24 81.9584 336.39 76.8684C320.64 66.7184 308.61 43.3284 309.52 24.6185C310 15.2785 313.59 8.87845 319 6.05845Z" fill="#A30010"/>
<path d="M357.48 79.6984L365.73 74.8984H365.79C371.21 72.0684 374.79 65.6684 375.25 56.3484C375.65 48.0084 373.48 38.7384 369.56 30.1284L360.9 35.1284C364.83 43.7384 367 53.0084 366.59 61.3584C366.16 70.4584 362.72 76.7884 357.48 79.6984Z" fill="#66000A"/>
<path d="M336.43 76.8585C320.68 66.7085 308.65 43.3185 309.56 24.6085C310.47 5.89848 324 -1.05152 339.72 9.08849C355.44 19.2285 367.51 42.6285 366.6 61.3385C365.69 80.0485 352.18 86.9985 336.43 76.8585Z" fill="#EB0017"/>
<path d="M349.63 75.5383C358.92 75.9883 360.43 65.5383 360.63 61.0383C361.43 44.5383 350.37 23.0383 336.48 14.0883C333.52 12.0152 330.076 10.7408 326.48 10.3883C317.2 9.93829 315.69 20.3883 315.48 24.8883C314.68 41.3883 325.73 62.8883 339.63 71.8883C342.589 73.9614 346.034 75.2358 349.63 75.5883V75.5383Z" fill="#FAFAFA"/>
<path d="M336.26 46.0687C336.37 46.069 336.478 46.0486 336.58 46.0087C336.789 45.9409 336.97 45.8062 337.094 45.6255C337.219 45.4447 337.281 45.228 337.27 45.0087V21.1787C337.27 20.9134 337.165 20.6591 336.977 20.4715C336.79 20.284 336.535 20.1786 336.27 20.1786C336.005 20.1786 335.75 20.284 335.563 20.4715C335.375 20.6591 335.27 20.9134 335.27 21.1787V42.1087L324.14 27.8087C323.976 27.5965 323.734 27.4583 323.467 27.4246C323.201 27.3908 322.932 27.4642 322.72 27.6286C322.508 27.7931 322.37 28.0351 322.336 28.3014C322.302 28.5677 322.376 28.8365 322.54 29.0487L335.49 45.6787C335.581 45.797 335.698 45.8935 335.831 45.961C335.964 46.0285 336.111 46.0653 336.26 46.0687Z" fill="#A30010"/>
<path d="M342 63.6986C342.046 63.7078 342.094 63.7078 342.14 63.6986C342.246 63.6661 342.335 63.5938 342.389 63.4969C342.444 63.4 342.458 63.2859 342.43 63.1786L336.82 44.2886C336.788 44.1812 336.715 44.0908 336.616 44.0374C336.518 43.9839 336.402 43.9718 336.295 44.0036C336.188 44.0354 336.097 44.1086 336.044 44.2071C335.99 44.3055 335.978 44.4212 336.01 44.5286L341.61 63.4186C341.639 63.4995 341.691 63.5697 341.761 63.6198C341.831 63.6699 341.914 63.6974 342 63.6986Z" fill="#FF475A"/>
<path d="M336.58 40.2784C334.72 39.0884 333.13 39.9084 333.03 42.1084C333.036 43.3084 333.325 44.49 333.874 45.5569C334.424 46.6239 335.217 47.5461 336.19 48.2484C338.04 49.4484 339.63 48.6284 339.74 46.4284C339.731 45.2275 339.441 44.0453 338.892 42.9771C338.343 41.9089 337.551 40.9846 336.58 40.2784Z" fill="#FF475A"/>
<path d="M173.22 254.479L185.4 247.439L181.34 245.099L169.16 252.129L173.22 254.479Z" fill="#FF475A"/>
<path d="M197.59 240.409L209.78 233.369L205.71 231.029L193.53 238.059L197.59 240.409Z" fill="#FF475A"/>
<path d="M192.58 237.539C192.58 243.419 188.46 250.539 183.37 253.539C180.66 255.109 178.22 255.159 176.54 253.979C175.862 253.447 175.306 252.776 174.908 252.013C174.509 251.249 174.278 250.409 174.23 249.549C174.572 249.389 174.905 249.212 175.23 249.019C180.32 246.089 184.44 238.939 184.44 233.019C184.444 232.581 184.418 232.143 184.36 231.709C185.122 231.305 185.961 231.065 186.822 231.003C187.683 230.941 188.547 231.059 189.36 231.349C191.36 232.189 192.58 234.359 192.58 237.539Z" fill="#263238"/>
<path d="M193.41 225.459L193.24 225.359C190.68 223.999 187.24 224.249 183.37 226.469C175.52 230.999 169.15 242.019 169.15 251.089C169.15 255.649 170.76 258.839 173.36 260.319C175.96 261.799 179.47 261.549 183.36 259.319C191.21 254.789 197.57 243.759 197.57 234.689C197.58 230.129 196 226.939 193.41 225.459ZM183.41 253.519C180.69 255.089 178.25 255.139 176.57 253.949C175.09 252.949 174.19 250.949 174.19 248.199C174.19 242.329 178.32 235.199 183.41 232.199C185.73 230.859 187.84 230.629 189.41 231.319C191.35 232.149 192.57 234.319 192.57 237.519C192.58 243.439 188.46 250.589 183.37 253.539L183.41 253.519Z" fill="#37474F"/>
<path d="M189.88 231.589L189.77 231.529C188.11 230.639 185.86 230.809 183.37 232.239C178.28 235.179 174.15 242.329 174.15 248.239C174.15 251.239 175.15 253.239 176.88 254.239C178.61 255.239 180.88 255.039 183.37 253.579C188.46 250.639 192.58 243.489 192.58 237.579C192.58 234.619 191.55 232.539 189.88 231.589ZM183.37 251.439C181.19 252.699 179.23 252.739 177.87 251.779C176.69 250.949 175.96 249.359 175.96 247.159C176.1 244.588 176.844 242.087 178.131 239.858C179.419 237.629 181.213 235.735 183.37 234.329C184.07 233.84 184.875 233.521 185.721 233.398C186.566 233.274 187.429 233.35 188.24 233.619C189.8 234.289 190.78 236.029 190.78 238.619C190.641 241.188 189.897 243.688 188.609 245.916C187.322 248.143 185.527 250.036 183.37 251.439Z" fill="#FF475A"/>
<path d="M221.96 226.329L234.15 219.299L230.09 216.949L217.9 223.989L221.96 226.329Z" fill="#FF475A"/>
<path d="M246.34 212.259L258.52 205.229L254.46 202.879L242.27 209.919L246.34 212.259Z" fill="#FF475A"/>
<path d="M270.71 198.189L282.89 191.159L278.83 188.809L266.64 195.849L270.71 198.189Z" fill="#FF475A"/>
<path d="M210.06 132.759C210.187 132.589 210.366 132.463 210.569 132.401C210.772 132.339 210.99 132.344 211.191 132.414C211.391 132.484 211.564 132.617 211.685 132.792C211.805 132.967 211.866 133.176 211.86 133.389C211.938 133.958 211.88 134.537 211.69 135.08C211.501 135.622 211.185 136.112 210.77 136.509C209.97 137.199 209.16 136.919 208.97 135.879C208.892 135.309 208.951 134.73 209.14 134.188C209.33 133.646 209.645 133.156 210.06 132.759Z" fill="#FF475A"/>
<path d="M219.44 137.179L211.29 132.469L209.5 136.779L217.68 141.499L219.44 137.179Z" fill="#FF475A"/>
<path d="M218.19 137.449C218.99 136.769 219.79 137.049 219.99 138.089C220.064 138.657 220.002 139.235 219.811 139.775C219.62 140.315 219.305 140.803 218.89 141.199C218.09 141.889 217.28 141.609 217.09 140.569C217.017 139.999 217.079 139.42 217.27 138.878C217.461 138.336 217.776 137.847 218.19 137.449Z" fill="#FF475A"/>
<path d="M280.83 176.889C280.83 177.089 280.83 177.268 280.83 177.468C280.83 177.868 280.83 178.278 280.83 178.688C279.21 177.998 277.1 178.228 274.78 179.568C269.69 182.508 265.56 189.658 265.56 195.568C265.56 198.308 266.46 200.288 267.94 201.318C267.524 201.614 267.094 201.888 266.65 202.138L266.18 202.378L264.77 207.688L256.61 203.138C254.03 201.648 252.44 198.469 252.44 193.929C252.44 184.859 258.8 173.838 266.65 169.298C270.53 167.058 274.04 166.828 276.65 168.298L284.65 172.779L284.82 172.878L280.83 176.889Z" fill="#455A64"/>
<path d="M284.81 172.789L284.64 172.689C282.08 171.329 278.64 171.579 274.77 173.799C266.92 178.329 260.55 189.349 260.55 198.419C260.55 202.979 262.16 206.169 264.76 207.649C267.36 209.129 270.87 208.879 274.76 206.649C282.61 202.119 288.97 191.089 288.97 182.019C289 177.459 287.39 174.269 284.81 172.789ZM274.81 200.849C272.09 202.419 269.65 202.469 267.97 201.279C266.49 200.279 265.59 198.279 265.59 195.529C265.59 189.659 269.72 182.529 274.81 179.529C277.13 178.189 279.24 177.959 280.86 178.649C282.8 179.479 284.02 181.649 284.02 184.849C284 190.769 279.86 197.919 274.77 200.849H274.81Z" fill="#37474F"/>
<path d="M284 184.889C284 190.769 279.88 197.889 274.79 200.889C272.08 202.459 269.64 202.509 267.96 201.329C267.283 200.797 266.726 200.126 266.328 199.362C265.93 198.599 265.699 197.759 265.65 196.899C265.992 196.739 266.326 196.562 266.65 196.369C271.74 193.439 275.86 186.289 275.86 180.369C275.865 179.931 275.838 179.493 275.78 179.059C276.543 178.655 277.381 178.415 278.242 178.353C279.103 178.291 279.967 178.409 280.78 178.699C282.76 179.539 284 181.689 284 184.889Z" fill="#263238"/>
<path d="M281.28 178.919L281.17 178.849C279.51 177.969 277.25 178.129 274.77 179.569C269.68 182.509 265.55 189.649 265.55 195.569C265.55 198.569 266.55 200.569 268.28 201.569C270.01 202.569 272.28 202.359 274.77 200.899C279.86 197.969 283.98 190.819 283.98 184.899C284 181.949 283 179.879 281.28 178.919ZM274.77 198.759C272.58 200.029 270.62 200.069 269.27 199.109C268.08 198.279 267.36 196.689 267.36 194.489C267.5 191.918 268.244 189.417 269.531 187.188C270.819 184.959 272.614 183.065 274.77 181.659C276.63 180.579 278.33 180.389 279.63 180.949C281.19 181.619 282.17 183.359 282.17 185.949C282.031 188.516 281.288 191.013 280.003 193.239C278.717 195.465 276.924 197.356 274.77 198.759Z" fill="#FF475A"/>
<path d="M266.64 187.879L289.64 174.599C292.31 173.049 283.64 163.999 277.19 163.389C273.639 162.96 270.037 163.301 266.63 164.389C266.63 164.389 271.54 170.679 270.7 174.249C269.86 177.819 266.64 187.879 266.64 187.879Z" fill="#FF475A"/>
<path d="M234.15 150.349C234.15 150.349 267.49 167.169 268.93 168.179C270.37 169.189 268.93 180.919 266.64 187.879C264.35 194.839 260.83 205.539 259.42 208.539C258.01 211.539 256.17 212.659 252.79 214.609L228.79 228.479L196.3 232.439L183.4 225.439L186.76 204.329C186.76 204.329 221.29 185.959 226.02 183.229C230.75 180.499 244.74 167.689 234.15 150.349Z" fill="#FF475A"/>
<path opacity="0.2" d="M234.15 150.349C234.15 150.349 267.49 167.169 268.93 168.179C270.37 169.189 268.93 180.919 266.64 187.879C264.35 194.839 260.83 205.539 259.42 208.539C258.01 211.539 256.17 212.659 252.79 214.609L228.79 228.479L196.3 232.439L183.4 225.439L186.76 204.329C186.76 204.329 221.29 185.959 226.02 183.229C230.75 180.499 244.74 167.689 234.15 150.349Z" fill="black"/>
<path d="M269.57 183.869C272.57 175.809 274.81 169.129 274.43 164.619C273.97 159.269 271.97 154.899 263.15 152.699C254.33 150.499 242 150.539 242 150.539L238.25 152.709C238.25 152.709 263.61 167.409 266.49 169.009C268.25 170.009 270.13 174.419 266.68 187.889L267.27 188.229C267.56 188.409 268.61 186.459 269.57 183.869Z" fill="#FF475A"/>
<path opacity="0.3" d="M269.57 183.869C272.57 175.809 274.81 169.129 274.43 164.619C273.97 159.269 271.97 154.899 263.15 152.699C254.33 150.499 242 150.539 242 150.539L238.25 152.709C238.25 152.709 263.61 167.409 266.49 169.009C268.25 170.009 270.13 174.419 266.68 187.889L267.27 188.229C267.56 188.409 268.61 186.459 269.57 183.869Z" fill="white"/>
<path d="M250.36 159.729L254.46 157.389C254.46 157.389 254.22 143.179 248.24 139.729C242.26 136.279 221.96 138.629 221.96 138.629L217.9 140.969L250.36 159.729Z" fill="#FF475A"/>
<path d="M237.06 142.979C235.11 144.109 235.11 145.929 237.06 147.049C238.153 147.605 239.363 147.896 240.59 147.896C241.817 147.896 243.026 147.605 244.12 147.049C246.06 145.929 246.06 144.099 244.12 142.979C243.025 142.427 241.816 142.139 240.59 142.139C239.364 142.139 238.155 142.427 237.06 142.979Z" fill="#FF99A3"/>
<path d="M243.3 149.769C241.93 150.569 241.93 151.859 243.3 152.649C244.074 153.044 244.93 153.251 245.8 153.251C246.669 153.251 247.526 153.044 248.3 152.649C249.68 151.859 249.68 150.569 248.3 149.769C247.524 149.377 246.668 149.174 245.8 149.174C244.931 149.174 244.075 149.377 243.3 149.769Z" fill="#FF99A3"/>
<path d="M227.59 141.169C226.21 141.959 226.21 143.249 227.59 144.049C228.365 144.44 229.221 144.644 230.09 144.644C230.958 144.644 231.814 144.44 232.59 144.049C233.97 143.249 233.97 141.959 232.59 141.169C231.816 140.773 230.959 140.567 230.09 140.567C229.221 140.567 228.364 140.773 227.59 141.169Z" fill="#FF99A3"/>
<path d="M251 155.609C251.8 154.919 252.6 155.199 252.8 156.239C252.874 156.809 252.813 157.388 252.621 157.93C252.43 158.472 252.115 158.961 251.7 159.359C251.573 159.529 251.394 159.654 251.191 159.716C250.988 159.778 250.77 159.774 250.569 159.703C250.369 159.633 250.195 159.501 250.075 159.326C249.955 159.15 249.893 158.941 249.9 158.729C249.823 158.159 249.883 157.579 250.074 157.036C250.265 156.494 250.583 156.005 251 155.609Z" fill="#FF475A"/>
<path d="M260.33 160.029L252.17 155.319L250.39 159.629L258.56 164.339L260.33 160.029Z" fill="#FF475A"/>
<path d="M259.07 160.299C259.197 160.128 259.376 160.003 259.579 159.941C259.782 159.879 260 159.884 260.201 159.954C260.401 160.024 260.574 160.157 260.695 160.332C260.815 160.507 260.876 160.716 260.87 160.929C260.946 161.499 260.886 162.079 260.695 162.621C260.504 163.163 260.187 163.652 259.77 164.049C258.97 164.739 258.17 164.449 257.97 163.419C257.895 162.849 257.956 162.269 258.147 161.727C258.338 161.185 258.654 160.696 259.07 160.299Z" fill="#FF475A"/>
<path d="M259.07 160.299C259.197 160.128 259.376 160.003 259.579 159.941C259.782 159.879 260 159.884 260.201 159.954C260.401 160.024 260.574 160.157 260.695 160.332C260.815 160.507 260.876 160.716 260.87 160.929C260.946 161.499 260.886 162.079 260.695 162.621C260.504 163.163 260.187 163.652 259.77 164.049C258.97 164.739 258.17 164.449 257.97 163.419C257.895 162.849 257.956 162.269 258.147 161.727C258.338 161.185 258.654 160.696 259.07 160.299Z" fill="black"/>
<path d="M189.43 229.539C189.43 229.739 189.43 229.919 189.43 230.119C189.43 230.519 189.43 230.929 189.43 231.339C187.81 230.649 185.7 230.879 183.43 232.219C178.34 235.159 174.21 242.309 174.21 248.219C174.21 250.959 175.11 252.939 176.59 253.969C176.174 254.264 175.744 254.538 175.3 254.789L174.83 255.029L173.42 260.339L165.26 255.789C162.68 254.299 161.09 251.119 161.09 246.579C161.09 237.509 167.45 226.489 175.3 221.949C179.18 219.709 182.69 219.479 185.3 220.949L193.3 225.429L193.47 225.529L189.43 229.539Z" fill="#455A64"/>
<path d="M165.09 213.669L159 234.779L171.19 241.819L177.5 220.839L165.09 213.669Z" fill="#FF475A"/>
<path opacity="0.2" d="M165.09 213.669L159 234.779L171.19 241.819L177.5 220.839L165.09 213.669Z" fill="black"/>
<path d="M165.09 213.669C165.09 213.669 172 219.539 177.5 220.839C184.72 222.589 196.2 222.779 200.27 223.059C206.49 223.489 211.19 223.479 213.39 222.689C216.24 221.689 223.9 217.239 226.02 216.019C230.08 213.679 231.81 204.469 220.62 201.949C213.054 200.381 205.347 199.594 197.62 199.599L165.09 213.669Z" fill="#FF475A"/>
<path d="M234 210.969C233.652 211.839 233.417 212.75 233.3 213.679C232.978 214.645 232.902 215.676 233.08 216.679C233.842 217.94 235.042 218.876 236.45 219.309C237.464 219.535 238.514 219.549 239.534 219.351C240.555 219.153 241.523 218.747 242.38 218.159C244.45 216.919 246.01 215.419 248.95 214.579C251.051 214.134 253.03 213.237 254.75 211.949C256.38 210.639 258.56 207.019 255.44 206.179C252.32 205.339 245.54 208.299 239.36 208.569L234 210.969Z" fill="#37474F"/>
<path d="M234 207.109V211.729C234.189 212.248 234.518 212.705 234.95 213.049C235.383 213.393 235.902 213.611 236.45 213.679C236.952 213.752 237.465 213.697 237.94 213.519C238.689 213.233 239.338 212.734 239.807 212.084C240.276 211.433 240.545 210.66 240.58 209.859L240.76 207.109H234Z" fill="#FFA8A7"/>
<path d="M242.8 178.539C242.8 184.289 241.18 209.149 241.18 209.149C241.18 209.149 238.83 212.149 233.72 209.149L232 181.369L242.8 178.539Z" fill="#37474F"/>
<path d="M216 203.039L232 193.819C232.656 193.475 233.205 192.958 233.588 192.324C233.971 191.691 234.173 190.964 234.173 190.224C234.173 189.483 233.971 188.757 233.588 188.123C233.205 187.49 232.656 186.973 232 186.629L220.08 179.749C219.409 179.409 218.667 179.232 217.915 179.232C217.163 179.232 216.421 179.409 215.75 179.749L199.75 188.969C199.097 189.315 198.551 189.833 198.17 190.466C197.789 191.1 197.588 191.825 197.588 192.564C197.588 193.303 197.789 194.028 198.17 194.661C198.551 195.295 199.097 195.812 199.75 196.159L211.67 203.039C212.341 203.379 213.083 203.556 213.835 203.556C214.587 203.556 215.329 203.379 216 203.039Z" fill="#FF475A"/>
<path d="M216 203.039L232 193.819C232.656 193.475 233.205 192.958 233.588 192.324C233.971 191.691 234.173 190.964 234.173 190.224C234.173 189.483 233.971 188.757 233.588 188.123C233.205 187.49 232.656 186.973 232 186.629L220.08 179.749C219.409 179.409 218.667 179.232 217.915 179.232C217.163 179.232 216.421 179.409 215.75 179.749L199.75 188.969C199.097 189.315 198.551 189.833 198.17 190.466C197.789 191.1 197.588 191.825 197.588 192.564C197.588 193.303 197.789 194.028 198.17 194.661C198.551 195.295 199.097 195.812 199.75 196.159L211.67 203.039C212.341 203.379 213.083 203.556 213.835 203.556C214.587 203.556 215.329 203.379 216 203.039Z" fill="#FFD7DB"/>
<path d="M199.75 191.469L211.67 198.349C212.341 198.689 213.083 198.866 213.835 198.866C214.587 198.866 215.329 198.689 216 198.349L232 189.129C232.261 189.04 232.488 188.872 232.649 188.648C232.809 188.424 232.896 188.155 232.896 187.879C232.896 187.603 232.809 187.334 232.649 187.11C232.488 186.886 232.261 186.718 232 186.629L220.08 179.749C219.409 179.409 218.667 179.232 217.915 179.232C217.163 179.232 216.421 179.409 215.75 179.749L199.75 188.969C199.489 189.057 199.262 189.226 199.101 189.45C198.94 189.674 198.854 189.943 198.854 190.219C198.854 190.495 198.94 190.764 199.101 190.988C199.262 191.212 199.489 191.38 199.75 191.469Z" fill="#FF475A"/>
<path d="M209.5 130.269L207.47 138.639L198.75 139.169L200.63 127.569L209.5 130.269Z" fill="#FFA8A7"/>
<path d="M218 123.969C218 123.969 219 127.509 218.59 127.709C217.96 127.805 217.319 127.805 216.69 127.709L218 123.969Z" fill="#F28F8F"/>
<path d="M216.33 112.669C217.73 114.319 219.01 117.029 218.02 123.669C216.94 130.929 215.6 131.769 214.52 132.469C213.11 133.389 207.47 132.899 205.88 131.739C203.97 130.349 201.02 125.939 200.32 121.589C199.5 116.479 201.21 110.809 204.97 109.839C210.26 108.469 215.14 111.269 216.33 112.669Z" fill="#FFA8A7"/>
<path d="M199.75 129.919C201.1 131.319 203.87 131.699 205.61 132.019C207.35 132.339 212.7 132.689 214.28 128.879C215.86 125.069 214.78 122.329 216.72 121.409C218.66 120.489 220.6 119.889 221.11 119.409C221.62 118.929 221.63 112.659 216.42 109.409C211.21 106.159 203.23 105.409 197.98 111.999C194 117.089 195.63 125.619 199.75 129.919Z" fill="#455A64"/>
<path d="M205 132.069C206.35 132.189 210.62 131.519 211.91 129.759C213.2 127.999 213.72 124.849 213.91 123.199C213.928 122.549 214.166 121.924 214.586 121.428C215.006 120.932 215.582 120.593 216.22 120.469C217.51 120.059 220.36 118.659 220.36 118.659V117.879C221.279 117.821 222.201 117.821 223.12 117.879C223.72 117.989 223.39 118.879 221.87 119.649C220.35 120.419 216.18 121.909 215.54 122.419C214.9 122.929 214.6 125.079 214.09 127.369C213.58 129.659 212 133.079 205 132.069Z" fill="#37474F"/>
<path d="M217 141.539L222 138.669C222.48 137.219 221.71 136.489 220.35 136.579C218.99 136.669 219.41 135.349 218.58 134.979C217.49 134.479 216.87 134.759 216.38 134.529C215.89 134.299 215.68 133.719 215.04 133.649C212.18 133.379 210.23 137.459 210.23 137.459L217 141.539Z" fill="#F28F8F"/>
<path d="M183.06 178.259C183.06 178.259 205.15 167.309 209 165.539C212.85 163.769 218.89 161.199 222.1 161.199C223.354 161.302 224.529 161.855 225.409 162.755C226.289 163.655 226.815 164.842 226.89 166.099C226.931 168.028 226.821 169.957 226.56 171.869C220.491 173.86 214.289 175.42 208 176.539C198.81 178.139 183.06 178.259 183.06 178.259Z" fill="#37474F"/>
<path d="M185.46 171.929C185.46 176.469 185.03 181.189 186.92 184.509C188.81 187.829 199.05 195.509 208.69 193.899C214.99 192.839 233.69 184.229 233.69 184.229C233.69 184.229 242.76 180.899 242.8 178.529C242.86 175.039 242.62 170.119 234.71 170.329C227.5 170.519 206.23 174.959 206.23 174.959L185.46 171.929Z" fill="#455A64"/>
<path d="M191.63 135.959C195.05 132.389 197.36 132.089 199 132.529C202.769 133.607 206.418 135.068 209.89 136.889C209.89 136.889 208.57 149.669 214.82 153.349V173.269C214.82 173.269 214.63 175.429 211.91 177.579C209.51 179.469 204.08 181.379 197.6 180.839C189.9 180.199 185.46 171.929 185.46 171.929C185.46 171.929 185.26 155.639 186.35 149.169C187.63 141.619 190.45 137.199 191.63 135.959Z" fill="#455A64"/>
<path d="M214.82 154.319C214.82 154.319 211.04 151.319 209.89 147.419C209.89 147.419 210.34 153.539 214.82 156.639V154.319Z" fill="#37474F"/>
<path d="M249.81 163.719C251.605 163.793 253.371 163.245 254.81 162.169C254.81 162.169 256.55 158.789 258.69 159.079C258.69 159.079 259.07 157.639 258.19 157.169C257.31 156.699 256.93 156.829 256.57 156.329C256.21 155.829 256.17 154.899 254.57 154.899C253.91 154.899 254 154.429 252.4 154.239C250.8 154.049 249.22 157.739 248.05 157.739L249.81 163.719Z" fill="#FFA8A7"/>
<path d="M209.89 136.889C215.38 137.739 217.37 139.369 219.37 141.219C221.37 143.069 233.61 155.349 233.61 155.349L248.43 157.479C249.209 158.109 249.78 158.96 250.07 159.919C250.67 161.659 250.13 163.559 249.56 164.009C249.56 164.009 234.86 164.889 231.97 164.339C229.08 163.789 214.77 154.289 214.77 154.289C213.402 153.257 212.255 151.962 211.396 150.48C210.537 148.998 209.984 147.358 209.77 145.659C208.84 139.629 209.89 136.889 209.89 136.889Z" fill="#455A64"/>
<path d="M196.71 189.709L174 217.429C173.748 217.461 173.494 217.477 173.24 217.479C172.339 217.493 171.449 217.283 170.65 216.869L151.47 205.789L150.17 205.039C149.46 204.629 148.87 202.949 148.87 201.289V196.619C148.869 191.821 150.131 187.109 152.529 182.954C154.927 178.799 158.376 175.348 162.53 172.949L185.43 159.729L209.8 173.799L196.71 189.709Z" fill="#FF475A"/>
<g opacity="0.1">
<path opacity="0.1" d="M196.71 189.709L174 217.429C173.748 217.461 173.494 217.477 173.24 217.479C172.339 217.493 171.449 217.283 170.65 216.869L151.47 205.789L150.17 205.039C149.46 204.629 148.87 202.949 148.87 201.289V196.619C148.869 191.821 150.131 187.109 152.529 182.954C154.927 178.799 158.376 175.348 162.53 172.949L185.43 159.729L209.8 173.799L196.71 189.709Z" fill="black"/>
</g>
<path d="M188.88 199.269L209.77 173.809L185.4 159.739L162.51 172.949C159.549 174.663 156.937 176.919 154.81 179.599L188.88 199.269Z" fill="#FF475A"/>
<path d="M209.77 194.249C209.77 195.909 209.19 197.589 208.47 197.999L207.17 198.749L175.81 216.859C175.239 217.166 174.614 217.36 173.97 217.429C173.718 217.46 173.464 217.477 173.21 217.479V210.689C173.209 205.89 174.472 201.176 176.872 197.021C179.271 192.866 182.723 189.416 186.88 187.019L189.47 185.529L209.77 173.799V194.249Z" fill="#FF475A"/>
<g opacity="0.2">
<path opacity="0.2" d="M209.77 194.249C209.77 195.909 209.19 197.589 208.47 197.999L207.17 198.749L175.81 216.859C175.239 217.166 174.614 217.36 173.97 217.429C173.718 217.46 173.464 217.477 173.21 217.479V210.689C173.209 205.89 174.472 201.176 176.872 197.021C179.271 192.866 182.723 189.416 186.88 187.019L189.47 185.529L209.77 173.799V194.249Z" fill="black"/>
</g>
<path d="M216.5 228.549L228.77 228.509L246.33 218.369L229.13 230.799L216.18 230.979L216.5 228.549Z" fill="#E0E0E0"/>
<path d="M186.71 246.009C186.71 246.009 208.83 237.669 210.71 236.689C212.916 235.337 215.01 233.808 216.97 232.119C217.37 231.59 217.558 230.93 217.496 230.27C217.435 229.61 217.13 228.996 216.64 228.549C216.64 228.549 207.64 228.139 205.33 228.849C204.04 229.239 183.22 235.919 183.22 235.919L186.71 246.009Z" fill="#FFD7D7"/>
<path d="M185.72 236.689C183.89 235.119 182.05 235.769 181.6 238.129C181.428 239.431 181.566 240.755 182.002 241.994C182.438 243.233 183.16 244.351 184.11 245.259C185.94 246.829 187.78 246.189 188.23 243.819C188.401 242.517 188.263 241.193 187.827 239.954C187.391 238.715 186.669 237.596 185.72 236.689Z" fill="#A30010"/>
</g>
<defs>
<clipPath id="clip0">
<rect width="500" height="361.538" fill="white"/>
</clipPath>
</defs>
</svg>
