<svg width="500" height="377" viewBox="0 0 500 377" fill="none" xmlns="http://www.w3.org/2000/svg">
<path d="M273.22 344.36H260.33V344.61H273.22V344.36Z" fill="#EBEBEB"/>
<path d="M191.81 344.24H131V344.49H191.81V344.24Z" fill="#EBEBEB"/>
<path d="M68.42 331.4H258.46L258.46 34.2199H68.42L68.42 331.4Z" fill="#FFF4F4"/>
<path d="M89.44 215.45H169.94V89.5601L90.67 89.0801L89.44 215.45Z" fill="#E0E0E0"/>
<path d="M90.66 214.56H171.16L171.16 88.6801L90.66 88.6801L90.66 214.56Z" fill="white"/>
<path d="M130.92 153.09C143.855 153.09 154.34 142.605 154.34 129.67C154.34 116.735 143.855 106.25 130.92 106.25C117.985 106.25 107.5 116.735 107.5 129.67C107.5 142.605 117.985 153.09 130.92 153.09Z" fill="#F5F5F5"/>
<path d="M136.338 188.989C143.563 185.996 146.994 177.713 144.001 170.488C141.008 163.263 132.725 159.832 125.5 162.824C118.275 165.817 114.844 174.1 117.837 181.325C120.83 188.55 129.113 191.981 136.338 188.989Z" fill="#F5F5F5"/>
<path d="M387.86 28H61.25V74.22H387.86V28Z" fill="#FFCECE"/>
<path d="M374.42 40H220.75V62.22H374.42V40Z" fill="white"/>
<path d="M74.7 62.22L208.08 62.22V40L74.7 40V62.22Z" fill="white"/>
<path d="M391.73 331.4H218.68L218.68 194.13C218.68 191.478 219.734 188.934 221.609 187.059C223.484 185.183 226.028 184.13 228.68 184.13L381.76 184.13C384.412 184.13 386.956 185.183 388.831 187.059C390.706 188.934 391.76 191.478 391.76 194.13V331.4H391.73Z" fill="#FFF1F1"/>
<path d="M371.66 331.4H198.6L198.6 194.13C198.6 191.478 199.654 188.934 201.529 187.059C203.404 185.183 205.948 184.13 208.6 184.13L361.69 184.13C364.342 184.13 366.886 185.183 368.761 187.059C370.636 188.934 371.69 191.478 371.69 194.13V331.4H371.66Z" fill="#FFCECE"/>
<path opacity="0.3" d="M368.34 194.13V331.4H201.92V194.13C201.92 192.366 202.621 190.675 203.868 189.428C205.115 188.181 206.806 187.48 208.57 187.48H361.69C363.454 187.48 365.145 188.181 366.392 189.428C367.639 190.675 368.34 192.366 368.34 194.13Z" fill="white"/>
<path opacity="0.9" d="M368.33 194.13V331.43H203.69V194.13C203.69 192.366 204.391 190.675 205.638 189.428C206.885 188.181 208.576 187.48 210.34 187.48H361.69C363.452 187.483 365.141 188.184 366.386 189.431C367.631 190.678 368.33 192.368 368.33 194.13Z" fill="#FFF9F9"/>
<path d="M336.65 184.16H324L320.23 164.53H332.88L336.65 184.16Z" fill="#FFCECE"/>
<path d="M343.94 140.16H326.94C326.317 140.175 325.715 140.388 325.222 140.77C324.729 141.151 324.371 141.681 324.2 142.28L316.89 173.78C316.817 174.041 316.807 174.315 316.863 174.58C316.918 174.845 317.037 175.093 317.209 175.302C317.381 175.511 317.601 175.676 317.85 175.781C318.099 175.887 318.37 175.931 318.64 175.91H335.64C336.264 175.895 336.868 175.68 337.361 175.296C337.854 174.913 338.211 174.381 338.38 173.78L345.69 142.28C345.761 142.02 345.769 141.747 345.713 141.483C345.656 141.22 345.537 140.973 345.366 140.766C345.194 140.558 344.975 140.394 344.727 140.289C344.479 140.183 344.209 140.139 343.94 140.16Z" fill="#FFCECE"/>
<path d="M336.16 172.19H319.84C319.698 172.201 319.555 172.178 319.423 172.123C319.292 172.067 319.175 171.981 319.084 171.871C318.993 171.762 318.93 171.631 318.899 171.492C318.869 171.352 318.873 171.208 318.91 171.07L325.56 142.43C325.65 142.113 325.839 141.833 326.1 141.631C326.361 141.429 326.68 141.317 327.01 141.31H343.33C343.472 141.299 343.615 141.322 343.747 141.377C343.878 141.432 343.995 141.519 344.086 141.629C344.177 141.738 344.24 141.869 344.271 142.008C344.301 142.147 344.297 142.292 344.26 142.43L337.61 171.07C337.52 171.387 337.331 171.667 337.07 171.869C336.809 172.071 336.49 172.183 336.16 172.19Z" fill="white"/>
<path d="M302.44 184.16H289.78L286.01 164.53H298.66L302.44 184.16Z" fill="#FFCECE"/>
<path d="M313.24 136.39H291.82C291.197 136.405 290.595 136.618 290.102 137C289.609 137.381 289.251 137.91 289.08 138.51L280.89 173.78C280.819 174.041 280.811 174.316 280.868 174.581C280.925 174.845 281.045 175.093 281.218 175.301C281.39 175.51 281.61 175.674 281.86 175.78C282.109 175.886 282.38 175.931 282.65 175.91H304.06C304.684 175.895 305.288 175.68 305.781 175.296C306.274 174.913 306.631 174.381 306.8 173.78L315 138.51C315.072 138.249 315.08 137.975 315.023 137.71C314.966 137.446 314.846 137.199 314.673 136.991C314.5 136.783 314.28 136.619 314.03 136.515C313.781 136.41 313.51 136.367 313.24 136.39Z" fill="#FFCECE"/>
<path d="M304.58 172.19H283.85C283.708 172.202 283.565 172.179 283.434 172.124C283.302 172.068 283.186 171.982 283.096 171.872C283.005 171.761 282.943 171.631 282.914 171.491C282.885 171.352 282.891 171.207 282.93 171.07L290.45 138.66C290.54 138.343 290.729 138.063 290.99 137.861C291.251 137.659 291.57 137.547 291.9 137.54H312.62C312.763 137.526 312.907 137.548 313.04 137.602C313.172 137.657 313.29 137.743 313.382 137.854C313.473 137.964 313.537 138.095 313.566 138.236C313.595 138.376 313.59 138.522 313.55 138.66L306 171.07C305.912 171.383 305.727 171.659 305.472 171.86C305.217 172.062 304.905 172.177 304.58 172.19Z" fill="white"/>
<path d="M263.52 184.16H250.87L247.1 164.53H259.75L263.52 184.16Z" fill="#FFCECE"/>
<path d="M277.25 131.67H249.94C249.317 131.685 248.715 131.898 248.222 132.28C247.729 132.661 247.371 133.19 247.2 133.79L237.91 173.79C237.839 174.051 237.831 174.326 237.888 174.591C237.945 174.855 238.065 175.103 238.238 175.311C238.41 175.52 238.63 175.684 238.88 175.79C239.129 175.896 239.4 175.941 239.67 175.92H267C267.624 175.905 268.228 175.69 268.721 175.306C269.214 174.923 269.571 174.391 269.74 173.79L279.02 133.79C279.095 133.528 279.104 133.252 279.048 132.986C278.991 132.719 278.871 132.471 278.696 132.262C278.521 132.053 278.298 131.889 278.046 131.786C277.794 131.683 277.521 131.643 277.25 131.67Z" fill="#FFCECE"/>
<path d="M267.5 172.19H240.88C240.737 172.204 240.593 172.182 240.46 172.128C240.328 172.073 240.21 171.987 240.118 171.876C240.027 171.766 239.963 171.635 239.934 171.494C239.905 171.354 239.91 171.208 239.95 171.07L248.57 133.94C248.66 133.623 248.849 133.343 249.11 133.141C249.371 132.939 249.69 132.827 250.02 132.82H276.64C276.782 132.808 276.925 132.831 277.056 132.886C277.188 132.942 277.304 133.028 277.394 133.138C277.485 133.249 277.547 133.379 277.576 133.519C277.605 133.658 277.599 133.803 277.56 133.94L269 171.07C268.906 171.395 268.709 171.68 268.438 171.882C268.167 172.084 267.838 172.192 267.5 172.19Z" fill="white"/>
<path d="M336.65 215.33H213.3V225.33H336.65V215.33Z" fill="#FFD7DB"/>
<path d="M294.22 236.59H213.3V246.59H294.22V236.59Z" fill="#FFD7DB"/>
<path d="M318.88 257.85H213.3V267.85H318.88V257.85Z" fill="#FFD7DB"/>
<path d="M250 376.56C357.082 376.56 443.89 371.492 443.89 365.24C443.89 358.988 357.082 353.92 250 353.92C142.918 353.92 56.11 358.988 56.11 365.24C56.11 371.492 142.918 376.56 250 376.56Z" fill="#FF99A3" fill-opacity="0.16"/>
<path d="M157.45 353.81L165.14 352.03L162.14 334.03L154.44 335.82L157.45 353.81Z" fill="#CE7A63"/>
<path d="M165.35 351L156.7 353C156.553 353.029 156.424 353.115 156.34 353.238C156.256 353.362 156.224 353.513 156.25 353.66L157.37 360.57C157.409 360.748 157.483 360.916 157.587 361.064C157.691 361.213 157.824 361.34 157.977 361.438C158.13 361.535 158.301 361.602 158.48 361.633C158.659 361.664 158.843 361.66 159.02 361.62C162.02 360.87 163.42 360.36 167.22 359.48C169.56 358.94 179.55 356.87 182.78 356.12C186.01 355.37 185.2 352.21 183.78 352.24C177.35 352.37 169.34 352.35 166.78 351.16C166.334 350.95 165.831 350.894 165.35 351Z" fill="#A30010"/>
<path opacity="0.2" d="M154.44 335.83L162.14 334.04L163.69 343.31L155.99 345.1L154.44 335.83Z" fill="black"/>
<path d="M142.89 157.16C142.89 157.16 153 221.3 156 243.67C159.26 268.18 166.14 339.84 166.14 339.84L152.2 343.68C152.2 343.68 139 274.24 133.56 250.42C127.65 224.57 114.73 157.16 114.73 157.16H142.89Z" fill="#FF475A"/>
<path opacity="0.5" d="M142.89 157.16C142.89 157.16 153 221.3 156 243.67C159.26 268.18 166.14 339.84 166.14 339.84L152.2 343.68C152.2 343.68 139 274.24 133.56 250.42C127.65 224.57 114.73 157.16 114.73 157.16H142.89Z" fill="white"/>
<path opacity="0.3" d="M126.35 179.69C131.68 193.28 131.35 220.17 129.08 229.64C125.87 214.09 122.19 195.48 119.36 181.02C120.44 177.31 123.11 171.42 126.35 179.69Z" fill="black"/>
<path d="M151.86 343.96L166.79 339.85L166.55 333.78L149.73 339.58L151.86 343.96Z" fill="#FF475A"/>
<path d="M168.37 351.75C167.676 351.89 166.968 351.957 166.26 351.95C166.225 351.952 166.19 351.942 166.161 351.922C166.132 351.902 166.111 351.873 166.1 351.84C166.08 351.81 166.07 351.776 166.07 351.74C166.07 351.704 166.08 351.67 166.1 351.64C166.31 351.42 168.15 349.43 169.17 349.58C169.286 349.594 169.396 349.638 169.489 349.709C169.582 349.779 169.655 349.873 169.7 349.98C169.788 350.132 169.834 350.305 169.834 350.48C169.834 350.656 169.788 350.828 169.7 350.98C169.364 351.389 168.892 351.663 168.37 351.75ZM166.7 351.58C168.13 351.53 169.14 351.25 169.42 350.81C169.479 350.708 169.51 350.593 169.51 350.475C169.51 350.357 169.479 350.242 169.42 350.14C169.4 350.087 169.367 350.041 169.323 350.005C169.279 349.97 169.226 349.948 169.17 349.94C168.6 349.86 167.46 350.8 166.7 351.58Z" fill="#FF475A"/>
<path d="M166.3 351.94H166.22C166.19 351.933 166.162 351.918 166.139 351.897C166.116 351.876 166.099 351.85 166.09 351.82C166.09 351.73 165.39 349.56 166 348.64C166.077 348.52 166.179 348.419 166.301 348.345C166.422 348.27 166.558 348.224 166.7 348.21C166.854 348.178 167.014 348.199 167.153 348.27C167.293 348.341 167.405 348.457 167.47 348.6C167.84 349.4 167.05 351.26 166.39 351.9C166.366 351.925 166.334 351.939 166.3 351.94ZM166.65 348.59C166.507 348.629 166.383 348.718 166.3 348.84C166.026 349.668 166.026 350.562 166.3 351.39C166.888 350.646 167.171 349.705 167.09 348.76C167.09 348.66 166.96 348.55 166.69 348.58L166.65 348.59Z" fill="#FF475A"/>
<path d="M145.68 97.1001C146.44 99.2001 147.25 101.49 148.1 103.66C148.95 105.83 149.8 108.04 150.71 110.19C152.417 114.414 154.422 118.511 156.71 122.45L157.56 123.78L157.89 124.29C157.947 124.393 158.014 124.49 158.09 124.58C158.221 124.772 158.372 124.95 158.54 125.11C158.929 125.275 159.363 125.303 159.77 125.19C160.581 125.046 161.366 124.783 162.1 124.41C165.58 122.76 169.31 119.57 172.6 116.51L177.37 120.02C176.079 122.32 174.583 124.499 172.9 126.53C171.142 128.696 169.108 130.622 166.85 132.26C165.527 133.204 164.085 133.968 162.56 134.53C160.643 135.233 158.579 135.439 156.56 135.13C154.353 134.76 152.305 133.748 150.67 132.22C150.317 131.886 149.983 131.532 149.67 131.16L149.21 130.63L148.9 130.22L147.63 128.57C144.612 124.302 142.004 119.759 139.84 115C138.78 112.68 137.76 110.36 136.84 108C135.92 105.64 135.06 103.33 134.29 100.8L145.68 97.1001Z" fill="#CE7A63"/>
<path d="M140.34 89C132.52 87.18 127.77 92.17 130.12 102C131.574 107.603 133.358 113.116 135.46 118.51C135.92 119.72 136.34 120.8 136.69 121.67L154.46 111.77C152.5 104 145.58 90.23 140.34 89Z" fill="#A30010"/>
<path opacity="0.3" d="M140.68 98.29C135.96 94.08 140.79 111.16 142.77 118.29L147.99 115.38C147.47 110.43 144.31 101.52 140.68 98.29Z" fill="black"/>
<path d="M99.12 357.19H107L108.17 338.94H100.28L99.12 357.19Z" fill="#CE7A63"/>
<path d="M107.42 356.28H98.57C98.4956 356.276 98.4212 356.287 98.3511 356.312C98.2809 356.337 98.2165 356.376 98.1616 356.426C98.1066 356.476 98.0623 356.537 98.0311 356.605C97.9999 356.672 97.9826 356.746 97.98 356.82L97.49 363.82C97.4874 364.002 97.5208 364.183 97.5883 364.352C97.6559 364.521 97.7562 364.675 97.8835 364.805C98.0109 364.935 98.1627 365.039 98.3303 365.11C98.4979 365.182 98.6779 365.219 98.86 365.22C101.94 365.17 103.42 364.99 107.31 364.99C109.71 364.99 119.89 365.24 123.19 365.24C126.49 365.24 126.43 361.97 125.03 361.67C118.76 360.34 111.03 358.51 108.77 356.76C108.385 356.456 107.911 356.287 107.42 356.28Z" fill="#A30010"/>
<path opacity="0.2" d="M100.28 338.95H108.17L107.56 348.36H99.68L100.28 338.95Z" fill="black"/>
<path d="M127.5 157.16C127.5 157.16 127.78 216.97 126.32 239.53C124.73 264.24 111 346.08 111 346.08H96.53C96.53 346.08 103.7 266.23 103.02 241.77C102.29 215.22 100.75 157.16 100.75 157.16H127.5Z" fill="#FF475A"/>
<path opacity="0.5" d="M127.5 157.16C127.5 157.16 127.78 216.97 126.32 239.53C124.73 264.24 111 346.08 111 346.08H96.53C96.53 346.08 103.7 266.23 103.02 241.77C102.29 215.22 100.75 157.16 100.75 157.16H127.5Z" fill="white"/>
<path d="M95.94 346.08H111.54L112.45 340.61L95.23 341.46L95.94 346.08Z" fill="#FF475A"/>
<path d="M110.2 357.65C109.492 357.631 108.788 357.537 108.1 357.37C108.067 357.362 108.037 357.345 108.013 357.32C107.99 357.295 107.975 357.264 107.97 357.23C107.947 357.194 107.938 357.152 107.943 357.11C107.949 357.067 107.969 357.029 108 357C108.26 356.83 110.5 355.3 111.46 355.68C111.569 355.723 111.665 355.794 111.738 355.885C111.812 355.976 111.861 356.085 111.88 356.2C111.934 356.373 111.941 356.557 111.898 356.733C111.856 356.909 111.767 357.071 111.64 357.2C111.231 357.521 110.719 357.681 110.2 357.65ZM108.61 357.1C110.02 357.39 111.06 357.34 111.43 356.98C111.506 356.89 111.558 356.782 111.581 356.667C111.604 356.551 111.596 356.432 111.56 356.32C111.553 356.263 111.531 356.208 111.496 356.162C111.461 356.117 111.414 356.081 111.36 356.06C110.84 355.86 109.53 356.52 108.61 357.1Z" fill="#FF475A"/>
<path d="M108.14 357.38H108.06C108.033 357.365 108.01 357.343 107.992 357.317C107.975 357.291 107.964 357.261 107.96 357.23C107.96 357.13 107.8 354.86 108.6 354.1C108.701 354 108.824 353.924 108.96 353.879C109.095 353.834 109.239 353.821 109.38 353.84C109.537 353.846 109.687 353.904 109.807 354.006C109.927 354.107 110.009 354.246 110.04 354.4C110.21 355.26 109.04 356.9 108.24 357.4C108.205 357.404 108.171 357.397 108.14 357.38ZM109.25 354.18C109.176 354.178 109.102 354.191 109.033 354.219C108.965 354.246 108.902 354.287 108.85 354.34C108.41 355.099 108.221 355.977 108.31 356.85C109 356.27 109.8 355.02 109.68 354.45C109.68 354.35 109.6 354.22 109.33 354.19L109.25 354.18Z" fill="#FF475A"/>
<path d="M142.89 157.16H100.75C100.48 153.39 101.45 141.16 100.92 125.56C100.611 114.008 99.2994 102.505 97 91.1802C96.82 90.3302 96.63 89.4902 96.44 88.6402C96.44 88.6402 98.58 88.2102 101.64 87.7602C104.19 87.3902 107.38 87.0002 110.5 86.8602C116.465 86.515 122.445 86.515 128.41 86.8602C131.16 87.1102 133.85 87.5702 135.99 87.9802C138.73 88.5302 140.34 88.9802 140.34 88.9802C140.34 88.9802 150.54 112.84 142.89 157.16Z" fill="#A30010"/>
<path d="M127.39 112.33C127.287 112.33 127.186 112.298 127.1 112.24C126.93 112.12 109.64 99.7501 103.51 87.6701C103.451 87.552 103.441 87.4152 103.482 87.2897C103.523 87.1641 103.612 87.06 103.73 87.0001C103.788 86.9693 103.852 86.9506 103.918 86.9451C103.983 86.9396 104.049 86.9473 104.112 86.9678C104.174 86.9883 104.232 87.0213 104.282 87.0646C104.331 87.108 104.371 87.1608 104.4 87.2201C110.4 99.0801 127.51 111.3 127.68 111.43C127.786 111.506 127.859 111.622 127.881 111.751C127.903 111.88 127.874 112.012 127.8 112.12C127.753 112.185 127.691 112.238 127.62 112.274C127.549 112.31 127.47 112.33 127.39 112.33Z" fill="#FF475A"/>
<path d="M127.39 112.33C127.287 112.33 127.186 112.298 127.1 112.24C127.046 112.203 127 112.156 126.965 112.101C126.93 112.046 126.906 111.985 126.895 111.92C126.884 111.856 126.886 111.79 126.9 111.727C126.915 111.663 126.942 111.603 126.98 111.55C131.284 104.284 133.007 95.778 131.87 87.4102C131.856 87.2794 131.892 87.1481 131.972 87.0438C132.053 86.9394 132.17 86.87 132.3 86.8502C132.366 86.8418 132.432 86.8466 132.496 86.8643C132.56 86.8819 132.62 86.9121 132.672 86.953C132.724 86.994 132.768 87.0449 132.8 87.1027C132.832 87.1606 132.853 87.2243 132.86 87.2902C134.028 95.9009 132.245 104.653 127.8 112.12C127.754 112.186 127.693 112.24 127.621 112.276C127.55 112.313 127.47 112.331 127.39 112.33Z" fill="#FF475A"/>
<path d="M134.37 127.29H122.7L121.48 110.51H133.15L134.37 127.29Z" fill="#FF475A"/>
<path d="M133.84 126.36H123.5L122.39 111.11H132.74L133.84 126.36Z" fill="white"/>
<path d="M128.05 118.81H123.72L123.31 113.29H127.65L128.05 118.81Z" fill="#FF475A"/>
<path d="M132.29 121.11H123.88L123.82 120.25H132.23L132.29 121.11Z" fill="#FF475A"/>
<path d="M132.43 123.04H124.02L123.96 122.19H132.37L132.43 123.04Z" fill="#FF475A"/>
<path d="M131.79 124.98H124.16L124.1 124.13H131.73L131.79 124.98Z" fill="#FF475A"/>
<path opacity="0.3" d="M100.92 125.56C100.612 114.012 99.2999 102.512 97 91.1902C99.82 90.9402 104.63 91.1902 105.4 95.7702C106.22 100.66 105 112.16 100.92 125.56Z" fill="black"/>
<path d="M104.68 98.6402L100.46 113.17L98.34 120.44L96.34 127.69L96.21 128.14L96.15 128.36V128.48C96.1664 128.381 96.1664 128.279 96.15 128.18C96.15 128.02 96.07 128.04 96.15 128.18C96.3605 128.823 96.7009 129.415 97.15 129.92C98.5835 131.565 100.193 133.047 101.95 134.34C105.882 137.27 109.975 139.978 114.21 142.45L111.97 147.93C109.394 147.223 106.86 146.372 104.38 145.38C101.864 144.379 99.41 143.231 97.03 141.94C94.4275 140.555 92.0115 138.844 89.84 136.85C88.4593 135.564 87.3212 134.039 86.48 132.35C85.9189 131.194 85.5797 129.942 85.48 128.66C85.4323 127.922 85.4692 127.18 85.59 126.45L85.8 125.33C86.72 120.18 87.8 115.12 89.1 110.1C90.4 105.08 91.75 100.1 93.35 95.1501L104.68 98.6402Z" fill="#CE7A63"/>
<path d="M96.44 88.6401C91.19 89.8601 85.3 103.69 83.22 111.47C82.88 112.79 82.6 113.93 82.39 114.8C82.11 115.95 81.96 116.64 81.96 116.64L99.58 121.64C99.94 120.77 100.38 119.64 100.85 118.48C103.04 113.101 104.913 107.598 106.46 102C109 92.1801 104.29 86.8201 96.44 88.6401Z" fill="#A30010"/>
<path d="M127.56 86.7902C122.37 85.5602 121.48 82.3402 121.86 78.7902C121.947 77.902 122.091 77.0202 122.29 76.1502L115.81 70.7302L111.05 66.7302C112.33 72.5002 113.74 83.0102 109.81 86.8602C111.375 89.1682 113.509 91.0339 116.005 92.2775C118.501 93.5212 121.275 94.1007 124.06 93.9602C128.54 89.1102 127.56 86.7902 127.56 86.7902Z" fill="#CE7A63"/>
<path d="M106.64 86.83C107.758 86.5712 108.89 86.3776 110.03 86.25C111.92 89.47 120.03 94.02 122.78 94.02C122.78 94.02 120.03 95.22 119.34 99.56C115.12 97.19 107 91.12 106.64 86.83Z" fill="white"/>
<path d="M129.52 86.8602C128.73 86.6231 127.902 86.535 127.08 86.6002C127.14 89.7502 126.15 91.2102 124.62 93.3702C125.712 93.7516 126.671 94.4406 127.381 95.3543C128.09 96.2681 128.521 97.3675 128.62 98.5202C131.75 95.2102 130.7 89.2302 129.52 86.8602Z" fill="white"/>
<path opacity="0.2" d="M122.29 76.16C122.091 77.03 121.947 77.9118 121.86 78.8C119.43 78.31 115.76 76.14 115.43 73.4C115.447 72.5011 115.575 71.6078 115.81 70.74L122.29 76.16Z" fill="black"/>
<path d="M108 58.0001C109.24 65.7501 109.58 70.3401 113.9 74.0601C120.39 79.6501 129.64 75.4101 130.73 67.5101C131.73 60.4001 129.52 48.9201 121.61 46.3601C119.899 45.7684 118.063 45.6345 116.285 45.9716C114.506 46.3086 112.847 47.105 111.471 48.2816C110.095 49.4582 109.051 50.9742 108.442 52.679C107.833 54.3838 107.681 56.2182 108 58.0001Z" fill="#CE7A63"/>
<path d="M110.79 66.5701C113.51 61.6901 115.12 55.8601 112.28 53.2801C116.11 53.2801 120.64 51.8301 122.28 50.3901C125.28 51.7801 128.65 51.5901 130.03 48.3901C131.19 45.7401 129.51 42.1701 124.94 42.4501C117.66 36.6701 104.94 37.8901 108.94 42.8401C98.47 42.0601 97.3 47.8401 101.29 49.8401C95 53.6701 96.34 63.3301 110.79 66.5701Z" fill="#A30010"/>
<path d="M105.84 65.62C106.989 67.1756 108.644 68.2823 110.52 68.75C112.91 69.28 113.52 67.06 112.52 64.84C111.52 62.84 109.08 60.15 106.9 60.62C104.72 61.09 104.38 63.66 105.84 65.62Z" fill="#CE7A63"/>
<path d="M120 59.3202C120.06 59.9602 120.45 60.4502 120.86 60.4202C121.27 60.3902 121.56 59.8502 121.5 59.2202C121.44 58.5902 121.05 58.0902 120.63 58.1202C120.21 58.1502 120 58.6902 120 59.3202Z" fill="#A30010"/>
<path d="M127.19 58.82C127.26 59.45 127.64 59.94 128.05 59.91C128.46 59.88 128.75 59.35 128.69 58.71C128.63 58.07 128.24 57.59 127.83 57.62C127.42 57.65 127.13 58.19 127.19 58.82Z" fill="#A30010"/>
<path d="M125 59.29C125.947 61.1786 127.145 62.931 128.56 64.5C128.15 64.8459 127.668 65.0955 127.149 65.2305C126.629 65.3655 126.087 65.3824 125.56 65.28L125 59.29Z" fill="#BA4D3C"/>
<path d="M123.12 67.17C122.387 67.1454 121.666 66.9712 121.002 66.6583C120.338 66.3453 119.746 65.9001 119.26 65.35C119.242 65.3323 119.228 65.3113 119.218 65.2881C119.209 65.265 119.204 65.2401 119.204 65.215C119.204 65.1899 119.209 65.165 119.218 65.1419C119.228 65.1187 119.242 65.0977 119.26 65.08C119.295 65.047 119.342 65.0286 119.39 65.0286C119.438 65.0286 119.485 65.047 119.52 65.08C120.054 65.6731 120.719 66.1337 121.462 66.4253C122.205 66.7169 123.005 66.8315 123.8 66.76C123.825 66.7572 123.851 66.7597 123.875 66.7675C123.899 66.7753 123.922 66.7881 123.94 66.8051C123.959 66.8221 123.974 66.8429 123.985 66.8662C123.995 66.8894 124 66.9146 124 66.94C124.003 66.9639 124.001 66.9882 123.993 67.0112C123.986 67.0342 123.974 67.0554 123.958 67.0734C123.942 67.0913 123.922 67.1057 123.9 67.1154C123.878 67.1252 123.854 67.1302 123.83 67.13C123.594 67.157 123.357 67.1703 123.12 67.17Z" fill="#A30010"/>
<path d="M117.6 57.1701C117.536 57.1637 117.475 57.1432 117.42 57.1101C117.379 57.0845 117.343 57.051 117.314 57.0116C117.286 56.9721 117.265 56.9274 117.254 56.88C117.243 56.8326 117.241 56.7835 117.249 56.7355C117.257 56.6874 117.274 56.6414 117.3 56.6001C117.602 56.0935 118.023 55.6684 118.527 55.3616C119.03 55.0549 119.601 54.8759 120.19 54.8401C120.288 54.8401 120.382 54.8791 120.452 54.9485C120.521 55.0179 120.56 55.112 120.56 55.2101C120.56 55.3109 120.52 55.4075 120.449 55.4788C120.377 55.5501 120.281 55.5901 120.18 55.5901C119.72 55.6254 119.275 55.7711 118.884 56.0149C118.492 56.2586 118.165 56.5931 117.93 56.9901C117.895 57.0461 117.847 57.0922 117.789 57.1238C117.731 57.1553 117.666 57.1713 117.6 57.1701Z" fill="#A30010"/>
<path d="M130 56.1401C129.939 56.1372 129.88 56.1192 129.827 56.0878C129.775 56.0564 129.731 56.0125 129.7 55.9601C129.466 55.546 129.139 55.1915 128.745 54.9244C128.352 54.6573 127.901 54.4847 127.43 54.4201C127.38 54.4176 127.332 54.4051 127.287 54.3835C127.243 54.3619 127.203 54.3315 127.17 54.2942C127.138 54.2569 127.113 54.2134 127.097 54.1663C127.082 54.1192 127.076 54.0695 127.08 54.0201C127.088 53.9228 127.132 53.8323 127.205 53.7671C127.278 53.702 127.372 53.6672 127.47 53.6701C128.064 53.7401 128.633 53.9485 129.131 54.2785C129.63 54.6085 130.044 55.0509 130.34 55.5701C130.365 55.612 130.382 55.6586 130.389 55.707C130.396 55.7554 130.394 55.8048 130.381 55.8522C130.369 55.8997 130.348 55.9442 130.319 55.9833C130.289 56.0225 130.252 56.0553 130.21 56.0801C130.147 56.1183 130.074 56.139 130 56.1401Z" fill="#A30010"/>
<path d="M112.1 142.05L121.53 141.05L116.59 149.68C116.59 149.68 109.45 148.96 110.15 145.33L112.1 142.05Z" fill="#CE7A63"/>
<path d="M128.36 143.36L123.69 150.82L116.61 149.65L121.55 141.02L128.36 143.36Z" fill="#CE7A63"/>
<path d="M175.24 121.19L182.9 119.56L177.29 112.87C177.29 112.87 170.29 115.73 172.29 118.87L175.24 121.19Z" fill="#CE7A63"/>
<path d="M187.25 115.6L182.23 108.65L177.29 112.87L182.9 119.56L187.25 115.6Z" fill="#CE7A63"/>
<path d="M128.16 181.5H241.51C244.809 181.5 247.973 182.811 250.306 185.144C252.639 187.477 253.95 190.641 253.95 193.94V365.24H115.72V193.94C115.72 190.641 117.031 187.477 119.364 185.144C121.697 182.811 124.861 181.5 128.16 181.5Z" fill="#FF475A"/>
<path d="M282.5 193.94H281.5V216.89H282.5V193.94Z" fill="#FF475A"/>
<path d="M282.5 222.67H281.5V229.56H282.5V222.67Z" fill="#FF475A"/>
<path d="M153.22 181.5H266.56C269.859 181.5 273.023 182.811 275.356 185.144C277.689 187.477 279 190.641 279 193.94V365.24H140.78V193.94C140.78 190.641 142.091 187.477 144.424 185.144C146.757 182.811 149.921 181.5 153.22 181.5Z" fill="#FF475A"/>
<path opacity="0.3" d="M274.85 193.93V365.23H144.92V193.93C144.92 191.731 145.793 189.623 147.348 188.068C148.903 186.513 151.011 185.64 153.21 185.64H266.56C268.759 185.64 270.867 186.513 272.422 188.068C273.977 189.623 274.85 191.731 274.85 193.93Z" fill="white"/>
<path opacity="0.9" d="M272.65 193.94V365.24H144.92V193.94C144.921 192.85 145.137 191.772 145.556 190.766C145.974 189.76 146.587 188.846 147.359 188.077C148.13 187.308 149.046 186.699 150.054 186.284C151.061 185.869 152.141 185.657 153.23 185.66H264.36C266.557 185.66 268.664 186.532 270.218 188.084C271.773 189.637 272.647 191.743 272.65 193.94Z" fill="white"/>
<path d="M196.42 155.66H155.77C151.705 155.66 148.41 158.955 148.41 163.02V174.14C148.41 178.205 151.705 181.5 155.77 181.5H196.42C200.485 181.5 203.78 178.205 203.78 174.14V163.02C203.78 158.955 200.485 155.66 196.42 155.66Z" fill="#FF475A"/>
<path d="M195.34 157.12H167.62C164.058 157.12 161.17 160.008 161.17 163.57V173.59C161.17 177.152 164.058 180.04 167.62 180.04H195.34C198.902 180.04 201.79 177.152 201.79 173.59V163.57C201.79 160.008 198.902 157.12 195.34 157.12Z" fill="#A30010"/>
<path d="M153.18 163.56C153.18 163.886 153.05 164.199 152.82 164.43C152.589 164.66 152.276 164.79 151.95 164.79C151.624 164.79 151.311 164.66 151.08 164.43C150.85 164.199 150.72 163.886 150.72 163.56C150.72 163.234 150.85 162.921 151.08 162.69C151.311 162.46 151.624 162.33 151.95 162.33C152.276 162.33 152.589 162.46 152.82 162.69C153.05 162.921 153.18 163.234 153.18 163.56Z" fill="white"/>
<path d="M153.18 167.48C153.18 167.723 153.108 167.961 152.973 168.163C152.838 168.366 152.645 168.523 152.421 168.616C152.196 168.709 151.949 168.734 151.71 168.686C151.471 168.639 151.252 168.522 151.08 168.35C150.908 168.178 150.791 167.959 150.744 167.72C150.696 167.481 150.721 167.234 150.814 167.009C150.907 166.785 151.064 166.592 151.267 166.457C151.469 166.322 151.707 166.25 151.95 166.25C152.275 166.253 152.587 166.383 152.817 166.613C153.047 166.843 153.177 167.155 153.18 167.48Z" fill="white"/>
<path opacity="0.2" d="M238.76 140.55H219.65L222.86 181.5H241.97L238.76 140.55Z" fill="#FF475A"/>
<path d="M239.93 137.04H220.82L224.03 177.99H243.14L239.93 137.04Z" fill="#FF475A"/>
<path opacity="0.6" d="M240.41 163.17H224.44L222.51 138.6H238.48L240.41 163.17Z" fill="white"/>
<path opacity="0.6" d="M241.45 176.43H225.47L224.73 167.01H240.71L241.45 176.43Z" fill="white"/>
<path d="M240.56 136.81L221.45 136.77L224.58 177.97L243.69 178.01L240.56 136.81Z" fill="#FF475A"/>
<path opacity="0.6" d="M240.98 163.1L225.01 163.06L223.14 138.35L239.11 138.38L240.98 163.1Z" fill="white"/>
<path opacity="0.6" d="M242 176.44L226.02 176.41L225.3 166.93L241.28 166.96L242 176.44Z" fill="white"/>
<path d="M241.08 136.29L221.97 136.25L225.1 177.95L244.21 177.99L241.08 136.29Z" fill="#FF475A"/>
<path opacity="0.6" d="M241.51 162.9L225.53 162.86L223.66 137.84L239.64 137.88L241.51 162.9Z" fill="white"/>
<path opacity="0.6" d="M242.53 176.4L226.54 176.36L225.82 166.77L241.81 166.8L242.53 176.4Z" fill="white"/>
<path opacity="0.4" d="M218.04 140.55H219.65L222.86 181.5H221.26L218.04 140.55Z" fill="#FF475A"/>
<path d="M383.78 112.55C384.25 113.64 384.6 114.55 384.95 115.55C385.3 116.55 385.63 117.47 385.95 118.43C386.59 120.35 387.15 122.28 387.68 124.21C388.68 128.09 389.57 131.99 390.26 135.92L390.52 137.39L390.58 137.76L390.65 138.21C390.715 138.617 390.752 139.028 390.76 139.44C390.787 140.897 390.536 142.346 390.02 143.71C389.169 145.902 387.948 147.931 386.41 149.71C383.686 152.891 380.497 155.642 376.95 157.87L374.12 154.39C376.583 151.676 378.798 148.748 380.74 145.64C381.57 144.317 382.196 142.878 382.6 141.37C382.72 140.883 382.747 140.377 382.68 139.88L382.11 137.67C381.11 133.97 380.11 130.3 379.01 126.67C378.47 124.86 377.87 123.06 377.29 121.28C377 120.39 376.69 119.5 376.38 118.63L375.45 116.13L383.78 112.55Z" fill="#B55B52"/>
<path d="M377.94 156.48L380.67 162.35L376.92 164.54C376.92 164.54 369.57 153.81 375.11 153.46L377.94 156.48Z" fill="#B55B52"/>
<path d="M362.84 356.71C363.629 356.694 364.414 356.59 365.18 356.4C365.22 356.391 365.257 356.37 365.286 356.339C365.314 356.309 365.333 356.271 365.34 356.23C365.347 356.19 365.342 356.149 365.326 356.112C365.31 356.074 365.284 356.043 365.25 356.02C364.95 355.82 362.25 354.08 361.25 354.55C361.135 354.602 361.036 354.684 360.964 354.788C360.891 354.892 360.849 355.014 360.84 355.14C360.797 355.339 360.806 355.545 360.865 355.739C360.925 355.934 361.033 356.109 361.18 356.25C361.662 356.594 362.25 356.756 362.84 356.71ZM364.59 356.1C363.05 356.4 361.89 356.35 361.44 355.94C361.344 355.845 361.273 355.728 361.235 355.598C361.196 355.469 361.191 355.332 361.22 355.2C361.222 355.143 361.24 355.087 361.272 355.04C361.304 354.992 361.348 354.954 361.4 354.93C361.94 354.69 363.49 355.43 364.59 356.1Z" fill="#FF475A"/>
<path d="M365.13 356.4C365.166 356.41 365.204 356.41 365.24 356.4C365.271 356.382 365.297 356.356 365.315 356.324C365.333 356.292 365.341 356.256 365.34 356.22C365.34 356.11 365.34 353.56 364.34 352.71C364.222 352.6 364.08 352.518 363.926 352.47C363.773 352.422 363.61 352.408 363.45 352.43C363.282 352.433 363.121 352.493 362.992 352.601C362.863 352.708 362.774 352.856 362.74 353.02C362.54 354.02 364.15 355.93 365 356.41L365.13 356.4ZM363.63 352.81C363.715 352.81 363.8 352.827 363.879 352.859C363.958 352.892 364.03 352.94 364.09 353C364.66 353.5 364.86 354.94 364.91 355.79C364.07 355.11 363.06 353.68 363.19 353.07C363.19 352.97 363.26 352.85 363.53 352.82L363.63 352.81Z" fill="#FF475A"/>
<path d="M363.44 82C362.44 87.26 360.24 97.91 363.91 101.41C363.91 101.41 362.48 106.75 352.71 106.75C341.97 106.75 347.58 101.41 347.58 101.41C353.44 100.01 353.29 95.66 352.27 91.58L363.44 82Z" fill="#B55B52"/>
<path d="M344.25 105.54C342.77 105.73 346.25 101.02 346.84 100.54C348.22 99.4298 366.23 98.4898 366.14 101.24C366.08 102.42 365.65 104.72 364.87 105.47C364.09 106.22 357.19 103.6 344.25 105.54Z" fill="#A30010"/>
<path d="M346.13 69.2998C346.064 69.2935 346 69.271 345.944 69.2344C345.888 69.1978 345.842 69.1482 345.81 69.0898C345.565 68.6247 345.213 68.2239 344.784 67.9199C344.355 67.6159 343.86 67.4171 343.34 67.3398C343.285 67.3372 343.231 67.3238 343.181 67.3003C343.131 67.2768 343.086 67.2436 343.049 67.2028C343.012 67.1619 342.983 67.1141 342.964 67.0621C342.946 67.0101 342.937 66.955 342.94 66.8998C342.948 66.7875 342.999 66.6827 343.083 66.6079C343.167 66.5331 343.278 66.4943 343.39 66.4998C344.05 66.5873 344.68 66.8307 345.228 67.2097C345.776 67.5888 346.225 68.0927 346.54 68.6798C346.568 68.7274 346.586 68.7802 346.593 68.8351C346.601 68.8899 346.597 68.9457 346.582 68.9989C346.567 69.0522 346.541 69.1018 346.506 69.145C346.472 69.1881 346.429 69.2237 346.38 69.2498C346.305 69.2947 346.217 69.3124 346.13 69.2998Z" fill="#A30010"/>
<path d="M343.22 74.0498C342.462 75.6267 341.493 77.0934 340.34 78.4098C340.684 78.6944 341.086 78.9009 341.517 79.0148C341.949 79.1288 342.4 79.1476 342.84 79.0698L343.22 74.0498Z" fill="#A02724"/>
<path d="M344 72.8698C343.95 73.5798 343.53 74.1298 343.06 74.0998C342.59 74.0698 342.26 73.4598 342.31 72.7498C342.36 72.0398 342.79 71.4798 343.25 71.5198C343.71 71.5598 344 72.1598 344 72.8698Z" fill="#A30010"/>
<path d="M343.41 71.57L341.73 70.95C341.73 70.95 342.51 72.35 343.41 71.57Z" fill="#A30010"/>
<path d="M375.44 356.19H366.58L367.27 335.68H376.13L375.44 356.19Z" fill="#B55B52"/>
<path d="M365.87 355.17H375.87C376.04 355.166 376.206 355.225 376.335 355.336C376.464 355.447 376.548 355.601 376.57 355.77L377.71 363.65C377.731 363.849 377.71 364.049 377.648 364.239C377.586 364.429 377.485 364.604 377.351 364.752C377.217 364.901 377.053 365.019 376.87 365.099C376.688 365.18 376.49 365.221 376.29 365.22C372.82 365.16 371.15 364.96 366.77 364.96C364.08 364.96 360.14 365.24 356.42 365.24C352.7 365.24 352.51 361.56 354.06 361.24C361 359.75 362.06 357.69 364.43 355.72C364.834 355.38 365.342 355.186 365.87 355.17Z" fill="#A30010"/>
<g opacity="0.2">
<path opacity="0.2" d="M376.13 335.68H367.27L366.87 347.57H375.73L376.13 335.68Z" fill="black"/>
</g>
<path d="M337 115.38C335.24 119.8 333.35 124.01 331.22 128.21C329.127 132.488 326.756 136.624 324.12 140.59C323.41 141.59 322.71 142.59 321.91 143.59C321.49 144.1 321.14 144.59 320.66 145.1C320.097 145.723 319.478 146.292 318.81 146.8C317.504 147.758 316.033 148.466 314.47 148.89C313.057 149.279 311.596 149.471 310.13 149.46C307.503 149.43 304.898 148.985 302.41 148.14C301.231 147.759 300.076 147.308 298.95 146.79C297.811 146.282 296.702 145.708 295.63 145.07L297.52 141C301.57 142.08 306.09 142.81 309.7 142.29C311.219 142.149 312.656 141.537 313.81 140.54C314.029 140.321 314.233 140.087 314.42 139.84L315.28 138.63C315.87 137.8 316.43 136.88 316.98 135.98C318.09 134.14 319.15 132.22 320.16 130.25C321.17 128.28 322.16 126.25 323.16 124.25C325.05 120.25 326.91 116.05 328.63 111.99L337 115.38Z" fill="#B55B52"/>
<path d="M333.52 103.31C329.12 104.38 323.7 116.47 323.7 116.47L334.18 129.89C334.18 129.89 345 114.58 343.56 109.89C342.05 105 338.86 102 333.52 103.31Z" fill="#FF475A"/>
<path d="M299.57 141.63L293 139.56L291.55 146.46C291.55 146.46 298.01 147.72 300.55 144.9L299.57 141.63Z" fill="#B55B52"/>
<path d="M286.87 140.35L288.12 145.6L291.53 146.46L292.98 139.56L286.87 140.35Z" fill="#B55B52"/>
<path d="M368.09 72.2199C366.9 80.9299 366.58 84.6399 361.82 88.7999C354.67 95.0599 344.23 91.6899 342.82 82.7999C341.53 74.7999 343.69 61.8999 352.52 59.0599C354.461 58.4311 356.531 58.3078 358.534 58.7018C360.536 59.0957 362.405 59.9938 363.964 61.3112C365.522 62.6286 366.719 64.3217 367.441 66.2305C368.163 68.1393 368.387 70.2008 368.09 72.2199Z" fill="#B55B52"/>
<path d="M348.42 77.1699C355.33 89.2499 358.83 90.8899 364.17 92.8899C364.17 92.8899 366.63 85.4599 371.96 80.8299C379.14 74.6099 374.96 62.7499 370.58 61.3299C372.76 54.3299 347.14 52.3299 344.41 62.7799C342.45 70.2799 348.42 77.1699 348.42 77.1699Z" fill="#A30010"/>
<path d="M352.44 74.8299C352.032 76.7673 350.973 78.5068 349.44 79.7599C347.38 81.4599 345.6 80.1299 345.53 77.8399C345.48 75.7799 346.48 72.4099 348.85 71.5799C351.22 70.7499 352.86 72.5499 352.44 74.8299Z" fill="#B55B52"/>
<path d="M347.25 156.77C347.25 156.77 352.39 217.57 357.73 251.84C362.04 279.52 365.43 344.21 365.43 344.21H377.51C377.51 344.21 383.27 281.73 381.08 254.36C375.55 185.09 385.26 172.83 373.73 156.77H347.25Z" fill="#A30010"/>
<path opacity="0.2" d="M351 196C352.63 212 354.66 230.21 356.78 245.07C360.19 237.07 363.78 226.12 364.47 203.49C364.85 188.23 356.43 185.25 351 196Z" fill="black"/>
<path d="M319.14 352.91C319.176 352.911 319.212 352.902 319.244 352.885C319.276 352.867 319.302 352.841 319.32 352.81C319.348 352.776 319.363 352.734 319.363 352.69C319.363 352.646 319.348 352.604 319.32 352.57C319.02 352.23 316.4 349.26 315.17 349.41C315.055 349.425 314.945 349.468 314.851 349.536C314.756 349.605 314.681 349.695 314.63 349.8C314.542 349.968 314.495 350.155 314.495 350.345C314.495 350.535 314.542 350.722 314.63 350.89C315.21 352.04 317.71 352.65 319.14 352.89V352.91ZM315.25 349.83C315.94 349.83 317.49 351.23 318.56 352.38C316.62 351.96 315.29 351.38 314.97 350.7C314.909 350.592 314.876 350.469 314.876 350.345C314.876 350.22 314.909 350.098 314.97 349.99C314.987 349.946 315.015 349.908 315.052 349.88C315.089 349.852 315.134 349.834 315.18 349.83H315.25Z" fill="#FF475A"/>
<path d="M319.14 352.91H319.19C319.226 352.901 319.259 352.882 319.285 352.855C319.312 352.829 319.331 352.796 319.34 352.76C319.34 352.67 320.05 350.37 319.34 349.1C319.244 348.915 319.111 348.753 318.949 348.622C318.788 348.491 318.601 348.395 318.4 348.34C317.83 348.18 317.57 348.4 317.4 348.6C316.88 349.48 318.12 352.02 318.93 352.85C318.957 352.877 318.99 352.897 319.027 352.908C319.064 352.918 319.103 352.919 319.14 352.91ZM318.04 348.71C318.123 348.697 318.207 348.697 318.29 348.71C318.439 348.75 318.578 348.821 318.698 348.917C318.819 349.013 318.918 349.133 318.99 349.27C319.319 350.24 319.336 351.289 319.04 352.27C318.27 351.27 317.5 349.35 317.82 348.83C317.83 348.79 317.88 348.71 318 348.71H318.04Z" fill="#FF475A"/>
<path d="M328.04 358.97L319.76 355.39L322.1 344.8L324.47 334.14L324.74 332.9L333.33 335.07L333.03 336.47L330.74 346.79L328.04 358.97Z" fill="#B55B52"/>
<path opacity="0.2" d="M330.74 346.79L321.94 345.54L324.47 334.14L333.03 336.47L330.74 346.79Z" fill="black"/>
<path d="M337.75 156.77C337.75 156.77 331.75 222.25 329.51 253.27C327.51 281.27 321.38 340.06 321.38 340.06L333.33 341.84C333.33 341.84 349.33 275.65 351.83 256.5C359 201.5 373.04 184.5 369.61 156.77H337.75Z" fill="#A30010"/>
<path d="M320.05 352L329.32 355.64C329.481 355.699 329.614 355.816 329.693 355.967C329.772 356.119 329.793 356.294 329.75 356.46L327.93 364.2C327.878 364.394 327.785 364.574 327.659 364.73C327.532 364.885 327.373 365.012 327.194 365.102C327.014 365.192 326.817 365.242 326.617 365.251C326.416 365.259 326.216 365.225 326.03 365.15C322.82 363.83 321.34 363.03 317.27 361.43C314.76 360.43 309.48 358.66 306.02 357.3C302.56 355.94 303.72 352.45 305.28 352.71C312.28 353.86 315.58 352.94 318.48 351.97C318.991 351.795 319.547 351.805 320.05 352Z" fill="#A30010"/>
<path d="M319.35 342.61L334.51 345.22L336.25 339.5L320.02 336.69L319.35 342.61Z" fill="#FF475A"/>
<path d="M363.78 344.45H379.17L379.98 339.05L363.69 338.5L363.78 344.45Z" fill="#FF475A"/>
<path d="M387.72 117.1L378.83 124.18L373.49 128.44C373.49 128.44 372.93 126.95 372.25 124.82C370.96 120.69 369.25 114.16 370.44 111.15C372.27 106.39 375.76 102.1 380.11 103.05C383.79 103.86 387.72 117.1 387.72 117.1Z" fill="#FF475A"/>
<path opacity="0.2" d="M377.57 125.19L373.49 128.44C373.49 128.44 372.93 126.95 372.25 124.82L375.42 109.11L377.57 125.19Z" fill="black"/>
<path d="M333.52 103.31C333.52 103.31 329.3 104.79 337.75 156.77H373.75C373.15 142.13 373.13 133.1 380.13 103.05C375.092 102.013 369.985 101.345 364.85 101.05C359.411 100.655 353.95 100.655 348.51 101.05C341.48 101.68 333.52 103.31 333.52 103.31Z" fill="#FF475A"/>
<path d="M365.21 91.9999L361.78 91.9299C355.83 100.14 362.68 100.49 362.67 107.55C362.66 114.61 355.01 118.77 364.44 123.74C357.5 116.45 376.92 112.21 365.21 91.9999Z" fill="#A30010"/>
<path d="M358 89.3998C358.242 90.6547 358.403 91.9241 358.48 93.1998C358.48 93.465 358.585 93.7194 358.773 93.9069C358.96 94.0944 359.215 94.1998 359.48 94.1998C361.21 94.1998 364.66 94.1998 366.32 94.1998C366.579 94.1812 366.823 94.0699 367.006 93.8862C367.19 93.7026 367.301 93.4589 367.32 93.1998C367.462 91.7376 367.525 90.2688 367.51 88.7998C367.51 88.5346 367.405 88.2802 367.217 88.0927C367.03 87.9052 366.775 87.7998 366.51 87.7998C363.88 87.7998 360.62 87.9698 358.9 88.0898C358.608 88.1457 358.349 88.3146 358.181 88.5598C358.012 88.8051 357.947 89.1069 358 89.3998Z" fill="#FF475A"/>
<path d="M374.27 154.66L375.89 157.88C376.02 158.13 375.72 158.39 375.31 158.39H337.57C337.25 158.39 336.98 158.23 336.96 158.02L336.64 154.8C336.64 154.58 336.89 154.39 337.25 154.39H373.68C373.793 154.38 373.907 154.4 374.01 154.447C374.114 154.495 374.203 154.568 374.27 154.66Z" fill="#FF475A"/>
<path opacity="0.5" d="M374.27 154.66L375.89 157.88C376.02 158.13 375.72 158.39 375.31 158.39H337.57C337.25 158.39 336.98 158.23 336.96 158.02L336.64 154.8C336.64 154.58 336.89 154.39 337.25 154.39H373.68C373.793 154.38 373.907 154.4 374.01 154.447C374.114 154.495 374.203 154.568 374.27 154.66Z" fill="white"/>
<path d="M369.38 158.73H370.38C370.58 158.73 370.72 158.63 370.71 158.51L370.25 154.33C370.25 154.21 370.07 154.1 369.88 154.1H368.88C368.69 154.1 368.54 154.21 368.55 154.33L369.01 158.51C369 158.63 369.18 158.73 369.38 158.73Z" fill="#A30010"/>
<path d="M345.72 158.73H346.72C346.91 158.73 347.06 158.63 347.05 158.51L346.59 154.33C346.59 154.21 346.41 154.1 346.21 154.1H345.21C345.01 154.1 344.87 154.21 344.88 154.33L345.34 158.51C345.36 158.63 345.53 158.73 345.72 158.73Z" fill="#A30010"/>
</svg>
