<svg width="500" height="374" viewBox="0 0 500 374" fill="none" xmlns="http://www.w3.org/2000/svg">
<g clip-path="url(#clip0)">
<path d="M500 327.938H0V328.188H500V327.938Z" fill="#EBEBEB"/>
<path d="M449.9 344.028H416.78V344.278H449.9V344.028Z" fill="#EBEBEB"/>
<path d="M331.22 346.748H322.53V346.998H331.22V346.748Z" fill="#EBEBEB"/>
<path d="M415.78 334.748H396.59V334.998H415.78V334.748Z" fill="#EBEBEB"/>
<path d="M95.65 336.428H52.46V336.678H95.65V336.428Z" fill="#EBEBEB"/>
<path d="M110.89 336.428H104.56V336.678H110.89V336.428Z" fill="#EBEBEB"/>
<path d="M225.15 340.648H131.47V340.898H225.15V340.648Z" fill="#EBEBEB"/>
<path d="M237 283.338H43.91C42.3973 283.336 40.9476 282.733 39.8789 281.663C38.8102 280.592 38.21 279.141 38.21 277.628V6.19845C38.2232 4.69448 38.8292 3.25643 39.8964 2.19667C40.9637 1.13691 42.406 0.541029 43.91 0.538452H237C238.514 0.538452 239.967 1.14004 241.038 2.21087C242.108 3.28171 242.71 4.73407 242.71 6.24845V277.628C242.71 279.143 242.108 280.595 241.038 281.666C239.967 282.737 238.514 283.338 237 283.338ZM43.91 0.738453C42.4637 0.741102 41.0774 1.31752 40.0557 2.34118C39.0339 3.36484 38.46 4.7521 38.46 6.19845V277.628C38.46 279.075 39.0339 280.462 40.0557 281.486C41.0774 282.509 42.4637 283.086 43.91 283.088H237C238.447 283.086 239.835 282.51 240.858 281.486C241.881 280.463 242.457 279.076 242.46 277.628V6.19845C242.457 4.75118 241.881 3.36394 240.858 2.34057C239.835 1.31719 238.447 0.741096 237 0.738453H43.91Z" fill="#EBEBEB"/>
<path d="M453.31 283.338H260.21C258.696 283.336 257.246 282.733 256.175 281.663C255.105 280.593 254.503 279.142 254.5 277.628V6.19845C254.516 4.69357 255.124 3.25553 256.193 2.19604C257.262 1.13656 258.705 0.541 260.21 0.538452H453.31C454.812 0.543657 456.252 1.1407 457.317 2.20018C458.382 3.25966 458.987 4.6962 459 6.19845V277.628C459 279.139 458.401 280.589 457.335 281.659C456.268 282.729 454.821 283.333 453.31 283.338ZM260.21 0.738453C258.763 0.741096 257.375 1.31719 256.352 2.34057C255.329 3.36394 254.753 4.75118 254.75 6.19845V277.628C254.753 279.076 255.329 280.463 256.352 281.486C257.375 282.51 258.763 283.086 260.21 283.088H453.31C454.757 283.086 456.145 282.51 457.168 281.486C458.191 280.463 458.767 279.076 458.77 277.628V6.19845C458.767 4.75118 458.191 3.36394 457.168 2.34057C456.145 1.31719 454.757 0.741096 453.31 0.738453H260.21Z" fill="#EBEBEB"/>
<path opacity="0.32" d="M73.13 312.438C73.13 312.438 68.43 296.708 77.93 293.578C87.43 290.448 93.07 283.088 92.75 274.768C92.43 266.448 102.43 258.348 109.93 266.138C117.43 273.928 116.43 260.138 126.43 256.798C136.43 253.458 144.91 261.578 142.17 269.008C139.43 276.438 149.3 281.088 161.17 274.768C173.04 268.448 185.98 279.938 183.48 288.938C180.98 297.938 183.03 298.938 190.48 295.938C197.93 292.938 211.33 301.438 206.64 312.438C201.95 323.438 73.13 312.438 73.13 312.438Z" fill="#FF99A3"/>
<path opacity="0.32" d="M324.43 313.938C319.43 308.938 323.93 300.438 328.93 299.438C333.93 298.438 338.93 289.648 339.2 284.038C339.47 278.428 348.43 261.218 362.43 271.848C376.43 282.478 372.18 273.418 382.31 270.428C392.44 267.438 398.82 276.038 394.38 282.488C394.38 282.488 404.55 279.938 408.74 289.438C412.93 298.938 408.74 304.838 408.74 304.838C408.74 304.838 427.88 304.278 426.16 316.108C424.44 327.938 324.43 313.938 324.43 313.938Z" fill="#FF99A3"/>
<path opacity="0.32" d="M121.53 196.679C121.535 195.303 121.217 193.945 120.601 192.714C119.985 191.484 119.089 190.415 117.985 189.594C116.881 188.773 115.6 188.222 114.244 187.987C112.888 187.752 111.496 187.838 110.18 188.238C110.611 185.297 110.334 182.296 109.372 179.483C108.409 176.671 106.789 174.129 104.646 172.069C102.503 170.009 99.8985 168.491 97.0503 167.64C94.202 166.789 91.1918 166.631 88.27 167.179C86.4315 164.149 83.6571 161.801 80.366 160.488C77.0749 159.175 73.4458 158.969 70.0271 159.9C66.6084 160.832 63.5859 162.851 61.4161 165.653C59.2463 168.454 58.0472 171.885 58 175.428H57.73C53.7411 175.428 49.9157 177.013 47.0951 179.834C44.2746 182.654 42.69 186.48 42.69 190.468C42.69 194.457 44.2746 198.283 47.0951 201.103C49.9157 203.924 53.7411 205.509 57.73 205.509H113C115.291 205.436 117.464 204.473 119.056 202.824C120.649 201.175 121.536 198.971 121.53 196.679Z" fill="#FF99A3"/>
<path opacity="0.32" d="M454.83 199.218C454.836 197.843 454.52 196.485 453.905 195.255C453.291 194.024 452.396 192.955 451.292 192.134C450.189 191.312 448.908 190.762 447.553 190.526C446.197 190.291 444.806 190.377 443.49 190.778C443.614 189.88 443.677 188.975 443.68 188.068C443.68 185.325 443.075 182.616 441.909 180.133C440.743 177.65 439.044 175.454 436.933 173.702C434.823 171.95 432.352 170.685 429.696 169.996C427.041 169.308 424.266 169.213 421.57 169.718C419.73 166.694 416.956 164.35 413.666 163.04C410.377 161.73 406.751 161.526 403.336 162.457C399.92 163.388 396.9 165.405 394.73 168.203C392.561 171.001 391.361 174.428 391.31 177.968H391C387.011 177.968 383.186 179.553 380.365 182.374C377.545 185.194 375.96 189.02 375.96 193.008C375.96 196.997 377.545 200.823 380.365 203.643C383.186 206.464 387.011 208.048 391 208.048H446.24C448.543 207.994 450.732 207.038 452.338 205.387C453.944 203.736 454.838 201.522 454.83 199.218Z" fill="#FF99A3"/>
<path opacity="0.32" d="M437.45 104.618C437.45 103.125 436.857 101.693 435.801 100.637C434.745 99.5816 433.313 98.9885 431.82 98.9885C431.275 98.9878 430.733 99.0652 430.21 99.2185C430.29 98.6487 430.331 98.0739 430.33 97.4985C430.335 95.9298 430.031 94.3754 429.434 92.9246C428.837 91.4738 427.96 90.155 426.853 89.0439C425.745 87.9328 424.43 87.0512 422.981 86.4496C421.532 85.8481 419.979 85.5385 418.41 85.5385C417.672 85.5392 416.936 85.6061 416.21 85.7385C415.035 83.8074 413.263 82.311 411.163 81.4748C409.063 80.6387 406.748 80.5082 404.567 81.1031C402.386 81.698 400.458 82.986 399.073 84.7727C397.688 86.5595 396.922 88.7481 396.89 91.0085H396.72C394.226 91.089 391.862 92.1362 390.126 93.9287C388.39 95.7212 387.42 98.1184 387.42 100.613C387.42 103.109 388.39 105.506 390.126 107.298C391.862 109.091 394.226 110.138 396.72 110.218H432C433.457 110.172 434.838 109.562 435.855 108.518C436.871 107.474 437.443 106.076 437.45 104.618Z" fill="#FF99A3"/>
<path opacity="0.32" d="M311.85 31.5384C311.85 30.0532 311.26 28.6289 310.21 27.5786C309.16 26.5284 307.735 25.9384 306.25 25.9384C305.704 25.936 305.161 26.0169 304.64 26.1784C304.724 25.6055 304.767 25.0275 304.77 24.4485C304.757 21.309 303.5 18.3026 301.276 16.0874C299.051 13.8721 296.039 12.6284 292.9 12.6284C292.165 12.6287 291.432 12.6957 290.71 12.8284C289.541 10.9051 287.777 9.41439 285.686 8.58153C283.595 7.74868 281.289 7.61887 279.118 8.2117C276.946 8.80454 275.027 10.0878 273.649 11.8678C272.271 13.6477 271.51 15.8277 271.48 18.0784H271.31C268.775 18.0784 266.343 19.0857 264.55 20.8785C262.757 22.6714 261.75 25.103 261.75 27.6384C261.75 30.1739 262.757 32.6055 264.55 34.3984C266.343 36.1912 268.775 37.1985 271.31 37.1985H306.41C307.878 37.1566 309.27 36.5399 310.288 35.4813C311.305 34.4226 311.866 33.0067 311.85 31.5384Z" fill="#FF99A3"/>
<path opacity="0.32" d="M136.27 81.5385C136.27 80.0532 135.68 78.6289 134.63 77.5787C133.58 76.5285 132.155 75.9385 130.67 75.9385C130.125 75.9378 129.583 76.0152 129.06 76.1685C129.141 75.5987 129.181 75.0239 129.18 74.4485C129.187 72.8868 128.885 71.3392 128.292 69.8945C127.699 68.4498 126.826 67.1364 125.724 66.0298C124.622 64.9232 123.312 64.0452 121.87 63.446C120.428 62.8469 118.882 62.5384 117.32 62.5385C116.585 62.5387 115.852 62.6057 115.13 62.7385C113.961 60.8157 112.199 59.3254 110.108 58.4923C108.018 57.6592 105.714 57.5286 103.543 58.1202C101.372 58.7117 99.452 59.9934 98.0733 61.7717C96.6947 63.5501 95.9319 65.7286 95.9 67.9785H95.73C93.1945 67.9785 90.7629 68.9857 88.9701 70.7785C87.1772 72.5714 86.17 75.003 86.17 77.5385C86.17 80.0739 87.1772 82.5055 88.9701 84.2984C90.7629 86.0912 93.1945 87.0985 95.73 87.0985H130.82C132.271 87.0571 133.65 86.4547 134.667 85.4178C135.683 84.3809 136.258 82.9903 136.27 81.5385Z" fill="#FF99A3"/>
<path d="M250 373.098C357.082 373.098 443.89 368.03 443.89 361.778C443.89 355.527 357.082 350.458 250 350.458C142.917 350.458 56.11 355.527 56.11 361.778C56.11 368.03 142.917 373.098 250 373.098Z" fill="#F5F5F5"/>
<path d="M326.65 122.258L323.35 117.758C323.449 117.221 323.417 116.668 323.257 116.146C323.097 115.624 322.813 115.148 322.43 114.758C321.11 113.258 312.54 114.048 311.22 114.178C309.9 114.308 307.72 119.568 309.01 121.098C310.3 122.628 318.54 122.888 319.3 122.228L321.9 125.848L326.65 122.258Z" fill="#9F5B53"/>
<path d="M376.29 111.088C376.03 107.488 378.29 106.088 381.17 107.318C384.05 108.548 386.54 104.318 390.38 105.318C394.22 106.318 393.04 110.148 395.02 111.088C397 112.028 399.23 110.898 400.09 115.718C400.95 120.538 397.79 118.038 399.18 122.258C400.57 126.478 404.71 127.668 401.18 131.258C397.65 134.848 395.25 136.258 398.02 139.258C400.79 142.258 397.79 145.138 396.52 146.128C395.25 147.118 402.03 152.848 400.12 157.988C398.21 163.128 382.28 167.878 372.45 164.128C362.62 160.378 359.89 154.698 360.45 148.238C361.01 141.778 365.78 140.068 365.45 138.048C365.12 136.028 361.98 134.258 363.76 131.288C365.54 128.318 370.48 128.058 368.9 125.218C367.32 122.378 367.52 119.218 369.3 117.828C371.08 116.438 372.74 116.828 372.41 113.978C372.08 111.128 376.29 111.088 376.29 111.088Z" fill="#66000A"/>
<path d="M367.68 142.248C367.68 142.248 345.11 142.448 340.89 137.248C336.67 132.048 326 119.648 326 119.648L320 123.388C320 123.388 330.5 146.838 337.09 151.988C343.68 157.138 363.3 158.198 363.3 158.198L367.68 142.248Z" fill="#FF475A"/>
<path opacity="0.3" d="M367.68 142.248C367.68 142.248 345.11 142.448 340.89 137.248C336.67 132.048 326 119.648 326 119.648L320 123.388C320 123.388 330.5 146.838 337.09 151.988C343.68 157.138 363.3 158.198 363.3 158.198L367.68 142.248Z" fill="white"/>
<path d="M329.16 349.158L335.16 350.218L337.62 342.038L339.86 334.538L332.95 332.118L330.94 341.138L329.16 349.158Z" fill="#E4897B"/>
<path d="M336.51 350.058C336.61 349.388 328.4 348.478 328.4 348.478C328.4 348.478 322.5 352.678 317.45 352.958C312.4 353.238 314.59 356.638 320.02 357.598L333.44 359.968C337.29 360.648 335.46 356.938 336.51 350.058Z" fill="#FF475A"/>
<path d="M323.08 349.478C322.978 349.353 322.918 349.198 322.91 349.036C322.901 348.875 322.943 348.715 323.03 348.578C323.081 348.468 323.155 348.369 323.246 348.288C323.337 348.208 323.444 348.146 323.56 348.108C324.179 347.973 324.823 348.015 325.42 348.228C324.82 347.758 324.32 347.228 324.37 346.798C324.37 346.518 324.62 346.318 325.02 346.208C325.198 346.156 325.385 346.143 325.568 346.171C325.751 346.199 325.926 346.266 326.08 346.368C327.08 347.018 327.45 349.028 327.46 349.118C327.47 349.151 327.47 349.186 327.46 349.218V349.268C327.456 349.281 327.45 349.293 327.441 349.303C327.432 349.314 327.422 349.322 327.41 349.328H327.34C326.379 349.604 325.389 349.765 324.39 349.808C324.161 349.845 323.926 349.834 323.701 349.777C323.476 349.721 323.265 349.619 323.08 349.478ZM323.71 348.478C323.649 348.496 323.593 348.527 323.544 348.568C323.496 348.61 323.457 348.661 323.43 348.718C323.29 349.018 323.38 349.128 323.43 349.158C323.75 349.538 325.32 349.358 326.61 349.058C325.71 348.738 324.35 348.278 323.71 348.538V348.478ZM325.14 346.588C325.02 346.588 324.81 346.698 324.8 346.808C324.8 347.178 325.8 348.018 326.93 348.688C326.792 347.922 326.41 347.22 325.84 346.688C325.706 346.602 325.55 346.556 325.39 346.558C325.304 346.571 325.22 346.595 325.14 346.628V346.588Z" fill="#66000A"/>
<path opacity="0.2" d="M330.91 341.328L337.59 342.208L339.85 334.618L332.94 332.158L330.91 341.328Z" fill="black"/>
<path d="M369.19 351.728H375.28L376.28 343.248L377.18 335.468L369.95 334.288L369.55 343.518L369.19 351.728Z" fill="#E4897B"/>
<path d="M376.58 351.338C376.58 350.668 368.32 351.188 368.32 351.188C368.32 351.188 363.25 356.348 358.32 357.508C353.39 358.668 356.14 361.628 361.65 361.628H375.28C379.19 361.628 376.75 358.288 376.58 351.338Z" fill="#FF475A"/>
<path d="M363.25 353.098C363.133 352.99 363.051 352.85 363.015 352.694C362.98 352.539 362.992 352.377 363.05 352.228C363.08 352.11 363.135 351.998 363.211 351.902C363.287 351.805 363.382 351.726 363.49 351.668C364.076 351.43 364.717 351.361 365.34 351.468C364.67 351.108 364.09 350.668 364.06 350.238C364.06 349.958 364.23 349.718 364.6 349.548C364.767 349.469 364.95 349.428 365.135 349.428C365.32 349.428 365.503 349.469 365.67 349.548C366.79 350.008 367.48 351.938 367.51 352.018C367.522 352.045 367.529 352.074 367.529 352.103C367.529 352.133 367.522 352.162 367.51 352.188L367.44 352.248C366.365 352.774 365.209 353.112 364.02 353.248C363.754 353.296 363.479 353.242 363.25 353.098ZM363.71 352.038C363.596 352.101 363.51 352.205 363.47 352.328C363.39 352.658 363.47 352.738 363.53 352.768C363.92 353.088 365.43 352.628 366.64 352.118C365.69 351.82 364.675 351.792 363.71 352.038ZM364.79 349.938C364.68 349.988 364.49 350.098 364.49 350.208C364.49 350.588 365.7 351.208 366.92 351.688C366.647 350.962 366.149 350.343 365.5 349.918C365.396 349.871 365.284 349.847 365.17 349.848C365.038 349.85 364.908 349.88 364.79 349.938Z" fill="#66000A"/>
<path opacity="0.2" d="M369.55 343.708L376.28 343.418L377.18 335.548L369.95 334.338L369.55 343.708Z" fill="black"/>
<path d="M330.34 336.538L340.2 338.278C350.14 313.488 357.2 292.808 362.2 275.638C364.89 266.378 366.98 258.148 368.6 250.838L368.15 277.838V339.118H378.15C402.49 223.008 385.24 196.468 385.24 196.468L356.11 191.468C354.959 196.846 354.144 202.29 353.67 207.768L352.36 217.408L341 276.218L330.34 336.538Z" fill="#66000A"/>
<path opacity="0.2" d="M330.34 336.538L340.2 338.278C350.14 313.488 357.2 292.808 362.2 275.638C364.89 266.378 366.98 258.148 368.6 250.838L368.15 277.838V339.118H378.15C402.49 223.008 385.24 196.468 385.24 196.468L356.11 191.468C354.959 196.846 354.144 202.29 353.67 207.768L352.36 217.408L341 276.218L330.34 336.538Z" fill="white"/>
<path d="M341.74 337.088L329.52 333.038L329.68 338.228L339.79 341.458L341.74 337.088Z" fill="#66000A"/>
<path d="M379.48 337.648L366.74 335.788L367.8 340.878L378.32 342.298L379.48 337.648Z" fill="#66000A"/>
<path d="M385.27 192.118V196.468L355.56 194.188V189.048L385.27 192.118Z" fill="#66000A"/>
<path d="M362.002 195.01L368.496 195.592L368.938 190.662L362.444 190.08L362.002 195.01Z" fill="white"/>
<path d="M374.908 197.803L376.386 197.878L376.769 190.378L375.291 190.302L374.908 197.803Z" fill="#66000A"/>
<path opacity="0.2" d="M374.908 197.803L376.386 197.878L376.769 190.378L375.291 190.302L374.908 197.803Z" fill="white"/>
<path d="M356.743 195.814L358.222 195.89L358.604 188.389L357.126 188.314L356.743 195.814Z" fill="#66000A"/>
<path opacity="0.2" d="M356.743 195.814L358.222 195.89L358.604 188.389L357.126 188.314L356.743 195.814Z" fill="white"/>
<path d="M400.09 150.268C399.19 152.098 398.37 153.838 397.61 155.478C396.96 156.858 396.36 158.168 395.79 159.418L394.79 161.538C394.55 162.078 394.31 162.618 394.09 163.138C393.3 164.928 392.6 166.598 391.97 168.138C391.6 169.058 391.26 169.948 390.97 170.808L390.53 171.988C389.85 173.798 389.28 175.478 388.78 177.068C388.35 178.448 387.97 179.768 387.62 181.068C387.16 182.818 386.77 184.518 386.41 186.248C386.13 187.578 385.87 188.928 385.61 190.328C385.49 190.918 385.38 191.518 385.27 192.128L355.56 189.038C355.66 187.368 355.77 185.748 355.89 184.168C355.99 182.768 356.09 181.408 356.2 180.088C356.36 178.208 356.52 176.408 356.68 174.678C356.82 173.278 356.96 171.928 357.1 170.628C357.3 168.728 357.51 166.938 357.72 165.238C357.89 163.818 358.07 162.478 358.24 161.238C358.51 159.238 358.78 157.488 359.03 155.878C359.28 154.268 359.5 153.058 359.71 151.878C359.983 150.398 360.223 149.168 360.43 148.188C361.74 142.188 362.7 142.058 362.7 142.058C362.7 142.058 369.38 142.198 375.11 142.918H375.26C379.132 143.517 382.963 144.359 386.73 145.438C387.22 145.568 387.73 145.708 388.18 145.858C392.252 147.037 396.233 148.511 400.09 150.268Z" fill="#FF475A"/>
<path opacity="0.6" d="M400.09 150.268C399.19 152.098 398.37 153.838 397.61 155.478C396.96 156.858 396.36 158.168 395.79 159.418L394.79 161.538C394.55 162.078 394.31 162.618 394.09 163.138C393.3 164.928 392.6 166.598 391.97 168.138C391.6 169.058 391.26 169.948 390.97 170.808L390.53 171.988C389.85 173.798 389.28 175.478 388.78 177.068C388.35 178.448 387.97 179.768 387.62 181.068C387.16 182.818 386.77 184.518 386.41 186.248C386.13 187.578 385.87 188.928 385.61 190.328C385.49 190.918 385.38 191.518 385.27 192.128L355.56 189.038C355.66 187.368 355.77 185.748 355.89 184.168C355.99 182.768 356.09 181.408 356.2 180.088C356.36 178.208 356.52 176.408 356.68 174.678C356.82 173.278 356.96 171.928 357.1 170.628C357.3 168.728 357.51 166.938 357.72 165.238C357.89 163.818 358.07 162.478 358.24 161.238C358.51 159.238 358.78 157.488 359.03 155.878C359.28 154.268 359.5 153.058 359.71 151.878C359.983 150.398 360.223 149.168 360.43 148.188C361.74 142.188 362.7 142.058 362.7 142.058C362.7 142.058 369.38 142.198 375.11 142.918H375.26C379.132 143.517 382.963 144.359 386.73 145.438C387.22 145.568 387.73 145.708 388.18 145.858C392.252 147.037 396.233 148.511 400.09 150.268Z" fill="white"/>
<path opacity="0.2" d="M362.22 275.668C364.91 266.408 367 258.178 368.62 250.868C368.479 242.216 367.848 233.579 366.73 224.998C366.73 224.998 362.47 258.358 362.22 275.668Z" fill="black"/>
<path d="M377.83 142.788C374.32 142.278 372.16 144.278 373.78 147.638C375.4 150.998 375.94 151.498 381.46 150.508C386.98 149.518 393.4 145.068 377.83 142.788Z" fill="#FF475A"/>
<path d="M395.79 159.418L394.79 161.538C394.55 162.078 394.31 162.618 394.09 163.138C385.27 161.068 368.74 157.318 358.99 155.858C359.23 154.368 359.46 153.038 359.67 151.858C371.853 153.637 383.916 156.162 395.79 159.418Z" fill="#FF475A"/>
<path d="M392 168.168C391.63 169.088 391.29 169.978 391 170.838L390.56 172.018C381.56 169.928 366.87 166.648 357.75 165.248C357.92 163.828 358.1 162.488 358.27 161.248C369.633 162.928 380.894 165.238 392 168.168Z" fill="#FF475A"/>
<path d="M388.78 177.098C388.35 178.478 387.97 179.798 387.62 181.098C378.79 179.098 365.43 176.098 356.68 174.708C356.82 173.308 356.96 171.958 357.1 170.658C367.764 172.258 378.338 174.407 388.78 177.098Z" fill="#FF475A"/>
<path d="M386.41 186.258C386.13 187.588 385.87 188.938 385.61 190.338C377.08 188.338 364.53 185.588 355.89 184.178C355.99 182.778 356.09 181.418 356.2 180.098C363.5 181.228 374.82 183.228 386.41 186.258Z" fill="#FF475A"/>
<g opacity="0.3">
<path opacity="0.3" d="M377.83 142.788C374.32 142.278 372.16 144.278 373.78 147.638C375.4 150.998 375.94 151.498 381.46 150.508C386.98 149.518 393.4 145.068 377.83 142.788Z" fill="white"/>
<path opacity="0.3" d="M395.79 159.418L394.79 161.538C394.55 162.078 394.31 162.618 394.09 163.138C385.27 161.068 368.74 157.318 358.99 155.858C359.23 154.368 359.46 153.038 359.67 151.858C371.853 153.637 383.916 156.162 395.79 159.418Z" fill="white"/>
<path opacity="0.3" d="M392 168.168C391.63 169.088 391.29 169.978 391 170.838L390.56 172.018C381.56 169.928 366.87 166.648 357.75 165.248C357.92 163.828 358.1 162.488 358.27 161.248C369.633 162.928 380.894 165.238 392 168.168Z" fill="white"/>
<path opacity="0.3" d="M388.78 177.098C388.35 178.478 387.97 179.798 387.62 181.098C378.79 179.098 365.43 176.098 356.68 174.708C356.82 173.308 356.96 171.958 357.1 170.658C367.764 172.258 378.338 174.407 388.78 177.098Z" fill="white"/>
<path opacity="0.3" d="M386.41 186.258C386.13 187.588 385.87 188.938 385.61 190.338C377.08 188.338 364.53 185.588 355.89 184.178C355.99 182.778 356.09 181.418 356.2 180.098C363.5 181.228 374.82 183.228 386.41 186.258Z" fill="white"/>
</g>
<path d="M376.78 149.698C384.16 149.628 386.71 146.778 386.71 146.778C382.61 141.878 387.34 134.778 387.34 134.778L378.39 135.378C378.446 136.622 378.416 137.869 378.3 139.108C377.73 144.428 375.3 144.198 375.3 144.198C373.45 146.898 376.78 149.698 376.78 149.698Z" fill="#9F5B53"/>
<path opacity="0.2" d="M378.39 135.388C378.446 136.632 378.416 137.879 378.3 139.118C384.21 139.818 387.3 134.788 387.3 134.788L378.39 135.388Z" fill="black"/>
<path d="M386.12 111.538C378.56 110.228 375.43 113.848 373.51 121.538C371.13 131.158 372.08 138.448 381.9 138.018C395.22 137.378 398.68 113.678 386.12 111.538Z" fill="#9F5B53"/>
<path d="M378.48 121.918C377.675 122.94 376.752 123.863 375.73 124.668C375.897 125.019 376.157 125.316 376.481 125.53C376.806 125.743 377.182 125.864 377.57 125.878L378.48 121.918Z" fill="#892B29"/>
<path d="M383.21 122.108C383.09 122.728 383.32 123.288 383.73 123.378C384.14 123.468 384.58 123.018 384.73 122.378C384.88 121.738 384.62 121.198 384.21 121.118C383.8 121.038 383.33 121.538 383.21 122.108Z" fill="#66000A"/>
<path d="M384.34 121.198L383.1 120.408C383.1 120.408 383.55 121.668 384.34 121.198Z" fill="#66000A"/>
<path d="M375.55 120.458C375.42 121.068 375.66 121.638 376.07 121.718C376.48 121.798 376.92 121.368 377.07 120.718C377.22 120.068 376.96 119.538 376.55 119.448C376.14 119.358 375.67 119.838 375.55 120.458Z" fill="#66000A"/>
<path d="M376.68 119.538L375.44 118.738C375.44 118.738 375.89 120.018 376.68 119.538Z" fill="#66000A"/>
<path d="M384.19 116.898C384.801 116.931 385.396 117.102 385.93 117.401C386.464 117.699 386.922 118.115 387.27 118.618" stroke="#66000A" stroke-width="0.72468" stroke-linecap="round" stroke-linejoin="round"/>
<path d="M378.76 115.628C378.265 115.407 377.727 115.3 377.185 115.315C376.643 115.331 376.111 115.469 375.63 115.718" stroke="#66000A" stroke-width="0.72468" stroke-linecap="round" stroke-linejoin="round"/>
<path d="M378.16 129.038C378.369 129.953 378.509 130.883 378.58 131.818H379.08C381.32 131.978 382.41 131.318 382.94 130.528C383.325 129.908 383.48 129.172 383.38 128.448C381.953 128.965 380.432 129.166 378.92 129.038C378.45 129.068 378.16 129.038 378.16 129.038Z" fill="#66000A"/>
<path d="M378.92 129.078L379.07 129.898C381.18 130.048 382.68 129.898 383.39 129.268C383.424 129.01 383.424 128.747 383.39 128.488C381.96 129.006 380.435 129.207 378.92 129.078Z" fill="white"/>
<path d="M379.08 131.858C381.32 132.018 382.41 131.358 382.94 130.568C382.088 130.522 381.235 130.627 380.42 130.878C379.881 131.054 379.411 131.398 379.08 131.858Z" fill="#DE5753"/>
<path d="M392.17 125.668C392.17 125.668 389.71 118.848 391.08 114.138C391.08 114.138 377.17 105.418 373.78 120.488C373.78 120.488 374.67 106.738 387.72 108.698C400.77 110.658 397.4 129.698 389.72 134.158C389.7 134.158 393.68 129.938 392.17 125.668Z" fill="#66000A"/>
<path d="M390.65 127.048C390.876 126.186 391.434 125.449 392.202 124.997C392.971 124.545 393.887 124.416 394.75 124.638C397.05 125.308 397.33 130.308 391.3 130.448C390.43 130.468 390.1 129.538 390.65 127.048Z" fill="#9F5B53"/>
<path d="M403.13 177.108L394.13 174.338C394.13 174.338 394.33 172.468 393.32 172.018C392.31 171.568 379.42 170.248 379.08 171.438C378.74 172.628 379.44 180.038 381.46 181.078C383.48 182.118 392.32 182.518 392.58 182.078C392.84 181.638 393.32 181.078 393.32 181.078L402.56 183.928L403.13 177.108Z" fill="#9F5B53"/>
<path d="M400.09 150.268C407.22 153.508 422.78 181.748 420.41 188.198C418.04 194.648 398.52 184.418 398.52 184.418L400.09 174.738L404.55 175.858C404.55 175.858 398.97 166.708 394.13 163.138C394.176 160.652 394.741 158.203 395.79 155.948C396.928 153.849 398.378 151.934 400.09 150.268Z" fill="#FF475A"/>
<path opacity="0.3" d="M400.09 150.268C407.22 153.508 422.78 181.748 420.41 188.198C418.04 194.648 398.52 184.418 398.52 184.418L400.09 174.738L404.55 175.858C404.55 175.858 398.97 166.708 394.13 163.138C394.176 160.652 394.741 158.203 395.79 155.948C396.928 153.849 398.378 151.934 400.09 150.268Z" fill="white"/>
<path d="M184.19 83.2285L188.47 57.5385C186.17 55.2585 191.47 42.2185 191.47 40.8085C191.47 39.3985 199.53 45.4185 199.67 46.7085C199.81 47.9985 197.67 57.1785 195.26 58.4985L194 85.9285C194 85.9285 188.9 88.0885 184.19 83.2285Z" fill="#E4897B"/>
<path d="M145.53 103.779C145.53 103.779 172.14 102.619 177.25 98.9185C182.36 95.2185 185.89 63.4785 185.89 63.4785L198.89 64.7585C198.89 64.7585 195.42 99.9285 188.61 108.759C181.8 117.589 155 121.819 155 121.819L145.53 103.779Z" fill="#66000A"/>
<path opacity="0.2" d="M198.91 64.7585C198.91 64.7585 195.44 99.9285 188.63 108.759C185.24 113.139 176.86 116.409 169.32 118.579C164.609 119.918 159.829 121 155 121.819L149.84 111.969L145.54 103.779C145.54 103.779 172.15 102.619 177.26 98.9185C182.37 95.2185 185.9 63.4785 185.9 63.4785L198.91 64.7585Z" fill="white"/>
<path opacity="0.2" d="M169.32 118.539C164.61 119.892 159.829 120.987 155 121.819L149.84 111.969C155 112.419 165.88 113.899 169.32 118.539Z" fill="black"/>
<path d="M84.86 135.538L71.11 113.378C72.37 110.378 74.21 100.208 73.62 98.9185C73.03 97.6285 63.4 94.7585 63 95.9685C61.81 99.1885 62.44 116.568 65.21 116.868L76.86 141.778C76.86 141.778 82.35 141.838 84.86 135.538Z" fill="#E4897B"/>
<path d="M150.25 354.178L158.37 355.038L159.89 337.538L151.78 336.678L150.25 354.178Z" fill="#E4897B"/>
<path d="M109.77 353.588H117.63L118.28 335.378H110.41L109.77 353.588Z" fill="#E4897B"/>
<path d="M118.72 352.678H109.17C109.013 352.677 108.861 352.731 108.739 352.829C108.617 352.927 108.532 353.065 108.5 353.218L106.95 360.218C106.888 360.519 106.948 360.833 107.117 361.09C107.285 361.346 107.549 361.526 107.85 361.588C107.933 361.598 108.017 361.598 108.1 361.588C111.19 361.538 113.44 361.348 117.32 361.348C119.71 361.348 126.92 361.598 130.22 361.598C133.52 361.598 133.95 358.338 132.6 358.038C126.54 356.718 121.98 354.888 120.04 353.148C119.676 352.828 119.204 352.66 118.72 352.678Z" fill="#66000A"/>
<path d="M119.26 353.769C119.223 353.759 119.19 353.738 119.165 353.71C119.141 353.681 119.125 353.646 119.12 353.609C119.115 353.573 119.121 353.537 119.137 353.505C119.153 353.473 119.179 353.446 119.21 353.429C119.49 353.249 122.03 351.689 122.9 352.139C122.999 352.184 123.082 352.257 123.139 352.35C123.196 352.443 123.224 352.55 123.22 352.659C123.249 352.845 123.228 353.035 123.159 353.211C123.091 353.387 122.977 353.541 122.83 353.659C122.387 353.959 121.854 354.1 121.32 354.059C120.625 354.036 119.934 353.939 119.26 353.769ZM119.8 353.509C120.717 353.818 121.718 353.768 122.6 353.369C122.694 353.286 122.766 353.182 122.81 353.065C122.854 352.948 122.867 352.822 122.85 352.699C122.85 352.549 122.78 352.479 122.73 352.479C122.657 352.436 122.573 352.419 122.49 352.429C121.53 352.621 120.616 352.998 119.8 353.539V353.509Z" fill="#FF475A"/>
<path d="M119.21 353.808C119.183 353.789 119.161 353.763 119.145 353.734C119.13 353.704 119.121 353.672 119.12 353.638C119.12 353.528 119.32 351.268 120.23 350.528C120.337 350.434 120.463 350.364 120.599 350.323C120.735 350.282 120.879 350.27 121.02 350.288C121.162 350.284 121.301 350.331 121.412 350.421C121.522 350.511 121.596 350.638 121.62 350.778C121.78 351.608 120.21 353.338 119.4 353.778H119.31C119.281 353.799 119.246 353.809 119.21 353.808ZM120.47 350.748C119.92 351.456 119.596 352.314 119.54 353.208C120.35 352.598 121.35 351.288 121.25 350.778C121.25 350.728 121.25 350.588 120.98 350.588H120.89C120.736 350.592 120.587 350.648 120.47 350.748Z" fill="#FF475A"/>
<path d="M159.22 352.428H149.67C149.513 352.427 149.361 352.481 149.239 352.579C149.117 352.677 149.032 352.815 149 352.968L147.45 359.968C147.388 360.269 147.448 360.583 147.617 360.84C147.785 361.096 148.049 361.276 148.35 361.338C148.433 361.348 148.517 361.348 148.6 361.338C151.69 361.288 153.94 361.098 157.82 361.098C160.21 361.098 167.42 361.348 170.72 361.348C174.02 361.348 174.45 358.088 173.1 357.788C167.04 356.468 162.48 354.638 160.54 352.898C160.176 352.578 159.704 352.41 159.22 352.428Z" fill="#66000A"/>
<path d="M159.76 353.538C159.723 353.529 159.69 353.508 159.665 353.48C159.641 353.451 159.625 353.416 159.62 353.378C159.615 353.343 159.621 353.307 159.637 353.275C159.653 353.243 159.679 353.216 159.71 353.198C159.99 353.018 162.53 351.458 163.4 351.908C163.499 351.954 163.582 352.027 163.639 352.12C163.696 352.212 163.724 352.32 163.72 352.428C163.749 352.615 163.728 352.805 163.659 352.981C163.591 353.156 163.477 353.311 163.33 353.428C162.887 353.729 162.354 353.87 161.82 353.828C161.125 353.806 160.434 353.709 159.76 353.538ZM160.3 353.278C161.217 353.588 162.218 353.538 163.1 353.138C163.194 353.056 163.266 352.952 163.31 352.835C163.354 352.718 163.367 352.592 163.35 352.468C163.35 352.318 163.28 352.248 163.23 352.248C163.157 352.206 163.073 352.189 162.99 352.198C162.034 352.376 161.12 352.736 160.3 353.258V353.278Z" fill="#FF475A"/>
<path d="M159.71 353.539C159.683 353.519 159.661 353.493 159.645 353.464C159.63 353.434 159.621 353.402 159.62 353.369C159.62 353.259 159.82 350.999 160.73 350.259C160.837 350.165 160.963 350.095 161.099 350.053C161.235 350.012 161.379 350 161.52 350.019C161.662 350.014 161.801 350.061 161.912 350.151C162.022 350.241 162.096 350.368 162.12 350.509C162.28 351.339 160.71 353.069 159.9 353.509H159.81C159.781 353.529 159.746 353.539 159.71 353.539ZM161 350.539C160.45 351.246 160.126 352.104 160.07 352.999C160.88 352.389 161.88 351.079 161.78 350.569C161.78 350.519 161.78 350.379 161.51 350.379H161.42C161.266 350.382 161.117 350.438 161 350.539Z" fill="#FF475A"/>
<path opacity="0.2" d="M151.78 336.678L159.89 337.538L159.1 346.558L150.98 345.708L151.78 336.678Z" fill="black"/>
<path opacity="0.2" d="M110.41 335.388H118.28L117.94 344.778H110.07L110.41 335.388Z" fill="black"/>
<path d="M113.66 175.648H155.38C159.38 197.308 171.77 273.978 162.86 342.278L148.73 340.538C148.73 340.538 150.04 249.858 137.57 216.338C136.14 234.278 134.43 253.338 132.95 263.528C129.32 288.528 121.55 343.158 121.55 343.158H107.17C107.17 343.158 110.11 290.868 111.47 266.298C113 239.608 113.6 181.128 113.66 175.648Z" fill="#FF475A"/>
<path d="M164.47 345.568L146.99 342.968L147.53 338.128L165.71 340.518L164.47 345.568Z" fill="#FF475A"/>
<path d="M123.28 343.268H106.32V338.198L123.92 337.868L123.28 343.268Z" fill="#FF475A"/>
<path opacity="0.2" d="M137.57 216.328C139.62 222.189 141.179 228.209 142.23 234.328C143.4 218.328 138.73 201.428 138.73 201.428L137.57 216.328Z" fill="black"/>
<path d="M106.43 107.158C108.74 115.645 110.412 124.292 111.43 133.029C111.76 135.709 112.03 138.339 112.25 140.889C112.54 144.129 112.74 147.248 112.9 150.208C113.1 153.958 113.16 158.389 113.15 162.749C113.15 172.749 112.73 182.398 112.73 182.398C120.73 184.398 143.85 183.068 156.48 182.148C157.968 170.072 158.356 157.885 157.64 145.738C157.223 137.718 156.341 129.728 155 121.809C154.321 117.581 153.38 113.399 152.18 109.288C151.716 107.831 150.843 106.538 149.666 105.562C148.49 104.585 147.058 103.966 145.54 103.779C144.01 103.589 142.24 103.398 140.38 103.288C139.66 103.288 138.94 103.218 138.21 103.208C132.244 103.276 126.288 103.69 120.37 104.449C119.25 104.579 118.11 104.748 117.01 104.928C113.447 105.485 109.915 106.229 106.43 107.158Z" fill="#66000A"/>
<path opacity="0.7" d="M156.48 182.158C143.85 183.078 120.73 184.408 112.73 182.408C112.73 182.408 113.13 172.778 113.15 162.758C113.15 158.398 113.1 153.968 112.9 150.218C112.74 147.218 112.54 144.138 112.25 140.898C112.03 138.348 111.76 135.718 111.43 133.038C111.35 132.318 111.26 131.588 111.16 130.868C110.87 128.558 110.52 126.258 110.16 123.968V123.908L114.05 118.308L121.78 107.168C121.78 107.168 134.64 112.368 139.98 104.948C145.285 108.912 150.117 113.472 154.38 118.538C154.59 119.538 154.79 120.678 154.99 121.828C156.335 129.747 157.219 137.737 157.64 145.758C158.356 157.902 157.967 170.085 156.48 182.158Z" fill="white"/>
<path d="M126.79 120.278C133.576 120.098 140.367 120.302 147.13 120.888C147.917 120.979 148.642 121.357 149.168 121.949C149.694 122.541 149.983 123.307 149.98 124.098C149.981 124.523 149.899 124.944 149.737 125.336C149.575 125.729 149.337 126.085 149.037 126.385C148.737 126.685 148.38 126.923 147.988 127.085C147.595 127.247 147.175 127.33 146.75 127.328H126.88C126.052 127.33 125.255 127.013 124.654 126.443C124.053 125.874 123.694 125.095 123.65 124.268V123.678C123.626 123.247 123.688 122.816 123.834 122.409C123.98 122.003 124.206 121.63 124.499 121.313C124.792 120.996 125.146 120.741 125.54 120.563C125.933 120.385 126.358 120.288 126.79 120.278Z" fill="#66000A"/>
<path opacity="0.2" d="M106.43 107.158C108.74 115.645 110.412 124.292 111.43 133.029C111.76 135.709 112.03 138.339 112.25 140.889C112.54 144.129 112.74 147.248 112.9 150.208C113.1 153.958 113.16 158.389 113.15 162.749C113.15 172.749 112.73 182.398 112.73 182.398C120.73 184.398 143.85 183.068 156.48 182.148C157.968 170.072 158.356 157.885 157.64 145.738C157.223 137.718 156.341 129.728 155 121.809C154.321 117.581 153.38 113.399 152.18 109.288C151.716 107.831 150.843 106.538 149.666 105.562C148.49 104.585 147.058 103.966 145.54 103.779C144.01 103.589 142.24 103.398 140.38 103.288C139.66 103.288 138.94 103.218 138.21 103.208C132.244 103.276 126.288 103.69 120.37 104.449C119.25 104.579 118.11 104.748 117.01 104.928C113.447 105.485 109.915 106.229 106.43 107.158Z" fill="#FF99A3"/>
<path d="M141.66 68.4285C141.66 68.4285 144.13 77.0985 138.96 81.9685C133.79 86.8385 131.2 66.8385 131.2 66.8385L141.66 68.4285Z" fill="#66000A"/>
<path d="M120.35 104.398C124.18 107.878 133.57 106.588 133.57 106.588C133.57 106.588 139.42 104.988 138.19 103.158C134.74 102.588 133.07 100.978 132.38 98.9185C132.002 97.6416 131.883 96.302 132.03 94.9785C132.087 94.2405 132.184 93.5061 132.32 92.7785L120.72 84.1885C122.24 89.8585 124.1 100.288 120.35 104.398Z" fill="#E4897B"/>
<path opacity="0.2" d="M123.4 89.6484C123.86 96.6484 129.58 98.5284 132.4 98.9184C132.022 97.6415 131.903 96.302 132.05 94.9784L123.4 89.6484Z" fill="black"/>
<path d="M123.52 92.6585C124.945 94.2721 126.861 95.373 128.973 95.7921C131.085 96.2113 133.276 95.9254 135.21 94.9785C137.73 93.7993 139.71 91.709 140.75 89.1285C140.89 88.7785 141.02 88.4085 141.13 88.0285C143.13 81.0985 142.48 69.4985 134.98 66.0985C132.415 64.9159 129.486 64.8005 126.836 65.7775C124.186 66.7545 122.033 68.7441 120.85 71.3085C120.135 72.8226 119.793 74.4853 119.85 76.1585C120 83.9485 119.74 88.5385 123.52 92.6585Z" fill="#E4897B"/>
<path d="M131.59 78.8085C131.52 79.4385 131.88 79.9685 132.3 79.9785C132.72 79.9885 133.07 79.4885 133.1 78.8585C133.13 78.2285 132.8 77.6985 132.39 77.6885C131.98 77.6785 131.62 78.1685 131.59 78.8085Z" fill="#66000A"/>
<path d="M138.76 79.0885C138.69 79.7185 139.05 80.2485 139.46 80.2685C139.87 80.2885 140.23 79.7785 140.26 79.1485C140.29 78.5185 139.96 77.9885 139.55 77.9685C139.14 77.9485 138.78 78.5385 138.76 79.0885Z" fill="#66000A"/>
<path d="M136.47 79.3185C137.145 81.2866 138.091 83.1512 139.28 84.8585C138.831 85.1496 138.323 85.3397 137.793 85.4157C137.263 85.4916 136.723 85.4516 136.21 85.2985L136.47 79.3185Z" fill="#DE5753"/>
<path d="M129.46 76.3985C129.528 76.4137 129.598 76.4095 129.664 76.3865C129.729 76.3635 129.787 76.3226 129.83 76.2685C130.118 75.901 130.487 75.6057 130.909 75.406C131.331 75.2064 131.793 75.1079 132.26 75.1185C132.309 75.124 132.358 75.1199 132.405 75.1062C132.452 75.0926 132.496 75.0698 132.534 75.0391C132.572 75.0084 132.604 74.9704 132.627 74.9274C132.65 74.8844 132.665 74.8372 132.67 74.7885C132.679 74.6908 132.649 74.5935 132.587 74.5171C132.526 74.4407 132.437 74.391 132.34 74.3785C131.751 74.3525 131.163 74.4678 130.628 74.7148C130.092 74.9618 129.623 75.3334 129.26 75.7985C129.192 75.8677 129.153 75.9612 129.153 76.0585C129.153 76.1558 129.192 76.2492 129.26 76.3185C129.321 76.357 129.389 76.3841 129.46 76.3985Z" fill="#66000A"/>
<path d="M141.93 76.7485C142.001 76.7729 142.079 76.7729 142.15 76.7485C142.195 76.731 142.237 76.7044 142.271 76.6705C142.306 76.6366 142.334 76.596 142.352 76.5512C142.371 76.5063 142.381 76.4582 142.38 76.4096C142.38 76.361 142.369 76.313 142.35 76.2685C142.126 75.7211 141.774 75.2355 141.323 74.8526C140.873 74.4697 140.336 74.2008 139.76 74.0685C139.662 74.0565 139.564 74.0817 139.484 74.1392C139.404 74.1967 139.349 74.2821 139.33 74.3785C139.318 74.4748 139.344 74.572 139.401 74.6501C139.459 74.7282 139.544 74.7813 139.64 74.7985C140.088 74.92 140.502 75.1441 140.85 75.453C141.197 75.7619 141.467 76.1472 141.64 76.5785C141.671 76.6277 141.714 76.6688 141.765 76.6983C141.815 76.7279 141.872 76.7451 141.93 76.7485Z" fill="#66000A"/>
<path d="M129.62 62.3584C128.69 62.3584 127.76 62.3584 126.83 62.4284C124.141 62.5293 121.541 63.4158 119.35 64.9784C114.45 68.8084 116.41 76.7384 117.77 81.8684C119.58 88.6884 122.77 91.4784 122.77 91.4784C120.69 88.3884 120.35 81.8784 121.4 81.5684C122.45 81.2584 122.53 82.5184 122.53 82.5184C124.73 80.7084 126.33 76.2184 125.2 73.3484C124.34 71.1384 126.67 69.1184 128.96 69.9184L129.65 70.1484L130.72 70.4884L129.62 62.3584Z" fill="#66000A"/>
<path d="M116.22 82.4085C117.012 84.2022 118.482 85.6084 120.31 86.3185C122.74 87.2385 124.19 85.1285 123.72 82.7085C123.28 80.5585 121.5 77.4285 118.96 77.5585C116.42 77.6885 115.27 80.1885 116.22 82.4085Z" fill="#E4897B"/>
<path d="M135.12 86.8484C134.629 87.6454 134.198 88.4777 133.83 89.3384C133.66 89.3384 133.5 89.2684 133.34 89.2184C131.17 88.6484 130.34 87.6684 130.1 86.7584C129.994 86.3079 129.994 85.839 130.1 85.3884C130.149 85.1301 130.237 84.8806 130.36 84.6484C131.535 85.5933 132.899 86.2753 134.36 86.6484C134.83 86.7784 135.12 86.8484 135.12 86.8484Z" fill="#66000A"/>
<path d="M134.38 86.6384L133.98 87.3684C131.98 86.8284 130.57 86.1784 130.09 85.3684C130.139 85.1101 130.227 84.8606 130.35 84.6284C131.533 85.5807 132.908 86.2663 134.38 86.6384Z" fill="white"/>
<path d="M133.34 89.2184C131.17 88.6484 130.34 87.6684 130.1 86.7584C130.923 86.9899 131.698 87.3658 132.39 87.8684C132.844 88.2043 133.177 88.6778 133.34 89.2184Z" fill="#DE5753"/>
<path d="M116.52 76.3785C116.52 76.3785 115.29 71.6185 115.52 68.8785C115.75 66.1385 121.61 60.1985 128 59.6285C134.39 59.0585 136 59.6285 138 61.7885C140 63.9485 141.42 69.7185 141.42 69.7185C141.42 69.7185 128.89 66.7585 116.52 76.3785Z" fill="#FF475A"/>
<path d="M116.52 76.3785C116.52 76.3785 128.23 63.5385 139.93 62.5385C151.63 61.5385 153.3 65.0185 142.17 71.5385C142.17 71.5385 135.28 65.7985 116.52 76.3785Z" fill="#FF475A"/>
<path opacity="0.2" d="M116.52 76.3785C116.52 76.3785 128.23 63.5385 139.93 62.5385C151.63 61.5385 153.3 65.0185 142.17 71.5385C142.17 71.5385 135.28 65.7985 116.52 76.3785Z" fill="black"/>
<path opacity="0.2" d="M111.16 130.868C110.87 128.559 110.52 126.258 110.16 123.968V123.908C110.5 123.338 113.29 118.668 113.57 115.328C113.805 116.315 113.965 117.318 114.05 118.328C114.35 121.538 114.21 126.678 111.16 130.868Z" fill="black"/>
<path d="M110.66 127.258C108.77 133.998 97.5 148.408 88.54 149.638C72.37 151.858 64.86 123.288 64.86 123.288L76.07 115.718C76.07 115.718 81.72 128.488 84.64 130.448C88.25 132.878 100.14 111.978 106.43 107.158C106.43 107.158 115.87 108.728 110.66 127.258Z" fill="#66000A"/>
<path opacity="0.2" d="M110.66 127.258C108.77 133.998 97.5 148.408 88.54 149.638C72.37 151.858 64.86 123.288 64.86 123.288L76.07 115.718C76.07 115.718 81.72 128.488 84.64 130.448C88.25 132.878 100.14 111.978 106.43 107.158C106.43 107.158 115.87 108.728 110.66 127.258Z" fill="white"/>
<path d="M272.71 117.538L279.64 112.718C280.413 111.287 281.342 109.946 282.41 108.718C283.79 107.278 288.14 105.018 289.33 105.158C290.52 105.298 296 109.248 293.85 111.328C291.7 113.408 286.45 116.028 285.57 115.708L284.69 115.388L276 122.388L272.71 117.538Z" fill="#EEC1BB"/>
<path d="M282.41 118.748C282.41 118.748 263.3 135.538 256 139.188C252.42 140.988 244 143.888 236.44 146.348C228.64 148.878 221.69 150.958 221.69 150.958L220.48 148.708L213.57 135.858C213.57 135.858 249.67 130.858 252.84 129.528C256.01 128.198 277.65 112.698 277.65 112.698L282.41 118.748Z" fill="#66000A"/>
<path opacity="0.2" d="M236.47 146.348C228.67 148.878 221.72 150.958 221.72 150.958L220.51 148.708V142.788C220.51 142.788 231.56 143.138 236.47 146.348Z" fill="black"/>
<path d="M167.72 204.338L162.96 211.338C162.734 212.942 162.338 214.518 161.78 216.038C160.99 217.878 157.73 221.528 156.57 221.818C155.41 222.108 148.87 220.358 150.15 217.658C151.43 214.958 155.4 210.658 156.34 210.658H157.27L162.92 201.048L167.72 204.338Z" fill="#EEC1BB"/>
<path d="M201.09 97.1485C206.45 97.0785 217.4 106.508 217.4 106.508C217.4 106.508 220.64 120.508 223.67 123.378L221.35 124.378L219.41 121.438L220.51 125.688C220.51 125.688 210.82 130.018 202.83 130.438C194.84 130.858 191.15 129.248 191.15 129.248L191.95 125.688L190.4 128.748L187.12 127.358C188.651 121.982 189.748 116.491 190.4 110.938C191.15 103.128 201.09 97.1485 201.09 97.1485Z" fill="#66000A"/>
<path d="M213.36 314.988C207.31 322.588 201.88 329.478 197.14 334.508C192.41 339.598 189.97 342.758 189.97 342.758L185.28 340.068C185.28 340.068 189.61 333.218 195.48 323.768C200.48 315.768 206.59 305.868 212.14 296.698C219.33 284.858 225.56 274.238 227.21 270.438C228.38 267.738 225.21 257.368 221.69 247.588C218.12 237.638 214.2 228.278 214.2 228.278L227 206.638C227 206.638 232.2 221.048 236.82 236.248C239.82 246.248 242.63 256.498 243.56 263.338C244.85 272.888 228.36 296.108 213.36 314.988Z" fill="#EEC1BB"/>
<path opacity="0.2" d="M213.4 314.988C207.4 322.588 201.55 329.478 197.23 334.508C196.61 331.418 195.99 327.758 195.49 323.768C200.49 315.768 206.6 305.868 212.15 296.698C212.029 302.82 212.447 308.94 213.4 314.988Z" fill="black"/>
<path opacity="0.2" d="M236.8 236.248L221.69 247.588C218.12 237.638 214.2 228.278 214.2 228.278L227 206.638C227 206.638 232.18 221.048 236.8 236.248Z" fill="black"/>
<path d="M210.41 353.809L205 354.539C205 354.539 197.18 316.069 197.42 284.319C194.52 273.814 192.256 263.145 190.64 252.368C188.72 239.368 187.78 224.889 190.31 214.089L209.26 222.618L209.65 251.039L209.97 274.729L210.41 353.809Z" fill="#EEC1BB"/>
<path opacity="0.2" d="M209.61 251.018L190.61 252.348C188.69 239.348 187.75 224.868 190.28 214.068L209.23 222.598L209.61 251.018Z" fill="black"/>
<path d="M185.59 337.078C186.15 336.668 190.87 343.738 190.87 343.738C190.87 343.738 189.82 351.108 191.95 355.858C194.08 360.608 189.95 360.198 186.5 355.698L178 344.538C175.56 341.368 179.81 341.288 185.59 337.078Z" fill="#66000A"/>
<path d="M192.47 349.068C191.4 348.818 190.7 345.768 190.57 345.158V345.068C190.57 345.068 190.57 345.068 190.57 344.998V344.938H190.64C190.74 344.938 192.74 344.278 193.81 344.938C193.975 345.031 194.118 345.159 194.228 345.313C194.339 345.466 194.415 345.642 194.45 345.828C194.54 346.248 194.45 346.538 194.23 346.698C194.01 346.858 193.13 346.748 192.42 346.418C192.9 346.861 193.247 347.429 193.42 348.058C193.442 348.183 193.437 348.31 193.406 348.433C193.375 348.555 193.319 348.67 193.24 348.768C193.163 348.884 193.061 348.98 192.942 349.049C192.822 349.118 192.688 349.159 192.55 349.168L192.47 349.068ZM192.57 348.638C192.57 348.638 192.75 348.638 192.96 348.408C193.001 348.357 193.03 348.297 193.045 348.233C193.061 348.169 193.062 348.103 193.05 348.038C192.96 347.338 191.9 346.308 191.16 345.688C191.49 346.998 192.07 348.538 192.57 348.638ZM191.34 345.198C192.48 345.908 193.74 346.468 194.06 346.198C194.15 346.138 194.12 345.918 194.06 345.788C194.035 345.665 193.984 345.548 193.91 345.446C193.836 345.344 193.74 345.26 193.63 345.198C193.32 345.044 192.976 344.968 192.63 344.978C192.193 345.005 191.761 345.078 191.34 345.198Z" fill="#FF475A"/>
<path d="M203 351.048C203 350.358 211.49 350.898 211.49 350.898C211.49 350.898 216.71 356.198 221.78 357.398C226.85 358.598 224.01 361.628 218.35 361.628H204.35C200.34 361.628 202.86 358.198 203 351.048Z" fill="#66000A"/>
<path d="M212.47 351.988C212.443 351.978 212.419 351.961 212.4 351.938C212.397 351.919 212.397 351.898 212.4 351.878C212.396 351.855 212.396 351.832 212.4 351.808C212.4 351.808 212.4 351.738 212.4 351.718C212.4 351.698 213.14 349.648 214.29 349.168C214.461 349.09 214.647 349.049 214.835 349.049C215.023 349.049 215.209 349.09 215.38 349.168C215.77 349.358 215.96 349.598 215.94 349.888C215.92 350.178 215.31 350.778 214.62 351.148C215.26 351.038 215.919 351.111 216.52 351.358C216.633 351.415 216.732 351.496 216.811 351.594C216.891 351.692 216.948 351.806 216.98 351.928C217.041 352.082 217.053 352.25 217.016 352.411C216.978 352.572 216.893 352.718 216.77 352.828C216.552 352.984 216.287 353.059 216.02 353.038C214.783 352.903 213.581 352.548 212.47 351.988ZM213.24 351.848C214.49 352.378 216.05 352.848 216.45 352.518C216.45 352.518 216.59 352.398 216.5 352.068C216.482 352.005 216.451 351.946 216.41 351.894C216.369 351.843 216.318 351.8 216.26 351.768C215.946 351.63 215.603 351.568 215.26 351.588C214.58 351.607 213.903 351.694 213.24 351.848ZM214.42 349.588C213.749 350.018 213.239 350.658 212.97 351.408C214.22 350.928 215.43 350.268 215.46 349.888C215.46 349.768 215.27 349.658 215.15 349.608C215.028 349.55 214.895 349.519 214.76 349.518C214.643 349.518 214.527 349.541 214.42 349.588Z" fill="#FF475A"/>
<path d="M218 242.259L238.51 231.539C232.07 211.959 226.26 200.849 226.26 200.849C206.12 204.299 207.96 220.219 207.96 220.219C207.96 220.219 213.09 230.819 218 242.259Z" fill="#FF475A"/>
<path opacity="0.2" d="M216.71 239.239C217.15 240.239 217.58 241.239 218.02 242.239L238.51 231.539C232.07 211.959 226.26 200.849 226.26 200.849C213.83 202.989 209.77 209.849 208.48 214.849C208.007 216.607 207.828 218.432 207.95 220.249C207.95 220.249 212.21 229.019 216.71 239.239Z" fill="white"/>
<path opacity="0.2" d="M216.71 239.238C212.21 229.018 207.95 220.238 207.95 220.238C207.828 218.422 208.007 216.597 208.48 214.838C209.121 214.418 209.832 214.117 210.58 213.948C210.58 213.948 216.06 222.538 216.71 239.238Z" fill="black"/>
<path d="M211.68 246.679L211 213.908L227.24 209.168C227.24 209.168 225.97 194.168 224.07 186.718C224.07 186.718 197.69 180.148 193.67 189.098C193.67 189.098 193.67 189.238 193.61 189.288L193.55 189.368C193.55 189.368 185.97 202.699 188.23 246.679H211.68Z" fill="#FF475A"/>
<path opacity="0.2" d="M211.68 246.679L211 213.908L227.24 209.168C227.24 209.168 225.97 194.168 224.07 186.718C224.07 186.718 197.69 180.148 193.67 189.098C193.67 189.098 193.67 189.238 193.61 189.288L193.55 189.368C193.55 189.368 185.97 202.699 188.23 246.679H211.68Z" fill="white"/>
<path d="M193.35 184.558V189.028L223.67 186.688V181.398L193.35 184.558Z" fill="#FF475A"/>
<path d="M203.637 182.66L202.119 182.738L202.514 190.458L204.032 190.38L203.637 182.66Z" fill="#FF475A"/>
<path d="M216.866 182.477L210.182 183.076L210.636 188.136L217.319 187.537L216.866 182.477Z" fill="white"/>
<path d="M222.298 180.619L220.78 180.697L221.175 188.416L222.693 188.339L222.298 180.619Z" fill="#FF475A"/>
<path opacity="0.2" d="M203.637 182.66L202.119 182.738L202.514 190.458L204.032 190.38L203.637 182.66Z" fill="white"/>
<path opacity="0.2" d="M222.298 180.619L220.78 180.697L221.175 188.416L222.693 188.339L222.298 180.619Z" fill="white"/>
<path d="M224 181.938L193.49 184.538C193.264 179.815 192.773 175.107 192.02 170.438C191.128 165.408 189.936 160.436 188.45 155.548C187.58 152.548 186.55 149.328 185.32 145.618C184.74 143.845 184.103 141.968 183.41 139.988C187.556 138.66 191.794 137.637 196.09 136.928C200.625 136.141 205.21 135.676 209.81 135.538C215.75 135.538 222.58 136.158 222.58 136.158C222.58 136.158 223.58 136.398 224.16 142.688C224.72 148.588 225.27 160.418 224 181.938Z" fill="#66000A"/>
<path d="M186.25 245.339L213.01 245.099L212.54 249.129L187.43 248.889L186.25 245.339Z" fill="#FF475A"/>
<path d="M216.33 242.018L238.59 229.938L239.78 233.488L218.22 244.148L216.33 242.018Z" fill="#FF475A"/>
<path d="M207.29 142.268C199.76 141.268 197.49 138.078 197.49 138.078C200.57 135.188 200.01 130.898 199.23 128.228C198.991 127.383 198.68 126.56 198.3 125.768L207.37 127.458C207.156 128.721 207.036 129.998 207.01 131.278C206.985 132.222 207.072 133.165 207.27 134.088C207.89 136.798 209.43 136.828 209.43 136.828C211 139.808 207.29 142.268 207.29 142.268Z" fill="#EEC1BB"/>
<path opacity="0.2" d="M207 131.278C206.975 132.222 207.062 133.165 207.26 134.088C203.66 133.608 200.93 130.728 199.26 128.228C199.021 127.383 198.71 126.56 198.33 125.768L207.4 127.458C207.173 128.72 207.039 129.997 207 131.278Z" fill="black"/>
<path d="M205.52 102.359C213.4 102.649 215.78 106.968 216.06 115.118C216.4 125.298 213.89 132.429 204.11 129.889C190.83 126.448 192.42 101.879 205.52 102.359Z" fill="#EEC1BB"/>
<path d="M211 114.538C211.588 115.737 212.316 116.862 213.17 117.888C212.929 118.207 212.604 118.452 212.231 118.597C211.858 118.742 211.453 118.78 211.06 118.708L211 114.538Z" fill="#D4827D"/>
<path d="M206.3 108.208C205.68 108.11 205.045 108.155 204.445 108.341C203.846 108.526 203.296 108.847 202.84 109.278" stroke="#66000A" stroke-width="0.707962" stroke-linecap="round" stroke-linejoin="round"/>
<path d="M212 108.088C212.544 107.974 213.108 107.984 213.648 108.117C214.188 108.25 214.691 108.504 215.12 108.858" stroke="#66000A" stroke-width="0.707962" stroke-linecap="round" stroke-linejoin="round"/>
<path d="M209.78 121.708C209.38 122.586 209.046 123.492 208.78 124.418L208.28 124.348C205.99 124.028 205.04 123.128 204.67 122.228C204.503 121.782 204.445 121.302 204.5 120.828C204.522 120.559 204.579 120.293 204.67 120.038C205.992 120.869 207.48 121.398 209.03 121.588C209.47 121.678 209.78 121.708 209.78 121.708Z" fill="#66000A"/>
<path d="M209 121.588L208.68 122.378C206.52 122.078 205.05 121.578 204.47 120.828C204.492 120.559 204.549 120.293 204.64 120.038C205.962 120.869 207.45 121.398 209 121.588Z" fill="white"/>
<path d="M208.25 124.349C205.96 124.029 205.01 123.129 204.64 122.229C205.506 122.367 206.342 122.654 207.11 123.079C207.61 123.377 208.007 123.82 208.25 124.349Z" fill="#DE5753"/>
<path d="M196.41 115.328C196.41 115.328 200.34 108.988 199.96 103.968C199.96 103.968 215.82 98.1585 215.96 114.048C215.96 114.048 217.96 100.049 204.46 99.2085C190.96 98.3685 190.24 118.209 197.02 124.389C197.07 124.389 194 119.298 196.41 115.328Z" fill="#66000A"/>
<path d="M197.63 117.039C197.611 116.585 197.502 116.14 197.311 115.729C197.119 115.318 196.849 114.948 196.514 114.642C196.18 114.335 195.788 114.098 195.362 113.943C194.936 113.788 194.483 113.718 194.03 113.739C191.58 113.919 190.23 118.889 196.26 120.319C197.12 120.539 197.65 119.689 197.63 117.039Z" fill="#EEC1BB"/>
<path d="M201.09 97.1485C205.35 95.9685 216.72 95.8085 219.41 107.568L217.83 108.358C215.159 107.019 212.27 106.166 209.3 105.838C208.669 104.715 207.928 103.657 207.09 102.678C207.177 103.677 207.177 104.68 207.09 105.678C207.09 105.678 199.67 106.758 196.35 109.778C191.14 114.518 190.83 117.518 190.83 117.518C190.83 117.518 187.21 101.008 201.09 97.1485Z" fill="#66000A"/>
<path d="M200.46 98.0184C200.46 98.0184 215.7 92.7284 220.46 107.178" stroke="#66000A" stroke-width="0.488465" stroke-linecap="round" stroke-linejoin="round"/>
<path d="M204 113.668C204 113.668 205.85 112.098 206.72 114.208C205.874 113.801 204.938 113.615 204 113.668Z" fill="#66000A"/>
<path d="M212.78 114.838C212.78 114.838 213.78 112.698 215.16 114.208C214.328 114.226 213.512 114.442 212.78 114.838Z" fill="#66000A"/>
<path opacity="0.3" d="M215.78 146.698H220.2C220.36 146.706 220.517 146.751 220.656 146.832C220.795 146.912 220.912 147.024 220.999 147.16C221.085 147.295 221.137 147.449 221.152 147.609C221.166 147.769 221.141 147.93 221.08 148.078L219.25 152.018C219.17 152.168 219.054 152.295 218.912 152.387C218.77 152.479 218.607 152.534 218.438 152.546C218.269 152.558 218.1 152.527 217.946 152.456C217.793 152.384 217.66 152.275 217.56 152.138L214.96 148.208C214.872 148.06 214.823 147.89 214.82 147.717C214.817 147.544 214.858 147.373 214.941 147.22C215.024 147.068 215.144 146.94 215.291 146.849C215.439 146.757 215.607 146.705 215.78 146.698Z" fill="white"/>
<path opacity="0.2" d="M192 170.479C191.108 165.448 189.916 160.476 188.43 155.589L190.09 152.589C192.174 158.307 192.829 164.449 192 170.479Z" fill="black"/>
<path d="M183.41 140.028C180.55 143.648 179.26 169.598 173.47 180.118C167.68 190.638 159.54 204.918 159.54 204.918L165.48 210.078C165.48 210.078 183.77 188.718 186.69 180.508C189.61 172.298 190.4 161.388 190.4 161.388C192 146.698 183.41 140.028 183.41 140.028Z" fill="#66000A"/>
<path opacity="0.6" d="M185.59 337.078C186.15 336.668 190.87 343.738 190.87 343.738C190.87 343.738 189.82 351.108 191.95 355.858C194.08 360.608 189.95 360.198 186.5 355.698L178 344.538C175.56 341.368 179.81 341.288 185.59 337.078Z" fill="white"/>
<path opacity="0.6" d="M203 351.048C203 350.358 211.49 350.898 211.49 350.898C211.49 350.898 216.71 356.198 221.78 357.398C226.85 358.598 224.01 361.628 218.35 361.628H204.35C200.34 361.628 202.86 358.198 203 351.048Z" fill="white"/>
<path d="M244.94 159.268C250.08 161.338 254.43 156.188 254.63 150.058C254.63 150.058 259.32 147.058 264.63 143.798C268.633 141.283 272.762 138.974 277 136.878C277.693 136.555 278.295 136.063 278.75 135.448C282.85 130.128 280.96 114.798 280.96 114.798C271.46 115.858 252.48 133.068 244.17 141.368C235.86 149.668 239.8 157.188 244.94 159.268Z" fill="#FF475A"/>
<path opacity="0.2" d="M264.63 143.798C268.633 141.283 272.762 138.974 277 136.878C277.693 136.555 278.295 136.063 278.75 135.448L272.09 129.538C272.09 129.538 266.16 137.248 264.63 143.798Z" fill="black"/>
<path d="M276.22 354.178L268.11 355.038L266.58 337.538L274.7 336.678L276.22 354.178Z" fill="#EBB376"/>
<path d="M316.7 353.588H308.84L308.19 335.378H316.06L316.7 353.588Z" fill="#EBB376"/>
<path d="M307.75 352.678H317.3C317.457 352.677 317.609 352.731 317.731 352.829C317.853 352.927 317.938 353.065 317.97 353.218L319.52 360.218C319.582 360.519 319.522 360.833 319.353 361.09C319.185 361.346 318.921 361.526 318.62 361.588C318.537 361.599 318.453 361.599 318.37 361.588C315.28 361.538 313.03 361.348 309.15 361.348C306.76 361.348 299.55 361.598 296.25 361.598C292.95 361.598 292.52 358.338 293.87 358.038C299.93 356.718 304.49 354.888 306.43 353.148C306.793 352.828 307.266 352.66 307.75 352.678Z" fill="#66000A"/>
<path d="M305.15 354.058C304.616 354.099 304.084 353.958 303.64 353.658C303.494 353.54 303.382 353.385 303.313 353.21C303.245 353.034 303.223 352.845 303.25 352.658C303.246 352.55 303.274 352.442 303.331 352.35C303.388 352.257 303.471 352.184 303.57 352.138C304.44 351.688 306.98 353.248 307.26 353.428C307.292 353.445 307.318 353.471 307.334 353.504C307.351 353.536 307.356 353.573 307.35 353.608C307.345 353.646 307.329 353.681 307.304 353.71C307.279 353.738 307.247 353.759 307.21 353.768C306.536 353.94 305.845 354.037 305.15 354.058ZM304 352.428C303.917 352.42 303.833 352.437 303.76 352.478C303.71 352.478 303.65 352.548 303.64 352.698C303.624 352.822 303.639 352.947 303.682 353.064C303.726 353.181 303.797 353.285 303.89 353.368C304.772 353.768 305.773 353.818 306.69 353.508C305.872 352.977 304.958 352.61 304 352.428Z" fill="#FF475A"/>
<path d="M307.16 353.778H307.07C306.26 353.338 304.69 351.608 304.85 350.778C304.878 350.64 304.953 350.515 305.062 350.426C305.172 350.337 305.309 350.288 305.45 350.288C305.591 350.27 305.735 350.282 305.871 350.323C306.007 350.364 306.133 350.434 306.24 350.528C307.15 351.268 307.34 353.528 307.35 353.638C307.35 353.672 307.342 353.705 307.327 353.735C307.311 353.765 307.288 353.79 307.26 353.808C307.224 353.809 307.189 353.799 307.16 353.778ZM305.58 350.588H305.49C305.25 350.588 305.23 350.728 305.22 350.778C305.12 351.288 306.12 352.598 306.93 353.208C306.879 352.313 306.555 351.454 306 350.748C305.883 350.648 305.734 350.592 305.58 350.588Z" fill="#FF475A"/>
<path d="M267.25 352.428H276.8C276.957 352.427 277.109 352.481 277.231 352.579C277.353 352.677 277.438 352.815 277.47 352.968L279.02 359.968C279.082 360.269 279.022 360.583 278.853 360.84C278.685 361.096 278.421 361.276 278.12 361.338C278.037 361.349 277.953 361.349 277.87 361.338C274.78 361.288 272.53 361.098 268.65 361.098C266.26 361.098 259.05 361.348 255.75 361.348C252.45 361.348 252.02 358.088 253.37 357.788C259.43 356.468 263.99 354.638 265.93 352.898C266.293 352.578 266.766 352.41 267.25 352.428Z" fill="#66000A"/>
<path d="M264.65 353.808C264.116 353.849 263.584 353.708 263.14 353.408C262.994 353.29 262.882 353.135 262.813 352.96C262.745 352.784 262.723 352.595 262.75 352.408C262.746 352.3 262.774 352.192 262.831 352.1C262.888 352.007 262.971 351.934 263.07 351.888C263.94 351.438 266.48 352.998 266.76 353.178C266.792 353.195 266.818 353.221 266.834 353.254C266.851 353.286 266.856 353.323 266.85 353.358C266.845 353.396 266.829 353.431 266.804 353.46C266.779 353.488 266.747 353.509 266.71 353.518C266.036 353.69 265.345 353.787 264.65 353.808ZM263.48 352.178C263.397 352.17 263.313 352.187 263.24 352.228C263.19 352.228 263.13 352.298 263.12 352.448C263.104 352.572 263.119 352.697 263.162 352.814C263.206 352.931 263.277 353.035 263.37 353.118C264.252 353.518 265.253 353.568 266.17 353.258C265.352 352.727 264.438 352.36 263.48 352.178Z" fill="#FF475A"/>
<path d="M266.66 353.538H266.57C265.76 353.098 264.19 351.368 264.35 350.538C264.378 350.4 264.453 350.275 264.562 350.186C264.672 350.097 264.809 350.048 264.95 350.048C265.091 350.03 265.235 350.042 265.371 350.083C265.507 350.124 265.633 350.194 265.74 350.288C266.65 351.028 266.84 353.288 266.85 353.398C266.85 353.432 266.842 353.465 266.827 353.495C266.811 353.525 266.788 353.55 266.76 353.568C266.724 353.569 266.689 353.559 266.66 353.538ZM265.08 350.348H265C264.76 350.348 264.74 350.488 264.73 350.538C264.63 351.048 265.63 352.358 266.44 352.968C266.389 352.073 266.065 351.214 265.51 350.508C265.391 350.403 265.239 350.342 265.08 350.338V350.348Z" fill="#FF475A"/>
<path opacity="0.2" d="M274.7 336.678L266.58 337.538L267.38 346.558L275.49 345.708L274.7 336.678Z" fill="black"/>
<path opacity="0.2" d="M316.06 335.388H308.19L308.53 344.778H316.4L316.06 335.388Z" fill="black"/>
<path d="M312.81 183.648H271.09C267.09 205.308 254.71 273.978 263.61 342.278L277.74 340.538C277.74 340.538 276.43 257.858 288.9 224.338C290.34 242.278 292.04 253.338 293.52 263.528C297.15 288.528 304.92 343.158 304.92 343.158H319.3C319.3 343.158 316.36 290.868 315 266.298C313.51 239.608 312.87 189.128 312.81 183.648Z" fill="#66000A"/>
<path d="M262 345.568L279.48 342.968L278.95 338.128L260.76 340.518L262 345.568Z" fill="#FF475A"/>
<path d="M303.19 343.268H320.15V338.198L302.55 337.868L303.19 343.268Z" fill="#FF475A"/>
<path opacity="0.2" d="M288.9 224.328C286.85 230.189 285.291 236.209 284.24 242.328C283.07 226.328 287.74 209.428 287.74 209.428L288.9 224.328Z" fill="black"/>
<path d="M320 118.158C317.69 126.645 316.018 135.292 315 144.028C314.67 146.708 314.4 149.338 314.18 151.888C313.89 155.128 313.69 158.248 313.53 161.208C313.33 164.958 313.27 169.388 313.28 173.748C313.28 183.748 313.7 190.398 313.7 190.398C305.7 192.398 282.58 191.068 269.95 190.148C268.465 179.077 268.076 167.886 268.79 156.738C269.211 148.717 270.095 140.727 271.44 132.808C272.118 128.58 273.06 124.399 274.26 120.288C274.724 118.831 275.597 117.538 276.773 116.561C277.95 115.585 279.382 114.966 280.9 114.778C282.43 114.588 284.2 114.398 286.06 114.288C286.78 114.288 287.5 114.218 288.23 114.208C294.196 114.276 300.152 114.69 306.07 115.448C307.19 115.578 308.33 115.748 309.43 115.928C312.99 116.485 316.518 117.23 320 118.158Z" fill="#FF475A"/>
<path d="M306.12 115.398C302.29 118.878 292.91 117.588 292.91 117.588C292.91 117.588 287.05 115.988 288.28 114.158C291.73 113.588 293.4 111.978 294.09 109.918C294.468 108.641 294.587 107.302 294.44 105.978C294.383 105.24 294.286 104.506 294.15 103.778L294.86 103.258L297.28 101.458L305.75 95.1884C304.961 98.1134 304.402 101.096 304.08 104.108C303.7 106.983 303.887 109.905 304.63 112.708C304.932 113.7 305.44 114.616 306.12 115.398Z" fill="#EBB376"/>
<path opacity="0.2" d="M315.31 141.868C315.6 139.558 315.95 137.258 316.31 134.968V134.908C315.97 134.338 313.18 129.668 312.9 126.328C312.665 127.315 312.504 128.318 312.42 129.328C312.12 132.538 312.26 137.678 315.31 141.868Z" fill="black"/>
<path d="M336.05 166.158L323 192.328C319.42 192.888 315.62 208.208 314.74 209.518C313.86 210.828 325.1 210.638 326.07 209.518C327.04 208.398 331.19 198.718 329.83 195.898L346.74 170.118C346.74 170.118 343.52 164.848 336.05 166.158Z" fill="#EBB376"/>
<path d="M320 118.158C321.73 117.968 351.14 144.028 350.74 158.158C350.34 172.288 346.39 172.728 346.39 172.728L335.39 170.448C335.39 170.448 337.84 158.368 335.2 155.648C332.56 152.928 315.8 138.208 315.8 138.208C315.8 138.208 310.07 119.258 320 118.158Z" fill="#FF475A"/>
<path opacity="0.6" d="M278.73 129.218C278.73 129.218 297.33 130.058 304.87 131.878C304.87 131.878 301.61 158.628 301.67 166.618C301.67 166.618 280.5 165.688 274.5 165.408C274.5 165.408 276.83 136.838 278.73 129.218Z" fill="white"/>
<path d="M248.65 146.698L274.55 149.758C276.72 147.358 290 152.018 291.41 152.008C292.82 151.998 287.18 160.278 285.9 160.478C284.62 160.678 275.35 159.008 273.9 156.618H246.4C246.4 156.618 244 151.628 248.65 146.698Z" fill="#EBB376"/>
<path opacity="0.2" d="M304.63 112.708C298.58 113.368 295.91 107.058 294.86 103.258L297.28 101.458C299.59 102.227 301.859 103.111 304.08 104.108C303.7 106.983 303.887 109.905 304.63 112.708Z" fill="black"/>
<path d="M315 82.0985C315 82.0985 316.33 91.0185 310.58 95.1785C304.83 99.3385 304.83 79.1785 304.83 79.1785L315 82.0985Z" fill="#66000A"/>
<path d="M293.93 103.788C295.135 105.572 296.892 106.911 298.932 107.599C300.971 108.287 303.181 108.287 305.22 107.598C307.872 106.754 310.106 104.935 311.47 102.508C311.66 102.184 311.833 101.85 311.99 101.508C314.82 94.8885 315.72 83.3084 308.72 78.9684C307.181 78.0017 305.42 77.4446 303.605 77.3501C301.79 77.2556 299.98 77.6268 298.349 78.4284C296.718 79.2301 295.318 80.4355 294.284 81.9302C293.25 83.4249 292.615 85.1593 292.44 86.9684C291.58 94.6985 290.71 99.2085 293.93 103.788Z" fill="#EBB376"/>
<path d="M303.72 91.0985C303.57 91.7085 303.85 92.2785 304.27 92.3485C304.69 92.4185 305.09 91.9685 305.2 91.3485C305.31 90.7285 305.06 90.1585 304.65 90.0885C304.24 90.0185 303.83 90.4685 303.72 91.0985Z" fill="#66000A"/>
<path d="M310.78 92.2984C310.64 92.9184 310.93 93.4884 311.33 93.5584C311.73 93.6284 312.16 93.1684 312.27 92.5584C312.38 91.9484 312.12 91.3684 311.72 91.3084C311.32 91.2484 310.89 91.7084 310.78 92.2984Z" fill="#66000A"/>
<path d="M308.49 92.2284C308.902 94.269 309.599 96.2416 310.56 98.0884C310.075 98.3159 309.546 98.4339 309.01 98.4339C308.474 98.4339 307.945 98.3159 307.46 98.0884L308.49 92.2284Z" fill="#D58745"/>
<path d="M301.92 88.4384C301.986 88.4592 302.055 88.4618 302.122 88.446C302.189 88.4301 302.251 88.3964 302.3 88.3484C302.633 88.022 303.039 87.778 303.483 87.6356C303.927 87.4933 304.399 87.4566 304.86 87.5284C304.955 87.5493 305.055 87.5316 305.138 87.4791C305.22 87.4267 305.278 87.3437 305.3 87.2484C305.312 87.2018 305.314 87.1532 305.307 87.1056C305.3 87.0581 305.283 87.0124 305.258 86.9714C305.233 86.9304 305.2 86.8948 305.16 86.8668C305.121 86.8388 305.077 86.819 305.03 86.8084C304.449 86.7048 303.852 86.7415 303.289 86.9154C302.725 87.0894 302.211 87.3955 301.79 87.8084C301.722 87.8777 301.683 87.9711 301.683 88.0684C301.683 88.1657 301.722 88.2592 301.79 88.3284C301.827 88.3715 301.871 88.4086 301.92 88.4384Z" fill="#66000A"/>
<path d="M314.24 90.3884C314.304 90.425 314.377 90.4424 314.45 90.4384C314.545 90.4104 314.624 90.3468 314.673 90.261C314.721 90.1752 314.735 90.0738 314.71 89.9784C314.556 89.4068 314.267 88.8801 313.869 88.4419C313.471 88.0036 312.974 87.6665 312.42 87.4584C312.373 87.4432 312.324 87.4376 312.275 87.442C312.227 87.4465 312.179 87.4608 312.136 87.4842C312.093 87.5076 312.055 87.5396 312.025 87.5782C311.995 87.6167 311.972 87.661 311.96 87.7084C311.935 87.8025 311.947 87.9027 311.993 87.9883C312.04 88.0739 312.117 88.1384 312.21 88.1684C312.643 88.3399 313.03 88.6099 313.341 88.9571C313.652 89.3042 313.877 89.719 314 90.1684C314.022 90.2202 314.054 90.2667 314.096 90.3046C314.137 90.3426 314.186 90.3712 314.24 90.3884Z" fill="#66000A"/>
<path d="M303.88 74.5384C302.96 74.4084 302.04 74.2984 301.11 74.2584C298.431 74.0073 295.736 74.5461 293.36 75.8084C288.01 78.9784 288.93 87.0984 289.62 92.3584C290.54 99.3584 293.29 102.528 293.29 102.528C291.62 99.1884 292.12 92.6884 293.2 92.5284C294.28 92.3684 294.2 93.6084 294.2 93.6084C296.62 92.1084 298.79 87.8584 298.04 84.8584C297.46 82.5584 300.04 80.8584 302.2 81.9384L302.86 82.2584L303.86 82.7384L303.88 74.5384Z" fill="#66000A"/>
<path d="M288 92.6784C288.272 93.6112 288.725 94.481 289.335 95.2379C289.944 95.9947 290.697 96.6236 291.55 97.0884C293.84 98.3184 295.55 96.4084 295.4 93.9484C295.24 91.7684 293.88 88.4284 291.35 88.2384C288.82 88.0484 287.36 90.3584 288 92.6784Z" fill="#EBB376"/>
<path d="M289.68 80.9184C289.68 80.9184 288.68 72.9784 297.92 71.6484C307.16 70.3184 315.17 68.2484 315.17 68.2484C315.17 68.2484 315.03 72.9184 313.33 74.2484C313.33 74.2484 316.65 74.3984 318.63 73.0784C318.63 73.0784 318.1 77.1684 316.91 78.6184L318.63 77.2984C318.438 78.8473 317.768 80.2977 316.712 81.447C315.656 82.5962 314.267 83.3868 312.74 83.7084C307.29 84.9484 297.11 80.9184 297.11 80.9184H289.68Z" fill="#66000A"/>
<path d="M307.22 100.738C306.628 101.468 306.09 102.241 305.61 103.048C305.46 102.988 305.3 102.938 305.15 102.868C303.07 102.028 302.38 100.948 302.25 100.008C302.198 99.548 302.256 99.0817 302.42 98.6484C302.504 98.4001 302.622 98.1646 302.77 97.9484C303.827 99.0354 305.101 99.8873 306.51 100.448C306.94 100.638 307.22 100.738 307.22 100.738Z" fill="#66000A"/>
<path d="M306.51 100.448L306.02 101.108C304.02 100.318 302.79 99.4884 302.42 98.6484C302.504 98.4001 302.622 98.1646 302.77 97.9484C303.827 99.0354 305.101 99.8873 306.51 100.448Z" fill="white"/>
<path d="M305.15 102.868C303.07 102.028 302.38 100.948 302.25 100.008C303.037 100.341 303.759 100.812 304.38 101.398C304.779 101.8 305.047 102.312 305.15 102.868Z" fill="#DE5753"/>
</g>
<defs>
<clipPath id="clip0">
<rect width="500" height="373" fill="white" transform="translate(0 0.538452)"/>
</clipPath>
</defs>
</svg>
