<svg width="500" height="374" viewBox="0 0 500 374" fill="none" xmlns="http://www.w3.org/2000/svg">
<g clip-path="url(#clip0)">
<path d="M500 327.938H0V328.188H500V327.938Z" fill="#FFB0B0"/>
<path d="M449.9 344.028H416.78V344.278H449.9V344.028Z" fill="#FFB0B0"/>
<path d="M331.22 346.749H322.53V346.999H331.22V346.749Z" fill="#FFB0B0"/>
<path d="M415.78 334.748H368.11V334.998H415.78V334.748Z" fill="#FFB0B0"/>
<path d="M76.14 336.428H52.46V336.678H76.14V336.428Z" fill="#FFB0B0"/>
<path d="M110.89 336.428H85.04V336.678H110.89V336.428Z" fill="#FFB0B0"/>
<path d="M196.11 340.648H131.47V340.898H196.11V340.648Z" fill="#FFB0B0"/>
<path d="M237 283.338H43.91C42.3973 283.336 40.9476 282.733 39.8789 281.663C38.8102 280.592 38.21 279.141 38.21 277.628V6.19845C38.2232 4.69448 38.8292 3.25643 39.8964 2.19667C40.9637 1.13691 42.406 0.541029 43.91 0.538452H237C238.514 0.538452 239.967 1.14004 241.038 2.21087C242.108 3.28171 242.71 4.73407 242.71 6.24845V277.628C242.71 279.143 242.108 280.595 241.038 281.666C239.967 282.737 238.514 283.338 237 283.338ZM43.91 0.738453C42.4637 0.741102 41.0774 1.31752 40.0557 2.34118C39.0339 3.36484 38.46 4.7521 38.46 6.19845V277.628C38.46 279.075 39.0339 280.462 40.0557 281.486C41.0774 282.509 42.4637 283.086 43.91 283.088H237C238.447 283.086 239.835 282.51 240.858 281.486C241.881 280.463 242.457 279.076 242.46 277.628V6.19845C242.457 4.75118 241.881 3.36394 240.858 2.34057C239.835 1.31719 238.447 0.741096 237 0.738453H43.91Z" fill="#FFB0B0"/>
<path d="M453.31 283.338H260.21C258.696 283.336 257.246 282.733 256.175 281.663C255.105 280.593 254.503 279.142 254.5 277.628V6.19845C254.516 4.69357 255.124 3.25553 256.193 2.19604C257.262 1.13656 258.705 0.541 260.21 0.538452H453.31C454.812 0.543657 456.252 1.1407 457.317 2.20018C458.382 3.25966 458.987 4.6962 459 6.19845V277.628C459 279.139 458.401 280.589 457.335 281.659C456.268 282.729 454.821 283.333 453.31 283.338ZM260.21 0.738453C258.763 0.741096 257.375 1.31719 256.352 2.34057C255.329 3.36394 254.753 4.75118 254.75 6.19845V277.628C254.753 279.076 255.329 280.463 256.352 281.486C257.375 282.51 258.763 283.086 260.21 283.088H453.31C454.757 283.086 456.145 282.51 457.168 281.486C458.191 280.463 458.767 279.076 458.77 277.628V6.19845C458.767 4.75118 458.191 3.36394 457.168 2.34057C456.145 1.31719 454.757 0.741096 453.31 0.738453H260.21Z" fill="#FFB0B0"/>
<path d="M436.21 40.6484H63.79V46.4384H436.21V40.6484Z" fill="#FFECEC"/>
<path d="M436.21 108.708H63.79V114.499H436.21V108.708Z" fill="#FFECEC"/>
<path d="M436.21 176.758H63.79V182.548H436.21V176.758Z" fill="#FFECEC"/>
<path d="M436.21 244.808H63.79V250.598H436.21V244.808Z" fill="#FFECEC"/>
<path d="M116.26 23.5184H103.02C101.733 23.5184 100.69 24.5616 100.69 25.8484V38.3284C100.69 39.6153 101.733 40.6584 103.02 40.6584H116.26C117.547 40.6584 118.59 39.6153 118.59 38.3284V25.8484C118.59 24.5616 117.547 23.5184 116.26 23.5184Z" fill="#FFB0B0"/>
<path d="M110.81 27.1584H100.69V36.9084H110.81V27.1584Z" fill="#FFCFCF"/>
<path d="M113.71 19.5184H105.58C105.177 19.5184 104.85 19.8453 104.85 20.2484V22.7884C104.85 23.1916 105.177 23.5184 105.58 23.5184H113.71C114.113 23.5184 114.44 23.1916 114.44 22.7884V20.2484C114.44 19.8453 114.113 19.5184 113.71 19.5184Z" fill="#FFEDED"/>
<path d="M147.85 23.5184H134.61C133.323 23.5184 132.28 24.5616 132.28 25.8484V38.3284C132.28 39.6153 133.323 40.6584 134.61 40.6584H147.85C149.137 40.6584 150.18 39.6153 150.18 38.3284V25.8484C150.18 24.5616 149.137 23.5184 147.85 23.5184Z" fill="#FFB0B0"/>
<path d="M142.4 27.1584H132.28V36.9084H142.4V27.1584Z" fill="#FFCFCF"/>
<path d="M145.29 19.5184H137.16C136.757 19.5184 136.43 19.8453 136.43 20.2484V22.7884C136.43 23.1916 136.757 23.5184 137.16 23.5184H145.29C145.693 23.5184 146.02 23.1916 146.02 22.7884V20.2484C146.02 19.8453 145.693 19.5184 145.29 19.5184Z" fill="#FFEDED"/>
<path d="M179.43 23.5184H166.19C164.903 23.5184 163.86 24.5616 163.86 25.8484V38.3284C163.86 39.6153 164.903 40.6584 166.19 40.6584H179.43C180.717 40.6584 181.76 39.6153 181.76 38.3284V25.8484C181.76 24.5616 180.717 23.5184 179.43 23.5184Z" fill="#FFB0B0"/>
<path d="M173.98 27.1584H163.86V36.9084H173.98V27.1584Z" fill="#FFCFCF"/>
<path d="M176.87 19.5184H168.74C168.337 19.5184 168.01 19.8453 168.01 20.2484V22.7884C168.01 23.1916 168.337 23.5184 168.74 23.5184H176.87C177.273 23.5184 177.6 23.1916 177.6 22.7884V20.2484C177.6 19.8453 177.273 19.5184 176.87 19.5184Z" fill="#FFEDED"/>
<path d="M211.01 23.5184H197.77C196.483 23.5184 195.44 24.5616 195.44 25.8484V38.3284C195.44 39.6153 196.483 40.6584 197.77 40.6584H211.01C212.297 40.6584 213.34 39.6153 213.34 38.3284V25.8484C213.34 24.5616 212.297 23.5184 211.01 23.5184Z" fill="#FFB0B0"/>
<path d="M205.56 27.1584H195.44V36.9084H205.56V27.1584Z" fill="#FFCFCF"/>
<path d="M208.45 19.5184H200.32C199.917 19.5184 199.59 19.8453 199.59 20.2484V22.7884C199.59 23.1916 199.917 23.5184 200.32 23.5184H208.45C208.853 23.5184 209.18 23.1916 209.18 22.7884V20.2484C209.18 19.8453 208.853 19.5184 208.45 19.5184Z" fill="#FFEDED"/>
<path d="M242.59 23.5184H229.35C228.063 23.5184 227.02 24.5616 227.02 25.8484V38.3284C227.02 39.6153 228.063 40.6584 229.35 40.6584H242.59C243.877 40.6584 244.92 39.6153 244.92 38.3284V25.8484C244.92 24.5616 243.877 23.5184 242.59 23.5184Z" fill="#FFB0B0"/>
<path d="M237.14 27.1584H227.02V36.9084H237.14V27.1584Z" fill="#FFCFCF"/>
<path d="M240.03 19.5184H231.9C231.497 19.5184 231.17 19.8453 231.17 20.2484V22.7884C231.17 23.1916 231.497 23.5184 231.9 23.5184H240.03C240.433 23.5184 240.76 23.1916 240.76 22.7884V20.2484C240.76 19.8453 240.433 19.5184 240.03 19.5184Z" fill="#FFEDED"/>
<path d="M242.59 159.618H229.35C228.063 159.618 227.02 160.662 227.02 161.948V174.428C227.02 175.715 228.063 176.758 229.35 176.758H242.59C243.877 176.758 244.92 175.715 244.92 174.428V161.948C244.92 160.662 243.877 159.618 242.59 159.618Z" fill="#FFB0B0"/>
<path d="M237.14 163.268H227.02V173.018H237.14V163.268Z" fill="#FFCFCF"/>
<path d="M240.03 155.618H231.9C231.497 155.618 231.17 155.945 231.17 156.348V158.888C231.17 159.292 231.497 159.618 231.9 159.618H240.03C240.433 159.618 240.76 159.292 240.76 158.888V156.348C240.76 155.945 240.433 155.618 240.03 155.618Z" fill="#FFEDED"/>
<path d="M274.17 159.618H260.93C259.643 159.618 258.6 160.662 258.6 161.948V174.428C258.6 175.715 259.643 176.758 260.93 176.758H274.17C275.457 176.758 276.5 175.715 276.5 174.428V161.948C276.5 160.662 275.457 159.618 274.17 159.618Z" fill="#FFB0B0"/>
<path d="M268.72 163.268H258.6V173.018H268.72V163.268Z" fill="#FFCFCF"/>
<path d="M271.61 155.618H263.48C263.077 155.618 262.75 155.945 262.75 156.348V158.888C262.75 159.292 263.077 159.618 263.48 159.618H271.61C272.013 159.618 272.34 159.292 272.34 158.888V156.348C272.34 155.945 272.013 155.618 271.61 155.618Z" fill="#FFEDED"/>
<path d="M305.75 159.618H292.51C291.223 159.618 290.18 160.662 290.18 161.948V174.428C290.18 175.715 291.223 176.758 292.51 176.758H305.75C307.037 176.758 308.08 175.715 308.08 174.428V161.948C308.08 160.662 307.037 159.618 305.75 159.618Z" fill="#FFB0B0"/>
<path d="M300.3 163.268H290.18V173.018H300.3V163.268Z" fill="#FFCFCF"/>
<path d="M303.19 155.618H295.06C294.657 155.618 294.33 155.945 294.33 156.348V158.888C294.33 159.292 294.657 159.618 295.06 159.618H303.19C303.593 159.618 303.92 159.292 303.92 158.888V156.348C303.92 155.945 303.593 155.618 303.19 155.618Z" fill="#FFEDED"/>
<path d="M337.33 159.618H324.09C322.803 159.618 321.76 160.662 321.76 161.948V174.428C321.76 175.715 322.803 176.758 324.09 176.758H337.33C338.617 176.758 339.66 175.715 339.66 174.428V161.948C339.66 160.662 338.617 159.618 337.33 159.618Z" fill="#FFB0B0"/>
<path d="M331.88 163.268H321.76V173.018H331.88V163.268Z" fill="#FFCFCF"/>
<path d="M334.77 155.618H326.64C326.237 155.618 325.91 155.945 325.91 156.348V158.888C325.91 159.292 326.237 159.618 326.64 159.618H334.77C335.173 159.618 335.5 159.292 335.5 158.888V156.348C335.5 155.945 335.173 155.618 334.77 155.618Z" fill="#FFEDED"/>
<path d="M368.91 159.618H355.67C354.383 159.618 353.34 160.662 353.34 161.948V174.428C353.34 175.715 354.383 176.758 355.67 176.758H368.91C370.197 176.758 371.24 175.715 371.24 174.428V161.948C371.24 160.662 370.197 159.618 368.91 159.618Z" fill="#FFB0B0"/>
<path d="M363.46 163.268H353.34V173.018H363.46V163.268Z" fill="#FFCFCF"/>
<path d="M366.35 155.618H358.22C357.817 155.618 357.49 155.945 357.49 156.348V158.888C357.49 159.292 357.817 159.618 358.22 159.618H366.35C366.753 159.618 367.08 159.292 367.08 158.888V156.348C367.08 155.945 366.753 155.618 366.35 155.618Z" fill="#FFEDED"/>
<path d="M148.88 244.818H162.12C163.407 244.818 164.45 243.775 164.45 242.488V230.008C164.45 228.722 163.407 227.678 162.12 227.678H148.88C147.593 227.678 146.55 228.722 146.55 230.008V242.488C146.55 243.775 147.593 244.818 148.88 244.818Z" fill="#FFB0B0"/>
<path d="M154.32 241.068H164.44V231.318H154.32V241.068Z" fill="#FFCFCF"/>
<path d="M151.43 227.668H159.56C159.963 227.668 160.29 227.342 160.29 226.938V224.398C160.29 223.995 159.963 223.668 159.56 223.668H151.43C151.027 223.668 150.7 223.995 150.7 224.398V226.938C150.7 227.342 151.027 227.668 151.43 227.668Z" fill="#FFEDED"/>
<path d="M117.29 244.818H130.53C131.817 244.818 132.86 243.775 132.86 242.488V230.008C132.86 228.722 131.817 227.678 130.53 227.678H117.29C116.003 227.678 114.96 228.722 114.96 230.008V242.488C114.96 243.775 116.003 244.818 117.29 244.818Z" fill="#FFB0B0"/>
<path d="M122.74 241.068H132.86V231.318H122.74V241.068Z" fill="#FFCFCF"/>
<path d="M119.84 227.668H127.97C128.373 227.668 128.7 227.342 128.7 226.938V224.398C128.7 223.995 128.373 223.668 127.97 223.668H119.84C119.437 223.668 119.11 223.995 119.11 224.398V226.938C119.11 227.342 119.437 227.668 119.84 227.668Z" fill="#FFEDED"/>
<path d="M85.71 244.818H98.95C100.237 244.818 101.28 243.775 101.28 242.488V230.008C101.28 228.722 100.237 227.678 98.95 227.678H85.71C84.4232 227.678 83.38 228.722 83.38 230.008V242.488C83.38 243.775 84.4232 244.818 85.71 244.818Z" fill="#FFB0B0"/>
<path d="M91.16 241.068H101.28V231.318H91.16V241.068Z" fill="#FFCFCF"/>
<path d="M88.26 227.668H96.39C96.7932 227.668 97.12 227.342 97.12 226.938V224.398C97.12 223.995 96.7932 223.668 96.39 223.668H88.26C87.8568 223.668 87.53 223.995 87.53 224.398V226.938C87.53 227.342 87.8568 227.668 88.26 227.668Z" fill="#FFEDED"/>
<path d="M276.2 25.3784H266.96V40.6584H276.2V25.3784Z" fill="#FFA3A3"/>
<path d="M274.56 28.9385H266.96V37.0885H274.56V28.9385Z" fill="#FFEDED"/>
<path d="M276.49 22.9984H266.67C266.256 22.9984 265.92 23.3342 265.92 23.7484V25.4884C265.92 25.9026 266.256 26.2384 266.67 26.2384H276.49C276.904 26.2384 277.24 25.9026 277.24 25.4884V23.7484C277.24 23.3342 276.904 22.9984 276.49 22.9984Z" fill="#FFECEC"/>
<path d="M297.25 25.3784H288.01V40.6584H297.25V25.3784Z" fill="#FFA3A3"/>
<path d="M295.61 28.9385H288.01V37.0885H295.61V28.9385Z" fill="#FFEDED"/>
<path d="M297.55 22.9984H287.73C287.316 22.9984 286.98 23.3342 286.98 23.7484V25.4884C286.98 25.9026 287.316 26.2384 287.73 26.2384H297.55C297.964 26.2384 298.3 25.9026 298.3 25.4884V23.7484C298.3 23.3342 297.964 22.9984 297.55 22.9984Z" fill="#FFECEC"/>
<path d="M318.31 25.3784H309.07V40.6584H318.31V25.3784Z" fill="#FFA3A3"/>
<path d="M316.67 28.9385H309.07V37.0885H316.67V28.9385Z" fill="#FFEDED"/>
<path d="M318.6 22.9984H308.78C308.366 22.9984 308.03 23.3342 308.03 23.7484V25.4884C308.03 25.9026 308.366 26.2384 308.78 26.2384H318.6C319.014 26.2384 319.35 25.9026 319.35 25.4884V23.7484C319.35 23.3342 319.014 22.9984 318.6 22.9984Z" fill="#FFECEC"/>
<path d="M339.36 25.3784H330.12V40.6584H339.36V25.3784Z" fill="#FFA3A3"/>
<path d="M337.72 28.9385H330.12V37.0885H337.72V28.9385Z" fill="#FFEDED"/>
<path d="M339.65 22.9984H329.83C329.416 22.9984 329.08 23.3342 329.08 23.7484V25.4884C329.08 25.9026 329.416 26.2384 329.83 26.2384H339.65C340.064 26.2384 340.4 25.9026 340.4 25.4884V23.7484C340.4 23.3342 340.064 22.9984 339.65 22.9984Z" fill="#FFECEC"/>
<path d="M125.02 93.4285H115.78V108.708H125.02V93.4285Z" fill="#FFA3A3"/>
<path d="M123.38 96.9984H115.78V105.148H123.38V96.9984Z" fill="#FFEDED"/>
<path d="M125.31 91.0485H115.49C115.076 91.0485 114.74 91.3842 114.74 91.7985V93.5385C114.74 93.9527 115.076 94.2885 115.49 94.2885H125.31C125.724 94.2885 126.06 93.9527 126.06 93.5385V91.7985C126.06 91.3842 125.724 91.0485 125.31 91.0485Z" fill="#FFECEC"/>
<path d="M146.08 93.4285H136.84V108.708H146.08V93.4285Z" fill="#FFA3A3"/>
<path d="M144.44 96.9984H136.84V105.148H144.44V96.9984Z" fill="#FFEDED"/>
<path d="M146.37 91.0485H136.55C136.136 91.0485 135.8 91.3842 135.8 91.7985V93.5385C135.8 93.9527 136.136 94.2885 136.55 94.2885H146.37C146.784 94.2885 147.12 93.9527 147.12 93.5385V91.7985C147.12 91.3842 146.784 91.0485 146.37 91.0485Z" fill="#FFECEC"/>
<path d="M167.13 93.4285H157.89V108.708H167.13V93.4285Z" fill="#FFA3A3"/>
<path d="M165.49 96.9984H157.89V105.148H165.49V96.9984Z" fill="#FFEDED"/>
<path d="M167.42 91.0485H157.6C157.186 91.0485 156.85 91.3842 156.85 91.7985V93.5385C156.85 93.9527 157.186 94.2885 157.6 94.2885H167.42C167.834 94.2885 168.17 93.9527 168.17 93.5385V91.7985C168.17 91.3842 167.834 91.0485 167.42 91.0485Z" fill="#FFECEC"/>
<path d="M188.18 93.4285H178.94V108.708H188.18V93.4285Z" fill="#FFA3A3"/>
<path d="M186.54 96.9984H178.94V105.148H186.54V96.9984Z" fill="#FFEDED"/>
<path d="M188.48 91.0485H178.66C178.246 91.0485 177.91 91.3842 177.91 91.7985V93.5385C177.91 93.9527 178.246 94.2885 178.66 94.2885H188.48C188.894 94.2885 189.23 93.9527 189.23 93.5385V91.7985C189.23 91.3842 188.894 91.0485 188.48 91.0485Z" fill="#FFECEC"/>
<path d="M355.55 229.538H346.31V244.818H355.55V229.538Z" fill="#FFA3A3"/>
<path d="M353.91 233.098H346.31V241.248H353.91V233.098Z" fill="#FFEDED"/>
<path d="M355.84 227.158H346.02C345.606 227.158 345.27 227.494 345.27 227.908V229.648C345.27 230.063 345.606 230.398 346.02 230.398H355.84C356.254 230.398 356.59 230.063 356.59 229.648V227.908C356.59 227.494 356.254 227.158 355.84 227.158Z" fill="#FFECEC"/>
<path d="M376.6 229.538H367.36V244.818H376.6V229.538Z" fill="#FFA3A3"/>
<path d="M374.96 233.098H367.36V241.248H374.96V233.098Z" fill="#FFEDED"/>
<path d="M376.89 227.158H367.07C366.656 227.158 366.32 227.494 366.32 227.908V229.648C366.32 230.063 366.656 230.398 367.07 230.398H376.89C377.304 230.398 377.64 230.063 377.64 229.648V227.908C377.64 227.494 377.304 227.158 376.89 227.158Z" fill="#FFECEC"/>
<path d="M397.65 229.538H388.41V244.818H397.65V229.538Z" fill="#FFA3A3"/>
<path d="M396.01 233.098H388.41V241.248H396.01V233.098Z" fill="#FFEDED"/>
<path d="M397.95 227.158H388.13C387.716 227.158 387.38 227.494 387.38 227.908V229.648C387.38 230.063 387.716 230.398 388.13 230.398H397.95C398.364 230.398 398.7 230.063 398.7 229.648V227.908C398.7 227.494 398.364 227.158 397.95 227.158Z" fill="#FFECEC"/>
<path d="M418.71 229.538H409.47V244.818H418.71V229.538Z" fill="#FFA3A3"/>
<path d="M417.07 233.098H409.47V241.248H417.07V233.098Z" fill="#FFEDED"/>
<path d="M419 227.158H409.18C408.766 227.158 408.43 227.494 408.43 227.908V229.648C408.43 230.063 408.766 230.398 409.18 230.398H419C419.414 230.398 419.75 230.063 419.75 229.648V227.908C419.75 227.494 419.414 227.158 419 227.158Z" fill="#FFECEC"/>
<path d="M281.13 93.0184H264.14V108.708H281.13V93.0184Z" fill="#FFEDED"/>
<path d="M281.12 108.698H287.97V93.0085H281.12V108.698Z" fill="#FF8B8B"/>
<path d="M264.14 93.0184L272.63 100.858L281.13 93.0184H264.14Z" fill="#FFB0B0"/>
<path d="M299.26 93.0184H282.27V108.708H299.26V93.0184Z" fill="#FFEDED"/>
<path d="M299.25 108.698H306.1V93.0085H299.25V108.698Z" fill="#FF8B8B"/>
<path d="M282.27 93.0184L290.76 100.858L299.26 93.0184H282.27Z" fill="#FFB0B0"/>
<path d="M317.39 93.0184H300.4V108.708H317.39V93.0184Z" fill="#FFEDED"/>
<path d="M317.39 108.698H324.24V93.0085H317.39V108.698Z" fill="#FF8B8B"/>
<path d="M300.4 93.0184L308.89 100.858L317.39 93.0184H300.4Z" fill="#FFB0B0"/>
<path d="M289.62 77.3285H272.63V93.0185H289.62V77.3285Z" fill="#FFEDED"/>
<path d="M289.62 93.0084H296.47V77.3184H289.62V93.0084Z" fill="#FF8B8B"/>
<path d="M272.63 77.3285L281.13 85.1685L289.62 77.3285H272.63Z" fill="#FFB0B0"/>
<path d="M307.75 77.3285H290.76V93.0185H307.75V77.3285Z" fill="#FFEDED"/>
<path d="M307.75 93.0084H314.6V77.3184H307.75V93.0084Z" fill="#FF8B8B"/>
<path d="M290.76 77.3285L299.26 85.1685L307.75 77.3285H290.76Z" fill="#FFB0B0"/>
<path d="M356.9 93.0184H339.91V108.708H356.9V93.0184Z" fill="#FFEDED"/>
<path d="M356.91 108.698H363.76V93.0085H356.91V108.698Z" fill="#FF8B8B"/>
<path d="M339.91 93.0184L348.41 100.858L356.9 93.0184H339.91Z" fill="#FFB0B0"/>
<path d="M375.04 93.0184H358.05V108.708H375.04V93.0184Z" fill="#FFEDED"/>
<path d="M375.03 108.698H381.88V93.0085H375.03V108.698Z" fill="#FF8B8B"/>
<path d="M358.05 93.0184L366.54 100.858L375.04 93.0184H358.05Z" fill="#FFB0B0"/>
<path d="M393.17 93.0184H376.18V108.708H393.17V93.0184Z" fill="#FFEDED"/>
<path d="M393.16 108.698H400.01V93.0085H393.16V108.698Z" fill="#FF8B8B"/>
<path d="M376.18 93.0184L384.67 100.858L393.17 93.0184H376.18Z" fill="#FFB0B0"/>
<path d="M365.4 77.3285H348.41V93.0185H365.4V77.3285Z" fill="#FFEDED"/>
<path d="M365.4 93.0084H372.25V77.3184H365.4V93.0084Z" fill="#FF8B8B"/>
<path d="M348.41 77.3285L356.9 85.1685L365.4 77.3285H348.41Z" fill="#FFB0B0"/>
<path d="M383.53 77.3285H366.54V93.0185H383.53V77.3285Z" fill="#FFEDED"/>
<path d="M383.53 93.0084H390.38V77.3184H383.53V93.0084Z" fill="#FF8B8B"/>
<path d="M366.54 77.3285L375.04 85.1685L383.53 77.3285H366.54Z" fill="#FFB0B0"/>
<path d="M200.98 229.118H183.99V244.808H200.98V229.118Z" fill="#FFEDED"/>
<path d="M200.98 244.818H207.83V229.128H200.98V244.818Z" fill="#FF8B8B"/>
<path d="M183.99 229.118L192.49 236.968L200.98 229.118H183.99Z" fill="#FFB0B0"/>
<path d="M219.11 229.118H202.12V244.808H219.11V229.118Z" fill="#FFEDED"/>
<path d="M219.11 244.818H225.96V229.128H219.11V244.818Z" fill="#FF8B8B"/>
<path d="M202.12 229.118L210.62 236.968L219.11 229.118H202.12Z" fill="#FFB0B0"/>
<path d="M237.24 229.118H220.25V244.808H237.24V229.118Z" fill="#FFEDED"/>
<path d="M237.24 244.818H244.09V229.128H237.24V244.818Z" fill="#FF8B8B"/>
<path d="M220.25 229.118L228.75 236.968L237.24 229.118H220.25Z" fill="#FFB0B0"/>
<path d="M209.47 213.428H192.48V229.118H209.47V213.428Z" fill="#FFEDED"/>
<path d="M209.48 229.128H216.33V213.438H209.48V229.128Z" fill="#FF8B8B"/>
<path d="M192.49 213.428L200.98 221.278L209.47 213.428H192.49Z" fill="#FFB0B0"/>
<path d="M227.61 213.428H210.62V229.118H227.61V213.428Z" fill="#FFEDED"/>
<path d="M227.6 229.128H234.45V213.438H227.6V229.128Z" fill="#FF8B8B"/>
<path d="M210.62 213.428L219.11 221.278L227.61 213.428H210.62Z" fill="#FFB0B0"/>
<path d="M276.76 229.118H259.77V244.808H276.76V229.118Z" fill="#FFEDED"/>
<path d="M276.75 244.818H283.6V229.128H276.75V244.818Z" fill="#FF8B8B"/>
<path d="M259.77 229.118L268.26 236.968L276.76 229.118H259.77Z" fill="#FFB0B0"/>
<path d="M294.89 229.118H277.9V244.808H294.89V229.118Z" fill="#FFEDED"/>
<path d="M294.89 244.818H301.74V229.128H294.89V244.818Z" fill="#FF8B8B"/>
<path d="M277.9 229.118L286.39 236.968L294.89 229.118H277.9Z" fill="#FFB0B0"/>
<path d="M313.02 229.118H296.03V244.808H313.02V229.118Z" fill="#FFEDED"/>
<path d="M313.02 244.818H319.87V229.128H313.02V244.818Z" fill="#FF8B8B"/>
<path d="M296.03 229.118L304.52 236.968L313.02 229.118H296.03Z" fill="#FFB0B0"/>
<path d="M285.25 213.428H268.26V229.118H285.25V213.428Z" fill="#FFEDED"/>
<path d="M285.25 229.128H292.1V213.438H285.25V229.128Z" fill="#FF8B8B"/>
<path d="M268.26 213.428L276.76 221.278L285.25 213.428H268.26Z" fill="#FFB0B0"/>
<path d="M303.38 213.428H286.39V229.118H303.38V213.428Z" fill="#FFEDED"/>
<path d="M303.39 229.128H310.24V213.438H303.39V229.128Z" fill="#FF8B8B"/>
<path d="M286.39 213.428L294.89 221.278L303.38 213.428H286.39Z" fill="#FFB0B0"/>
<path d="M112.77 158.208H92.69V176.758H112.77V158.208Z" fill="#FFEDED"/>
<path d="M112.77 176.758H120.87V158.208H112.77V176.758Z" fill="#FF8B8B"/>
<path d="M92.69 158.208L102.73 167.488L112.78 158.208H92.69Z" fill="#FFB0B0"/>
<path d="M134.2 158.208H114.12V176.758H134.2V158.208Z" fill="#FFEDED"/>
<path d="M134.2 176.758H142.3V158.208H134.2V176.758Z" fill="#FF8B8B"/>
<path d="M114.13 158.208L124.17 167.488L134.21 158.208H114.13Z" fill="#FFB0B0"/>
<path d="M155.64 158.208H135.56V176.758H155.64V158.208Z" fill="#FFEDED"/>
<path d="M155.64 176.758H163.74V158.208H155.64V176.758Z" fill="#FF8B8B"/>
<path d="M135.56 158.208L145.6 167.488L155.64 158.208H135.56Z" fill="#FFB0B0"/>
<path d="M122.81 139.658H102.73V158.208H122.81V139.658Z" fill="#FFEDED"/>
<path d="M122.81 158.219H130.91V139.669H122.81V158.219Z" fill="#FF8B8B"/>
<path d="M102.73 139.658L112.78 148.938L122.82 139.658H102.73Z" fill="#FFB0B0"/>
<path d="M144.25 139.658H124.17V158.208H144.25V139.658Z" fill="#FFEDED"/>
<path d="M144.25 158.219H152.35V139.669H144.25V158.219Z" fill="#FF8B8B"/>
<path d="M124.17 139.658L134.21 148.938L144.25 139.658H124.17Z" fill="#FFB0B0"/>
<path d="M371.61 27.9884H357.9V40.6484H371.61V27.9884Z" fill="#FFEDED"/>
<path d="M371.61 40.6584H377.14V27.9984H371.61V40.6584Z" fill="#FF8B8B"/>
<path d="M357.9 27.9884L364.75 34.3184L371.61 27.9884H357.9Z" fill="#FFB0B0"/>
<path d="M386.24 27.9884H372.53V40.6484H386.24V27.9884Z" fill="#FFEDED"/>
<path d="M386.24 40.6584H391.77V27.9984H386.24V40.6584Z" fill="#FF8B8B"/>
<path d="M372.53 27.9884L379.38 34.3184L386.24 27.9884H372.53Z" fill="#FFB0B0"/>
<path d="M400.87 27.9884H387.16V40.6484H400.87V27.9884Z" fill="#FFEDED"/>
<path d="M400.87 40.6584H406.4V27.9984H400.87V40.6584Z" fill="#FF8B8B"/>
<path d="M387.16 27.9884L394.02 34.3184L400.87 27.9884H387.16Z" fill="#FFB0B0"/>
<path d="M378.46 15.3285H364.75V27.9885H378.46V15.3285Z" fill="#FFEDED"/>
<path d="M378.47 27.9984H384V15.3384H378.47V27.9984Z" fill="#FF8B8B"/>
<path d="M364.75 15.3285L371.61 21.6585L378.46 15.3285H364.75Z" fill="#FFB0B0"/>
<path d="M393.1 15.3285H379.39V27.9885H393.1V15.3285Z" fill="#FFEDED"/>
<path d="M393.1 27.9984H398.63V15.3384H393.1V27.9984Z" fill="#FF8B8B"/>
<path d="M379.38 15.3285L386.24 21.6585L393.1 15.3285H379.38Z" fill="#FFB0B0"/>
<path d="M250 373.098C357.082 373.098 443.89 368.03 443.89 361.778C443.89 355.527 357.082 350.458 250 350.458C142.918 350.458 56.11 355.527 56.11 361.778C56.11 368.03 142.918 373.098 250 373.098Z" fill="#FFEDED"/>
<path d="M334.33 139.428H211.34C194.031 139.428 180 153.46 180 170.768V330.438C180 347.747 194.031 361.778 211.34 361.778H334.33C351.639 361.778 365.67 347.747 365.67 330.438V170.768C365.67 153.46 351.639 139.428 334.33 139.428Z" fill="#FF475A"/>
<path d="M331.22 125.208H214.44V160.208H331.22V125.208Z" fill="#FF475A"/>
<path opacity="0.3" d="M331.22 130.538L214.44 133.988V125.208H331.22V130.538Z" fill="#263238"/>
<path d="M335.86 90.3784H209.81C208.258 90.3784 207 91.6365 207 93.1884V124.508C207 126.06 208.258 127.318 209.81 127.318H335.86C337.412 127.318 338.67 126.06 338.67 124.508V93.1884C338.67 91.6365 337.412 90.3784 335.86 90.3784Z" fill="#FF475A"/>
<path opacity="0.6" d="M335.86 90.3784H209.81C208.258 90.3784 207 91.6365 207 93.1884V124.508C207 126.06 208.258 127.318 209.81 127.318H335.86C337.412 127.318 338.67 126.06 338.67 124.508V93.1884C338.67 91.6365 337.412 90.3784 335.86 90.3784Z" fill="#FFFCFC"/>
<path opacity="0.9" d="M247.5 190.098H365.67V311.648H247.5C245.377 311.648 243.274 311.23 241.312 310.418C239.35 309.605 237.568 308.414 236.066 306.912C234.565 305.411 233.373 303.628 232.561 301.666C231.748 299.705 231.33 297.602 231.33 295.478V206.258C231.333 201.972 233.037 197.861 236.07 194.831C239.102 191.801 243.213 190.098 247.5 190.098Z" fill="#FFFCFC"/>
<path opacity="0.9" d="M193.5 311.648H180V190.098H193.5C197.789 190.098 201.901 191.802 204.934 194.835C207.966 197.867 209.67 201.98 209.67 206.268V295.488C209.667 299.775 207.963 303.886 204.93 306.916C201.898 309.946 197.787 311.648 193.5 311.648Z" fill="#FFFCFC"/>
<path d="M74.44 219.979L70.44 220.679C66.78 223.209 70.3 228.539 70.3 228.539L71.17 231.919C71.2859 232.454 71.602 232.925 72.0536 233.236C72.5053 233.546 73.0584 233.672 73.6 233.589L76.38 233.129C77.0129 232.989 77.5701 232.616 77.9407 232.084C78.3113 231.552 78.4681 230.901 78.38 230.259L78.02 227.189C77.9176 226.318 77.6386 225.477 77.2 224.719L74.44 219.979Z" fill="#FFC3BD"/>
<path d="M94.18 168.538L90.33 175.418L86.5 182.338L82.81 189.278L81.06 192.738L80.22 194.448L80.01 194.878L79.91 195.088C79.91 195.188 79.91 195.088 79.91 195.148H79.85H79.75C79.75 195.148 79.75 195.148 79.75 195.248V200.378C79.75 203.118 79.75 205.858 79.75 208.598L79.59 216.808C79.49 219.548 79.42 222.288 79.27 225.028L66.75 225.628C66.28 222.958 65.89 220.288 65.48 217.628L64.37 209.628C64.03 206.958 63.68 204.288 63.37 201.628L62.91 197.628L62.79 196.628C62.5917 194.651 62.7201 192.654 63.17 190.718C63.3297 190.072 63.5233 189.435 63.75 188.808L64.18 187.628L64.94 185.628C65.46 184.298 66 182.978 66.54 181.628C67.63 179.018 68.76 176.458 69.95 173.938C72.3 168.858 74.73 163.938 77.46 159.018L94.18 168.538Z" fill="#FF475A"/>
<g opacity="0.2">
<path opacity="0.2" d="M94.18 168.538L90.33 175.418L86.5 182.338L82.81 189.278L81.06 192.738L80.22 194.448L80.01 194.878L79.91 195.088C79.91 195.188 79.91 195.088 79.91 195.148H79.85H79.75C79.75 195.148 79.75 195.148 79.75 195.248V200.378C79.75 203.118 79.75 205.858 79.75 208.598L79.59 216.808C79.49 219.548 79.42 222.288 79.27 225.028L66.75 225.628C66.28 222.958 65.89 220.288 65.48 217.628L64.37 209.628C64.03 206.958 63.68 204.288 63.37 201.628L62.91 197.628L62.79 196.628C62.5917 194.651 62.7201 192.654 63.17 190.718C63.3297 190.072 63.5233 189.435 63.75 188.808L64.18 187.628L64.94 185.628C65.46 184.298 66 182.978 66.54 181.628C67.63 179.018 68.76 176.458 69.95 173.938C72.3 168.858 74.73 163.938 77.46 159.018L94.18 168.538Z" fill="#FFFCFC"/>
</g>
<path d="M158.63 149.869C160.79 132.449 162.63 120.109 173.14 120.109C180.97 120.109 188.98 135.709 187.3 153.189C185.69 169.909 176.01 182.369 165.93 183.339L159.78 354.859C159.662 356.678 158.863 358.387 157.541 359.643C156.22 360.9 154.473 361.612 152.65 361.639H148.5C147.634 361.66 146.773 361.494 145.977 361.152C145.181 360.809 144.468 360.298 143.888 359.653C143.309 359.009 142.876 358.247 142.619 357.419C142.362 356.591 142.287 355.718 142.4 354.859L160.19 179.979C156.07 174.609 157.09 162.339 158.63 149.869Z" fill="#FF475A"/>
<path opacity="0.7" d="M158.63 149.869C160.79 132.449 162.63 120.109 173.14 120.109C180.97 120.109 188.98 135.709 187.3 153.189C185.69 169.909 176.01 182.369 165.93 183.339L159.78 354.859C159.662 356.678 158.863 358.387 157.541 359.643C156.22 360.9 154.473 361.612 152.65 361.639H148.5C147.634 361.66 146.773 361.494 145.977 361.152C145.181 360.809 144.468 360.298 143.888 359.653C143.309 359.009 142.876 358.247 142.619 357.419C142.362 356.591 142.287 355.718 142.4 354.859L160.19 179.979C156.07 174.609 157.09 162.339 158.63 149.869Z" fill="#FFFCFC"/>
<path d="M133.27 358.179C126.27 357.639 122.57 352.849 122.74 347.769C122.84 344.969 113.88 344.719 113.88 344.719C115.88 353.399 114.14 354.639 113.7 356.879C113.26 359.119 113.55 361.598 115.4 361.648C117.62 361.698 118.63 361.279 121.4 361.379C124.63 361.509 126.8 361.638 132.53 361.648C134.81 361.648 136.39 358.419 133.27 358.179Z" fill="#FF475A"/>
<path d="M81.55 358.368C77.01 356.828 76.78 352.128 77.38 347.288C77.74 344.428 68.83 344.978 68.83 344.978C68.18 351.888 66.92 352.158 65.72 354.258C64.52 356.358 64.46 358.648 66.19 359.258C68.26 360.018 69.41 359.808 72.1 360.258C75.26 360.818 78.1 361.588 81.95 361.588C84.24 361.648 84.46 359.358 81.55 358.368Z" fill="#FF475A"/>
<path d="M126.54 206.438C126.54 206.438 130.87 241.748 126.87 272.438C127.08 298.358 123.37 348.998 123.37 348.998C120.315 349.722 117.13 349.691 114.09 348.908C114.09 348.908 100.32 313.638 103.87 271.998C90.8 230.258 91.73 207.758 91.73 207.758L126.54 206.438Z" fill="#263238"/>
<path d="M112.78 206.938C112.78 206.938 105.67 257.598 97.88 281.738C89.69 307.088 78 346.538 77.68 348.408C74.05 348.748 70.68 348.678 67.97 347.508C67.97 347.508 63.72 303.108 74.19 275.588C76.83 218.128 82.99 208.018 82.99 208.018L112.78 206.938Z" fill="#263238"/>
<path d="M93.27 138.298C94.67 143.168 96.15 151.138 94.37 155.468C94.37 155.468 100.87 155.558 110.37 162.608C114.5 156.048 110.17 154.948 110.17 154.948C106.28 154.188 105.5 149.518 105.37 145.868L93.27 138.298Z" fill="#FFC3BD"/>
<path d="M125 166.868C125 160.938 120.89 156.758 113.33 155.408C106.33 154.158 96.61 153.978 90.19 155.938C83.77 157.898 81.89 161.498 83.1 166.398C88.33 187.548 82.1 201.398 83.02 208.018C99.02 209.548 123.11 209.178 126.57 206.438C128.89 203.088 125.5 184.938 124.2 182.298C130.44 177.628 125 170.178 125 166.868Z" fill="#FF475A"/>
<path d="M110.8 129.188C110.95 129.848 111.41 130.298 111.8 130.188C112.19 130.078 112.46 129.488 112.32 128.838C112.18 128.188 111.72 127.728 111.32 127.838C110.92 127.948 110.66 128.538 110.8 129.188Z" fill="#263238"/>
<path d="M111.14 127.918L112.61 127.128C112.61 127.128 112.07 128.538 111.14 127.918Z" fill="#263238"/>
<path d="M111.32 130.458C112.219 131.825 113.302 133.06 114.54 134.128C114.259 134.438 113.914 134.683 113.529 134.845C113.144 135.007 112.728 135.084 112.31 135.068L111.32 130.458Z" fill="#ED847E"/>
<path d="M111.2 134.958C109.09 134.958 107.36 132.028 107.34 128.418C107.282 126.826 107.626 125.244 108.34 123.818C108.577 123.271 108.956 122.798 109.438 122.446C109.92 122.094 110.487 121.878 111.08 121.818C113.18 121.818 114.91 124.748 114.94 128.358C114.981 129.954 114.616 131.533 113.88 132.948C113.645 133.497 113.267 133.973 112.785 134.325C112.303 134.677 111.734 134.892 111.14 134.948L111.2 134.958ZM111.2 122.328C110.695 122.386 110.214 122.578 109.808 122.884C109.402 123.19 109.085 123.599 108.89 124.068C108.194 125.41 107.85 126.907 107.89 128.418C107.89 131.748 109.42 134.418 111.25 134.418C111.754 134.358 112.234 134.165 112.639 133.859C113.045 133.554 113.363 133.146 113.56 132.678C114.256 131.337 114.6 129.84 114.56 128.328C114.49 125.038 113 122.328 111.15 122.328H111.2Z" fill="#263238"/>
<path d="M111.5 125.169C111.561 125.089 111.589 124.989 111.58 124.889C111.574 124.837 111.558 124.787 111.532 124.742C111.506 124.697 111.472 124.658 111.431 124.626C111.39 124.595 111.343 124.571 111.293 124.558C111.243 124.545 111.191 124.542 111.14 124.549C110.522 124.609 109.927 124.817 109.405 125.155C108.883 125.492 108.449 125.95 108.14 126.489C108.11 126.58 108.115 126.679 108.152 126.767C108.19 126.856 108.258 126.928 108.344 126.97C108.43 127.013 108.528 127.023 108.621 126.999C108.714 126.974 108.796 126.918 108.85 126.839C109.097 126.413 109.443 126.053 109.859 125.79C110.276 125.527 110.749 125.369 111.24 125.329C111.344 125.311 111.437 125.253 111.5 125.169Z" fill="#263238"/>
<path d="M89.17 132.708C91.37 140.628 92.17 144.029 97 147.289C104.31 152.199 113.35 147.778 113.51 139.378C113.65 131.808 110.02 120.128 101.63 118.598C93.24 117.068 87 124.798 89.17 132.708Z" fill="#FFC3BD"/>
<path d="M77.52 158.538C81.89 152.688 101.8 152.148 116.72 154.468C131.64 156.788 130.31 171.568 130.63 181.688C130.95 191.808 134.49 263.048 129.95 289.868C109.3 293.368 76.6 291.368 67.12 288.208C69.12 278.538 76.49 204.658 76.6 185.548C76.65 176.208 72.91 164.708 77.52 158.538Z" fill="#FF475A"/>
<path opacity="0.3" d="M77.52 158.538C81.89 152.688 101.8 152.148 116.72 154.468C131.64 156.788 130.31 171.568 130.63 181.688C130.95 191.808 134.49 263.048 129.95 289.868C109.3 293.368 76.6 291.368 67.12 288.208C69.12 278.538 76.49 204.658 76.6 185.548C76.65 176.208 72.91 164.708 77.52 158.538Z" fill="#FFFCFC"/>
<path opacity="0.5" d="M131.05 192.468C127.62 189.228 124.61 186.048 123.5 183.968C119.5 176.518 126.59 197.448 131.61 208.118C131.42 202.168 131.22 196.828 131.05 192.468Z" fill="#FF475A"/>
<path d="M155.14 190.289L154.62 194.289C155.93 198.539 162.07 196.779 162.07 196.779L165.56 196.969C166.106 197.021 166.651 196.863 167.084 196.526C167.518 196.19 167.806 195.7 167.89 195.159L168.28 192.369C168.34 191.722 168.154 191.077 167.759 190.562C167.364 190.046 166.79 189.699 166.15 189.589L163.15 189.009C162.29 188.823 161.4 188.823 160.54 189.009L155.14 190.289Z" fill="#FFC3BD"/>
<path d="M154.05 190.748C155.75 187.748 159.55 187.908 162.44 187.308C162.93 187.198 163.84 188.158 163.3 188.748C162.967 189.159 162.554 189.497 162.087 189.743C161.619 189.988 161.107 190.137 160.58 190.178C160.58 191.268 159.24 194.108 155.51 193.778C154.642 193.001 154.117 191.912 154.05 190.748Z" fill="#FFC3BD"/>
<path d="M127.46 161.538L128.88 164.378L130.41 167.308C131.41 169.258 132.47 171.198 133.55 173.108C134.63 175.018 135.74 176.868 136.86 178.698C137.42 179.618 138 180.498 138.57 181.378C138.86 181.828 139.15 182.248 139.45 182.678L139.88 183.318L140.1 183.638L140.17 183.748C140.503 184.342 141 184.828 141.6 185.148C142.299 185.41 143.023 185.601 143.76 185.718C144.76 185.908 145.76 186.068 146.76 186.208C148.82 186.508 150.98 186.708 153.16 186.878C154.25 186.948 155.35 187.038 156.45 187.098L159.68 187.248L161.05 199.708C159.71 200.008 158.56 200.228 157.31 200.438C156.06 200.648 154.86 200.848 153.62 200.998C151.15 201.318 148.62 201.528 146.04 201.608C144.75 201.608 143.43 201.608 142.04 201.608C141.37 201.608 140.67 201.538 139.97 201.478C139.075 201.412 138.185 201.278 137.31 201.078C133.374 200.185 129.801 198.121 127.06 195.158L126.24 194.228L125.61 193.498C125.18 193.008 124.75 192.498 124.35 192.018C123.52 191.018 122.75 190.018 121.98 189.018C120.45 187.018 118.98 185.018 117.65 182.908C116.32 180.798 114.95 178.768 113.65 176.648C113.04 175.588 112.42 174.518 111.82 173.448C111.22 172.378 110.67 171.318 110.04 170.068L127.46 161.538Z" fill="#FF475A"/>
<g opacity="0.3">
<path opacity="0.3" d="M127.46 161.538L128.88 164.378L130.41 167.308C131.41 169.258 132.47 171.198 133.55 173.108C134.63 175.018 135.74 176.868 136.86 178.698C137.42 179.618 138 180.498 138.57 181.378C138.86 181.828 139.15 182.248 139.45 182.678L139.88 183.318L140.1 183.638L140.17 183.748C140.503 184.342 141 184.828 141.6 185.148C142.299 185.41 143.023 185.601 143.76 185.718C144.76 185.908 145.76 186.068 146.76 186.208C148.82 186.508 150.98 186.708 153.16 186.878C154.25 186.948 155.35 187.038 156.45 187.098L159.68 187.248L161.05 199.708C159.71 200.008 158.56 200.228 157.31 200.438C156.06 200.648 154.86 200.848 153.62 200.998C151.15 201.318 148.62 201.528 146.04 201.608C144.75 201.608 143.43 201.608 142.04 201.608C141.37 201.608 140.67 201.538 139.97 201.478C139.075 201.412 138.185 201.278 137.31 201.078C133.374 200.185 129.801 198.121 127.06 195.158L126.24 194.228L125.61 193.498C125.18 193.008 124.75 192.498 124.35 192.018C123.52 191.018 122.75 190.018 121.98 189.018C120.45 187.018 118.98 185.018 117.65 182.908C116.32 180.798 114.95 178.768 113.65 176.648C113.04 175.588 112.42 174.518 111.82 173.448C111.22 172.378 110.67 171.318 110.04 170.068L127.46 161.538Z" fill="#FFFCFC"/>
</g>
<path opacity="0.5" d="M101.38 206.788C101.38 206.788 87.53 205.848 83.49 203.898C88.36 207.138 95 207.538 101.38 206.788Z" fill="#FF475A"/>
<path opacity="0.5" d="M99.82 208.098C99.82 208.098 89.62 208.618 86.43 207.548C90.39 209.478 95.31 209.218 99.82 208.098Z" fill="#FF475A"/>
<path d="M102 115.098C86.11 108.208 72 114.388 77.22 125.798C82.44 137.208 70.44 139.408 68.22 152.318C66 165.228 71.04 174.648 84.22 178.758C101.15 184.038 116.73 181.648 115.77 165.758C114.81 149.868 105.47 139.108 108.12 131.438C110.77 123.768 112.85 112.538 102 115.098Z" fill="#263238"/>
<path d="M106.38 131.708H106.3C106.238 131.686 106.187 131.639 106.159 131.579C106.131 131.519 106.127 131.451 106.15 131.388C106.7 129.878 113.84 127.638 114.65 127.388C114.714 127.37 114.782 127.377 114.84 127.409C114.898 127.441 114.941 127.495 114.96 127.558C114.979 127.621 114.973 127.688 114.943 127.746C114.913 127.804 114.862 127.848 114.8 127.868C111.8 128.788 106.97 130.608 106.62 131.568C106.596 131.611 106.562 131.647 106.519 131.672C106.477 131.696 106.429 131.709 106.38 131.708Z" fill="#263238"/>
<path d="M104.8 135.288C105.061 136.032 105.483 136.71 106.036 137.272C106.59 137.833 107.26 138.266 108 138.538C109.82 139.068 110.73 136.758 110.22 134.458C109.76 132.388 108.22 129.608 106.43 130.118C104.64 130.628 104 133.268 104.8 135.288Z" fill="#FFC3BD"/>
<path opacity="0.1" d="M352 356.318C353.807 355.087 355.483 353.673 357 352.098H301.23L298.53 301.538H365.67V297.318H298.3L295.59 246.738H365.67V242.538H295.37L292.66 191.958H365.66V187.738H292.44L289.73 137.158H331.22V132.938H289.5L287.23 90.4185H280.56L295.08 361.808H301.75L301.46 356.358L352 356.318Z" fill="#263238"/>
<path d="M365.24 64.9985L366.96 74.9985H289L287.28 64.9985H280.61L331.7 363.219H338.37L336.65 353.219H414.65L416.37 363.219H423L371.91 64.9985H365.24ZM367.68 79.2185L376.35 129.799H298.35L289.68 79.2185H367.68ZM317.14 239.399L308.47 188.819H386.47L395.14 239.399H317.14ZM395.86 243.619L404.53 294.199H326.53L317.86 243.619H395.86ZM307.74 184.619L299.07 134.039H377.07L385.74 184.619H307.74ZM335.93 349.019L327.26 298.439H405.26L413.93 349.019H335.93Z" fill="#263238"/>
<path d="M361.54 66.6384C362.215 64.9745 363.435 63.5889 365 62.7084C365.482 61.0557 365.369 59.2862 364.68 57.7084L382.68 50.1484C381.74 56.3984 381.01 61.3384 383.55 64.1484C380.11 66.6984 373.81 71.2784 366.55 71.7284C359.29 72.1784 360.59 69.3084 361.54 66.6384Z" fill="#B55B52"/>
<path d="M360.66 41.5385L360.77 47.6185C360.77 47.6185 358.46 48.1884 357.07 47.1684C357.742 45.0045 358.981 43.0604 360.66 41.5385Z" fill="#A02724"/>
<path d="M360.76 40.6984C360.69 41.4184 360.25 41.9584 359.76 41.9084C359.27 41.8584 358.97 41.2384 359.03 40.5184C359.09 39.7984 359.54 39.2484 360.03 39.2984C360.52 39.3484 360.83 39.9784 360.76 40.6984Z" fill="#263238"/>
<path d="M360 35.0285C360.012 35.0972 360.041 35.1617 360.085 35.2159C360.129 35.2702 360.185 35.3124 360.25 35.3385C360.751 35.5188 361.201 35.8175 361.561 36.2093C361.922 36.6011 362.182 37.0743 362.32 37.5885C362.331 37.6433 362.352 37.6953 362.383 37.7416C362.414 37.7879 362.454 37.8276 362.501 37.8584C362.547 37.8891 362.6 37.9102 362.654 37.9205C362.709 37.9309 362.765 37.9302 362.82 37.9185C362.875 37.9078 362.927 37.8863 362.973 37.8553C363.019 37.8242 363.059 37.7843 363.09 37.7377C363.121 37.6912 363.142 37.639 363.152 37.5842C363.162 37.5294 363.162 37.4731 363.15 37.4185C362.984 36.763 362.66 36.1579 362.207 35.656C361.754 35.154 361.185 34.7704 360.55 34.5385C360.478 34.512 360.4 34.5052 360.325 34.5188C360.249 34.5324 360.179 34.5659 360.121 34.6159C360.063 34.6659 360.019 34.7305 359.994 34.803C359.969 34.8756 359.965 34.9534 359.98 35.0285H360Z" fill="#263238"/>
<path d="M385.39 40.4585C384.01 49.2485 382.88 55.1885 377.39 58.4585C366.49 64.9185 360.82 59.5185 359.54 50.4585C358.39 42.3085 360.84 29.2985 369.84 26.6785C371.832 26.0957 373.94 26.028 375.966 26.4815C377.991 26.9351 379.869 27.8952 381.422 29.272C382.976 30.6487 384.155 32.3971 384.849 34.3536C385.543 36.31 385.729 38.4105 385.39 40.4585Z" fill="#B55B52"/>
<path d="M366.65 44.4485C362.65 43.5685 361.44 39.1985 363.91 37.5485C362.27 33.9885 359.91 33.3585 359.97 29.1485C360.03 24.9385 364.4 19.8985 373.47 20.6985C372.22 21.3985 370.93 22.0285 370.93 22.0285C370.93 22.0285 377.93 20.8585 383.61 24.1685C389.29 27.4785 392.48 25.4485 392.48 25.4485C392.441 26.037 392.243 26.6039 391.906 27.0884C391.57 27.5728 391.108 27.9566 390.57 28.1985C392.02 28.9485 395.48 35.8585 390.15 41.7785C384.82 47.6985 383 51.6285 384.86 53.9985C382.19 56.8185 375.86 56.6485 371.72 54.3885C367.58 52.1285 366.65 44.4485 366.65 44.4485Z" fill="#263238"/>
<path d="M371.55 43.4385C371.255 44.3552 370.781 45.2044 370.157 45.9372C369.532 46.6701 368.768 47.272 367.91 47.7085C365.61 48.8685 363.91 46.9185 364.15 44.4885C364.35 42.3085 365.78 39.0685 368.3 38.9285C368.851 38.9033 369.4 39.0158 369.897 39.256C370.394 39.4962 370.823 39.8564 371.145 40.3041C371.468 40.7517 371.674 41.2728 371.745 41.8201C371.815 42.3673 371.748 42.9236 371.55 43.4385Z" fill="#B55B52"/>
<path d="M358.88 273.118L372.44 273.248L371.93 289.238L360.6 289.148L358.88 273.118Z" fill="#B55B52"/>
<path opacity="0.2" d="M358.89 273.118L372.44 273.248L372.15 282.208L359.85 282.098L358.89 273.118Z" fill="black"/>
<path d="M373.27 209.418C378 188.418 385.83 166.158 377.58 147.278L339.92 150.538C339.92 150.538 343.65 195.318 344.66 214.248C345.66 233.918 358.47 279.318 358.47 279.318H373.98C373.98 279.318 376.39 231.198 373.27 209.418Z" fill="#FF475A"/>
<path d="M374.09 294.188H370.52L369.65 292.989L368.17 294.198H348.17C347.98 292.818 348.167 291.412 348.71 290.128C348.71 290.128 355.64 288.998 358.33 287.128C358.557 286.968 358.814 286.857 359.086 286.802C359.358 286.747 359.639 286.749 359.91 286.808C362.33 287.268 368.73 288.309 372.19 286.959C372.276 286.935 372.366 286.93 372.454 286.945C372.542 286.96 372.625 286.993 372.699 287.044C372.772 287.094 372.833 287.16 372.879 287.237C372.924 287.314 372.952 287.4 372.96 287.489C373.162 289.748 373.54 291.988 374.09 294.188Z" fill="#263238"/>
<path d="M416.93 256.018L429.49 250.898L436.21 265.428L425.72 269.718L416.93 256.018Z" fill="#B55B52"/>
<path opacity="0.2" d="M416.93 256.018L429.5 250.908L433.26 259.038L421.86 263.688L416.93 256.018Z" fill="black"/>
<path d="M415.63 205.588C414.87 185.048 413.63 154.329 405.89 145.589L363.74 148.458C363.74 148.458 379.49 192.148 385.56 210.618C391.87 229.808 419.4 261.778 419.4 261.778L432.94 256.158C432.94 256.158 423.23 228.418 415.63 205.588Z" fill="#FF475A"/>
<path d="M355.44 65.0085C367.821 62.6861 380.422 61.747 393.01 62.2085C394.736 62.3063 396.425 62.7554 397.972 63.5283C399.518 64.3012 400.891 65.3816 402.006 66.7033C403.121 68.0251 403.955 69.5605 404.456 71.2155C404.957 72.8705 405.115 74.6103 404.92 76.3285C401.74 106.238 407.82 141.398 407.75 147.258C407.75 147.258 352.82 169.868 338.13 152.738C331.03 117.098 341.24 86.0485 346.01 73.0685C346.757 71.0283 348.018 69.2149 349.669 67.8032C351.321 66.3915 353.308 65.429 355.44 65.0085Z" fill="#FF475A"/>
<path opacity="0.1" d="M373.27 209.418C373.67 212.158 373.97 215.318 374.2 218.748C364.664 220.375 355.004 221.165 345.33 221.108C345 218.608 344.77 216.308 344.66 214.278C344.51 211.458 344.3 208.068 344.05 204.338C354.207 204.844 364.384 204.751 374.53 204.058C374.09 205.852 373.67 207.638 373.27 209.418Z" fill="#263238"/>
<path opacity="0.1" d="M416 206.669C409.05 209.989 399.06 213.379 387.75 216.039C386.918 214.261 386.187 212.438 385.56 210.579C384.87 208.479 384.05 206.039 383.15 203.389C393.961 202.413 404.713 200.864 415.36 198.749C415.46 201.119 415.55 203.409 415.63 205.589L416 206.669Z" fill="#263238"/>
<path d="M418.53 199.198C410.53 207.198 377.3 217.098 351.32 213.078C349.793 209.738 348.578 206.263 347.69 202.698C347.073 205.836 346.805 209.032 346.89 212.228C344.231 211.635 341.623 210.833 339.09 209.828C337.32 196.248 332.74 143.238 334.81 114.888C336.88 86.5385 346.25 68.6785 348.17 67.3485C350.09 66.0185 362.9 62.3485 377.62 61.2785C391.07 60.2785 403.06 63.5685 405.39 67.5685C409.22 73.5685 406.27 117.848 407.75 131.568C409.23 145.288 417.35 177.648 418.53 199.198Z" fill="#FF475A"/>
<path opacity="0.3" d="M418.53 199.198C410.53 207.198 377.3 217.098 351.32 213.078C349.793 209.738 348.578 206.263 347.69 202.698C347.073 205.836 346.805 209.032 346.89 212.228C344.231 211.635 341.623 210.833 339.09 209.828C337.32 196.248 332.74 143.238 334.81 114.888C336.88 86.5385 346.25 68.6785 348.17 67.3485C350.09 66.0185 362.9 62.3485 377.62 61.2785C391.07 60.2785 403.06 63.5685 405.39 67.5685C409.22 73.5685 406.27 117.848 407.75 131.568C409.23 145.288 417.35 177.648 418.53 199.198Z" fill="#FFFCFC"/>
<path d="M440.53 266.209L438.3 268.139L436.91 267.749L436.53 269.679L423.08 281.309C422.082 280.324 421.364 279.092 421 277.739C421 277.739 424.7 273.889 424.52 270.549C424.507 270.424 424.53 270.298 424.587 270.186C424.644 270.074 424.732 269.981 424.84 269.919C426.42 269.039 432.62 265.439 434.64 261.859C434.688 261.773 434.755 261.7 434.837 261.646C434.918 261.591 435.01 261.556 435.107 261.543C435.205 261.531 435.303 261.541 435.396 261.573C435.488 261.605 435.572 261.658 435.64 261.729C437.153 263.344 438.788 264.842 440.53 266.209Z" fill="#263238"/>
<path d="M298.81 105.838L299.05 111.548C297.17 117.238 290.27 113.548 290.27 113.548L286.27 113.108C285.562 112.991 284.919 112.624 284.459 112.074C283.998 111.523 283.75 110.826 283.76 110.108L283.56 106.108C283.466 105.291 283.696 104.469 284.201 103.818C284.705 103.168 285.444 102.741 286.26 102.628L289.79 102.428C290.822 102.368 291.852 102.564 292.79 102.998L298.81 105.838Z" fill="#B55B52"/>
<path d="M300 106.698C298.32 102.088 293.93 101.628 290.66 100.198C290.1 99.9585 288.97 101.108 289.55 102.048C289.851 102.654 290.273 103.193 290.788 103.631C291.304 104.07 291.903 104.399 292.55 104.598C292.46 106.128 293.74 110.378 298.06 110.648C299.169 109.614 299.859 108.208 300 106.698Z" fill="#B55B52"/>
<path opacity="0.5" d="M338 93.2685C336.366 100.381 335.286 107.609 334.77 114.889C334.703 115.829 334.643 116.798 334.59 117.798C341.65 111.358 346.31 101.409 346.32 95.1985C346.36 92.1785 342.29 91.2985 338 93.2685Z" fill="#FF475A"/>
<path opacity="0.5" d="M379.77 131.538C379.77 131.538 396.38 130.178 401.22 127.318C395.38 132.068 387.38 132.698 379.77 131.538Z" fill="#FF475A"/>
<path opacity="0.5" d="M381.65 133.478C381.65 133.478 393.88 134.238 397.7 132.668C393 135.538 387.06 135.118 381.65 133.478Z" fill="#FF475A"/>
<path d="M364.05 82.7785C361.78 85.2185 359.48 87.5385 357.18 89.9085C354.88 92.2785 352.51 94.5585 350.18 96.9085C345.49 101.548 340.68 106.078 335.68 110.589L333.62 112.438L331.8 112.949C328.682 113.759 325.506 114.328 322.3 114.648C319.3 114.998 316.45 115.198 313.59 115.348C310.73 115.498 307.88 115.579 305.04 115.589C302.2 115.598 299.4 115.589 296.49 115.419L295.49 101.078L303.49 99.4585C306.14 98.9285 308.79 98.3885 311.4 97.8285C314.01 97.2685 316.59 96.6785 319.07 96.0685C321.324 95.5439 323.541 94.8759 325.71 94.0685L321.82 96.4285L334.82 82.1085L341.35 74.8785C343.55 72.4885 345.74 70.0585 347.94 67.7085L364.05 82.7785Z" fill="#FF475A"/>
<g opacity="0.3">
<path opacity="0.3" d="M364.05 82.7785C361.78 85.2185 359.48 87.5385 357.18 89.9085C354.88 92.2785 352.51 94.5585 350.18 96.9085C345.49 101.548 340.68 106.078 335.68 110.589L333.62 112.438L331.8 112.949C328.682 113.759 325.506 114.328 322.3 114.648C319.3 114.998 316.45 115.198 313.59 115.348C310.73 115.498 307.88 115.579 305.04 115.589C302.2 115.598 299.4 115.589 296.49 115.419L295.49 101.078L303.49 99.4585C306.14 98.9285 308.79 98.3885 311.4 97.8285C314.01 97.2685 316.59 96.6785 319.07 96.0685C321.324 95.5439 323.541 94.8759 325.71 94.0685L321.82 96.4285L334.82 82.1085L341.35 74.8785C343.55 72.4885 345.74 70.0585 347.94 67.7085L364.05 82.7785Z" fill="#FFFCFC"/>
</g>
</g>
<defs>
<clipPath id="clip0">
<rect width="500" height="373" fill="white" transform="translate(0 0.538452)"/>
</clipPath>
</defs>
</svg>
