<svg width="500" height="400" viewBox="0 0 500 400" fill="none" xmlns="http://www.w3.org/2000/svg">
<g clip-path="url(#clip0)">
<path d="M500 353.999H0V354.249H500V353.999Z" fill="#FFD1D1"/>
<path d="M78.46 363.519H52.46V363.769H78.46V363.519Z" fill="#FFD1D1"/>
<path d="M200.43 360.809H146.33V361.059H200.43V360.809Z" fill="#FFD1D1"/>
<path d="M105.78 372.809H79.46V373.059H105.78V372.809Z" fill="#FFD1D1"/>
<path d="M449.9 371.129H430.67V371.379H449.9V371.129Z" fill="#FFD1D1"/>
<path d="M421.76 371.129H391.47V371.379H421.76V371.129Z" fill="#FFD1D1"/>
<path d="M312.79 366.909H258.23V367.159H312.79V366.909Z" fill="#FFD1D1"/>
<path d="M237 309.399H43.91C42.3973 309.396 40.9476 308.793 39.8789 307.723C38.8102 306.652 38.21 305.202 38.21 303.689V32.2589C38.2232 30.7549 38.8292 29.3169 39.8964 28.2571C40.9637 27.1973 42.406 26.6015 43.91 26.5989H237C238.514 26.5989 239.967 27.2005 241.038 28.2713C242.108 29.3421 242.71 30.7945 242.71 32.3089V303.689C242.71 305.203 242.108 306.656 241.038 307.726C239.967 308.797 238.514 309.399 237 309.399ZM43.91 26.7989C42.4637 26.8015 41.0774 27.3779 40.0557 28.4016C39.0339 29.4253 38.46 30.8125 38.46 32.2589V303.689C38.46 305.135 39.0339 306.522 40.0557 307.546C41.0774 308.57 42.4637 309.146 43.91 309.149H237C238.447 309.146 239.835 308.57 240.858 307.547C241.881 306.523 242.457 305.136 242.46 303.689V32.2589C242.457 30.8116 241.881 29.4244 240.858 28.401C239.835 27.3776 238.447 26.8015 237 26.7989H43.91Z" fill="#FFD1D1"/>
<path d="M453.31 309.399H260.21C258.696 309.396 257.246 308.794 256.175 307.724C255.105 306.653 254.503 305.202 254.5 303.689V32.2589C254.516 30.754 255.124 29.316 256.193 28.2565C257.262 27.197 258.705 26.6014 260.21 26.5989H453.31C454.812 26.6041 456.252 27.2011 457.317 28.2606C458.382 29.3201 458.987 30.7566 459 32.2589V303.689C459 305.2 458.401 306.649 457.335 307.719C456.268 308.79 454.821 309.394 453.31 309.399ZM260.21 26.7989C258.763 26.8015 257.375 27.3776 256.352 28.401C255.329 29.4244 254.753 30.8116 254.75 32.2589V303.689C254.753 305.136 255.329 306.523 256.352 307.547C257.375 308.57 258.763 309.146 260.21 309.149H453.31C454.757 309.146 456.145 308.57 457.168 307.547C458.191 306.523 458.767 305.136 458.77 303.689V32.2589C458.767 30.8116 458.191 29.4244 457.168 28.401C456.145 27.3776 454.757 26.8015 453.31 26.7989H260.21Z" fill="#FFD1D1"/>
<path d="M138 183.809H131.85V353.999H138V183.809Z" fill="#FFB3B3"/>
<path d="M173.43 353.999H167.29L146.03 183.809H152.17L173.43 353.999Z" fill="#FFD1D1"/>
<path d="M102.57 353.999H96.42L117.68 183.809H123.83L102.57 353.999Z" fill="#FFD1D1"/>
<path d="M360.67 137.419H352.85V353.989H360.67V137.419Z" fill="#FFB3B3"/>
<path d="M405.76 353.999H397.94L370.89 137.419H378.71L405.76 353.999Z" fill="#FFD1D1"/>
<path d="M315.58 353.999H307.76L334.82 137.419H342.64L315.58 353.999Z" fill="#FFD1D1"/>
<path d="M135.46 253.809C174.12 253.809 205.46 222.469 205.46 183.809C205.46 145.149 174.12 113.809 135.46 113.809C96.8001 113.809 65.46 145.149 65.46 183.809C65.46 222.469 96.8001 253.809 135.46 253.809Z" fill="#FFD6D6"/>
<path d="M135.46 238.809C165.836 238.809 190.46 214.185 190.46 183.809C190.46 153.433 165.836 128.809 135.46 128.809C105.084 128.809 80.46 153.433 80.46 183.809C80.46 214.185 105.084 238.809 135.46 238.809Z" fill="#FFFBFB"/>
<path d="M135.46 223.809C157.551 223.809 175.46 205.9 175.46 183.809C175.46 161.717 157.551 143.809 135.46 143.809C113.369 143.809 95.46 161.717 95.46 183.809C95.46 205.9 113.369 223.809 135.46 223.809Z" fill="#FFD6D6"/>
<path d="M135.46 208.809C149.267 208.809 160.46 197.616 160.46 183.809C160.46 170.002 149.267 158.809 135.46 158.809C121.653 158.809 110.46 170.002 110.46 183.809C110.46 197.616 121.653 208.809 135.46 208.809Z" fill="#FFFBFB"/>
<path d="M135.46 193.809C140.983 193.809 145.46 189.332 145.46 183.809C145.46 178.286 140.983 173.809 135.46 173.809C129.937 173.809 125.46 178.286 125.46 183.809C125.46 189.332 129.937 193.809 135.46 193.809Z" fill="#FFD6D6"/>
<path d="M356.76 221.849C404.538 221.849 443.27 183.117 443.27 135.339C443.27 87.5607 404.538 48.8289 356.76 48.8289C308.982 48.8289 270.25 87.5607 270.25 135.339C270.25 183.117 308.982 221.849 356.76 221.849Z" fill="#FFD6D6"/>
<path d="M404.821 183.405C431.365 156.861 431.365 113.825 404.821 87.281C378.277 60.737 335.241 60.737 308.697 87.281C282.153 113.825 282.153 156.861 308.697 183.405C335.241 209.949 378.277 209.949 404.821 183.405Z" fill="#FFFBFB"/>
<path d="M356.76 184.769C384.059 184.769 406.19 162.638 406.19 135.339C406.19 108.039 384.059 85.9087 356.76 85.9087C329.461 85.9087 307.33 108.039 307.33 135.339C307.33 162.638 329.461 184.769 356.76 184.769Z" fill="#FFD6D6"/>
<path d="M356.76 166.239C373.826 166.239 387.66 152.404 387.66 135.339C387.66 118.273 373.826 104.439 356.76 104.439C339.694 104.439 325.86 118.273 325.86 135.339C325.86 152.404 339.694 166.239 356.76 166.239Z" fill="#FFFBFB"/>
<path d="M356.76 147.699C363.586 147.699 369.12 142.165 369.12 135.339C369.12 128.513 363.586 122.979 356.76 122.979C349.934 122.979 344.4 128.513 344.4 135.339C344.4 142.165 349.934 147.699 356.76 147.699Z" fill="#FFD6D6"/>
<path d="M220.52 134.829C220.492 134.718 220.429 134.62 220.341 134.548C220.253 134.476 220.144 134.434 220.03 134.429L213.72 134.169L216.97 132.089C217.089 132.013 217.174 131.893 217.205 131.755C217.236 131.618 217.211 131.473 217.135 131.354C217.059 131.234 216.939 131.15 216.802 131.119C216.664 131.088 216.519 131.113 216.4 131.189L213.15 133.279L215.53 127.429C215.573 127.324 215.582 127.209 215.555 127.099C215.528 126.989 215.467 126.891 215.38 126.819C215.288 126.753 215.178 126.717 215.065 126.717C214.952 126.717 214.842 126.753 214.75 126.819L204.29 133.539C204.2 133.6 204.13 133.687 204.09 133.789L201.09 141.029L135.09 183.399C134.98 183.455 134.893 183.547 134.844 183.66C134.795 183.773 134.787 183.9 134.821 184.019C134.856 184.137 134.93 184.24 135.032 184.309C135.134 184.379 135.257 184.41 135.38 184.399C135.481 184.399 135.579 184.368 135.66 184.309L201.66 141.949L209.48 142.269C209.579 142.268 209.676 142.24 209.76 142.189L220.22 135.469C220.341 135.419 220.44 135.326 220.495 135.207C220.551 135.089 220.56 134.954 220.52 134.829Z" fill="#FFB3B3"/>
<path d="M330.36 16.5988C330.275 16.5223 330.168 16.4752 330.055 16.4644C329.941 16.4536 329.827 16.4797 329.73 16.5388L324.29 19.7388L325.88 16.2288C325.938 16.0962 325.942 15.9458 325.889 15.8108C325.837 15.6758 325.733 15.5671 325.6 15.5088C325.467 15.4504 325.317 15.4471 325.182 15.4997C325.047 15.5522 324.938 15.6562 324.88 15.7888L323.28 19.2988L322.11 13.0988C322.089 12.9873 322.034 12.8854 321.951 12.8081C321.868 12.7307 321.763 12.6819 321.65 12.6688C321.538 12.6518 321.424 12.6732 321.326 12.7295C321.228 12.7858 321.152 12.8737 321.11 12.9788L316 24.2988C315.97 24.4033 315.97 24.5142 316 24.6188L317.46 32.3088L285 103.699C284.942 103.826 284.937 103.971 284.986 104.102C285.034 104.233 285.133 104.34 285.26 104.399C285.338 104.443 285.426 104.466 285.515 104.466C285.604 104.466 285.692 104.443 285.77 104.399C285.854 104.343 285.922 104.267 285.97 104.179L318.35 32.7888L325.09 28.7888C325.179 28.7348 325.249 28.6544 325.29 28.5588L330.42 17.2388C330.483 17.1408 330.512 17.0245 330.501 16.9084C330.49 16.7923 330.44 16.6833 330.36 16.5988Z" fill="#FFB3B3"/>
<path d="M466.37 127.299C466.369 127.186 466.333 127.076 466.267 126.984C466.201 126.893 466.107 126.824 466 126.789L460 124.879L463.69 123.719C463.756 123.697 463.818 123.663 463.871 123.618C463.924 123.572 463.968 123.517 463.999 123.454C464.031 123.392 464.05 123.324 464.055 123.255C464.06 123.185 464.052 123.115 464.03 123.049C464.01 122.983 463.976 122.922 463.932 122.869C463.887 122.816 463.833 122.772 463.771 122.74C463.71 122.709 463.643 122.69 463.574 122.684C463.505 122.679 463.436 122.687 463.37 122.709L459.69 123.869L463.53 118.869C463.596 118.777 463.631 118.667 463.631 118.554C463.631 118.441 463.596 118.331 463.53 118.239C463.466 118.146 463.375 118.077 463.268 118.041C463.162 118.005 463.047 118.004 462.94 118.039L451.08 121.769C450.974 121.801 450.88 121.864 450.81 121.949L446.06 128.169L371.27 151.669C371.136 151.713 371.024 151.807 370.958 151.932C370.893 152.058 370.879 152.204 370.92 152.339C370.946 152.424 370.994 152.501 371.059 152.562C371.124 152.624 371.203 152.667 371.29 152.689C371.388 152.719 371.492 152.719 371.59 152.689L446.37 129.179L453.83 131.549C453.928 131.574 454.032 131.574 454.13 131.549L466 127.799C466.106 127.765 466.2 127.699 466.266 127.609C466.332 127.519 466.369 127.411 466.37 127.299Z" fill="#FFB3B3"/>
<path d="M179.71 98.0989C193.313 98.0989 204.34 87.0716 204.34 73.4689C204.34 59.8661 193.313 48.8389 179.71 48.8389C166.107 48.8389 155.08 59.8661 155.08 73.4689C155.08 87.0716 166.107 98.0989 179.71 98.0989Z" fill="#FFD7D7"/>
<path d="M98.28 76.6889C96.87 76.6889 95.37 77.7789 94.14 79.4489C95 72.5989 92.6 67.3289 88.3 67.3689C84 67.4089 79.44 72.4889 77.11 79.1889C76.72 75.7789 75.04 73.5089 72.53 73.5289C69.01 73.5289 65.09 78.1389 63.47 83.9389L101.36 83.3689C101.91 79.5989 100.63 76.6689 98.28 76.6889Z" fill="#FFD6D6"/>
<path d="M144.31 44.7488C143.817 44.7761 143.342 44.9425 142.94 45.2288C142.77 41.7788 141.27 39.4088 138.94 39.4288C136.79 39.4288 134.47 41.4988 132.8 44.5088C132.634 43.9452 132.294 43.4484 131.829 43.0893C131.364 42.7301 130.797 42.527 130.21 42.5088C128.77 42.5088 127.21 43.7188 125.99 45.5688C125.831 45.4 125.639 45.2664 125.425 45.1768C125.212 45.0872 124.982 45.0436 124.75 45.0488C123.55 45.0488 122.24 46.2588 121.35 48.0488L146.45 47.6688C146.29 45.9088 145.51 44.7388 144.31 44.7488Z" fill="#FFECEC"/>
<path d="M395.48 9.8588C394.07 9.8588 392.57 10.9388 391.34 12.6188C392.2 5.7188 389.8 0.498803 385.5 0.538803C381.2 0.578803 376.64 5.6588 374.31 12.3588C373.92 8.9488 372.25 6.6688 369.74 6.6988C366.22 6.6988 362.3 11.3088 360.67 17.0988L398.56 16.5388C399.11 12.7288 397.83 9.8288 395.48 9.8588Z" fill="#FFD6D6"/>
<path d="M431.76 44.7488C431.267 44.7761 430.792 44.9425 430.39 45.2288C430.22 41.7788 428.72 39.4088 426.39 39.4288C424.24 39.4288 421.92 41.4988 420.25 44.5088C420.084 43.9452 419.744 43.4484 419.279 43.0893C418.814 42.7301 418.247 42.527 417.66 42.5088C416.22 42.5088 414.66 43.7188 413.44 45.5688C413.281 45.4 413.089 45.2664 412.875 45.1768C412.662 45.0872 412.432 45.0436 412.2 45.0488C411 45.0488 409.69 46.2588 408.8 48.0488L433.9 47.6688C433.74 45.9088 433 44.7388 431.76 44.7488Z" fill="#FFECEC"/>
<path d="M227.31 109.769C226.816 109.788 226.338 109.955 225.94 110.249C225.77 106.799 224.27 104.419 221.94 104.449C219.79 104.449 217.48 106.509 215.81 109.529C215.64 108.967 215.299 108.473 214.835 108.115C214.371 107.756 213.806 107.551 213.22 107.529C211.77 107.529 210.22 108.749 208.99 110.599C208.831 110.43 208.639 110.295 208.426 110.204C208.212 110.113 207.982 110.067 207.75 110.069C206.55 110.069 205.25 111.289 204.35 113.069L229.45 112.679C229.29 110.919 228.51 109.759 227.31 109.769Z" fill="#FFECEC"/>
<path d="M250 399.159C357.082 399.159 443.89 394.091 443.89 387.839C443.89 381.587 357.082 376.519 250 376.519C142.917 376.519 56.11 381.587 56.11 387.839C56.11 394.091 142.917 399.159 250 399.159Z" fill="#FFECEC"/>
<path d="M157.57 298.789H149.9L160 387.459H167.67L157.57 298.789Z" fill="#66000A"/>
<path opacity="0.3" d="M162.44 387.459H167.67L165.25 366.269L162.44 379.079V387.459Z" fill="#FFFBFB"/>
<path d="M133.03 278.149H142.48L130.03 387.459H120.58L133.03 278.149Z" fill="#66000A"/>
<path d="M183.91 298.789H176.24L186.34 387.459H194L183.91 298.789Z" fill="#66000A"/>
<path opacity="0.3" d="M188.77 387.459H194L191.59 366.269L188.77 379.079V387.459Z" fill="#FFFBFB"/>
<path d="M157.8 224.689C139.57 224.689 128.2 256.219 132.41 295.109C136.62 333.999 154.79 365.529 173.01 365.529H182.91L167.7 224.689H157.8Z" fill="#FF475A"/>
<path opacity="0.3" d="M157.8 224.689C139.57 224.689 128.2 256.219 132.41 295.109C136.62 333.999 154.79 365.529 173.01 365.529H182.91L167.7 224.689H157.8Z" fill="black"/>
<path d="M184.991 365.389C202.915 362.917 213.106 329.451 207.755 290.639C202.404 251.827 183.537 222.367 165.613 224.838C147.69 227.309 137.498 260.776 142.849 299.588C148.2 338.4 167.068 367.86 184.991 365.389Z" fill="#FF475A"/>
<path d="M183.053 351.331C197.393 349.354 205.547 322.582 201.267 291.534C196.986 260.485 181.891 236.918 167.551 238.895C153.212 240.872 145.057 267.645 149.338 298.693C153.619 329.742 168.713 353.309 183.053 351.331Z" fill="#FFFBFB"/>
<path d="M181.115 337.275C191.866 335.792 197.978 315.715 194.768 292.43C191.558 269.145 180.24 251.47 169.489 252.952C158.739 254.434 152.626 274.512 155.836 297.797C159.047 321.082 170.364 338.757 181.115 337.275Z" fill="#FF475A"/>
<path d="M179.178 323.227C186.346 322.239 190.42 308.851 188.279 293.324C186.139 277.797 178.593 266.011 171.426 266.999C164.259 267.987 160.184 281.375 162.325 296.902C164.466 312.429 172.011 324.215 179.178 323.227Z" fill="#FFFBFB"/>
<path d="M177.24 309.17C180.824 308.676 182.861 301.982 181.791 294.219C180.72 286.455 176.948 280.562 173.364 281.056C169.781 281.55 167.743 288.244 168.814 296.008C169.884 303.771 173.657 309.664 177.24 309.17Z" fill="#FF475A"/>
<path d="M103.25 387.879C103.128 387.887 103.007 387.854 102.907 387.783C102.807 387.713 102.735 387.61 102.702 387.493C102.669 387.375 102.678 387.25 102.727 387.138C102.775 387.026 102.861 386.934 102.97 386.879L184.19 334.719C184.248 334.68 184.313 334.654 184.382 334.641C184.45 334.628 184.521 334.629 184.589 334.644C184.657 334.659 184.721 334.687 184.778 334.728C184.835 334.768 184.883 334.819 184.92 334.879C184.996 334.996 185.023 335.138 184.995 335.274C184.967 335.411 184.886 335.531 184.77 335.609L103.54 387.799C103.452 387.849 103.352 387.877 103.25 387.879Z" fill="#66000A"/>
<path d="M172.38 337.489L169.36 344.889L179.86 338.079L182.84 330.779L172.38 337.489Z" fill="#66000A"/>
<path d="M169.36 345.419C169.236 345.419 169.116 345.376 169.02 345.299C168.932 345.227 168.87 345.129 168.842 345.019C168.815 344.909 168.825 344.793 168.87 344.689L171.87 337.289C171.908 337.189 171.978 337.104 172.07 337.049L182.53 330.329C182.621 330.261 182.732 330.225 182.845 330.225C182.958 330.225 183.069 330.261 183.16 330.329C183.246 330.402 183.306 330.5 183.333 330.61C183.36 330.719 183.352 330.834 183.31 330.939L180.31 338.239C180.27 338.337 180.2 338.421 180.11 338.479L169.61 345.299C169.539 345.361 169.453 345.402 169.36 345.419ZM172.8 337.849L170.49 343.529L179.43 337.719L181.71 332.129L172.8 337.849Z" fill="#66000A"/>
<path d="M177.34 345.229L169.36 344.889L179.93 338.179L187.81 338.509L177.34 345.229Z" fill="#66000A"/>
<path d="M177.34 345.759L169.34 345.419C169.227 345.418 169.117 345.379 169.028 345.308C168.939 345.237 168.877 345.139 168.85 345.029C168.821 344.921 168.827 344.807 168.866 344.703C168.906 344.599 168.977 344.51 169.07 344.449L179.64 337.729C179.731 337.667 179.841 337.639 179.95 337.649L187.83 337.979C187.943 337.983 188.051 338.024 188.139 338.094C188.227 338.164 188.29 338.26 188.32 338.369C188.35 338.477 188.343 338.593 188.302 338.697C188.26 338.802 188.186 338.89 188.09 338.949L177.63 345.669C177.546 345.729 177.444 345.761 177.34 345.759ZM171.07 344.429L177.2 344.689L186.11 338.969L180.11 338.719L171.07 344.429Z" fill="#66000A"/>
<path d="M194.09 394.599C194.002 394.6 193.915 394.576 193.84 394.529C193.778 394.496 193.723 394.452 193.679 394.398C193.634 394.344 193.6 394.282 193.58 394.215C193.56 394.148 193.553 394.077 193.559 394.008C193.566 393.938 193.587 393.87 193.62 393.809L243.92 300.809C243.953 300.747 243.999 300.693 244.053 300.648C244.108 300.604 244.171 300.571 244.238 300.551C244.305 300.531 244.376 300.525 244.446 300.532C244.516 300.539 244.583 300.56 244.645 300.594C244.707 300.627 244.761 300.673 244.805 300.727C244.85 300.782 244.883 300.844 244.903 300.912C244.923 300.979 244.929 301.05 244.922 301.119C244.915 301.189 244.894 301.257 244.86 301.319L194.55 394.269C194.515 394.363 194.452 394.445 194.37 394.503C194.288 394.562 194.191 394.595 194.09 394.599Z" fill="#66000A"/>
<path d="M234.91 308.929L235.84 316.869L241.74 305.829L240.82 297.999L234.91 308.929Z" fill="#66000A"/>
<path d="M235.84 317.399H235.74C235.629 317.378 235.527 317.322 235.449 317.24C235.372 317.157 235.323 317.051 235.31 316.939L234.38 308.999C234.369 308.892 234.39 308.784 234.44 308.689L240.36 297.759C240.411 297.658 240.493 297.577 240.594 297.529C240.695 297.48 240.81 297.466 240.92 297.489C241.031 297.509 241.133 297.565 241.211 297.648C241.288 297.731 241.337 297.836 241.35 297.949L242.27 305.779C242.28 305.886 242.259 305.993 242.21 306.089L236.3 317.089C236.261 317.179 236.197 317.257 236.116 317.312C236.034 317.367 235.938 317.397 235.84 317.399ZM235.45 309.039L236.17 315.129L241.17 305.729L240.46 299.729L235.45 309.039Z" fill="#66000A"/>
<path d="M242.99 313.309L235.84 316.869L241.85 305.889L248.91 302.369L242.99 313.309Z" fill="#66000A"/>
<path d="M235.84 317.399C235.695 317.395 235.556 317.338 235.45 317.239C235.373 317.157 235.323 317.053 235.309 316.942C235.294 316.83 235.316 316.717 235.37 316.619L241.37 305.619C241.428 305.528 241.507 305.453 241.6 305.399L248.66 301.889C248.76 301.833 248.875 301.812 248.989 301.829C249.102 301.845 249.206 301.899 249.286 301.981C249.366 302.062 249.416 302.168 249.429 302.282C249.443 302.396 249.418 302.51 249.36 302.609L243.46 313.599C243.407 313.693 243.327 313.77 243.23 313.819L236.07 317.389C235.995 317.407 235.917 317.41 235.84 317.399ZM242.24 306.289L237.11 315.599L242.6 312.869L247.6 303.549L242.24 306.289Z" fill="#66000A"/>
<path d="M160.2 236.139C160.053 236.136 159.913 236.074 159.81 235.969C159.761 235.919 159.722 235.861 159.695 235.797C159.668 235.732 159.655 235.663 159.655 235.594C159.655 235.524 159.668 235.455 159.695 235.391C159.722 235.326 159.761 235.268 159.81 235.219L230.67 169.849C230.776 169.77 230.906 169.734 231.037 169.747C231.168 169.759 231.29 169.82 231.378 169.917C231.466 170.015 231.516 170.141 231.516 170.273C231.516 170.404 231.468 170.531 231.38 170.629L160.56 235.999C160.461 236.088 160.333 236.138 160.2 236.139Z" fill="#66000A"/>
<path d="M219.54 174.609L217.85 182.429L227.01 173.889L228.68 166.179L219.54 174.609Z" fill="#66000A"/>
<path d="M217.85 182.959C217.759 182.956 217.67 182.932 217.59 182.889C217.49 182.833 217.41 182.747 217.363 182.642C217.317 182.537 217.305 182.421 217.33 182.309L219 174.499C219.023 174.391 219.079 174.293 219.16 174.219L228.3 165.789C228.384 165.714 228.489 165.668 228.6 165.657C228.712 165.646 228.824 165.671 228.92 165.727C229.017 165.784 229.093 165.87 229.138 165.972C229.183 166.075 229.194 166.189 229.17 166.299L227.51 173.999C227.483 174.105 227.428 174.201 227.35 174.279L218.19 182.809C218.1 182.9 217.978 182.953 217.85 182.959ZM220.02 174.889L218.72 180.889L226.52 173.619L227.8 167.709L220.02 174.889Z" fill="#66000A"/>
<path d="M225.77 181.369L217.85 182.429L227.09 173.979L234.91 172.939L225.77 181.369Z" fill="#66000A"/>
<path d="M217.85 182.959C217.748 182.96 217.649 182.931 217.564 182.876C217.478 182.821 217.411 182.742 217.37 182.649C217.322 182.546 217.308 182.431 217.33 182.319C217.351 182.208 217.407 182.106 217.49 182.029L226.73 173.589C226.81 173.516 226.912 173.47 227.02 173.459L234.84 172.409C234.953 172.392 235.068 172.412 235.168 172.466C235.269 172.52 235.349 172.605 235.398 172.709C235.446 172.812 235.46 172.928 235.437 173.04C235.414 173.152 235.355 173.253 235.27 173.329L226.13 181.759C226.05 181.832 225.948 181.877 225.84 181.889L217.92 182.949L217.85 182.959ZM227.33 174.479L219.45 181.679L225.53 180.859L233.32 173.689L227.33 174.479Z" fill="#66000A"/>
<path d="M368.05 172.719L363.44 174.719L369.63 182.309C370.708 180.42 371.548 178.405 372.13 176.309C372.292 175.691 372.203 175.034 371.883 174.481C371.562 173.929 371.037 173.525 370.42 173.359L368.05 172.719Z" fill="#FF8B7B"/>
<path d="M360.44 181.869L365.85 187.879L369.63 182.289L363.44 174.699L360.44 181.869Z" fill="#FF8B7B"/>
<path d="M305.19 221.499H305.12C305.049 221.48 304.987 221.434 304.95 221.37C304.913 221.306 304.902 221.23 304.92 221.159C326.16 140.409 351.06 82.8487 351.3 82.2787C351.314 82.2443 351.335 82.2132 351.362 82.1873C351.388 82.1614 351.42 82.1412 351.455 82.1281C351.489 82.1149 351.526 82.1091 351.563 82.1109C351.6 82.1128 351.637 82.1222 351.67 82.1387C351.703 82.1528 351.733 82.1734 351.758 82.1992C351.783 82.2251 351.803 82.2557 351.816 82.2892C351.829 82.3228 351.835 82.3586 351.834 82.3946C351.833 82.4305 351.825 82.4659 351.81 82.4987C351.56 83.0687 326.68 140.589 305.45 221.309C305.433 221.364 305.398 221.412 305.351 221.447C305.305 221.481 305.248 221.499 305.19 221.499Z" fill="#66000A"/>
<path d="M322.36 127.819C320.36 132.659 318.27 137.319 315.95 141.989C313.605 146.79 310.932 151.425 307.95 155.859C307.052 157.159 306.049 158.383 304.95 159.519C303.95 160.519 302.89 161.449 301.86 162.309C299.81 164.039 297.74 165.629 295.63 167.149C291.453 170.199 287.113 173.02 282.63 175.599L279.05 170.979C282.55 167.299 286.15 163.709 289.69 160.169C291.45 158.389 293.21 156.629 294.85 154.869C295.66 153.979 296.45 153.119 297.16 152.269C297.76 151.502 298.305 150.693 298.79 149.849C299.92 147.919 301.06 145.779 302.12 143.589C303.18 141.399 304.27 139.159 305.29 136.899C307.36 132.389 309.41 127.769 311.41 123.249L322.36 127.819Z" fill="#FF8B7B"/>
<path d="M279.42 228.849C279.285 228.849 279.154 228.797 279.055 228.704C278.957 228.611 278.898 228.484 278.89 228.349L271.16 124.349C271.153 124.279 271.161 124.208 271.182 124.141C271.203 124.074 271.237 124.012 271.283 123.959C271.329 123.906 271.385 123.862 271.448 123.831C271.511 123.8 271.58 123.782 271.65 123.779C271.789 123.771 271.926 123.817 272.03 123.909C272.135 124.001 272.2 124.13 272.21 124.269L279.94 228.269C279.947 228.337 279.94 228.407 279.919 228.472C279.898 228.538 279.865 228.599 279.82 228.651C279.775 228.704 279.72 228.746 279.658 228.777C279.596 228.807 279.529 228.825 279.46 228.829L279.42 228.849Z" fill="#66000A"/>
<path d="M282.98 216.789L277.78 210.719L279.03 223.169L284.16 229.159L282.98 216.789Z" fill="#66000A"/>
<path d="M284.16 229.689C284.084 229.69 284.009 229.674 283.94 229.643C283.871 229.612 283.81 229.566 283.76 229.509L278.63 223.509C278.56 223.428 278.518 223.326 278.51 223.219L277.25 210.759C277.238 210.646 277.263 210.533 277.32 210.435C277.377 210.338 277.464 210.261 277.568 210.216C277.672 210.172 277.787 210.161 277.897 210.187C278.007 210.213 278.107 210.273 278.18 210.359L283.38 216.429C283.449 216.515 283.49 216.619 283.5 216.729L284.69 229.099C284.7 229.211 284.674 229.323 284.617 229.42C284.559 229.517 284.473 229.593 284.37 229.639C284.304 229.67 284.233 229.687 284.16 229.689ZM279.54 222.959L283.47 227.549L282.47 217.009L278.47 212.349L279.54 222.959Z" fill="#66000A"/>
<path d="M273.83 217.669L277.78 210.719L278.91 223.189L275.01 230.039L273.83 217.669Z" fill="#66000A"/>
<path d="M275 230.599H274.89C274.781 230.572 274.683 230.512 274.608 230.429C274.533 230.345 274.485 230.24 274.47 230.129L273.29 217.759C273.278 217.648 273.303 217.535 273.36 217.439L277.31 210.499C277.363 210.398 277.447 210.318 277.55 210.271C277.654 210.224 277.77 210.213 277.88 210.239C277.99 210.263 278.09 210.322 278.166 210.406C278.241 210.491 278.288 210.596 278.3 210.709L279.43 223.179C279.437 223.287 279.412 223.394 279.36 223.489L275.46 230.339C275.414 230.419 275.346 230.486 275.266 230.532C275.185 230.577 275.093 230.601 275 230.599ZM274.36 217.809L275.36 228.349L278.36 223.099L277.36 212.479L274.36 217.809Z" fill="#66000A"/>
<path d="M271.83 179.369L269.78 172.909L274.79 170.369L277.1 177.769L271.83 179.369Z" fill="#FF8B7B"/>
<path d="M360.56 116.249C363.46 120.669 366.19 125.129 368.84 129.669C371.49 134.209 374.04 138.819 376.47 143.549L377.38 145.319L377.49 145.549L377.64 145.859L378 146.669C378.2 147.176 378.374 147.693 378.52 148.219C378.941 149.942 379.109 151.717 379.02 153.489C378.879 156.424 378.417 159.335 377.64 162.169C376.215 167.447 374.234 172.559 371.73 177.419L366.25 175.419C366.74 172.969 367.25 170.419 367.67 167.939C368.09 165.459 368.48 162.939 368.73 160.549C369.001 158.273 369.068 155.977 368.93 153.689C368.875 152.85 368.707 152.022 368.43 151.229C368.37 151.139 368.33 150.979 368.28 150.939C368.255 150.921 368.234 150.897 368.22 150.869L368.16 150.769L368.03 150.559L367.03 148.929L358.81 135.819C356.05 131.449 353.29 127.029 350.61 122.639L360.56 116.249Z" fill="#FF8B7B"/>
<path d="M319.28 89.7587C319.5 90.3487 319.37 90.9587 318.99 91.1087C318.61 91.2587 318.12 90.9187 317.9 90.3287C317.68 89.7387 317.81 89.1387 318.19 88.9787C318.57 88.8187 319.06 89.1687 319.28 89.7587Z" fill="#66000A"/>
<path d="M319.42 90.9287C319.4 93.0264 319.097 95.1118 318.52 97.1287C319.91 97.6787 321.52 96.4987 321.52 96.4987L319.42 90.9287Z" fill="#FF5652"/>
<path d="M317.12 86.2987C317.191 86.2896 317.258 86.2581 317.31 86.2087C317.667 85.9171 318.087 85.7142 318.538 85.6168C318.988 85.5195 319.455 85.5304 319.9 85.6487C319.947 85.6607 319.996 85.6632 320.045 85.6561C320.093 85.649 320.139 85.6324 320.181 85.6073C320.223 85.5822 320.259 85.5491 320.288 85.5099C320.317 85.4707 320.338 85.4261 320.35 85.3787C320.372 85.2834 320.355 85.1835 320.305 85.0996C320.255 85.0158 320.174 84.9546 320.08 84.9287C319.516 84.7801 318.924 84.7698 318.354 84.8986C317.785 85.0274 317.255 85.2916 316.81 85.6687C316.742 85.738 316.703 85.8314 316.703 85.9287C316.703 86.0261 316.742 86.1195 316.81 86.1887C316.85 86.2291 316.899 86.26 316.953 86.279C317.006 86.2981 317.063 86.3048 317.12 86.2987Z" fill="#66000A"/>
<path d="M340.86 90.9287C341.6 97.2987 340.38 105.309 344.74 108.509C344.74 108.509 343.83 114.509 333.35 116.049C321.84 117.759 327.22 111.109 327.22 111.109C333.34 108.669 332.67 103.999 331.09 99.7587L340.86 90.9287Z" fill="#FF8B7B"/>
<path d="M347.74 110.069C348.36 108.129 348.87 105.209 346.92 104.839C344.77 104.429 331.28 105.359 323.76 109.039C324.305 109.854 324.67 110.776 324.832 111.743C324.994 112.71 324.949 113.7 324.7 114.649L347.74 110.069Z" fill="#FF475A"/>
<path d="M385.38 376.469C385.101 376.488 384.823 376.414 384.59 376.259C384.473 376.151 384.392 376.009 384.36 375.853C384.327 375.697 384.345 375.534 384.41 375.389C384.447 375.266 384.51 375.152 384.594 375.056C384.679 374.959 384.783 374.882 384.9 374.829C385.96 374.309 388.32 375.219 388.42 375.259C388.454 375.269 388.484 375.29 388.506 375.319C388.528 375.348 388.54 375.383 388.54 375.419C388.545 375.454 388.537 375.49 388.519 375.521C388.501 375.552 388.473 375.576 388.44 375.589C387.487 376.077 386.447 376.376 385.38 376.469ZM385.75 375.029C385.513 375.019 385.277 375.064 385.06 375.159C384.989 375.19 384.927 375.237 384.877 375.296C384.826 375.355 384.79 375.424 384.77 375.499C384.67 375.839 384.77 375.939 384.83 375.969C385.25 376.319 386.83 375.969 387.88 375.449C387.193 375.21 386.476 375.069 385.75 375.029Z" fill="#FF475A"/>
<path d="M388.36 375.599H388.31C387.45 375.369 385.6 374.089 385.55 373.199C385.549 373.063 385.593 372.931 385.674 372.823C385.755 372.715 385.87 372.636 386 372.599C386.129 372.541 386.269 372.511 386.41 372.511C386.551 372.511 386.691 372.541 386.82 372.599C387.82 373.109 388.5 375.259 388.53 375.359C388.537 375.39 388.536 375.423 388.527 375.455C388.519 375.486 388.502 375.515 388.48 375.539C388.449 375.573 388.406 375.594 388.36 375.599ZM386.36 372.869C386.287 372.854 386.213 372.854 386.14 372.869C385.9 372.959 385.91 373.089 385.91 373.139C385.91 373.669 387.16 374.679 388.05 375.069C387.83 374.459 387.32 373.229 386.66 372.899C386.566 372.871 386.467 372.864 386.37 372.879L386.36 372.869Z" fill="#FF475A"/>
<path d="M324.92 379.909C323.92 379.909 322.92 379.769 322.65 379.319C322.565 379.201 322.519 379.059 322.519 378.914C322.519 378.768 322.565 378.627 322.65 378.509C323.48 377.139 326.94 379.119 327.33 379.349C327.363 379.367 327.389 379.395 327.406 379.429C327.422 379.464 327.427 379.502 327.42 379.539C327.413 379.576 327.395 379.61 327.368 379.637C327.341 379.664 327.307 379.682 327.27 379.689C326.495 379.83 325.708 379.904 324.92 379.909ZM323.72 378.399C323.584 378.382 323.447 378.401 323.32 378.454C323.194 378.506 323.084 378.591 323 378.699C322.84 378.959 322.92 379.069 322.95 379.109C323.29 379.599 325.26 379.619 326.72 379.409C325.796 378.878 324.777 378.534 323.72 378.399Z" fill="#FF475A"/>
<path d="M327.28 379.689H327.2C326.27 379.259 324.5 377.609 324.65 376.689C324.65 376.479 324.83 376.219 325.35 376.159C325.531 376.14 325.713 376.16 325.885 376.217C326.058 376.274 326.216 376.367 326.35 376.489C327.35 377.299 327.44 379.399 327.44 379.489C327.442 379.52 327.435 379.551 327.421 379.579C327.407 379.607 327.386 379.631 327.36 379.649C327.337 379.668 327.309 379.682 327.28 379.689ZM325.5 376.529H325.39C325.04 376.529 325.02 376.709 325.01 376.749C324.92 377.299 326.12 378.599 327.06 379.169C327.014 378.29 326.688 377.449 326.13 376.769C325.958 376.612 325.733 376.526 325.5 376.529Z" fill="#FF475A"/>
<path d="M335.85 379.509H328.05L327.97 361.469H335.76L335.85 379.509Z" fill="#FF8B7B"/>
<path d="M397.01 373.249L389.46 375.149L381.94 358.439L389.5 356.539L397.01 373.249Z" fill="#FF8B7B"/>
<path d="M388.74 374.399L397.23 372.269C397.377 372.23 397.534 372.244 397.672 372.31C397.809 372.376 397.918 372.489 397.98 372.629L400.9 379.039C400.967 379.199 400.999 379.371 400.993 379.545C400.987 379.718 400.944 379.888 400.866 380.043C400.788 380.198 400.677 380.334 400.542 380.442C400.406 380.55 400.248 380.627 400.08 380.669C397.08 381.359 395.63 381.549 391.89 382.489C389.6 383.069 384.89 384.489 381.74 385.289C378.59 386.089 377.49 383.029 378.74 382.409C384.29 379.659 386.11 377.339 387.62 375.179C387.89 374.796 388.287 374.519 388.74 374.399Z" fill="#66000A"/>
<path d="M328.14 378.599H336.65C336.802 378.596 336.95 378.649 337.068 378.746C337.185 378.843 337.264 378.979 337.29 379.129L338.56 386.049C338.589 386.219 338.581 386.394 338.535 386.561C338.49 386.728 338.409 386.883 338.297 387.015C338.186 387.147 338.047 387.254 337.89 387.327C337.734 387.4 337.563 387.438 337.39 387.439C334.32 387.389 329.89 387.209 326.03 387.209C321.52 387.209 319.69 387.449 314.4 387.449C311.2 387.449 310.4 384.219 311.79 383.929C317.93 382.589 320.85 382.449 326.24 379.199C326.808 378.831 327.464 378.624 328.14 378.599Z" fill="#66000A"/>
<path d="M353.86 107.979C361.27 108.569 371.72 127.149 371.72 127.149L358.31 139.299C354.117 134.615 350.312 129.598 346.93 124.299C341.66 115.909 346.29 107.369 353.86 107.979Z" fill="#FF475A"/>
<path opacity="0.3" d="M353.86 107.979C361.27 108.569 371.72 127.149 371.72 127.149L358.31 139.299C354.117 134.615 350.312 129.598 346.93 124.299C341.66 115.909 346.29 107.369 353.86 107.979Z" fill="black"/>
<path opacity="0.2" d="M350.07 121.379L358.94 138.729L358.31 139.299C358.31 139.299 354.88 135.549 351.05 130.379L350.07 121.379Z" fill="black"/>
<path d="M316.74 149.599C318.08 158.189 320.19 168.809 323.44 181.899L364.67 175.779C364.29 169.869 357.98 143.479 359.22 115.159C359.264 114.218 359.114 113.278 358.781 112.398C358.447 111.517 357.937 110.714 357.281 110.038C356.625 109.363 355.837 108.829 354.967 108.469C354.096 108.11 353.162 107.933 352.22 107.949C350.22 107.999 347.95 108.099 345.75 108.319C339.865 108.852 334.015 109.723 328.23 110.929C324.261 111.928 320.376 113.235 316.61 114.839C316.61 114.839 313.61 119.179 315.24 137.249C315.53 140.849 316 144.939 316.74 149.599Z" fill="#FF475A"/>
<path opacity="0.3" d="M316.74 149.599C318.08 158.189 320.19 168.809 323.44 181.899L364.67 175.779C364.29 169.869 357.98 143.479 359.22 115.159C359.264 114.218 359.114 113.278 358.781 112.398C358.447 111.517 357.937 110.714 357.281 110.038C356.625 109.363 355.837 108.829 354.967 108.469C354.096 108.11 353.162 107.933 352.22 107.949C350.22 107.999 347.95 108.099 345.75 108.319C339.865 108.852 334.015 109.723 328.23 110.929C324.261 111.928 320.376 113.235 316.61 114.839C316.61 114.839 313.61 119.179 315.24 137.249C315.53 140.849 316 144.939 316.74 149.599Z" fill="black"/>
<path opacity="0.2" d="M316.74 149.599C320.09 147.479 323.23 137.739 321.81 132.599L315.21 137.209C315.53 140.849 316 144.939 316.74 149.599Z" fill="black"/>
<path d="M326 120.139C328.13 127.249 315.24 148.139 315.24 148.139L299.81 140.089C299.81 140.089 303.31 129.549 308.86 121.439C315.06 112.409 323.6 112.139 326 120.139Z" fill="#FF475A"/>
<path opacity="0.3" d="M326 120.139C328.13 127.249 315.24 148.139 315.24 148.139L299.81 140.089C299.81 140.089 303.31 129.549 308.86 121.439C315.06 112.409 323.6 112.139 326 120.139Z" fill="black"/>
<path opacity="0.2" d="M327.98 361.469L328.01 370.769H335.81L335.77 361.469H327.98Z" fill="black"/>
<path opacity="0.2" d="M389.5 356.539L381.94 358.439L385.82 367.059L393.38 365.159L389.5 356.539Z" fill="black"/>
<path d="M338.16 80.4487C340.42 87.8687 342.11 92.0787 339.89 97.2987C339.196 98.9997 338.049 100.478 336.574 101.574C335.099 102.669 333.353 103.34 331.524 103.513C329.695 103.686 327.853 103.355 326.199 102.556C324.545 101.756 323.141 100.519 322.14 98.9787C318.19 93.1087 315.14 81.9787 321.07 76.1687C322.31 74.8822 323.868 73.9454 325.585 73.453C327.303 72.9606 329.12 72.9298 330.853 73.3639C332.587 73.798 334.175 74.6816 335.458 75.9255C336.741 77.1694 337.673 78.7296 338.16 80.4487Z" fill="#FF8B7B"/>
<path d="M326.24 86.3088C323.76 84.9488 321.49 80.7988 321.49 80.7988C319.16 81.2388 315.12 80.9588 313.49 77.9488C313.038 77.1058 312.858 76.1431 312.977 75.1938C313.095 74.2444 313.505 73.3552 314.15 72.6488C314.15 72.6488 317.89 74.4588 320.32 73.0588C323.72 71.0588 334.5 66.8788 337.51 71.0588C340.8 75.6688 345.76 75.9288 344.17 81.1188C341.81 88.8688 343.56 92.2488 342.1 95.1188C340.64 97.9888 335.83 97.2988 332.91 95.8888C329.99 94.4788 326 89.7888 326.24 86.3088Z" fill="#66000A"/>
<path d="M323.76 81.8289C322.65 83.2889 321.06 89.5489 323.23 95.0689C324.94 99.4289 321.73 99.2689 322.88 101.339C324.03 103.409 327.54 105.429 329.95 104.749C331.52 104.299 333.53 103.819 332.29 101.699C331.05 99.5789 326.86 95.6389 326.24 92.4189C325.62 89.1989 326.94 84.5089 326.94 84.5089L323.76 81.8289Z" fill="#66000A"/>
<path d="M329.36 86.3989C329.752 88.3099 329.524 90.2962 328.71 92.0689C327.61 94.3989 327.15 94.5289 326.24 92.4189C325.42 90.5089 323.47 86.2889 325.16 84.6489C326.85 83.0089 328.86 84.1189 329.36 86.3989Z" fill="#FF8B7B"/>
<path d="M338.07 179.769C338.07 179.769 344.46 240.869 348.46 263.169C352.83 287.599 381.93 366.169 381.93 366.169L395.77 362.689C395.77 362.689 373.84 289.559 371.77 265.379C369.49 239.129 364.69 175.809 364.69 175.809L338.07 179.769Z" fill="#FF475A"/>
<path d="M378.63 361.599C378.57 361.599 381.19 366.599 381.19 366.599L396.76 362.689L395.47 357.969L378.63 361.599Z" fill="#66000A"/>
<path opacity="0.2" d="M342 203.599C341.554 203.515 341.096 203.515 340.65 203.599C342.71 221.859 345.65 246.239 347.92 260.189C349.85 239.879 351.63 205.489 342 203.599Z" fill="black"/>
<path d="M323.45 181.939C323.45 181.939 319.82 239.579 319.75 263.339C319.67 288.049 325.18 368.969 325.18 368.969H338.38C338.38 368.969 341.93 289.489 343.46 265.219C345.12 238.759 350.54 177.919 350.54 177.919L323.45 181.939Z" fill="#FF475A"/>
<path d="M283.07 172.709L282.07 171.129C279.633 170.18 276.976 169.944 274.41 170.449L277.06 177.769L281.68 176.289C282.034 176.181 282.359 175.995 282.63 175.743C282.902 175.492 283.112 175.182 283.246 174.837C283.38 174.492 283.434 174.121 283.403 173.753C283.373 173.384 283.259 173.027 283.07 172.709Z" fill="#FF8B7B"/>
<path d="M322.84 363.709C322.78 363.709 323.38 369.189 323.38 369.189H339.43L340.06 364.299L322.84 363.709Z" fill="#66000A"/>
<path d="M303 227.269C302.566 226.963 302.204 226.567 301.938 226.108C301.672 225.648 301.509 225.137 301.46 224.609C301.314 223.557 301.563 222.488 302.16 221.609C302.474 221.156 302.916 220.808 303.43 220.609C303.968 220.389 304.572 220.389 305.11 220.609C305.39 220.739 305.57 220.849 305.76 220.949C305.95 221.049 306.16 221.139 306.35 221.229C306.754 221.397 307.172 221.528 307.6 221.619C309.344 221.928 311.14 221.723 312.77 221.029C314.436 220.333 316 219.414 317.42 218.299C320.278 216.01 322.856 213.392 325.1 210.499C327.379 207.628 329.482 204.622 331.4 201.499C335.236 195.196 338.628 188.634 341.55 181.859C344.55 175.119 347.13 168.179 349.47 161.179C351.81 154.179 353.78 147.049 355.47 139.859C357.159 132.669 358.378 125.377 359.12 118.029C359.485 114.374 359.662 110.702 359.65 107.029C359.651 103.339 359.316 99.6575 358.65 96.0287C358.314 94.238 357.819 92.481 357.17 90.7787C356.543 89.089 355.614 87.5271 354.43 86.1687C354.117 85.8438 353.783 85.5398 353.43 85.2587C353.262 85.1143 353.085 84.9807 352.9 84.8587C352.72 84.7387 352.54 84.6287 352.3 84.4487C351.907 84.1034 351.589 83.6812 351.365 83.2083C351.142 82.7353 351.017 82.2215 351 81.6987C350.947 80.6423 351.306 79.6065 352 78.8087C352.366 78.3878 352.856 78.0937 353.4 77.9687C353.967 77.8613 354.554 77.9644 355.05 78.2587C355.1 78.2875 355.144 78.3261 355.178 78.3722C355.213 78.4183 355.238 78.4709 355.252 78.5269C355.266 78.5828 355.269 78.6411 355.26 78.6981C355.251 78.7551 355.231 78.8097 355.2 78.8587C355.142 78.9593 355.046 79.0326 354.933 79.0626C354.821 79.0926 354.701 79.0768 354.6 79.0187C354.284 78.8096 353.9 78.7304 353.528 78.7974C353.155 78.8645 352.823 79.0727 352.6 79.3787C352.076 80.0181 351.819 80.8344 351.88 81.6587C351.893 82.0645 351.989 82.4634 352.161 82.8312C352.332 83.1991 352.577 83.5282 352.88 83.7987L353.43 84.1687C353.635 84.3006 353.832 84.4442 354.02 84.5987C354.402 84.9078 354.762 85.2419 355.1 85.5987C356.38 87.0204 357.396 88.6595 358.1 90.4387C358.818 92.1884 359.376 93.999 359.77 95.8487C360.536 99.525 360.961 103.264 361.04 107.019C361.14 110.758 361.05 114.499 360.77 118.229C359.521 133.121 356.5 147.812 351.77 161.989C347.08 176.139 341.09 189.989 332.95 202.519C330.914 205.664 328.694 208.686 326.3 211.569C323.912 214.49 321.186 217.118 318.18 219.399C316.645 220.537 314.963 221.462 313.18 222.149C311.35 222.874 309.348 223.047 307.42 222.649C306.943 222.531 306.478 222.37 306.03 222.169C305.803 222.073 305.583 221.963 305.37 221.839C305.15 221.719 304.94 221.589 304.79 221.529C304.447 221.393 304.066 221.385 303.717 221.506C303.369 221.627 303.075 221.869 302.89 222.189C302.424 222.874 302.225 223.706 302.33 224.529C302.365 224.925 302.487 225.31 302.685 225.655C302.884 226 303.155 226.298 303.48 226.529C303.566 226.594 303.625 226.689 303.646 226.796C303.666 226.902 303.646 227.012 303.591 227.105C303.535 227.198 303.447 227.267 303.344 227.299C303.24 227.331 303.128 227.324 303.03 227.279L303 227.269Z" fill="#66000A"/>
<path d="M345.11 177.279C344.416 176.956 343.852 176.407 343.511 175.723C343.169 175.038 343.07 174.257 343.23 173.509L350.12 153.959C350.58 152.669 352.12 152.259 353.65 153.059C354.344 153.382 354.908 153.93 355.249 154.615C355.591 155.3 355.69 156.08 355.53 156.829L348.64 176.379C348.18 177.669 346.6 178.079 345.11 177.279Z" fill="#66000A"/>
</g>
<defs>
<clipPath id="clip0">
<rect width="500" height="399" fill="white" transform="translate(0 0.538574)"/>
</clipPath>
</defs>
</svg>
